<svg width="210" height="120" viewBox="0 0 210 120" fill="none" xmlns="http://www.w3.org/2000/svg">
<path fill-rule="evenodd" clip-rule="evenodd" d="M253.113 -26.9646C252.991 -26.8219 253.053 -26.7052 253.249 -26.7052C253.446 -26.7052 253.706 -26.8219 253.828 -26.9646C253.949 -27.1073 253.888 -27.2241 253.691 -27.2241C253.494 -27.2241 253.234 -27.1073 253.113 -26.9646ZM238.28 -21.4922C238.28 -21.363 238.602 -21.2572 238.995 -21.2572C239.388 -21.2572 239.71 -21.302 239.71 -21.3565C239.71 -21.4113 239.388 -21.5171 238.995 -21.5918C238.602 -21.6663 238.28 -21.6217 238.28 -21.4922ZM259.01 -20.5798C259.01 -20.4119 259.384 -20.3432 259.904 -20.4153C261.064 -20.5764 261.064 -20.9539 259.904 -20.9054C259.413 -20.8849 259.01 -20.7383 259.01 -20.5798ZM246.076 -20.3017C246.334 -20.2267 246.642 -20.236 246.761 -20.3222C246.88 -20.4083 246.669 -20.4695 246.292 -20.4584C245.876 -20.4459 245.791 -20.3844 246.076 -20.3017ZM274.736 -19.7006C274.736 -19.5579 275.048 -19.4411 275.43 -19.4411C275.812 -19.4411 276.223 -19.5579 276.345 -19.7006C276.47 -19.8477 276.17 -19.96 275.651 -19.96C275.148 -19.96 274.736 -19.8433 274.736 -19.7006ZM233.991 -18.6628C233.991 -18.5202 234.162 -18.4034 234.37 -18.4034C234.578 -18.4034 234.649 -18.5202 234.527 -18.6628C234.406 -18.8055 234.235 -18.9223 234.149 -18.9223C234.062 -18.9223 233.991 -18.8055 233.991 -18.6628ZM235.257 -18.4213C235.144 -18.2885 235.215 -18.1066 235.415 -18.0169C235.615 -17.9274 235.778 -18.0361 235.778 -18.2584C235.778 -18.7142 235.564 -18.7811 235.257 -18.4213ZM239.71 -18.3881C239.71 -18.2371 239.87 -18.1855 240.067 -18.2737C240.264 -18.3619 240.424 -18.4854 240.424 -18.5484C240.424 -18.6115 240.264 -18.6628 240.067 -18.6628C239.87 -18.6628 239.71 -18.5391 239.71 -18.3881ZM230.059 -17.1063C230.059 -16.9636 230.22 -16.8468 230.417 -16.8468C230.613 -16.8468 230.774 -16.9636 230.774 -17.1063C230.774 -17.2489 230.613 -17.3657 230.417 -17.3657C230.22 -17.3657 230.059 -17.2489 230.059 -17.1063ZM225.056 -15.8091C225.056 -15.6664 225.387 -15.5497 225.792 -15.5497C226.196 -15.5497 226.428 -15.6664 226.307 -15.8091C226.185 -15.9518 225.854 -16.0685 225.571 -16.0685C225.287 -16.0685 225.056 -15.9518 225.056 -15.8091ZM242.224 -14.9123C241.828 -14.5657 241.92 -14.512 242.912 -14.512C243.67 -14.512 244.008 -14.6217 243.909 -14.8362C243.686 -15.3232 242.743 -15.3657 242.224 -14.9123ZM230.864 -14.8284C230.026 -14.7314 229.725 -14.2497 230.506 -14.2564C231.045 -14.2613 232.073 -14.7068 231.836 -14.8323C231.744 -14.8816 231.306 -14.8798 230.864 -14.8284ZM256.508 -14.1228C256.508 -13.8808 256.846 -13.7337 257.402 -13.7337C257.958 -13.7337 258.295 -13.8808 258.295 -14.1228C258.295 -14.3649 257.958 -14.512 257.402 -14.512C256.846 -14.512 256.508 -14.3649 256.508 -14.1228ZM273.07 -13.0695C272.802 -12.5618 273.125 -12.3304 273.827 -12.526C274.534 -12.7229 274.536 -13.1157 273.829 -13.3123C273.513 -13.4005 273.191 -13.2976 273.07 -13.0695ZM220.767 -12.9554C220.767 -12.8127 221.098 -12.6959 221.503 -12.6959C221.907 -12.6959 222.139 -12.8127 222.018 -12.9554C221.896 -13.0981 221.565 -13.2148 221.282 -13.2148C220.998 -13.2148 220.767 -13.0981 220.767 -12.9554ZM222.911 -12.6959C222.911 -12.5532 223.152 -12.4365 223.447 -12.4365C223.742 -12.4365 223.983 -12.5532 223.983 -12.6959C223.983 -12.8386 223.742 -12.9554 223.447 -12.9554C223.152 -12.9554 222.911 -12.8386 222.911 -12.6959ZM217.907 -11.7879C217.907 -11.55 218.08 -11.3975 218.292 -11.4486C218.503 -11.4997 218.676 -11.6522 218.676 -11.7879C218.676 -11.9236 218.503 -12.0762 218.292 -12.1273C218.08 -12.1784 217.907 -12.0258 217.907 -11.7879ZM291.356 -11.6582C291.478 -11.5155 291.648 -11.3988 291.735 -11.3988C291.822 -11.3988 291.892 -11.5155 291.892 -11.6582C291.892 -11.8009 291.722 -11.9176 291.514 -11.9176C291.306 -11.9176 291.235 -11.8009 291.356 -11.6582ZM212.74 -10.1195C212.627 -9.98669 212.698 -9.80484 212.898 -9.71508C213.324 -9.52388 213.976 -9.76671 213.976 -10.1169C213.976 -10.4327 213.008 -10.4347 212.74 -10.1195ZM227.468 -9.40401C226.612 -9.24161 226.677 -8.80447 227.558 -8.80447C227.951 -8.80447 228.391 -8.77542 228.535 -8.73962C228.68 -8.70381 228.853 -8.87919 228.919 -9.12876C229.038 -9.5781 228.712 -9.63983 227.468 -9.40401ZM216.835 -8.54504C216.835 -8.25967 216.93 -8.02618 217.047 -8.02618C217.163 -8.02618 217.667 -8.25967 218.167 -8.54504L219.076 -9.0639H217.956C217.073 -9.0639 216.835 -8.95365 216.835 -8.54504ZM239.62 -8.88515C238.706 -8.71159 238.856 -8.31103 239.948 -8.00957C241.034 -7.70993 241.732 -8.15642 241.075 -8.7308C240.68 -9.07688 240.649 -9.07998 239.62 -8.88515ZM211.653 -7.50732C211.531 -7.36463 211.602 -7.24789 211.81 -7.24789C212.018 -7.24789 212.189 -7.36463 212.189 -7.50732C212.189 -7.65001 212.118 -7.76675 212.031 -7.76675C211.944 -7.76675 211.774 -7.65001 211.653 -7.50732ZM254.185 -7.50732C253.858 -7.12362 254.312 -6.72903 255.079 -6.72903C255.953 -6.72903 256.382 -7.24192 255.75 -7.53223C255.092 -7.83498 254.455 -7.82461 254.185 -7.50732ZM208.257 -7.24789C207.799 -7.03308 207.812 -6.99573 208.346 -6.99235C208.69 -6.99028 209.088 -6.97963 209.231 -6.969C209.374 -6.95836 209.548 -7.0751 209.618 -7.22843C209.777 -7.57425 208.977 -7.58567 208.257 -7.24789ZM270.248 -6.70412C270.114 -6.54768 270.225 -6.26024 270.495 -6.06489C271.114 -5.61503 272.066 -5.99665 271.762 -6.57311C271.51 -7.04838 270.607 -7.12647 270.248 -6.70412ZM206.291 -6.4696C206.413 -6.32691 206.663 -6.21017 206.848 -6.21017C207.034 -6.21017 207.185 -6.32691 207.185 -6.4696C207.185 -6.61228 206.934 -6.72903 206.628 -6.72903C206.321 -6.72903 206.17 -6.61228 206.291 -6.4696ZM288.318 -6.21017C288.318 -6.06748 288.559 -5.95073 288.854 -5.95073C289.149 -5.95073 289.39 -6.06748 289.39 -6.21017C289.39 -6.35285 289.149 -6.4696 288.854 -6.4696C288.559 -6.4696 288.318 -6.35285 288.318 -6.21017ZM200.841 -4.58872C200.923 -4.41024 201.285 -4.26443 201.645 -4.26443C202.005 -4.26443 202.367 -4.41024 202.449 -4.58872C202.543 -4.79419 202.249 -4.91301 201.645 -4.91301C201.041 -4.91301 200.746 -4.79419 200.841 -4.58872ZM213.708 -3.68564C213.275 -3.57616 213.055 -2.57814 213.463 -2.57814C213.901 -2.57814 215.048 -3.12786 215.048 -3.33774C215.048 -3.62882 214.275 -3.82937 213.708 -3.68564ZM203.785 -3.09155C203.664 -2.9499 203.817 -2.76388 204.124 -2.67827C204.779 -2.49563 205.967 -2.77011 205.618 -3.02332C205.212 -3.31855 204.016 -3.36291 203.785 -3.09155ZM224.31 -2.94082C223.993 -2.66323 223.979 -2.47748 224.26 -2.27331C224.754 -1.91503 225.77 -2.18328 225.77 -2.67205C225.77 -3.21244 224.821 -3.3873 224.31 -2.94082ZM200.93 -2.57814C200.809 -2.43545 200.96 -2.3187 201.266 -2.3187C201.573 -2.3187 201.824 -2.43545 201.824 -2.57814C201.824 -2.72082 201.672 -2.83757 201.487 -2.83757C201.302 -2.83757 201.052 -2.72082 200.93 -2.57814ZM236.94 -2.14696C236.298 -1.95914 236.389 -1.36529 237.089 -1.17046C237.841 -0.961095 238.442 -1.37774 238.16 -1.91217C237.939 -2.33011 237.713 -2.37345 236.94 -2.14696ZM284.468 -2.0105C284.689 -1.52952 285.459 -1.44987 285.459 -1.90802C285.459 -2.13399 285.204 -2.3187 284.893 -2.3187C284.582 -2.3187 284.391 -2.18017 284.468 -2.0105ZM195.479 -1.89298C194.536 -1.60475 195.093 -1.25322 196.373 -1.33027C197.11 -1.37438 197.678 -1.52744 197.635 -1.67013C197.547 -1.96043 196.167 -2.10312 195.479 -1.89298ZM250.496 -0.956691C250.618 -0.336393 252.02 0.00502043 252.63 -0.437309C253.246 -0.884826 252.54 -1.54041 251.441 -1.54041C250.548 -1.54041 250.4 -1.44935 250.496 -0.956691ZM266.876 -1.02804C266.468 -0.840994 266.441 -0.712309 266.763 -0.47908C267.267 -0.112764 268.421 -0.375305 268.221 -0.810888C268.026 -1.23532 267.51 -1.31861 266.876 -1.02804ZM190.029 0.275605C190.029 0.418291 190.27 0.535034 190.565 0.535034C190.86 0.535034 191.101 0.418291 191.101 0.275605C191.101 0.132918 190.86 0.0161727 190.565 0.0161727C190.27 0.0161727 190.029 0.132918 190.029 0.275605ZM278.847 0.535034C278.491 0.9522 278.999 1.31333 279.94 1.31333C280.574 1.31333 280.812 1.17168 280.812 0.794466C280.812 0.417254 280.574 0.275605 279.94 0.275605C279.46 0.275605 278.968 0.392348 278.847 0.535034ZM191.816 2.45043C191.816 2.86863 193.15 3.19213 193.445 2.84553C193.757 2.47973 193.275 2.09162 192.51 2.09162C192.128 2.09162 191.816 2.25326 191.816 2.45043ZM200.037 2.46338C200.037 2.88625 201.268 3.24867 201.838 2.99339C202.378 2.75082 201.552 2.09162 200.708 2.09162C200.339 2.09162 200.037 2.25895 200.037 2.46338ZM272.345 2.51604C272.081 3.01545 272.633 3.74732 273.352 3.85032C273.629 3.89001 274.155 3.76416 274.521 3.57036C275.072 3.27746 275.114 3.12286 274.769 2.65485C274.273 1.98162 272.676 1.89004 272.345 2.51604ZM286.174 2.35105C286.174 2.49374 286.344 2.61048 286.552 2.61048C286.76 2.61048 286.831 2.49374 286.71 2.35105C286.588 2.20836 286.418 2.09162 286.331 2.09162C286.244 2.09162 286.174 2.20836 286.174 2.35105ZM210.083 2.96511C209.775 3.23544 209.81 3.39968 210.234 3.6547C210.917 4.06615 211.679 3.63238 211.354 3.01701C211.089 2.51631 210.619 2.4971 210.083 2.96511ZM262.495 2.8048C261.714 2.93374 261.673 3.79738 262.438 4.01037C263.195 4.22129 263.657 3.98572 263.657 3.38877C263.657 2.81517 263.354 2.66315 262.495 2.8048ZM184.58 3.01961C184.219 3.28241 184.703 3.90764 185.268 3.90764C185.565 3.90764 185.742 3.72033 185.677 3.47516C185.553 3.01078 184.942 2.75706 184.58 3.01961ZM220.979 3.80854C220.849 4.05345 220.899 4.36658 221.088 4.50434C221.605 4.87922 222.624 4.49421 222.487 3.97639C222.326 3.36906 221.273 3.25207 220.979 3.80854ZM265.354 3.92838C264.495 4.29158 264.559 5.53193 265.468 6.12889C266.143 6.57225 266.29 6.58055 267.163 6.22487C268.339 5.74571 268.541 5.11841 267.788 4.28408C267.18 3.6106 266.382 3.49383 265.354 3.92838ZM233.366 4.09727C232.81 4.23762 232.788 4.74664 233.32 5.13268C233.864 5.52753 234.706 5.25616 234.706 4.68593C234.706 4.18678 234.086 3.91463 233.366 4.09727ZM246.506 4.23192C246.515 4.77958 247.114 5.28105 247.533 5.09297C248.231 4.77983 247.997 3.90764 247.215 3.90764C246.822 3.90764 246.503 4.05369 246.506 4.23192ZM178.83 4.85896C178.377 5.18767 178.594 5.46422 179.306 5.46422C179.703 5.46422 180.021 5.29118 180.021 5.07507C180.021 4.68022 179.265 4.54298 178.83 4.85896ZM255.664 6.1128C255.337 6.73232 255.821 7.33549 256.537 7.19954C257.083 7.09603 257.174 7.23147 257.127 8.08266C257.036 9.73627 259.272 10.4845 260.783 9.30666C261.675 8.61216 261.694 8.23392 260.887 7.23381C260.346 6.56344 260.104 6.47678 259.099 6.59378C258.125 6.70716 257.938 6.648 257.938 6.22617C257.938 5.84481 257.688 5.72365 256.904 5.72365C256.314 5.72365 255.781 5.89099 255.664 6.1128ZM138.918 6.24251C138.918 6.3852 139.079 6.50194 139.276 6.50194C139.472 6.50194 139.633 6.3852 139.633 6.24251C139.633 6.09982 139.472 5.98308 139.276 5.98308C139.079 5.98308 138.918 6.09982 138.918 6.24251ZM281.036 6.44953C280.734 6.80417 281.307 7.1474 282.331 7.22523C283.463 7.3111 283.532 7.21617 282.753 6.65009C282.148 6.21139 281.321 6.11461 281.036 6.44953ZM280.058 6.95595C279.922 7.62528 280.253 8.47466 280.758 8.75407C281.47 9.14659 282.6 9.19743 282.6 8.83682C282.6 8.69414 282.296 8.57739 281.924 8.57739C281.436 8.57739 281.185 8.32652 281.015 7.66938C280.81 6.8789 280.171 6.4018 280.058 6.95595ZM180.267 7.1884C179.776 7.54485 180.031 8.09538 180.647 8.00925C180.991 7.961 181.272 7.75783 181.272 7.55781C181.272 7.14817 180.642 6.91651 180.267 7.1884ZM131.798 7.69092C131.816 7.99315 131.9 8.05464 132.014 7.84787C132.118 7.66056 132.105 7.43667 131.986 7.35054C131.867 7.26441 131.783 7.41748 131.798 7.69092ZM173.804 7.69272C173.684 7.91972 173.671 8.2064 173.777 8.33015C174.098 8.70762 175.017 8.29356 175.017 7.77133C175.017 7.17567 174.108 7.11678 173.804 7.69272ZM187.498 7.55265C187.126 7.71946 187.101 7.85305 187.399 8.06967C187.868 8.40979 189.523 8.30552 189.43 7.9418C189.332 7.55914 188.056 7.30204 187.498 7.55265ZM247.962 7.90132C247.718 8.11484 247.571 8.55844 247.635 8.88739C247.723 9.34088 248.011 9.50174 248.824 9.5531C250.445 9.65506 251.017 9.28121 250.591 8.39811C250.186 7.55755 248.68 7.27298 247.962 7.90132ZM241.378 8.23157C241.247 8.32652 241.139 8.67466 241.139 9.00492C241.139 9.42883 240.877 9.65299 240.246 9.76791C239.552 9.89425 239.352 10.0976 239.352 10.6749C239.352 12.2343 242.64 12.7381 243.152 11.257C243.326 10.7535 243.215 10.4795 242.73 10.2224C242.219 9.9508 242.167 9.80321 242.499 9.56219C243.103 9.12349 243.029 8.40203 242.361 8.21602C241.661 8.02093 241.668 8.02091 241.378 8.23157ZM196.823 8.704C196.465 9.01765 196.495 9.12167 196.982 9.25735C197.686 9.45348 198.437 9.00805 198.09 8.59997C197.76 8.21264 197.346 8.24663 196.823 8.704ZM123.744 9.33779C123.63 9.47062 123.701 9.65247 123.901 9.74223C124.101 9.83173 124.264 9.72302 124.264 9.50069C124.264 9.04487 124.05 8.97796 123.744 9.33779ZM168.584 9.46387C168.584 9.68957 168.838 9.87454 169.15 9.87454C169.461 9.87454 169.652 9.73601 169.574 9.5666C169.353 9.08535 168.584 9.00571 168.584 9.46387ZM206.47 9.96094C206.47 10.4995 206.893 10.677 207.42 10.3594C208.113 9.942 208.009 9.61511 207.185 9.61511C206.792 9.61511 206.47 9.77077 206.47 9.96094ZM228.734 9.90283C228.167 10.314 228.567 10.9123 229.408 10.9123C229.924 10.9123 230.079 10.7639 229.995 10.3488C229.86 9.68568 229.304 9.48903 228.734 9.90283ZM217.192 10.5231C217.192 11.2485 218.058 11.4171 218.406 10.7592C218.678 10.2461 218.384 9.87454 217.707 9.87454C217.397 9.87454 217.192 10.1314 217.192 10.5231ZM164.295 10.6222C164.295 10.7649 164.456 10.9538 164.652 11.042C164.849 11.1302 165.01 11.0856 165.01 10.9429C165.01 10.8002 164.849 10.6113 164.652 10.5231C164.456 10.4349 164.295 10.4795 164.295 10.6222ZM116.759 11.0573C116.759 11.2796 116.922 11.3883 117.122 11.2988C117.322 11.2091 117.393 11.0272 117.279 10.8944C116.973 10.5345 116.759 10.6015 116.759 11.0573ZM128.553 11.4464C128.553 11.5974 128.714 11.649 128.911 11.5608C129.107 11.4726 129.268 11.3492 129.268 11.2861C129.268 11.2231 129.107 11.1717 128.911 11.1717C128.714 11.1717 128.553 11.2954 128.553 11.4464ZM234.412 11.5048C233.851 11.9957 234.693 12.818 235.623 12.6881C236.62 12.5487 236.574 11.3284 235.568 11.2241C235.158 11.1816 234.638 11.3079 234.412 11.5048ZM249.948 12.3267C248.81 13.0925 248.754 13.7258 249.743 14.639C250.719 15.5397 252.469 15.5652 253.76 14.6971C254.582 14.144 254.65 13.9712 254.349 13.2054C253.72 11.6029 251.641 11.1878 249.948 12.3267ZM169.101 12.232C168.753 12.6401 169.504 13.0855 170.208 12.8894C170.696 12.7537 170.726 12.6497 170.367 12.336C169.845 11.8787 169.431 11.8447 169.101 12.232ZM163.223 12.5986C163.223 12.8658 163.457 12.9929 163.848 12.9384C164.602 12.8331 164.554 12.3726 163.778 12.2553C163.454 12.2063 163.223 12.3493 163.223 12.5986ZM160.899 12.7283C160.778 12.871 160.849 12.9877 161.057 12.9877C161.265 12.9877 161.436 12.871 161.436 12.7283C161.436 12.5856 161.365 12.4689 161.278 12.4689C161.191 12.4689 161.021 12.5856 160.899 12.7283ZM232.025 12.7789C230.409 13.444 230.299 14.7106 231.788 15.5094C232.731 16.016 232.877 16.0262 233.92 15.6596C234.536 15.4432 235.134 15.0497 235.25 14.7853C235.485 14.2488 234.887 13.2835 234.022 12.8014C233.318 12.4089 232.934 12.4048 232.025 12.7789ZM158.934 13.2471C158.934 13.7315 159.029 13.8005 159.363 13.5585C159.696 13.3164 159.696 13.1779 159.363 12.9358C159.029 12.6938 158.934 12.7628 158.934 13.2471ZM176.154 13.312C176.217 13.6329 176.429 13.8957 176.626 13.8957C176.822 13.8957 177.035 13.6329 177.098 13.312C177.176 12.9104 177.029 12.7283 176.626 12.7283C176.223 12.7283 176.076 12.9104 176.154 13.312ZM110.146 13.2471C110.268 13.3898 110.519 13.5066 110.704 13.5066C110.889 13.5066 111.04 13.3898 111.04 13.2471C111.04 13.1045 110.789 12.9877 110.483 12.9877C110.176 12.9877 110.025 13.1045 110.146 13.2471ZM226.337 13.7299C226.009 14.1152 226.711 15.2305 227.403 15.4232C228.219 15.6505 229.406 14.8541 229.271 14.1694C229.191 13.7606 228.861 13.6179 227.859 13.5571C227.14 13.5138 226.455 13.5914 226.337 13.7299ZM154.645 14.1551C154.645 14.3692 154.806 14.5443 155.002 14.5443C155.199 14.5443 155.36 14.3692 155.36 14.1551C155.36 13.9411 155.199 13.766 155.002 13.766C154.806 13.766 154.645 13.9411 154.645 14.1551ZM183.663 14.2172C183.842 14.8932 185.025 14.9687 185.025 14.3038C185.025 13.9326 184.796 13.766 184.284 13.766C183.773 13.766 183.58 13.9058 183.663 14.2172ZM222.879 14.1832C222.474 14.5373 222.503 14.6538 223.067 14.9532C223.906 15.3986 224.341 15.2097 224.341 14.3993C224.341 13.6718 223.591 13.5608 222.879 14.1832ZM113.542 14.5443C113.542 14.687 113.712 14.8037 113.92 14.8037C114.128 14.8037 114.2 14.687 114.078 14.5443C113.957 14.4016 113.786 14.2849 113.7 14.2849C113.613 14.2849 113.542 14.4016 113.542 14.5443ZM275.153 14.7389C274.002 15.451 273.997 16.4836 275.141 17.3747C275.74 17.8414 276.141 17.9343 277.017 17.8092C279.043 17.5207 279.629 16.2085 278.284 14.9685C277.425 14.1751 276.209 14.0859 275.153 14.7389ZM103.892 15.1612C103.892 15.4199 104.19 15.582 104.666 15.582C105.092 15.582 105.374 15.5491 105.292 15.5086C105.21 15.4681 104.861 15.2787 104.517 15.0878C103.982 14.7902 103.892 14.8009 103.892 15.1612ZM124.622 15.0632C124.622 15.2058 124.783 15.3226 124.979 15.3226C125.176 15.3226 125.337 15.2058 125.337 15.0632C125.337 14.9205 125.176 14.8037 124.979 14.8037C124.783 14.8037 124.622 14.9205 124.622 15.0632ZM193.134 15.2307C192.668 15.569 192.89 15.8415 193.633 15.8415C194.049 15.8415 194.315 15.7055 194.236 15.5335C194.062 15.1542 193.465 14.9903 193.134 15.2307ZM212.189 16.0576C212.189 16.6698 212.489 16.8786 213.117 16.7038C213.908 16.4835 213.736 15.582 212.903 15.582C212.448 15.582 212.189 15.7551 212.189 16.0576ZM217.718 16.206C217.408 16.5489 216.761 16.9015 216.28 16.9892C215.653 17.1033 215.405 17.3267 215.405 17.7768C215.405 18.6085 215.972 18.8254 216.94 18.3649C217.494 18.1014 217.896 18.0666 218.293 18.2484C218.685 18.428 219.175 18.3956 219.901 18.1421C220.763 17.8412 220.925 17.6419 220.83 17.0039C220.619 15.589 218.715 15.1008 217.718 16.206ZM153.27 16.2145C153.338 16.4524 153.555 16.641 153.751 16.6335C154.282 16.613 154.184 16.0327 153.628 15.898C153.327 15.8254 153.193 15.9439 153.27 16.2145ZM148.637 16.3798C148.708 16.5331 148.918 16.6587 149.105 16.6587C149.291 16.6587 149.502 16.5331 149.572 16.3798C149.643 16.2264 149.433 16.1009 149.105 16.1009C148.777 16.1009 148.567 16.2264 148.637 16.3798ZM202.259 16.4003C202.444 16.8045 203.244 16.875 203.272 16.49C203.283 16.3473 203.023 16.1904 202.695 16.1408C202.322 16.0851 202.159 16.1821 202.259 16.4003ZM158.64 16.7632C158.801 17.3267 159.436 17.3612 159.581 16.8143C159.656 16.5302 159.481 16.3603 159.112 16.3603C158.769 16.3603 158.572 16.5282 158.64 16.7632ZM107.108 16.8792C107.108 17.0219 107.279 17.1386 107.487 17.1386C107.695 17.1386 107.766 17.0219 107.645 16.8792C107.523 16.7365 107.353 16.6197 107.266 16.6197C107.179 16.6197 107.108 16.7365 107.108 16.8792ZM117.116 16.8792C117.116 17.0219 117.277 17.1386 117.473 17.1386C117.67 17.1386 117.831 17.0219 117.831 16.8792C117.831 16.7365 117.67 16.6197 117.473 16.6197C117.277 16.6197 117.116 16.7365 117.116 16.8792ZM145.223 16.7998C144.82 17.0919 144.978 17.398 145.531 17.398C145.825 17.398 146.067 17.2883 146.067 17.1539C146.067 16.8268 145.508 16.5925 145.223 16.7998ZM98.5304 17.8025C98.5304 18.0248 98.6938 18.1335 98.8936 18.044C99.0934 17.9543 99.1645 17.7724 99.0512 17.6396C98.7449 17.2797 98.5304 17.3467 98.5304 17.8025ZM165.01 17.9169C165.01 18.2023 165.171 18.4358 165.367 18.4358C165.564 18.4358 165.725 18.2023 165.725 17.9169C165.725 17.6315 165.564 17.398 165.367 17.398C165.171 17.398 165.01 17.6315 165.01 17.9169ZM223.138 18.3413C222.007 19.1624 222.002 19.2174 222.918 20.5216C223.714 21.6537 224.425 21.7988 226.1 21.1702C227.265 20.733 227.69 19.8868 227.136 19.1072C225.995 17.5023 224.65 17.2447 223.138 18.3413ZM139.164 18.6033C138.673 18.9598 138.928 19.5103 139.544 19.4242C139.888 19.376 140.169 19.1728 140.169 18.9728C140.169 18.5631 139.539 18.3315 139.164 18.6033ZM100.675 18.9546C100.675 19.0973 100.836 19.2141 101.032 19.2141C101.229 19.2141 101.39 19.0973 101.39 18.9546C101.39 18.8119 101.229 18.6952 101.032 18.6952C100.836 18.6952 100.675 18.8119 100.675 18.9546ZM135.698 19.0872C135.339 19.4014 135.361 19.4735 135.816 19.4735C136.483 19.4735 136.919 19.0503 136.463 18.8457C136.285 18.766 135.942 18.8747 135.698 19.0872ZM207.925 19.4852C206.605 19.9379 205.754 20.383 205.841 20.5753C206.023 20.9797 208.896 22.0317 209.875 22.0525C211.649 22.0899 212.669 20.8692 211.823 19.7218C211.083 18.7188 210.296 18.6711 207.925 19.4852ZM143.421 19.1456C143.038 19.4239 143.196 19.7329 143.722 19.7329C144.006 19.7329 144.326 19.6284 144.435 19.5007C144.662 19.2335 143.743 18.9115 143.421 19.1456ZM172.337 19.2141C172.194 19.3816 172.238 19.6354 172.435 19.778C172.673 19.9511 172.879 19.936 173.052 19.7329C173.194 19.5653 173.15 19.3116 172.954 19.1689C172.715 18.9959 172.51 19.0109 172.337 19.2141ZM92.9905 20.2518C93.112 20.3945 93.3722 20.5112 93.5688 20.5112C93.7654 20.5112 93.8269 20.3945 93.7053 20.2518C93.5838 20.1091 93.3236 19.9923 93.127 19.9923C92.9304 19.9923 92.869 20.1091 92.9905 20.2518ZM148.569 20.5112C148.569 20.7966 148.729 21.0301 148.926 21.0301C149.123 21.0301 149.283 20.7966 149.283 20.5112C149.283 20.2258 149.123 19.9923 148.926 19.9923C148.729 19.9923 148.569 20.2258 148.569 20.5112ZM242.926 20.5112C241.402 21.6179 242.631 23.8838 244.756 23.8838C246.014 23.8838 247.573 22.8715 247.573 22.0548C247.573 21.7492 247.24 21.1603 246.834 20.7457C245.922 19.8167 244.039 19.7036 242.926 20.5112ZM180.021 20.9004C180.021 21.2571 180.182 21.5489 180.379 21.5489C180.575 21.5489 180.736 21.2571 180.736 20.9004C180.736 20.5436 180.575 20.2518 180.379 20.2518C180.182 20.2518 180.021 20.5436 180.021 20.9004ZM94.9563 21.0148C94.9563 21.1492 95.1171 21.331 95.3137 21.4192C95.5103 21.5074 95.6711 21.3974 95.6711 21.1751C95.6711 20.9527 95.5103 20.7706 95.3137 20.7706C95.1171 20.7706 94.9563 20.8804 94.9563 21.0148ZM126.409 21.1598C126.409 21.3738 126.553 21.5489 126.728 21.5489C126.904 21.5489 127.14 21.3738 127.253 21.1598C127.378 20.9227 127.253 20.7706 126.934 20.7706C126.645 20.7706 126.409 20.9458 126.409 21.1598ZM129.626 21.1598C129.626 21.3977 129.799 21.5502 130.01 21.4991C130.221 21.448 130.394 21.2955 130.394 21.1598C130.394 21.0241 130.221 20.8716 130.01 20.8205C129.799 20.7693 129.626 20.9219 129.626 21.1598ZM121.048 21.2895C121.048 21.4322 121.208 21.5489 121.405 21.5489C121.602 21.5489 121.762 21.4322 121.762 21.2895C121.762 21.1468 121.602 21.0301 121.405 21.0301C121.208 21.0301 121.048 21.1468 121.048 21.2895ZM123.394 21.2623C123.285 21.3902 123.437 21.5614 123.73 21.6434C124.055 21.7336 124.264 21.6426 124.264 21.4112C124.264 20.9914 123.706 20.8959 123.394 21.2623ZM197.305 22.3983C197.468 23.9692 197.957 24.6621 198.901 24.6621C199.339 24.6621 199.369 24.7314 199.036 24.9734C198.396 25.438 198.515 26.3359 199.356 27.37C199.998 28.16 200.24 28.2682 201.054 28.1283C202.627 27.8575 203.254 27.2821 203.247 26.1136C203.239 24.7412 201.92 23.6892 200.768 24.1367C199.972 24.446 199.783 24.1715 200.456 23.6833C201.099 23.2163 200.28 22.1685 199.104 21.9542C198.56 21.8551 197.898 21.5775 197.632 21.3372C197.217 20.961 197.171 21.1087 197.305 22.3983ZM188.086 21.7811C187.848 22.0605 188.6 22.2958 189.225 22.1376C189.471 22.0756 189.671 21.9176 189.671 21.7868C189.671 21.4804 188.346 21.4758 188.086 21.7811ZM133.394 22.0499C133.281 22.1827 133.352 22.3646 133.551 22.4543C133.978 22.6455 134.629 22.4027 134.629 22.0525C134.629 21.7368 133.662 21.7347 133.394 22.0499ZM154.287 22.219C154.287 22.445 154.478 22.5838 154.712 22.5272C155.375 22.3669 155.484 21.8084 154.853 21.8084C154.542 21.8084 154.287 21.9933 154.287 22.219ZM97.1008 22.3272C97.1008 22.4699 97.2713 22.5867 97.4793 22.5867C97.6873 22.5867 97.7584 22.4699 97.6369 22.3272C97.5154 22.1845 97.3453 22.0678 97.2584 22.0678C97.1715 22.0678 97.1008 22.1845 97.1008 22.3272ZM87.4506 22.8461C87.4506 22.9888 87.6114 23.1055 87.808 23.1055C88.0045 23.1055 88.1654 22.9888 88.1654 22.8461C88.1654 22.7034 88.0045 22.5867 87.808 22.5867C87.6114 22.5867 87.4506 22.7034 87.4506 22.8461ZM110.683 22.9758C110.683 23.1898 110.843 23.3649 111.04 23.3649C111.237 23.3649 111.397 23.1898 111.397 22.9758C111.397 22.7618 111.237 22.5867 111.04 22.5867C110.843 22.5867 110.683 22.7618 110.683 22.9758ZM112.827 22.9911C112.827 23.2134 112.99 23.3221 113.19 23.2326C113.39 23.1429 113.461 22.961 113.348 22.8282C113.042 22.4684 112.827 22.5353 112.827 22.9911ZM114.614 22.9758C114.614 23.1898 114.855 23.3649 115.15 23.3649C115.445 23.3649 115.686 23.1898 115.686 22.9758C115.686 22.7618 115.445 22.5867 115.15 22.5867C114.855 22.5867 114.614 22.7618 114.614 22.9758ZM116.993 22.9867C117.227 23.4295 117.886 23.3751 118.106 22.8949C118.185 22.7236 117.922 22.5867 117.515 22.5867C117.001 22.5867 116.844 22.7062 116.993 22.9867ZM119.832 23.037C119.401 23.3491 119.636 23.6244 120.333 23.6244C120.726 23.6244 121.048 23.5201 121.048 23.3927C121.048 23.1011 120.118 22.8289 119.832 23.037ZM138.382 23.6244C138.261 23.7671 138.271 24.013 138.406 24.171C138.646 24.453 139.257 24.0208 139.27 23.5595C139.278 23.2752 138.64 23.3219 138.382 23.6244ZM161.078 24.1585C161.078 24.4522 161.239 24.6206 161.436 24.5324C161.632 24.4442 161.793 24.204 161.793 23.9982C161.793 23.7925 161.632 23.6244 161.436 23.6244C161.239 23.6244 161.078 23.8649 161.078 24.1585ZM106.394 24.418C106.394 24.7116 106.554 24.88 106.751 24.7918C106.948 24.7036 107.108 24.4634 107.108 24.2577C107.108 24.0519 106.948 23.8838 106.751 23.8838C106.554 23.8838 106.394 24.1243 106.394 24.418ZM107.823 24.2577C107.823 24.4634 107.991 24.7067 108.196 24.7988C108.658 25.0058 109.676 24.4299 109.407 24.1139C109.086 23.738 107.823 23.8527 107.823 24.2577ZM123.55 24.4027C123.55 24.7371 123.73 24.921 123.996 24.8567C124.242 24.7973 124.443 24.5928 124.443 24.4027C124.443 24.2125 124.242 24.0081 123.996 23.9487C123.73 23.8843 123.55 24.0683 123.55 24.4027ZM104.607 24.3874C104.607 24.5218 104.767 24.7036 104.964 24.7918C105.161 24.88 105.321 24.77 105.321 24.5477C105.321 24.3253 105.161 24.1432 104.964 24.1432C104.767 24.1432 104.607 24.253 104.607 24.3874ZM91.3821 24.8071C91.3821 25.0294 91.5455 25.1382 91.7453 25.0486C91.9451 24.9589 92.0162 24.777 91.9029 24.6442C91.5966 24.2844 91.3821 24.3513 91.3821 24.8071ZM101.747 24.6621C101.747 24.8048 101.908 24.9215 102.105 24.9215C102.301 24.9215 102.462 24.8048 102.462 24.6621C102.462 24.5194 102.301 24.4027 102.105 24.4027C101.908 24.4027 101.747 24.5194 101.747 24.6621ZM110.683 24.7918C110.683 25.0058 110.924 25.181 111.219 25.181C111.514 25.181 111.755 25.0058 111.755 24.7918C111.755 24.5778 111.514 24.4027 111.219 24.4027C110.924 24.4027 110.683 24.5778 110.683 24.7918ZM188.202 25.3527C187.576 25.4744 186.812 26.4947 186.812 27.211C186.812 27.9927 187.865 28.813 188.868 28.813C190.04 28.813 191.816 27.6243 191.816 26.8398C191.816 26.4626 191.397 26.0732 190.612 25.7211C189.396 25.1753 189.24 25.1514 188.202 25.3527ZM93.1692 25.6503C93.1692 25.9151 94.5242 26.7375 94.9602 26.7375C95.1546 26.7375 95.3137 26.6208 95.3137 26.4781C95.3137 26.3354 95.0724 26.2187 94.7776 26.2187C94.4827 26.2187 94.2415 26.1144 94.2415 25.987C94.2415 25.8596 94.0002 25.6881 93.7053 25.6059C93.4105 25.5239 93.1692 25.5439 93.1692 25.6503ZM99.0666 25.6171C97.1029 25.9372 96.0285 26.2947 96.0285 26.6281C96.0285 27.0626 96.4492 27.1067 96.9725 26.7269C97.1773 26.5783 98.1344 26.4319 99.0991 26.4021C100.064 26.372 100.813 26.2599 100.764 26.1533C100.715 26.0467 100.675 25.8425 100.675 25.6998C100.675 25.4331 100.31 25.4145 99.0666 25.6171ZM143.759 25.9414C143.494 26.2519 144.167 26.5593 144.643 26.3458C145.043 26.1665 144.78 25.6998 144.28 25.6998C144.106 25.6998 143.872 25.8085 143.759 25.9414ZM167.869 26.2187C167.869 26.3614 168.11 26.4781 168.405 26.4781C168.7 26.4781 168.941 26.3614 168.941 26.2187C168.941 26.076 168.7 25.9593 168.405 25.9593C168.11 25.9593 167.869 26.076 167.869 26.2187ZM101.747 26.7375C101.747 27.0834 101.986 27.2564 102.462 27.2564C103.31 27.2564 103.421 26.6019 102.611 26.3762C101.792 26.1479 101.747 26.1663 101.747 26.7375ZM114.023 26.619C113.906 26.8392 113.904 27.087 114.018 27.17C114.379 27.4318 115.329 27.0302 115.329 26.6159C115.329 26.098 114.297 26.1006 114.023 26.619ZM128.434 26.3917C127.999 26.7077 128.188 27.2564 128.732 27.2564C129.03 27.2564 129.268 27.0258 129.268 26.7375C129.268 26.2208 128.887 26.0628 128.434 26.3917ZM215.261 26.8683C214.432 27.3239 214.408 28.5909 215.212 29.4816C216.57 30.9862 220.02 29.7283 219.488 27.9221C219.36 27.4847 219.092 26.9809 218.894 26.8024C218.408 26.3642 216.103 26.406 215.261 26.8683ZM270.568 27.0442C269.513 27.4144 269.337 28.1071 270.038 29.1259C271.23 30.8578 274.742 30.0845 274.233 28.2023C273.872 26.8683 272.396 26.4021 270.568 27.0442ZM90.4225 27.1651C90.8081 27.4453 89.1883 28.2941 88.2683 28.2941C87.7862 28.2941 87.5052 28.408 87.6293 28.5536C87.9867 28.9736 89.486 28.8527 91.2073 28.2656C93.1957 27.5872 93.3322 26.997 91.5012 26.997C90.7806 26.997 90.2949 27.0727 90.4225 27.1651ZM85.8422 27.5158C85.7207 27.6585 85.8815 27.7753 86.1996 27.7753C86.5177 27.7753 86.6785 27.6585 86.557 27.5158C86.4355 27.3732 86.2747 27.2564 86.1996 27.2564C86.1245 27.2564 85.9637 27.3732 85.8422 27.5158ZM182.881 27.6456C182.881 27.8596 183.041 28.0347 183.238 28.0347C183.435 28.0347 183.595 27.8596 183.595 27.6456C183.595 27.4315 183.435 27.2564 183.238 27.2564C183.041 27.2564 182.881 27.4315 182.881 27.6456ZM93.1692 28.1644C93.1692 28.3805 93.4869 28.5536 93.884 28.5536C94.2811 28.5536 94.5989 28.3805 94.5989 28.1644C94.5989 27.9483 94.2811 27.7753 93.884 27.7753C93.4869 27.7753 93.1692 27.9483 93.1692 28.1644ZM104.607 28.2941C105.067 28.9186 105.525 28.9596 105.819 28.4026C106.139 27.7968 106.116 27.7753 105.13 27.7753C104.335 27.7753 104.271 27.8386 104.607 28.2941ZM149.998 28.5536C149.998 28.6962 150.159 28.813 150.356 28.813C150.552 28.813 150.713 28.6962 150.713 28.5536C150.713 28.4109 150.552 28.2941 150.356 28.2941C150.159 28.2941 149.998 28.4109 149.998 28.5536ZM83.3092 29.2C82.9882 29.5557 82.8167 30.0191 82.9278 30.2295C83.0393 30.4401 82.9764 30.6814 82.7884 30.7657C82.372 30.9525 82.3324 31.6667 82.7384 31.6667C82.8989 31.6667 83.3967 31.193 83.8453 30.6137C84.5987 29.6406 84.6967 29.5965 85.1402 30.03C85.5866 30.4666 85.6613 30.4694 86.22 30.0702C86.9337 29.5599 86.5688 28.9757 85.6463 29.1508C85.2871 29.219 84.9093 29.1129 84.8042 28.9139C84.5176 28.3717 83.9607 28.4783 83.3092 29.2ZM117.831 28.813C117.831 28.9557 118.153 29.0724 118.546 29.0724C118.939 29.0724 119.261 28.9557 119.261 28.813C119.261 28.6703 118.939 28.5536 118.546 28.5536C118.153 28.5536 117.831 28.6703 117.831 28.813ZM179.383 28.8433C178.397 29.1077 178.363 29.8795 179.308 30.5003C179.922 30.9035 180.163 30.9248 180.996 30.6492C181.672 30.4259 182.007 30.4134 182.097 30.6083C182.28 31.0067 183.483 30.9562 183.703 30.5406C183.804 30.3494 183.745 30.0282 183.573 29.8271C183.322 29.5347 183.121 29.5238 182.568 29.7726C181.969 30.0419 181.849 30.0027 181.668 29.4792C181.428 28.7863 180.528 28.5356 179.383 28.8433ZM133.736 29.0724C133.593 29.24 133.637 29.4937 133.834 29.6364C134.072 29.8095 134.278 29.7944 134.451 29.5913C134.593 29.4237 134.549 29.17 134.353 29.0273C134.114 28.8543 133.909 28.8693 133.736 29.0724ZM95.8305 29.6139C95.5185 29.9802 96.2076 30.4803 96.7123 30.2539C97.2791 29.9996 97.1876 29.3319 96.5857 29.3319C96.3023 29.3319 95.9628 29.4587 95.8305 29.6139ZM76.4132 30.7019C75.8263 31.1279 75.9257 31.9262 76.5655 31.9262C77.0033 31.9262 77.0691 32.1148 76.8832 32.8342C76.6938 33.5668 76.7599 33.7422 77.2245 33.7422C77.6559 33.7422 77.8003 33.4874 77.8003 32.726C77.8003 32.1672 77.9465 31.6711 78.1249 31.6234C78.3036 31.5759 78.5048 31.3186 78.5716 31.0516C78.6624 30.6915 78.4512 30.5462 77.7535 30.4889C77.2363 30.4464 76.6334 30.5421 76.4132 30.7019ZM108.717 30.629C108.456 30.9351 108.794 31.4073 109.274 31.4073C109.459 31.4073 109.61 31.1738 109.61 30.8884C109.61 30.3413 109.09 30.1903 108.717 30.629ZM86.9659 31.0143C86.8379 31.2563 86.967 31.488 87.2779 31.5746C88.0185 31.7809 88.9692 31.4724 88.7927 31.0828C88.5696 30.5914 87.2164 30.5405 86.9659 31.0143ZM178.124 31.3295C177.027 31.536 176.69 32.644 177.44 33.579C178.243 34.5796 179.229 34.7138 180.489 33.9944C181.573 33.3751 181.716 32.576 180.894 31.7246C180.363 31.1736 179.562 31.0591 178.124 31.3295ZM123.192 31.7964C123.192 32.0105 123.353 32.1856 123.55 32.1856C123.746 32.1856 123.907 32.0105 123.907 31.7964C123.907 31.5824 123.746 31.4073 123.55 31.4073C123.353 31.4073 123.192 31.5824 123.192 31.7964ZM175.804 31.9923C175.471 32.2842 175.453 32.4492 175.739 32.5776C176.268 32.815 176.538 32.5898 176.389 32.0359C176.281 31.6304 176.222 31.6263 175.804 31.9923ZM99.2453 32.445C99.2453 32.8357 99.4318 32.9758 99.8708 32.9146C100.215 32.8664 100.496 32.6552 100.496 32.445C100.496 32.2349 100.215 32.0237 99.8708 31.9754C99.4318 31.9142 99.2453 32.0543 99.2453 32.445ZM237.077 32.464C235.846 33.1668 235.819 34.3142 237.013 35.1807C238.024 35.9152 238.632 35.9671 240.04 35.4389C241.237 34.9893 241.579 34.2501 241.075 33.2002C240.435 31.8683 238.685 31.5458 237.077 32.464ZM69.6001 32.4305C69.1827 32.6222 69.1641 32.7942 69.5029 33.3343C69.7335 33.7014 70.0862 34.0016 70.2871 34.0016C70.4876 34.0016 70.652 34.1508 70.652 34.3329C70.652 34.5153 70.9176 34.9397 71.2421 35.2762L71.8326 35.8877L72.2811 35.2661C72.7333 34.6398 72.5849 33.1273 72.0931 33.3478C71.9477 33.4132 71.6478 33.1782 71.4269 32.8261C71.0044 32.1534 70.4601 32.0354 69.6001 32.4305ZM78.7511 32.3778C78.6474 32.4998 78.7078 32.769 78.8862 32.9763C79.2282 33.3746 80.2955 33.0949 80.4191 32.5747C80.4963 32.251 79.0088 32.0751 78.7511 32.3778ZM168.779 32.7561C167.391 33.7131 169.04 35.2954 170.893 34.7838C172.117 34.446 172.329 33.9559 171.658 33.0142C171.029 32.1321 169.84 32.0255 168.779 32.7561ZM172.734 32.5934C172.455 33.1203 173.105 34.0016 173.772 34.0016C174.343 34.0016 174.862 32.8925 174.494 32.4598C174.14 32.0437 172.978 32.1321 172.734 32.5934ZM191.164 33.0433C189.751 33.7596 189.621 34.9301 190.859 35.7746C191.632 36.3017 191.787 36.3165 193.093 35.9896C194.089 35.7406 194.531 35.4684 194.616 35.0531C194.821 34.0421 194.344 33.2464 193.297 32.8534C192.367 32.5044 192.196 32.5197 191.164 33.0433ZM89.9525 33.8566C89.9525 34.3477 90.4643 34.5607 91.1713 34.3638C92.0777 34.1113 91.8453 33.4827 90.846 33.4827C90.3063 33.4827 89.9525 33.6309 89.9525 33.8566ZM113.363 34.0016C113.242 34.1443 113.252 34.3902 113.387 34.5482C113.627 34.8302 114.238 34.398 114.251 33.9367C114.259 33.6524 113.621 33.6991 113.363 34.0016ZM62.4314 35.0077C62.4314 35.896 63.2389 36.4514 64.5874 36.4908C65.5077 36.5178 65.5495 36.4724 65.2658 35.7543C64.8454 34.6909 64.2743 34.261 63.2814 34.261C62.5834 34.261 62.4314 34.3944 62.4314 35.0077ZM81.5103 34.8972C81.4009 35.1045 81.4156 35.3966 81.5432 35.5465C81.862 35.9206 83.1616 35.402 83.1616 34.9005C83.1616 34.4079 81.7705 34.405 81.5103 34.8972ZM162.891 35.2848C162.284 35.6174 162.131 35.8835 162.311 36.2958C162.56 36.8655 162.847 36.9558 164.116 36.8629C165.209 36.7827 165.442 36.4802 164.978 35.7416C164.421 34.8533 163.891 34.7374 162.891 35.2848ZM103.892 35.8176C103.892 36.152 104.073 36.336 104.338 36.2716C104.584 36.2122 104.785 36.0078 104.785 35.8176C104.785 35.6275 104.584 35.423 104.338 35.3636C104.073 35.2993 103.892 35.4832 103.892 35.8176ZM167.512 35.8023C167.512 36.0794 167.64 36.3635 167.797 36.4338C168.306 36.6623 169.051 36.1409 168.826 35.7141C168.516 35.1278 167.512 35.1953 167.512 35.8023ZM73.2694 36.4924C72.9645 37.0688 73.9167 37.4505 74.5364 37.0006C74.8055 36.8053 74.9167 36.5178 74.7834 36.3614C74.4238 35.939 73.5206 36.0171 73.2694 36.4924ZM56.0623 37.0219C55.4969 37.7556 55.9787 38.4119 57.0827 38.4119C57.6335 38.4119 58.3383 38.4828 58.6493 38.5694C59.5339 38.8159 59.3184 38.1857 58.2329 37.3509C57.1192 36.4945 56.5373 36.4063 56.0623 37.0219ZM65.5535 37.0105C65.0931 37.3446 65.2708 38.3364 65.8541 38.6877C66.3212 38.9689 66.4731 38.9635 66.7422 38.6548C67.1915 38.1395 67.1658 38.0293 66.447 37.3851C66.1003 37.0743 65.6982 36.9057 65.5535 37.0105ZM94.2415 37.4886C94.2415 37.6944 94.3855 37.9271 94.5613 38.0059C94.9295 38.1709 95.373 37.5037 95.0506 37.2699C94.6671 36.9916 94.2415 37.1065 94.2415 37.4886ZM118.546 37.6336C118.546 37.7763 118.716 37.8931 118.924 37.8931C119.132 37.8931 119.203 37.7763 119.082 37.6336C118.96 37.491 118.79 37.3742 118.703 37.3742C118.616 37.3742 118.546 37.491 118.546 37.6336ZM158.615 37.863C157.917 38.2524 157.807 38.4789 158.017 39.0896C158.544 40.6215 159.847 41.1105 161.356 40.3429C162.297 39.8647 162.403 38.7897 161.594 37.9509C160.921 37.2531 159.769 37.2191 158.615 37.863ZM209.329 37.5574C206.159 38.3985 206.776 41.7137 210.059 41.4789C212.493 41.3046 213.135 39.4881 211.277 38.0332C210.411 37.355 210.245 37.3145 209.329 37.5574ZM163.044 37.8931C162.922 38.0358 162.994 38.1525 163.202 38.1525C163.41 38.1525 163.58 38.0358 163.58 37.8931C163.58 37.7504 163.509 37.6336 163.423 37.6336C163.336 37.6336 163.166 37.7504 163.044 37.8931ZM85.1273 38.4119C84.8282 38.7632 85.2317 39.1902 85.8633 39.1902C86.1467 39.1902 86.3783 38.9567 86.3783 38.6714C86.3783 38.1343 85.5159 37.9553 85.1273 38.4119ZM152.411 39.0325C151.16 39.7215 151.97 41.4185 153.423 41.1539C154.17 41.0177 154.287 41.0875 154.287 41.6652C154.287 42.0331 154.43 42.2702 154.604 42.1921C154.777 42.1143 154.92 41.46 154.92 40.7385C154.92 38.9209 153.887 38.2189 152.411 39.0325ZM49.9934 39.2421C48.8514 40.071 50.003 40.9372 51.8087 40.6083C52.422 40.4964 52.7491 40.5712 52.9002 40.8573C53.1747 41.3767 53.8535 41.3905 53.8535 40.8765C53.8535 40.6625 53.6122 40.4874 53.3173 40.4874C53.0225 40.4874 52.7812 40.3304 52.7812 40.1385C52.7812 39.6896 51.6296 38.9308 50.948 38.9308C50.6589 38.9308 50.2293 39.0709 49.9934 39.2421ZM168.612 39.6019C167.72 40.1467 167.556 40.4028 167.741 40.964C168.089 42.0248 168.556 42.3034 169.986 42.3034C171.603 42.3034 172.158 41.9306 172.158 40.8436C172.158 40.2479 171.886 39.851 171.216 39.4686C170.024 38.7881 169.937 38.7925 168.612 39.6019ZM59.5721 39.4497C59.5721 39.5923 59.823 39.7091 60.1293 39.7091C60.4356 39.7091 60.5872 39.5923 60.4657 39.4497C60.3441 39.307 60.0936 39.1902 59.9085 39.1902C59.7233 39.1902 59.5721 39.307 59.5721 39.4497ZM57.6957 39.7298C56.8061 40.106 56.9219 40.4874 57.9255 40.4874C58.6328 40.4874 59.2147 40.0679 59.2147 39.5581C59.2147 39.3612 58.3319 39.4608 57.6957 39.7298ZM108.924 39.8603C108.941 40.1626 109.026 40.224 109.14 40.0173C109.243 39.83 109.23 39.6061 109.111 39.52C108.993 39.4338 108.908 39.5869 108.924 39.8603ZM76.1673 39.9976C75.8649 40.3527 76.667 40.7476 77.321 40.5652C77.5848 40.4921 77.8003 40.2692 77.8003 40.0705C77.8003 39.6411 76.5194 39.5838 76.1673 39.9976ZM67.7927 41.5251C67.7927 42.1031 68.4932 42.21 69.1509 41.7327C69.8171 41.2491 69.662 41.0062 68.6862 41.0062C68.0311 41.0062 67.7927 41.1445 67.7927 41.5251ZM147.925 41.3175C146.94 42.0325 148.109 43.0189 149.364 42.5317C150.146 42.2279 150.164 41.9423 149.437 41.4138C148.763 40.9245 148.49 40.9074 147.925 41.3175ZM44.62 41.5552C43.4991 41.8623 43.8287 42.4331 45.1265 42.4331C45.7001 42.4331 46.2705 42.5343 46.3946 42.6578C46.52 42.7828 46.8892 42.7732 47.2266 42.6362C47.7738 42.4139 47.7513 42.3516 47.0011 42.0035C45.5689 41.3388 45.4742 41.3212 44.62 41.5552ZM50.5177 41.4387C49.987 41.8237 50.3294 42.3034 51.1346 42.3034C51.9552 42.3034 52.6061 41.7438 52.1608 41.4208C51.8734 41.212 50.8137 41.2236 50.5177 41.4387ZM98.8879 41.5098C98.8879 41.6442 99.0487 41.826 99.2453 41.9142C99.4419 42.0025 99.6027 41.8924 99.6027 41.6701C99.6027 41.4478 99.4419 41.2657 99.2453 41.2657C99.0487 41.2657 98.8879 41.3754 98.8879 41.5098ZM54.5683 41.7845C54.5683 41.9272 54.7388 42.044 54.9468 42.044C55.1548 42.044 55.2259 41.9272 55.1044 41.7845C54.9829 41.6418 54.8128 41.5251 54.7259 41.5251C54.6391 41.5251 54.5683 41.6418 54.5683 41.7845ZM266.792 42.4964C265.673 43 265.42 43.3492 265.67 44.0424C266.103 45.2459 268.497 45.3828 269.509 44.2621C269.985 43.7347 269.97 43.5943 269.354 42.8601C268.579 41.9337 268.171 41.8759 266.792 42.4964ZM59.3934 42.5628C59.0635 42.9504 59.5224 43.3411 60.308 43.3411C60.7634 43.3411 61.0018 43.1629 61.0018 42.8223C61.0018 42.272 59.8055 42.079 59.3934 42.5628ZM89.2376 43.0817C89.2376 43.2244 89.4692 43.3411 89.7527 43.3411C90.0361 43.3411 90.3671 43.2244 90.4886 43.0817C90.6101 42.939 90.3781 42.8223 89.9736 42.8223C89.569 42.8223 89.2376 42.939 89.2376 43.0817ZM268.81 44.6159C268.515 44.8305 267.419 44.231 267.3 43.7892C267.107 43.0778 268.453 43.125 268.738 43.8397C268.879 44.1933 268.911 44.5425 268.81 44.6159ZM44.0149 43.6119C43.888 43.7609 43.9759 44.0501 44.21 44.2551C44.7594 44.7353 46.0593 44.2919 45.7602 43.7264C45.5268 43.2848 44.3587 43.2083 44.0149 43.6119ZM48.1348 43.86C48.1348 44.0027 48.286 44.1194 48.4711 44.1194C48.6563 44.1194 48.9068 44.0027 49.0284 43.86C49.1499 43.7173 48.9983 43.6005 48.692 43.6005C48.3857 43.6005 48.1348 43.7173 48.1348 43.86ZM38.7534 44.0268C38.2852 44.6121 38.1161 46.6782 38.5218 46.86C39.0729 47.1073 39.9979 46.2086 39.7245 45.6913C39.6115 45.4775 39.6323 45.3849 39.7706 45.4853C40.098 45.7227 40.9604 44.8954 40.9751 44.3301C40.9826 44.0499 40.7292 43.9064 40.2717 43.9313C39.8785 43.9529 39.5543 44.0914 39.5515 44.2395C39.5483 44.3874 39.4078 44.35 39.2387 44.1565C39.0697 43.963 38.8513 43.9046 38.7534 44.0268ZM52.149 44.1632C51.6793 44.5041 51.9735 45.1571 52.5972 45.1571C52.8466 45.1571 53.2419 44.99 53.4753 44.7861C53.8134 44.4904 53.7609 44.3612 53.2166 44.1497C52.7444 43.9663 52.4145 43.9705 52.149 44.1632ZM80.136 44.1049C80.0095 44.2533 80.0474 44.5581 80.2204 44.7823C80.4913 45.1338 80.5932 45.1387 80.9588 44.8188C81.2905 44.5288 81.2719 44.3806 80.8745 44.1412C80.5303 43.9339 80.2915 43.922 80.136 44.1049ZM141.842 44.5036C141.288 44.9275 141.051 45.3782 141.127 45.8612C141.229 46.5077 141.399 46.5923 142.731 46.6626C144.02 46.7308 144.253 46.6616 144.473 46.1437C144.612 45.8153 145.027 45.3374 145.396 45.0822C145.765 44.8269 146.067 44.5021 146.067 44.3607C146.067 43.916 145.011 43.7863 144.396 44.1552C143.935 44.4312 143.773 44.4377 143.656 44.1843C143.425 43.6864 142.756 43.8042 141.842 44.5036ZM182.017 44.3545C181.119 45.0746 181.4 46.4091 182.585 47.0479C183.531 47.5587 183.551 47.5587 184.729 47.0611C186.036 46.509 186.471 45.3704 185.749 44.3908C185.222 43.6758 182.892 43.6532 182.017 44.3545ZM41.4183 44.8136C41.0637 44.9169 41.0533 45.0326 41.3729 45.312C41.9644 45.8296 42.4162 45.7624 42.4162 45.1571C42.4162 44.6307 42.2467 44.5724 41.4183 44.8136ZM136.562 45.5496C136.286 46.3471 136.93 46.9731 138.025 46.9731C139.33 46.9731 139.833 46.3251 139.131 45.5476C138.331 44.6611 136.869 44.6621 136.562 45.5496ZM71.3668 45.5463C71.3668 45.7603 71.6081 45.9354 71.903 45.9354C72.1978 45.9354 72.4391 45.7603 72.4391 45.5463C72.4391 45.3322 72.1978 45.1571 71.903 45.1571C71.6081 45.1571 71.3668 45.3322 71.3668 45.5463ZM149.589 45.7092C148.104 46.1041 147.935 47.7732 149.288 48.6628C149.884 49.054 150.019 49.054 151.057 48.6646C151.674 48.433 152.269 48.0739 152.378 47.8669C152.655 47.3441 152.251 46.3106 151.581 45.8239C150.948 45.3644 150.895 45.3616 149.589 45.7092ZM43.557 45.9549C43.6275 46.1082 43.838 46.2338 44.0245 46.2338C44.2111 46.2338 44.4216 46.1082 44.492 45.9549C44.5624 45.8015 44.3523 45.676 44.0245 45.676C43.6968 45.676 43.4866 45.8015 43.557 45.9549ZM45.4024 46.0695C45.2905 46.2812 45.2905 46.6273 45.4024 46.839C45.6737 47.3519 46.7052 47.0471 46.7052 46.4543C46.7052 45.8615 45.6737 45.5567 45.4024 46.0695ZM62.2845 46.6473C61.7609 47.0274 62.1709 47.2588 63.2356 47.1841C63.8747 47.1394 64.3972 46.9991 64.3972 46.8722C64.3972 46.6081 62.6023 46.4169 62.2845 46.6473ZM33.5222 47.1361C33.4994 47.4396 33.2395 47.8332 32.9447 48.0109C32.6498 48.1886 32.4085 48.4947 32.4085 48.6911C32.4085 49.137 33.2685 49.156 33.9172 48.7243C34.1852 48.5461 34.7192 48.2708 35.1042 48.1128C36.101 47.7037 36.2225 46.9731 35.2939 46.9731C34.8865 46.9731 34.553 47.0899 34.553 47.2326C34.553 47.6726 33.9004 47.5187 33.727 47.038C33.5973 46.6774 33.5551 46.6976 33.5222 47.1361ZM134.119 47.1213C133.445 47.6106 133.421 47.8083 133.986 48.2184C134.549 48.6273 135.703 48.6187 135.697 48.2054C135.687 47.5914 135.26 46.7137 134.971 46.7137C134.811 46.7137 134.428 46.8971 134.119 47.1213ZM231.782 47.1122C230.705 47.5364 230.283 48.2166 230.642 48.9472C231.36 50.4077 233.288 50.7925 234.644 49.7454C235.657 48.9625 235.627 48.2477 234.544 47.4002C233.55 46.6214 233.136 46.5783 231.782 47.1122ZM36.9359 47.665C36.5245 47.9634 36.6754 48.2703 37.2336 48.2703C37.5285 48.2703 37.7698 48.0952 37.7698 47.8812C37.7698 47.4759 37.3469 47.3664 36.9359 47.665ZM54.8124 47.6606C54.4318 47.9369 54.5258 48.7892 54.9368 48.7892C55.4654 48.7892 55.7982 48.0215 55.3961 47.7296C55.2095 47.5942 54.9468 47.5631 54.8124 47.6606ZM38.9024 48.3121C38.9675 48.6457 39.262 48.9189 39.5568 48.9189C40.3321 48.9189 40.2252 47.9068 39.4385 47.7968C38.931 47.7258 38.8106 47.8415 38.9024 48.3121ZM84.4279 48.7713C84.3146 48.9041 84.3857 49.0859 84.5855 49.1757C84.7853 49.2652 84.9486 49.1565 84.9486 48.9342C84.9486 48.4784 84.7342 48.4114 84.4279 48.7713ZM131.651 49.2216C131.259 49.506 131.378 49.7618 131.981 49.9296C132.812 50.1613 133.315 49.851 132.816 49.4147C132.357 49.013 132.016 48.9565 131.651 49.2216ZM30.4638 49.5428C30.3327 49.6969 30.3709 50.0116 30.5489 50.2425C30.8413 50.6215 30.8959 50.6176 31.1161 50.201C31.3953 49.6728 30.8348 49.107 30.4638 49.5428ZM46.7052 49.6972C46.7052 49.9898 46.9561 50.0964 47.5093 50.0396C47.9518 49.9939 48.3135 49.8399 48.3135 49.6972C48.3135 49.5545 47.9518 49.4004 47.5093 49.3547C46.9561 49.2979 46.7052 49.4045 46.7052 49.6972ZM29.0106 49.9403C28.9137 50.1631 28.7586 50.5219 28.6657 50.7372C28.5727 50.9526 28.3719 51.0986 28.2189 51.0615C27.928 50.9912 27.7621 51.2029 27.7621 51.645C27.7621 51.8009 28.0484 51.777 28.4705 51.5856C29.3094 51.2053 30.0278 49.912 29.5253 49.6865C29.339 49.603 29.1074 49.7172 29.0106 49.9403ZM75.1826 50.1903C75.0668 50.4093 75.1151 50.6527 75.2895 50.7307C75.7566 50.9404 76.153 50.3434 75.7438 50.0464C75.515 49.8803 75.3202 49.9301 75.1826 50.1903ZM32.2752 50.4832C32.0122 50.9806 33.5222 51.528 34.4408 51.2685C35.0391 51.0997 35.0237 51.0467 34.2453 50.586C33.2281 49.9836 32.5579 49.9486 32.2752 50.4832ZM159.525 50.5608C158.73 51.1987 158.779 52.0497 159.649 52.6806C160.562 53.3435 161.454 53.338 162.638 52.6617C163.774 52.0134 163.811 51.6662 162.839 50.7699C161.958 49.9566 160.401 49.8583 159.525 50.5608ZM123.103 50.7839C122.42 50.9136 122.276 51.7934 122.835 52.4212C123.025 52.6352 123.184 52.7084 123.187 52.5841C123.19 52.4596 123.415 52.4918 123.687 52.6557C124.082 52.8942 124.229 52.8179 124.416 52.2764C124.661 51.5697 124.394 50.5834 123.972 50.6353C123.838 50.6519 123.447 50.7188 123.103 50.7839ZM125.337 51.494C125.337 52.2458 125.491 52.4396 126.194 52.5675C126.665 52.6534 127.429 52.6848 127.891 52.6373C128.591 52.5654 128.732 52.3986 128.732 51.6429C128.732 50.7437 128.716 50.7341 127.034 50.6557L125.337 50.5766V51.494ZM40.0501 51.2413C39.9407 51.4486 39.955 51.7405 40.0822 51.8899C40.4986 52.3789 40.9865 52.1755 40.9865 51.5132C40.9865 50.8099 40.3725 50.6316 40.0501 51.2413ZM66.0606 51.2377C66.1289 51.4756 66.3452 51.6642 66.5417 51.6566C67.0721 51.6361 66.9749 51.0558 66.4181 50.9212C66.1175 50.8485 65.9838 50.9671 66.0606 51.2377ZM25.975 52.2915C25.975 52.5055 26.1359 52.6806 26.3325 52.6806C26.529 52.6806 26.6899 52.5055 26.6899 52.2915C26.6899 52.0774 26.529 51.9023 26.3325 51.9023C26.1359 51.9023 25.975 52.0774 25.975 52.2915ZM57.2986 52.0824C56.8962 52.3745 57.0538 52.6806 57.6063 52.6806C57.9012 52.6806 58.1425 52.5709 58.1425 52.4365C58.1425 52.1093 57.5842 51.8751 57.2986 52.0824ZM131.612 52.4791C130.794 53.3266 130.931 54.1288 131.999 54.7387C132.764 55.1753 133.053 55.2181 133.518 54.9646C135.158 54.0725 135.375 53.3404 134.258 52.4702C133.326 51.7435 132.318 51.7469 131.612 52.4791ZM201.336 52.4401C200.172 53.1045 200.099 54.1544 201.15 55.1242C201.786 55.711 202.084 55.7943 203.026 55.6482C204.655 55.3956 205.04 55.0721 205.04 53.9562C205.04 53.2656 204.8 52.7979 204.258 52.4313C203.266 51.7609 202.521 51.763 201.336 52.4401ZM120.333 52.5193C120.333 52.7157 120.586 53.0293 120.896 53.2158C121.361 53.496 121.512 53.4942 121.757 53.2062C121.92 53.0145 121.971 52.7008 121.87 52.5096C121.628 52.0515 120.333 52.0596 120.333 52.5193ZM24.0093 52.6806C23.8877 52.8233 24.0296 52.9401 24.3245 52.9401C24.6194 52.9401 24.96 52.8233 25.0815 52.6806C25.203 52.5379 25.0611 52.4212 24.7663 52.4212C24.4714 52.4212 24.1308 52.5379 24.0093 52.6806ZM27.4047 53.2184C27.4047 53.8833 28.5878 53.8078 28.7672 53.1318C28.8497 52.8205 28.6571 52.6806 28.1456 52.6806C27.6342 52.6806 27.4047 52.8472 27.4047 53.2184ZM33.5587 53.4989C33.6466 53.6911 34.0055 53.8883 34.3557 53.9378C34.7632 53.9949 34.9351 53.9015 34.8325 53.6784C34.7446 53.4861 34.3858 53.289 34.0355 53.2395C33.628 53.1824 33.4561 53.2758 33.5587 53.4989ZM49.2475 53.5534C48.9279 53.8328 48.9211 53.9791 49.221 54.1137C49.775 54.3623 50.3165 53.9223 49.9648 53.5092C49.7371 53.2418 49.5938 53.2506 49.2475 53.5534ZM23.1211 53.6535C23.1243 53.7604 23.2826 54.0232 23.4731 54.2372C23.7533 54.5519 23.8205 54.5145 23.8252 54.0426C23.828 53.7217 23.6697 53.4589 23.4731 53.4589C23.2766 53.4589 23.1182 53.5466 23.1211 53.6535ZM119.142 54.1508C118.73 54.4492 118.881 54.7561 119.439 54.7561C119.734 54.7561 119.975 54.581 119.975 54.3669C119.975 53.9617 119.553 53.8522 119.142 54.1508ZM41.4072 55.1885C41.5809 55.8394 42.4162 55.9287 42.4162 55.2965C42.4162 54.9779 42.1853 54.7561 41.854 54.7561C41.5208 54.7561 41.3386 54.9325 41.4072 55.1885ZM27.5434 55.5813C27.4229 55.723 27.4923 55.9611 27.6978 56.1103C28.1099 56.4094 29.1918 56.2078 29.1918 55.8322C29.1918 55.4882 27.8029 55.2768 27.5434 55.5813ZM22.4009 55.7938C22.4009 55.9365 22.6421 56.0532 22.937 56.0532C23.2319 56.0532 23.4731 55.9365 23.4731 55.7938C23.4731 55.6511 23.2319 55.5344 22.937 55.5344C22.6421 55.5344 22.4009 55.6511 22.4009 55.7938ZM18.7077 56.2263C18.5765 56.3212 18.4693 56.5197 18.4693 56.6673C18.4693 56.8297 18.6359 56.8144 18.8921 56.6284C19.1248 56.4595 19.232 56.261 19.1305 56.1873C19.029 56.1137 18.8385 56.1311 18.7077 56.2263ZM59.5721 56.5568C59.5721 56.6912 59.733 56.873 59.9295 56.9612C60.1261 57.0494 60.287 56.9394 60.287 56.7171C60.287 56.4948 60.1261 56.3127 59.9295 56.3127C59.733 56.3127 59.5721 56.4224 59.5721 56.5568ZM108.687 57.1947C107.243 58.1045 107.16 58.6641 108.548 58.1248C109.005 57.9473 109.879 57.8874 110.634 57.9818C113.571 58.3487 113.721 58.3243 113.721 57.4801C113.721 56.7794 113.608 56.7018 112.59 56.7018C111.968 56.7018 111.338 56.6141 111.19 56.5072C110.689 56.1453 110.092 56.3096 108.687 57.1947ZM139.705 56.624C139.169 57.0126 139.149 58.2501 139.666 58.9516C139.977 59.3729 140.281 59.4486 141.151 59.3223C142.648 59.1049 143.207 58.7119 143.207 57.8778C143.207 56.6237 140.862 55.7842 139.705 56.624ZM34.419 56.7791C34.1363 57.1109 34.7918 57.6936 35.2278 57.498C35.8018 57.2406 35.7168 56.5721 35.1102 56.5721C34.8268 56.5721 34.5159 56.6652 34.419 56.7791ZM174.839 57.6604C173.86 58.063 173.6 58.3943 173.593 59.2437C173.586 60.1569 175.1 61.2455 176.111 61.0535C177.174 60.8517 178.197 59.7766 177.971 59.0984C177.745 58.4187 176.492 57.347 175.938 57.3582C175.727 57.3626 175.232 57.4985 174.839 57.6604ZM50.9941 57.8692C50.9941 58.0119 51.2451 58.1287 51.5514 58.1287C51.8577 58.1287 52.0092 58.0119 51.8877 57.8692C51.7662 57.7265 51.5156 57.6098 51.3305 57.6098C51.1453 57.6098 50.9941 57.7265 50.9941 57.8692ZM22.2915 58.2945C22.0059 58.5017 22.3287 58.907 22.7794 58.907C22.9645 58.907 23.1157 58.7318 23.1157 58.5178C23.1157 58.1167 22.694 58.0023 22.2915 58.2945ZM115.4 58.44C114.236 59.2849 115.785 61.2397 117.188 60.6952C117.939 60.4031 118.543 59.4704 118.291 58.99C118.203 58.8216 117.638 58.5588 117.034 58.4062C115.711 58.0716 115.914 58.0672 115.4 58.44ZM17.7545 58.6475C17.7545 58.7902 17.9153 58.907 18.1119 58.907C18.3085 58.907 18.4693 58.7902 18.4693 58.6475C18.4693 58.5048 18.3085 58.3881 18.1119 58.3881C17.9153 58.3881 17.7545 58.5048 17.7545 58.6475ZM28.1195 58.7988C28.1195 59.0247 28.3104 59.1635 28.5441 59.107C29.2068 58.9467 29.3165 58.3881 28.6853 58.3881C28.3744 58.3881 28.1195 58.5731 28.1195 58.7988ZM42.9523 58.6475C42.8097 58.8151 42.8536 59.0688 43.0502 59.2115C43.2886 59.3846 43.4941 59.3695 43.6671 59.1664C43.8097 58.9988 43.7658 58.7451 43.5692 58.6024C43.3308 58.4294 43.1253 58.4444 42.9523 58.6475ZM35.6253 60.6086C35.6253 60.8309 35.7861 60.9409 35.9827 60.8527C36.1793 60.7645 36.3401 60.5826 36.3401 60.4483C36.3401 60.3139 36.1793 60.2041 35.9827 60.2041C35.7861 60.2041 35.6253 60.3862 35.6253 60.6086ZM17.0396 60.9824C17.0396 61.1251 17.1908 61.2418 17.376 61.2418C17.5611 61.2418 17.8117 61.1251 17.9332 60.9824C18.0547 60.8397 17.9032 60.723 17.5969 60.723C17.2906 60.723 17.0396 60.8397 17.0396 60.9824ZM22.2568 61.2014C22.1332 61.3466 22.2061 61.5436 22.4188 61.639C22.9685 61.8855 23.323 61.548 22.8641 61.2149C22.6075 61.0286 22.4077 61.0242 22.2568 61.2014ZM96.2519 61.1894C96.0021 61.4831 96.3538 61.7848 98.0922 62.767C99.3407 63.4724 99.716 63.572 100.147 63.3121C101.111 62.7315 100.748 62.0922 99.1323 61.5244C97.5125 60.9552 96.5468 60.8428 96.2519 61.1894ZM52.9896 61.4665C52.8355 61.6473 52.8062 61.8653 52.9242 61.9509C53.2441 62.1831 53.5929 61.8417 53.4199 61.4655C53.2991 61.2019 53.2148 61.2019 52.9896 61.4665ZM28.477 62.2796C28.477 62.4223 28.6378 62.539 28.8344 62.539C29.0309 62.539 29.1918 62.4223 29.1918 62.2796C29.1918 62.1369 29.0309 62.0201 28.8344 62.0201C28.6378 62.0201 28.477 62.1369 28.477 62.2796ZM44.2032 62.5543C44.2032 62.7053 44.3641 62.7569 44.5607 62.6687C44.7572 62.5805 44.9181 62.457 44.9181 62.394C44.9181 62.3309 44.7572 62.2796 44.5607 62.2796C44.3641 62.2796 44.2032 62.4033 44.2032 62.5543ZM121.609 62.9466C120.758 63.5643 120.914 64.539 121.941 65.0275C122.769 65.421 122.9 65.421 123.728 65.0275C124.989 64.4277 124.976 63.1427 123.705 62.7919C122.479 62.4539 122.267 62.4695 121.609 62.9466ZM16.9728 63.4945C17.2305 63.5695 17.539 63.5601 17.6576 63.474C17.7763 63.3879 17.5654 63.3266 17.1887 63.3378C16.7723 63.3502 16.6876 63.4117 16.9728 63.4945ZM35.6253 63.8361C35.6253 63.9788 35.9566 64.0956 36.3612 64.0956C36.7658 64.0956 36.9977 63.9788 36.8762 63.8361C36.7547 63.6935 36.4237 63.5767 36.1403 63.5767C35.8569 63.5767 35.6253 63.6935 35.6253 63.8361ZM150.877 64.2056C150.363 64.7745 150.362 64.9081 150.861 65.6088C151.549 66.5742 152.061 66.714 153.279 66.2681C154.53 65.8096 154.858 65.0186 154.13 64.2126C153.349 63.3471 151.655 63.3435 150.877 64.2056ZM22.0435 64.0956C22.0435 64.2383 22.2847 64.355 22.5796 64.355C22.8745 64.355 23.1157 64.2383 23.1157 64.0956C23.1157 63.9529 22.8745 63.8361 22.5796 63.8361C22.2847 63.8361 22.0435 63.9529 22.0435 64.0956ZM101.258 64.5768C100.573 65.1258 100.799 65.8229 101.73 66.0374C103.138 66.3617 104.195 65.5108 103.52 64.5958C103.054 63.9625 102.035 63.9542 101.258 64.5768ZM85.3061 65.1017C85.3061 65.8493 86.0584 66.576 86.5006 66.2553C86.8862 65.9751 86.7675 65.0007 86.3068 64.6663C85.6181 64.1664 85.3061 64.3021 85.3061 65.1017ZM225.395 64.8871C224.578 65.4796 224.705 66.176 225.77 66.9491C226.39 67.3992 226.455 67.3981 227.534 66.9218C229.054 66.2509 229.24 65.7515 228.255 64.9904C227.252 64.2154 226.364 64.1833 225.395 64.8871ZM28.477 65.263C28.477 65.477 28.6378 65.6522 28.8344 65.6522C29.0309 65.6522 29.1918 65.477 29.1918 65.263C29.1918 65.049 29.0309 64.8739 28.8344 64.8739C28.6378 64.8739 28.477 65.049 28.477 65.263ZM35.8637 66.3441C35.4523 66.6424 35.6031 66.9493 36.1614 66.9493C36.4563 66.9493 36.6975 66.7742 36.6975 66.5602C36.6975 66.1549 36.2747 66.0455 35.8637 66.3441ZM21.3286 66.6899C22.0217 67.015 22.4009 67.015 22.4009 66.6899C22.4009 66.5472 22.0392 66.4323 21.5967 66.4344C20.9466 66.4377 20.8951 66.4865 21.3286 66.6899ZM86.2593 66.8629C85.8218 67.1802 86.0141 68.0013 86.5617 68.1538C87.2629 68.3492 88.1654 67.7995 88.1654 67.1771C88.1654 66.8396 87.9091 66.6899 87.3315 66.6899C86.8726 66.6899 86.3901 66.7677 86.2593 66.8629ZM74.4049 68.2465C74.1454 69.6165 74.268 69.9753 74.8999 69.6918C75.273 69.5244 75.2466 67.3442 74.8681 67.0692C74.7519 66.9851 74.5436 67.5149 74.4049 68.2465ZM54.0322 67.4682C53.9107 67.6109 53.9818 67.7276 54.1898 67.7276C54.3978 67.7276 54.5683 67.6109 54.5683 67.4682C54.5683 67.3255 54.4975 67.2087 54.4107 67.2087C54.3238 67.2087 54.1537 67.3255 54.0322 67.4682ZM27.6906 68.0389C28.0241 68.281 28.215 68.281 28.5484 68.0389C28.8819 67.7969 28.7868 67.7276 28.1195 67.7276C27.4522 67.7276 27.3572 67.7969 27.6906 68.0389ZM44.2032 68.3762C44.2032 68.5902 44.3641 68.7653 44.5607 68.7653C44.7572 68.7653 44.9181 68.5902 44.9181 68.3762C44.9181 68.1622 44.7572 67.987 44.5607 67.987C44.3641 67.987 44.2032 68.1622 44.2032 68.3762ZM105.947 68.7861C104.598 69.3566 105.578 71.0636 107.059 70.7225C108.268 70.4438 108.696 69.8726 108.241 69.1467C107.818 68.4729 106.994 68.3435 105.947 68.7861ZM194.028 69.0349C193.099 69.6632 193.034 70.3647 193.823 71.239C194.493 71.981 195.023 72.0297 196.48 71.4826C197.884 70.9557 197.937 69.8111 196.593 69.0437C195.417 68.372 195.01 68.3705 194.028 69.0349ZM20.2564 69.0248C20.2564 69.1675 20.4172 69.2842 20.6138 69.2842C20.8104 69.2842 20.9712 69.1675 20.9712 69.0248C20.9712 68.8821 20.8104 68.7653 20.6138 68.7653C20.4172 68.7653 20.2564 68.8821 20.2564 69.0248ZM34.9884 69.0647C35.1739 69.4689 35.9734 69.5395 36.0016 69.1545C36.012 69.0118 35.7522 68.8548 35.4244 68.8053C35.0516 68.7495 34.8883 68.8466 34.9884 69.0647ZM53.4961 69.5436C53.4961 69.6863 53.747 69.8031 54.0533 69.8031C54.3596 69.8031 54.5111 69.6863 54.3896 69.5436C54.2681 69.4009 54.0175 69.2842 53.8324 69.2842C53.6472 69.2842 53.4961 69.4009 53.4961 69.5436ZM63.1563 69.5338C62.7056 69.7405 62.7185 69.7997 63.2457 69.9465C63.9787 70.1507 64.9334 69.9276 64.9334 69.5517C64.9334 69.2199 63.8633 69.209 63.1563 69.5338ZM130.778 69.6881C129.754 70.2085 129.775 70.7811 130.855 71.7488C131.693 72.5001 131.758 72.5133 132.73 72.1299C133.939 71.6523 134.28 70.365 133.372 69.7058C132.642 69.1758 131.797 69.17 130.778 69.6881ZM87.808 69.7942C87.0324 70.1611 87.7965 70.9479 89.0318 71.0545C89.9103 71.1303 89.9939 71.067 89.8896 70.406C89.7648 69.6165 88.7894 69.3301 87.808 69.7942ZM26.3325 70.0625C26.3325 70.2052 26.6638 70.3219 27.0684 70.3219C27.473 70.3219 27.7049 70.2052 27.5834 70.0625C27.4619 69.9198 27.1309 69.8031 26.8475 69.8031C26.5641 69.8031 26.3325 69.9198 26.3325 70.0625ZM43.557 70.6008C43.6275 70.7541 43.838 70.8797 44.0245 70.8797C44.2111 70.8797 44.4216 70.7541 44.492 70.6008C44.5624 70.4475 44.3523 70.3219 44.0245 70.3219C43.6968 70.3219 43.4866 70.4475 43.557 70.6008ZM18.4693 71.2299C18.4693 71.444 18.6302 71.6191 18.8267 71.6191C19.0233 71.6191 19.1841 71.444 19.1841 71.2299C19.1841 71.0159 19.0233 70.8408 18.8267 70.8408C18.6302 70.8408 18.4693 71.0159 18.4693 71.2299ZM74.9674 71.0834C73.9181 71.2782 73.6232 71.7548 74.4156 71.9753C75.4128 72.2531 76.9843 71.3692 76.1026 71.0268C75.955 70.9695 75.4442 70.9949 74.9674 71.0834ZM34.0169 71.3596C33.8743 71.5272 33.9183 71.7809 34.1148 71.9236C34.3532 72.0967 34.5587 72.0816 34.7317 71.8785C34.8743 71.7109 34.8304 71.4572 34.6338 71.3145C34.3954 71.1415 34.1899 71.1565 34.0169 71.3596ZM52.6375 71.5506C52.254 71.8289 52.4124 72.1379 52.9388 72.1379C53.2223 72.1379 53.5429 72.0334 53.6515 71.9057C53.8788 71.6385 52.9596 71.3166 52.6375 71.5506ZM62.5565 71.7568C62.3031 72.236 62.9536 72.6467 63.9755 72.6529C64.4466 72.6557 64.5942 72.496 64.5116 72.0731C64.3697 71.3493 62.8979 71.1111 62.5565 71.7568ZM25.0926 71.9545C24.9396 72.2103 24.915 72.4926 25.0372 72.5815C25.4003 72.8449 25.693 72.4749 25.5258 71.9636C25.3778 71.5104 25.3585 71.5101 25.0926 71.9545ZM10.9636 72.3974C10.9636 72.54 11.1244 72.6568 11.321 72.6568C11.5176 72.6568 11.6784 72.54 11.6784 72.3974C11.6784 72.2547 11.5176 72.1379 11.321 72.1379C11.1244 72.1379 10.9636 72.2547 10.9636 72.3974ZM42.236 72.6586C42.1134 72.8023 42.2718 72.992 42.5877 73.0799C43.2718 73.2703 43.6532 73.0605 43.3244 72.6742C43.0277 72.3255 42.5255 72.3185 42.236 72.6586ZM16.2058 72.8298C15.7944 73.1282 15.9452 73.4351 16.5035 73.4351C16.7984 73.4351 17.0396 73.26 17.0396 73.0459C17.0396 72.6407 16.6168 72.5312 16.2058 72.8298ZM3.81527 73.6945C3.81527 73.8372 3.98575 73.954 4.19377 73.954C4.40179 73.954 4.47291 73.8372 4.35139 73.6945C4.22987 73.5518 4.05974 73.4351 3.97289 73.4351C3.88604 73.4351 3.81527 73.5518 3.81527 73.6945ZM32.5318 73.8354C32.4153 74.0556 32.41 74.3008 32.5193 74.3802C32.8324 74.6074 33.4808 74.2222 33.4808 73.8089C33.4808 73.3111 32.7988 73.3303 32.5318 73.8354ZM51.9549 73.8621C51.4488 74.2292 51.7351 74.7322 52.4499 74.7322C52.9496 74.7322 53.1533 74.5914 53.0754 74.2998C52.9478 73.8222 52.3377 73.584 51.9549 73.8621ZM165.948 74.0881C165.04 74.7475 165.198 75.9845 166.234 76.3272C168.227 76.9862 170.097 75.8631 169.223 74.5327C168.659 73.674 166.856 73.4291 165.948 74.0881ZM8.10426 74.2134C8.10426 74.3561 8.26509 74.4728 8.46167 74.4728C8.65825 74.4728 8.81909 74.3561 8.81909 74.2134C8.81909 74.0707 8.65825 73.954 8.46167 73.954C8.26509 73.954 8.10426 74.0707 8.10426 74.2134ZM62.4314 74.7019C62.4314 74.9855 62.7578 75.2524 63.2085 75.338C64.1946 75.5253 64.5759 75.352 64.5759 74.7169C64.5759 74.3304 64.3268 74.2134 63.5037 74.2134C62.692 74.2134 62.4314 74.332 62.4314 74.7019ZM75.7216 74.9268C75.8027 75.44 76.0354 75.6402 76.5494 75.6402C77.0633 75.6402 77.296 75.44 77.3771 74.9268C77.4754 74.3083 77.365 74.2134 76.5494 74.2134C75.7338 74.2134 75.6233 74.3083 75.7216 74.9268ZM91.6295 74.3953C91.1698 74.4816 91.0151 74.7164 91.0933 75.2083C91.1841 75.7783 91.4071 75.9139 92.365 75.9809C93.3794 76.052 93.5266 75.9845 93.5266 75.449C93.5266 74.8757 92.9144 74.1758 92.4722 74.2435C92.3643 74.2601 91.9847 74.3283 91.6295 74.3953ZM22.7683 74.7224C22.3155 74.9302 22.3255 74.987 22.8405 75.1305C23.4964 75.3131 24.188 75.1009 24.188 74.7169C24.188 74.4064 23.4506 74.409 22.7683 74.7224ZM0.598525 74.9917C0.276494 75.1427 0.232175 75.2446 0.488084 75.2472C0.722192 75.2493 1.01313 75.1344 1.13465 74.9917C1.40879 74.6695 1.28512 74.6695 0.598525 74.9917ZM41.3439 75.6402C41.3439 76.0496 41.5459 76.2888 41.8911 76.2888C42.6381 76.2888 42.9952 75.5121 42.379 75.2288C41.5748 74.8593 41.3439 74.9509 41.3439 75.6402ZM13.7514 75.5624C14.0849 75.8045 14.2758 75.8045 14.6092 75.5624C14.9427 75.3204 14.8476 75.2511 14.1803 75.2511C13.513 75.2511 13.418 75.3204 13.7514 75.5624ZM112.199 75.5513C111.634 75.9612 111.627 76.8702 112.184 77.2747C112.42 77.4459 113.06 77.586 113.607 77.586C115.492 77.586 115.396 75.4721 113.503 75.3048C113.03 75.263 112.444 75.3738 112.199 75.5513ZM31.0357 76.6284C30.55 77.0531 30.8409 77.3266 31.7795 77.3266C32.2234 77.3266 32.4207 77.1758 32.3453 76.8941C32.1916 76.3184 31.5411 76.1863 31.0357 76.6284ZM51.2325 76.9807C50.8465 77.2609 50.957 77.5201 51.5303 77.6799C52.2655 77.8846 53.1386 77.6072 53.1386 77.1691C53.1386 76.8022 51.6775 76.6577 51.2325 76.9807ZM21.0606 77.9103C21.1424 78.0888 21.4241 78.2346 21.6861 78.2346C21.948 78.2346 22.2297 78.0888 22.3115 77.9103C22.4002 77.7173 22.1468 77.586 21.6861 77.586C21.2253 77.586 20.9719 77.7173 21.0606 77.9103ZM64.2185 78.5459C64.2185 78.8888 64.1231 78.9176 63.7896 78.6756C63.1595 78.2182 62.7889 78.295 62.7889 78.8831C62.7889 79.1685 62.9901 79.4036 63.2356 79.4056C63.4815 79.4075 64.0441 79.4796 64.4866 79.5654C65.1946 79.7032 65.2908 79.6254 65.2908 78.9135C65.2908 78.3676 65.1164 78.1048 64.7547 78.1048C64.4598 78.1048 64.2185 78.3033 64.2185 78.5459ZM11.1423 78.6237C11.2638 78.7664 11.6752 78.8831 12.0569 78.8831C12.4386 78.8831 12.7507 78.7664 12.7507 78.6237C12.7507 78.481 12.3389 78.3643 11.836 78.3643C11.3174 78.3643 11.0168 78.4766 11.1423 78.6237ZM40.8428 78.8146C40.7252 78.8997 40.6291 79.1921 40.6291 79.4642C40.6291 80.0739 41.8179 79.9883 41.983 79.3667C42.0952 78.9438 41.2371 78.5282 40.8428 78.8146ZM142.847 78.9703C141.583 79.4357 141.21 80.028 141.696 80.8016C142.517 82.1102 145.352 81.7851 145.352 80.3824C145.352 79.1462 144.174 78.4821 142.847 78.9703ZM78.0198 79.5392C77.3082 80.0558 77.6638 80.6991 78.6606 80.6991C79.9048 80.6991 80.408 80.1764 79.7057 79.6132C78.9909 79.0396 78.7242 79.0279 78.0198 79.5392ZM30.0782 80.7074C29.9395 80.8704 29.9942 81.1259 30.1997 81.2751C30.6801 81.6237 31.7998 81.3197 31.6043 80.8935C31.4056 80.46 30.3941 80.3365 30.0782 80.7074ZM51.9256 81.6289C51.6893 82.0757 52.2526 82.7746 52.8488 82.7746C53.3195 82.7746 53.0507 81.4095 52.5571 81.292C52.3355 81.2393 52.0514 81.391 51.9256 81.6289ZM95.9234 81.7415C95.748 82.2277 96.456 83.034 97.0579 83.034C97.8413 83.034 98.6019 82.3089 98.3714 81.782C98.0365 81.0156 96.1958 80.985 95.9234 81.7415ZM20.1342 81.6526C19.6449 82.0077 19.9269 82.5152 20.6138 82.5152C21.007 82.5152 21.3286 82.4127 21.3286 82.2874C21.3286 81.9473 20.4047 81.4562 20.1342 81.6526ZM9.89133 82.7746C9.89133 82.9173 10.1326 83.034 10.4275 83.034C10.7223 83.034 10.9636 82.9173 10.9636 82.7746C10.9636 82.6319 10.7223 82.5152 10.4275 82.5152C10.1326 82.5152 9.89133 82.6319 9.89133 82.7746ZM0.0624014 83.5529C-0.0591199 83.6956 0.00235691 83.8123 0.198936 83.8123C0.395514 83.8123 0.655712 83.6956 0.777233 83.5529C0.898754 83.4102 0.837277 83.2935 0.640699 83.2935C0.44412 83.2935 0.183923 83.4102 0.0624014 83.5529ZM218.711 83.7335C218.269 83.7968 217.907 84.0126 217.907 84.2137C217.907 84.4767 218.309 84.5623 219.344 84.5198C220.396 84.4767 220.754 84.3574 220.68 84.0746C220.571 83.6564 219.974 83.5529 218.711 83.7335ZM65.7375 83.9841C65.1525 84.1555 65.1675 84.712 65.7669 85.0734C66.1189 85.2854 66.4181 85.2672 66.9149 85.0034C67.4857 84.7006 67.515 84.5839 67.11 84.2295C66.6118 83.7936 66.4724 83.7687 65.7375 83.9841ZM40.8796 84.2357C40.3181 84.6433 40.6752 85.1095 41.5487 85.1095C42.23 85.1095 42.4376 84.9925 42.349 84.6583C42.2235 84.1862 41.31 83.9233 40.8796 84.2357ZM120.525 85.0789C120.221 85.7744 121.04 86.6661 121.983 86.6661C122.973 86.6661 123.635 86.0733 123.488 85.3183C123.393 84.8363 123.117 84.705 122.061 84.6412C121.012 84.5776 120.706 84.6648 120.525 85.0789ZM30.0267 86.0349C29.7451 86.5677 30.3105 86.966 30.9446 86.6814C31.4846 86.439 31.2358 85.6283 30.6214 85.6283C30.4124 85.6283 30.145 85.8112 30.0267 86.0349ZM81.6022 86.4782C81.2183 86.6819 81.0671 86.9779 81.2094 87.2467C81.4688 87.7378 82.6086 88.0815 83.1584 87.8351C83.7263 87.58 83.579 86.4788 82.9535 86.3047C82.2344 86.1044 82.3295 86.0922 81.6022 86.4782ZM184.936 87.1222C184.395 87.3655 183.954 87.6252 183.955 87.6991C183.956 87.7731 184.338 88.1798 184.805 88.603C185.578 89.3045 185.736 89.3449 186.6 89.0593C187.85 88.6458 188.092 88.1028 187.379 87.3125C186.696 86.555 186.27 86.5221 184.936 87.1222ZM19.1841 87.676C19.1841 87.9785 20.2282 88.266 20.646 88.0784C21.2761 87.7959 20.9609 87.4444 20.0777 87.4444C19.5862 87.4444 19.1841 87.5486 19.1841 87.676ZM53.1386 88.0652C53.1386 88.8458 54.0797 89.1447 54.5461 88.5122C54.781 88.1936 54.7595 87.9463 54.48 87.7435C53.797 87.2477 53.1386 87.4054 53.1386 88.0652ZM9.1765 88.7415C9.1765 88.8842 9.41776 89.0009 9.71263 89.0009C10.0075 89.0009 10.2488 88.8842 10.2488 88.7415C10.2488 88.5988 10.0075 88.4821 9.71263 88.4821C9.41776 88.4821 9.1765 88.5988 9.1765 88.7415ZM102.868 89.9393C102.367 90.1943 102.105 90.5583 102.174 90.907C102.262 91.3574 102.526 91.4655 103.534 91.4655C104.524 91.4655 104.807 91.3542 104.89 90.9324C104.948 90.639 104.698 90.2036 104.334 89.9647C103.729 89.5673 103.604 89.5652 102.868 89.9393ZM41.7617 91.1181C41.8268 91.4518 42.1213 91.725 42.4162 91.725C43.1914 91.725 43.0845 90.7129 42.2979 90.6029C41.7903 90.5319 41.6699 90.6475 41.7617 91.1181ZM68.2026 91.3031C67.8202 91.4819 67.8066 91.6482 68.1372 92.0967C68.6934 92.8509 69.7585 92.6919 69.7585 91.8547C69.7585 91.1765 69.0276 90.9174 68.2026 91.3031ZM156.493 91.2966C156.224 91.424 156.068 91.8477 156.135 92.2721C156.239 92.9349 156.394 93.0221 157.465 93.0221C158.917 93.0221 159.687 92.3702 159.075 91.6601C158.636 91.1524 157.219 90.9529 156.493 91.2966ZM30.5121 93.0582C30.1393 93.3288 30.6114 93.6707 31.3574 93.6707C31.7391 93.6707 32.0511 93.4956 32.0511 93.2815C32.0511 92.8968 30.9538 92.7375 30.5121 93.0582ZM20.1274 94.8885C19.7249 95.1806 19.8825 95.4867 20.4351 95.4867C20.73 95.4867 20.9712 95.377 20.9712 95.2426C20.9712 94.9154 20.4129 94.6812 20.1274 94.8885ZM85.8608 95.2055C85.537 95.5858 86.3104 96.7839 86.8801 96.7839C87.8298 96.7839 88.5628 96.0261 88.1522 95.4688C87.7726 94.9538 86.226 94.7764 85.8608 95.2055ZM54.9257 95.5848C54.9257 95.7812 55.1738 96.0914 55.4769 96.2741C56.1563 96.6835 56.9169 96.2471 56.5927 95.6338C56.3279 95.1328 54.9257 95.0916 54.9257 95.5848ZM131.778 95.7402C130.988 96.3138 131.143 96.9203 132.183 97.3243C133.74 97.929 135.056 96.9058 134.093 95.8393C133.419 95.0926 132.712 95.0623 131.778 95.7402ZM9.53392 96.1506C9.53392 96.3729 9.69726 96.4816 9.89705 96.3921C10.0968 96.3023 10.168 96.1205 10.0547 95.9877C9.74837 95.6278 9.53392 95.6948 9.53392 96.1506ZM43.131 99.1034C43.131 99.751 43.833 100.07 44.2376 99.606C44.759 99.0087 44.5996 98.5999 43.8458 98.5999C43.3765 98.5999 43.131 98.7729 43.131 99.1034ZM71.3668 100.276C71.3668 101.041 72.3419 101.461 72.8322 100.908C73.3412 100.333 73.0378 99.7746 72.1675 99.6843C71.5141 99.6169 71.3668 99.7258 71.3668 100.276ZM109.629 100.529C108.539 101.483 110.681 102.559 111.929 101.685C112.486 101.294 112.555 101.09 112.25 100.737C111.74 100.146 110.206 100.024 109.629 100.529ZM31.8577 101.73C31.5289 102.117 31.9103 102.327 32.5944 102.136C32.9103 102.048 33.0687 101.859 32.9461 101.715C32.6566 101.375 32.1544 101.382 31.8577 101.73ZM20.9712 103.788C20.9712 103.931 21.1321 104.048 21.3286 104.048C21.5252 104.048 21.6861 103.931 21.6861 103.788C21.6861 103.646 21.5252 103.529 21.3286 103.529C21.1321 103.529 20.9712 103.646 20.9712 103.788ZM57.3236 104.469C57.1842 104.57 57.0702 104.758 57.0702 104.887C57.0702 105.203 58.8594 105.023 58.9577 104.696C59.0499 104.391 57.6918 104.202 57.3236 104.469ZM9.89133 105.345C9.89133 105.488 10.0522 105.604 10.2488 105.604C10.4453 105.604 10.6062 105.488 10.6062 105.345C10.6062 105.202 10.4453 105.086 10.2488 105.086C10.0522 105.086 9.89133 105.202 9.89133 105.345ZM91.1541 105.475C90.841 106.067 91.2788 106.642 92.0419 106.642C92.909 106.642 93.6696 105.99 93.399 105.478C93.1306 104.97 91.4218 104.968 91.1541 105.475ZM173.23 105.867C173.23 106.2 174.303 106.393 175.224 106.225C176.577 105.978 176.24 105.636 174.66 105.651C173.874 105.659 173.23 105.756 173.23 105.867ZM44.7379 108.201C44.6153 108.344 44.7737 108.534 45.0896 108.622C45.7737 108.812 46.1551 108.602 45.8263 108.216C45.5296 107.868 45.0274 107.861 44.7379 108.201ZM144.757 108.654C143.833 108.766 143.353 109.495 143.999 109.802C144.768 110.167 146.585 109.931 146.711 109.448C146.846 108.931 145.843 108.523 144.757 108.654ZM74.6444 110.059C74.723 110.462 75.04 110.692 75.5951 110.749C76.2881 110.82 76.4082 110.733 76.3099 110.23C76.2313 109.827 75.9142 109.597 75.3592 109.54C74.6662 109.469 74.5461 109.556 74.6444 110.059ZM32.7659 111.312C32.7659 111.455 33.0072 111.571 33.3021 111.571C33.5969 111.571 33.8382 111.455 33.8382 111.312C33.8382 111.169 33.5969 111.053 33.3021 111.053C33.0072 111.053 32.7659 111.169 32.7659 111.312ZM117.927 112.541C117.63 113.103 119.033 113.994 119.9 113.794C120.76 113.596 121.216 112.887 120.717 112.525C120.147 112.111 118.148 112.123 117.927 112.541ZM59.3863 114.174C59.2476 114.337 59.3023 114.592 59.5078 114.742C59.9882 115.09 61.1079 114.786 60.9124 114.36C60.7137 113.927 59.7022 113.803 59.3863 114.174ZM96.1561 116.374C95.8641 116.926 96.6715 117.538 97.6919 117.538C98.707 117.538 99.152 116.914 98.5265 116.368C97.9532 115.866 96.4224 115.87 96.1561 116.374ZM46.2344 117.707C45.8538 117.983 45.9478 118.835 46.3588 118.835C46.8874 118.835 47.2202 118.068 46.8181 117.776C46.6315 117.641 46.3688 117.609 46.2344 117.707ZM77.5616 120.542C77.4426 120.767 77.5755 121.118 77.8572 121.323C78.2914 121.638 78.4701 121.641 79.0363 121.34C79.8683 120.898 79.5381 120.133 78.5152 120.133C78.1095 120.133 77.6806 120.317 77.5616 120.542ZM33.4808 121.689C33.4808 121.832 33.6416 121.949 33.8382 121.949C34.0348 121.949 34.1956 121.832 34.1956 121.689C34.1956 121.547 34.0348 121.43 33.8382 121.43C33.6416 121.43 33.4808 121.547 33.4808 121.689ZM160.185 124.284C160.063 124.426 160.215 124.543 160.521 124.543C160.827 124.543 161.078 124.426 161.078 124.284C161.078 124.141 160.927 124.024 160.742 124.024C160.557 124.024 160.306 124.141 160.185 124.284ZM158.576 124.543C158.576 124.686 158.727 124.802 158.913 124.802C159.098 124.802 159.348 124.686 159.47 124.543C159.591 124.4 159.44 124.284 159.134 124.284C158.827 124.284 158.576 124.4 158.576 124.543ZM60.6397 124.936C60.1147 125.395 60.4792 125.84 61.3803 125.84C61.8228 125.84 62.074 125.662 62.074 125.349C62.074 124.721 61.1798 124.464 60.6397 124.936ZM127.873 126.458C127.555 126.736 127.593 126.853 128.037 126.977C128.862 127.207 129.723 127.168 130.34 126.874C130.817 126.647 130.817 126.59 130.34 126.363C129.568 125.995 128.349 126.042 127.873 126.458ZM46.0618 128.746C45.8259 128.917 45.6329 129.15 45.6329 129.265C45.6329 129.574 46.6262 129.515 46.9032 129.19C47.2713 128.758 46.5615 128.383 46.0618 128.746ZM101.201 129.224C100.855 129.63 101.725 130.25 102.641 130.25C103.556 130.25 104.426 129.63 104.08 129.224C103.953 129.075 103.306 128.953 102.641 128.953C101.976 128.953 101.328 129.075 101.201 129.224ZM32.5872 132.066C32.4657 132.209 32.5368 132.326 32.7449 132.326C32.9529 132.326 33.1234 132.209 33.1234 132.066C33.1234 131.924 33.0526 131.807 32.9657 131.807C32.8789 131.807 32.7088 131.924 32.5872 132.066ZM79.23 132.56C79.23 133.159 80.4513 133.737 81.2487 133.514C81.5589 133.428 81.734 133.121 81.6676 132.781C81.58 132.332 81.2826 132.177 80.3916 132.115C79.4262 132.047 79.23 132.122 79.23 132.56ZM59.9195 135.837C59.516 136.19 59.521 136.295 59.9524 136.496C60.7391 136.863 61.5379 136.657 61.5379 136.088C61.5379 135.439 60.55 135.285 59.9195 135.837ZM43.4884 139.571C43.4884 139.942 43.7179 140.109 44.2293 140.109C44.7408 140.109 44.9334 139.969 44.8509 139.658C44.6715 138.982 43.4884 138.906 43.4884 139.571ZM28.8344 142.573C28.8344 142.811 29.0074 142.964 29.2186 142.913C29.4298 142.862 29.6028 142.709 29.6028 142.573C29.6028 142.438 29.4298 142.285 29.2186 142.234C29.0074 142.183 28.8344 142.336 28.8344 142.573ZM106.632 143.395C106.501 143.49 106.394 143.728 106.394 143.923C106.394 144.194 106.558 144.214 107.085 144.009C107.465 143.862 108.199 143.741 108.714 143.741C109.249 143.741 109.557 143.629 109.432 143.481C109.185 143.192 107.004 143.125 106.632 143.395ZM81.624 144.943C81.4992 145.034 81.0303 145.122 80.5817 145.138C80.1132 145.155 79.7661 145.333 79.7661 145.557C79.7661 145.835 80.1571 145.946 81.1404 145.946C82.6519 145.946 82.9149 145.809 82.5883 145.191C82.3592 144.758 82.005 144.667 81.624 144.943ZM57.8744 147.312C56.8057 147.441 56.8504 148.09 57.953 148.454C59.3612 148.92 60.6905 147.915 59.3041 147.433C58.9599 147.313 58.3169 147.259 57.8744 147.312ZM38.2566 150.356C37.9313 150.971 38.5925 151.32 39.7016 151.117C40.964 150.888 40.7989 150.126 39.4625 150.015C38.8084 149.96 38.4056 150.074 38.2566 150.356ZM22.4009 153.34C22.4009 153.625 22.5421 153.859 22.7147 153.859C23.1833 153.859 23.8599 153.188 23.5893 152.992C23.1 152.636 22.4009 152.841 22.4009 153.34ZM8.10426 155.949C8.10426 156.1 8.26509 156.152 8.46167 156.064C8.65825 155.976 8.81909 155.852 8.81909 155.789C8.81909 155.726 8.65825 155.675 8.46167 155.675C8.26509 155.675 8.10426 155.798 8.10426 155.949ZM32.3978 163.184C32.6026 163.461 32.9296 163.76 33.1251 163.848C33.6287 164.073 33.568 163.365 33.0519 162.991C32.3846 162.506 31.9853 162.624 32.3978 163.184ZM30.264 163.587C30.264 163.801 30.5249 163.976 30.8438 163.976C31.3188 163.976 31.3434 163.906 30.9789 163.587C30.734 163.373 30.4731 163.198 30.3991 163.198C30.3248 163.198 30.264 163.373 30.264 163.587ZM12.2145 165.274C12.0859 165.425 12.4422 165.533 13.0659 165.533C13.6556 165.533 14.2375 165.416 14.359 165.274C14.4877 165.123 14.1314 165.014 13.5077 165.014C12.9179 165.014 12.3361 165.131 12.2145 165.274Z" fill="url(#paint0_radial_387_928)" fill-opacity="0.2"/>
<defs>
<radialGradient id="paint0_radial_387_928" cx="0" cy="0" r="1" gradientTransform="matrix(-140.483 39.5114 -59.7605 -111.445 140.483 45.9784)" gradientUnits="userSpaceOnUse">
<stop stop-color="#474747"/>
<stop offset="1" stop-color="#D5D5D5" stop-opacity="0"/>
</radialGradient>
</defs>
</svg>
