<svg width="211" height="67" viewBox="0 0 211 67" fill="none" xmlns="http://www.w3.org/2000/svg">
<path fill-rule="evenodd" clip-rule="evenodd" d="M252.496 -26.9646C252.375 -26.8219 252.437 -26.7052 252.633 -26.7052C252.829 -26.7052 253.088 -26.8219 253.21 -26.9646C253.331 -27.1073 253.269 -27.2241 253.073 -27.2241C252.877 -27.2241 252.618 -27.1073 252.496 -26.9646ZM237.7 -21.4922C237.7 -21.363 238.021 -21.2572 238.413 -21.2572C238.805 -21.2572 239.126 -21.302 239.126 -21.3565C239.126 -21.4113 238.805 -21.5171 238.413 -21.5918C238.021 -21.6663 237.7 -21.6217 237.7 -21.4922ZM258.38 -20.5798C258.38 -20.4119 258.752 -20.3432 259.271 -20.4153C260.428 -20.5764 260.428 -20.9539 259.271 -20.9054C258.781 -20.8849 258.38 -20.7383 258.38 -20.5798ZM245.477 -20.3017C245.734 -20.2267 246.042 -20.236 246.16 -20.3222C246.279 -20.4083 246.068 -20.4695 245.693 -20.4584C245.277 -20.4459 245.193 -20.3844 245.477 -20.3017ZM274.068 -19.7006C274.068 -19.5579 274.379 -19.4411 274.76 -19.4411C275.14 -19.4411 275.551 -19.5579 275.672 -19.7006C275.797 -19.8477 275.497 -19.96 274.98 -19.96C274.478 -19.96 274.068 -19.8433 274.068 -19.7006ZM233.421 -18.6628C233.421 -18.5202 233.591 -18.4034 233.799 -18.4034C234.006 -18.4034 234.077 -18.5202 233.956 -18.6628C233.835 -18.8055 233.665 -18.9223 233.579 -18.9223C233.492 -18.9223 233.421 -18.8055 233.421 -18.6628ZM234.685 -18.4213C234.572 -18.2885 234.642 -18.1066 234.842 -18.0169C235.041 -17.9274 235.204 -18.0361 235.204 -18.2584C235.204 -18.7142 234.99 -18.7811 234.685 -18.4213ZM239.126 -18.3881C239.126 -18.2371 239.287 -18.1855 239.483 -18.2737C239.679 -18.3619 239.839 -18.4854 239.839 -18.5484C239.839 -18.6115 239.679 -18.6628 239.483 -18.6628C239.287 -18.6628 239.126 -18.5391 239.126 -18.3881ZM229.499 -17.1063C229.499 -16.9636 229.66 -16.8468 229.856 -16.8468C230.052 -16.8468 230.212 -16.9636 230.212 -17.1063C230.212 -17.2489 230.052 -17.3657 229.856 -17.3657C229.66 -17.3657 229.499 -17.2489 229.499 -17.1063ZM224.508 -15.8091C224.508 -15.6664 224.838 -15.5497 225.242 -15.5497C225.645 -15.5497 225.877 -15.6664 225.756 -15.8091C225.634 -15.9518 225.304 -16.0685 225.021 -16.0685C224.739 -16.0685 224.508 -15.9518 224.508 -15.8091ZM241.635 -14.9123C241.239 -14.5657 241.331 -14.512 242.321 -14.512C243.077 -14.512 243.414 -14.6217 243.315 -14.8362C243.093 -15.3232 242.152 -15.3657 241.635 -14.9123ZM230.302 -14.8284C229.466 -14.7314 229.166 -14.2497 229.945 -14.2564C230.482 -14.2613 231.508 -14.7068 231.272 -14.8323C231.179 -14.8816 230.743 -14.8798 230.302 -14.8284ZM255.884 -14.1228C255.884 -13.8808 256.22 -13.7337 256.775 -13.7337C257.33 -13.7337 257.666 -13.8808 257.666 -14.1228C257.666 -14.3649 257.33 -14.512 256.775 -14.512C256.22 -14.512 255.884 -14.3649 255.884 -14.1228ZM272.406 -13.0695C272.138 -12.5618 272.46 -12.3304 273.161 -12.526C273.866 -12.7229 273.867 -13.1157 273.163 -13.3123C272.847 -13.4005 272.526 -13.2976 272.406 -13.0695ZM220.229 -12.9554C220.229 -12.8127 220.56 -12.6959 220.963 -12.6959C221.367 -12.6959 221.598 -12.8127 221.477 -12.9554C221.356 -13.0981 221.026 -13.2148 220.743 -13.2148C220.46 -13.2148 220.229 -13.0981 220.229 -12.9554ZM222.368 -12.6959C222.368 -12.5532 222.609 -12.4365 222.903 -12.4365C223.197 -12.4365 223.438 -12.5532 223.438 -12.6959C223.438 -12.8386 223.197 -12.9554 222.903 -12.9554C222.609 -12.9554 222.368 -12.8386 222.368 -12.6959ZM217.377 -11.7879C217.377 -11.55 217.549 -11.3975 217.76 -11.4486C217.971 -11.4997 218.143 -11.6522 218.143 -11.7879C218.143 -11.9236 217.971 -12.0762 217.76 -12.1273C217.549 -12.1784 217.377 -12.0258 217.377 -11.7879ZM290.647 -11.6582C290.768 -11.5155 290.938 -11.3988 291.024 -11.3988C291.111 -11.3988 291.182 -11.5155 291.182 -11.6582C291.182 -11.8009 291.012 -11.9176 290.804 -11.9176C290.597 -11.9176 290.526 -11.8009 290.647 -11.6582ZM212.222 -10.1195C212.109 -9.98669 212.18 -9.80484 212.379 -9.71508C212.805 -9.52388 213.455 -9.76671 213.455 -10.1169C213.455 -10.4327 212.49 -10.4347 212.222 -10.1195ZM226.914 -9.40401C226.06 -9.24161 226.125 -8.80447 227.003 -8.80447C227.396 -8.80447 227.835 -8.77542 227.979 -8.73962C228.123 -8.70381 228.296 -8.87919 228.362 -9.12876C228.481 -9.5781 228.156 -9.63983 226.914 -9.40401ZM216.307 -8.54504C216.307 -8.25967 216.402 -8.02618 216.518 -8.02618C216.634 -8.02618 217.138 -8.25967 217.636 -8.54504L218.543 -9.0639H217.425C216.545 -9.0639 216.307 -8.95365 216.307 -8.54504ZM239.037 -8.88515C238.125 -8.71159 238.275 -8.31103 239.364 -8.00957C240.447 -7.70993 241.143 -8.15642 240.488 -8.7308C240.094 -9.07688 240.063 -9.07998 239.037 -8.88515ZM211.137 -7.50732C211.016 -7.36463 211.087 -7.24789 211.294 -7.24789C211.502 -7.24789 211.672 -7.36463 211.672 -7.50732C211.672 -7.65001 211.601 -7.76675 211.515 -7.76675C211.428 -7.76675 211.258 -7.65001 211.137 -7.50732ZM253.566 -7.50732C253.24 -7.12362 253.692 -6.72903 254.458 -6.72903C255.33 -6.72903 255.757 -7.24192 255.127 -7.53223C254.471 -7.83498 253.836 -7.82461 253.566 -7.50732ZM207.75 -7.24789C207.293 -7.03308 207.306 -6.99573 207.839 -6.99235C208.182 -6.99028 208.579 -6.97963 208.722 -6.969C208.864 -6.95836 209.038 -7.0751 209.108 -7.22843C209.266 -7.57425 208.468 -7.58567 207.75 -7.24789ZM269.59 -6.70412C269.457 -6.54768 269.568 -6.26024 269.836 -6.06489C270.454 -5.61503 271.404 -5.99665 271.1 -6.57311C270.849 -7.04838 269.948 -7.12647 269.59 -6.70412ZM205.789 -6.4696C205.91 -6.32691 206.16 -6.21017 206.345 -6.21017C206.53 -6.21017 206.68 -6.32691 206.68 -6.4696C206.68 -6.61228 206.43 -6.72903 206.125 -6.72903C205.819 -6.72903 205.668 -6.61228 205.789 -6.4696ZM287.616 -6.21017C287.616 -6.06748 287.857 -5.95073 288.151 -5.95073C288.445 -5.95073 288.686 -6.06748 288.686 -6.21017C288.686 -6.35285 288.445 -6.4696 288.151 -6.4696C287.857 -6.4696 287.616 -6.35285 287.616 -6.21017ZM200.352 -4.58872C200.433 -4.41024 200.795 -4.26443 201.154 -4.26443C201.513 -4.26443 201.875 -4.41024 201.956 -4.58872C202.05 -4.79419 201.756 -4.91301 201.154 -4.91301C200.552 -4.91301 200.258 -4.79419 200.352 -4.58872ZM213.187 -3.68564C212.756 -3.57616 212.536 -2.57814 212.943 -2.57814C213.38 -2.57814 214.524 -3.12786 214.524 -3.33774C214.524 -3.62882 213.753 -3.82937 213.187 -3.68564ZM203.289 -3.09155C203.168 -2.9499 203.321 -2.76388 203.627 -2.67827C204.281 -2.49563 205.466 -2.77011 205.118 -3.02332C204.712 -3.31855 203.519 -3.36291 203.289 -3.09155ZM223.764 -2.94082C223.448 -2.66323 223.434 -2.47748 223.714 -2.27331C224.207 -1.91503 225.221 -2.18328 225.221 -2.67205C225.221 -3.21244 224.274 -3.3873 223.764 -2.94082ZM200.441 -2.57814C200.32 -2.43545 200.471 -2.3187 200.776 -2.3187C201.082 -2.3187 201.332 -2.43545 201.332 -2.57814C201.332 -2.72082 201.181 -2.83757 200.997 -2.83757C200.812 -2.83757 200.562 -2.72082 200.441 -2.57814ZM236.363 -2.14696C235.723 -1.95914 235.813 -1.36529 236.511 -1.17046C237.262 -0.961095 237.862 -1.37774 237.58 -1.91217C237.36 -2.33011 237.135 -2.37345 236.363 -2.14696ZM283.776 -2.0105C283.996 -1.52952 284.764 -1.44987 284.764 -1.90802C284.764 -2.13399 284.51 -2.3187 284.199 -2.3187C283.889 -2.3187 283.698 -2.18017 283.776 -2.0105ZM195.004 -1.89298C194.062 -1.60475 194.618 -1.25322 195.895 -1.33027C196.63 -1.37438 197.197 -1.52744 197.154 -1.67013C197.067 -1.96043 195.69 -2.10312 195.004 -1.89298ZM249.887 -0.956691C250.008 -0.336393 251.407 0.00502043 252.014 -0.437309C252.63 -0.884826 251.925 -1.54041 250.829 -1.54041C249.938 -1.54041 249.791 -1.44935 249.887 -0.956691ZM266.226 -1.02804C265.819 -0.840994 265.793 -0.712309 266.113 -0.47908C266.617 -0.112764 267.767 -0.375305 267.568 -0.810888C267.373 -1.23532 266.859 -1.31861 266.226 -1.02804ZM189.566 0.275605C189.566 0.418291 189.807 0.535034 190.101 0.535034C190.395 0.535034 190.636 0.418291 190.636 0.275605C190.636 0.132918 190.395 0.0161727 190.101 0.0161727C189.807 0.0161727 189.566 0.132918 189.566 0.275605ZM278.168 0.535034C277.813 0.9522 278.319 1.31333 279.258 1.31333C279.891 1.31333 280.129 1.17168 280.129 0.794466C280.129 0.417254 279.891 0.275605 279.258 0.275605C278.78 0.275605 278.289 0.392348 278.168 0.535034ZM191.349 2.45043C191.349 2.86863 192.68 3.19213 192.974 2.84553C193.285 2.47973 192.805 2.09162 192.041 2.09162C191.66 2.09162 191.349 2.25326 191.349 2.45043ZM199.549 2.46338C199.549 2.88625 200.778 3.24867 201.346 2.99339C201.885 2.75082 201.061 2.09162 200.219 2.09162C199.851 2.09162 199.549 2.25895 199.549 2.46338ZM271.682 2.51604C271.419 3.01545 271.97 3.74732 272.687 3.85032C272.963 3.89001 273.488 3.76416 273.852 3.57036C274.403 3.27746 274.444 3.12286 274.1 2.65485C273.605 1.98162 272.012 1.89004 271.682 2.51604ZM285.477 2.35105C285.477 2.49374 285.647 2.61048 285.855 2.61048C286.062 2.61048 286.133 2.49374 286.012 2.35105C285.891 2.20836 285.721 2.09162 285.634 2.09162C285.548 2.09162 285.477 2.20836 285.477 2.35105ZM209.572 2.96511C209.264 3.23544 209.3 3.39968 209.722 3.6547C210.403 4.06615 211.164 3.63238 210.839 3.01701C210.575 2.51631 210.106 2.4971 209.572 2.96511ZM261.856 2.8048C261.076 2.93374 261.035 3.79738 261.799 4.01037C262.554 4.22129 263.015 3.98572 263.015 3.38877C263.015 2.81517 262.713 2.66315 261.856 2.8048ZM184.131 3.01961C183.77 3.28241 184.253 3.90764 184.817 3.90764C185.114 3.90764 185.29 3.72033 185.225 3.47516C185.101 3.01078 184.492 2.75706 184.131 3.01961ZM220.441 3.80854C220.311 4.05345 220.361 4.36658 220.55 4.50434C221.065 4.87922 222.082 4.49421 221.945 3.97639C221.784 3.36906 220.734 3.25207 220.441 3.80854ZM264.708 3.92838C263.851 4.29158 263.915 5.53193 264.822 6.12889C265.495 6.57225 265.642 6.58055 266.513 6.22487C267.686 5.74571 267.888 5.11841 267.136 4.28408C266.53 3.6106 265.734 3.49383 264.708 3.92838ZM232.797 4.09727C232.244 4.23762 232.221 4.74664 232.752 5.13268C233.294 5.52753 234.134 5.25616 234.134 4.68593C234.134 4.18678 233.516 3.91463 232.797 4.09727ZM245.906 4.23192C245.915 4.77958 246.512 5.28105 246.93 5.09297C247.626 4.77983 247.393 3.90764 246.613 3.90764C246.221 3.90764 245.903 4.05369 245.906 4.23192ZM178.395 4.85896C177.942 5.18767 178.16 5.46422 178.87 5.46422C179.266 5.46422 179.583 5.29118 179.583 5.07507C179.583 4.68022 178.829 4.54298 178.395 4.85896ZM255.042 6.1128C254.715 6.73232 255.198 7.33549 255.913 7.19954C256.457 7.09603 256.548 7.23147 256.501 8.08266C256.41 9.73627 258.64 10.4845 260.148 9.30666C261.038 8.61216 261.056 8.23392 260.251 7.23381C259.712 6.56344 259.471 6.47678 258.469 6.59378C257.496 6.70716 257.31 6.648 257.31 6.22617C257.31 5.84481 257.061 5.72365 256.278 5.72365C255.69 5.72365 255.158 5.89099 255.042 6.1128ZM138.58 6.24251C138.58 6.3852 138.741 6.50194 138.937 6.50194C139.133 6.50194 139.293 6.3852 139.293 6.24251C139.293 6.09982 139.133 5.98308 138.937 5.98308C138.741 5.98308 138.58 6.09982 138.58 6.24251ZM280.352 6.44953C280.05 6.80417 280.622 7.1474 281.644 7.22523C282.773 7.3111 282.842 7.21617 282.064 6.65009C281.461 6.21139 280.636 6.11461 280.352 6.44953ZM279.376 6.95595C279.241 7.62528 279.571 8.47466 280.075 8.75407C280.784 9.14659 281.912 9.19743 281.912 8.83682C281.912 8.69414 281.608 8.57739 281.238 8.57739C280.751 8.57739 280.5 8.32652 280.331 7.66938C280.127 6.8789 279.489 6.4018 279.376 6.95595ZM179.828 7.1884C179.338 7.54485 179.592 8.09538 180.207 8.00925C180.55 7.961 180.831 7.75783 180.831 7.55781C180.831 7.14817 180.202 6.91651 179.828 7.1884ZM131.477 7.69092C131.495 7.99315 131.579 8.05464 131.693 7.84787C131.796 7.66056 131.783 7.43667 131.665 7.35054C131.546 7.26441 131.462 7.41748 131.477 7.69092ZM173.38 7.69272C173.261 7.91972 173.249 8.2064 173.354 8.33015C173.674 8.70762 174.591 8.29356 174.591 7.77133C174.591 7.17567 173.684 7.11678 173.38 7.69272ZM187.042 7.55265C186.671 7.71946 186.645 7.85305 186.943 8.06967C187.411 8.40979 189.061 8.30552 188.969 7.9418C188.871 7.55914 187.598 7.30204 187.042 7.55265ZM247.358 7.90132C247.114 8.11484 246.968 8.55844 247.032 8.88739C247.12 9.34088 247.407 9.50174 248.218 9.5531C249.835 9.65506 250.406 9.28121 249.981 8.39811C249.577 7.55755 248.075 7.27298 247.358 7.90132ZM240.79 8.23157C240.659 8.32652 240.552 8.67466 240.552 9.00492C240.552 9.42883 240.291 9.65299 239.661 9.76791C238.969 9.89425 238.77 10.0976 238.77 10.6749C238.77 12.2343 242.049 12.7381 242.56 11.257C242.734 10.7535 242.623 10.4795 242.139 10.2224C241.629 9.9508 241.577 9.80321 241.909 9.56219C242.511 9.12349 242.438 8.40203 241.771 8.21602C241.073 8.02093 241.079 8.02091 240.79 8.23157ZM196.344 8.704C195.987 9.01765 196.016 9.12167 196.503 9.25735C197.205 9.45348 197.954 9.00805 197.608 8.59997C197.279 8.21264 196.866 8.24663 196.344 8.704ZM123.442 9.33779C123.329 9.47062 123.4 9.65247 123.6 9.74223C123.799 9.83173 123.962 9.72302 123.962 9.50069C123.962 9.04487 123.748 8.97796 123.442 9.33779ZM168.173 9.46387C168.173 9.68957 168.427 9.87454 168.738 9.87454C169.048 9.87454 169.239 9.73601 169.161 9.5666C168.941 9.08535 168.173 9.00571 168.173 9.46387ZM205.967 9.96094C205.967 10.4995 206.389 10.677 206.915 10.3594C207.606 9.942 207.503 9.61511 206.68 9.61511C206.288 9.61511 205.967 9.77077 205.967 9.96094ZM228.177 9.90283C227.612 10.314 228.01 10.9123 228.849 10.9123C229.365 10.9123 229.519 10.7639 229.435 10.3488C229.301 9.68568 228.746 9.48903 228.177 9.90283ZM216.664 10.5231C216.664 11.2485 217.528 11.4171 217.874 10.7592C218.145 10.2461 217.852 9.87454 217.177 9.87454C216.867 9.87454 216.664 10.1314 216.664 10.5231ZM163.895 10.6222C163.895 10.7649 164.055 10.9538 164.251 11.042C164.448 11.1302 164.608 11.0856 164.608 10.9429C164.608 10.8002 164.448 10.6113 164.251 10.5231C164.055 10.4349 163.895 10.4795 163.895 10.6222ZM116.474 11.0573C116.474 11.2796 116.637 11.3883 116.837 11.2988C117.036 11.2091 117.107 11.0272 116.994 10.8944C116.688 10.5345 116.474 10.6015 116.474 11.0573ZM128.24 11.4464C128.24 11.5974 128.401 11.649 128.597 11.5608C128.793 11.4726 128.953 11.3492 128.953 11.2861C128.953 11.2231 128.793 11.1717 128.597 11.1717C128.401 11.1717 128.24 11.2954 128.24 11.4464ZM233.842 11.5048C233.282 11.9957 234.121 12.818 235.049 12.6881C236.044 12.5487 235.998 11.3284 234.994 11.2241C234.585 11.1816 234.066 11.3079 233.842 11.5048ZM249.34 12.3267C248.204 13.0925 248.148 13.7258 249.135 14.639C250.109 15.5397 251.854 15.5652 253.142 14.6971C253.962 14.144 254.03 13.9712 253.73 13.2054C253.102 11.6029 251.029 11.1878 249.34 12.3267ZM168.689 12.232C168.342 12.6401 169.092 13.0855 169.794 12.8894C170.28 12.7537 170.31 12.6497 169.953 12.336C169.431 11.8787 169.018 11.8447 168.689 12.232ZM162.825 12.5986C162.825 12.8658 163.059 12.9929 163.449 12.9384C164.201 12.8331 164.153 12.3726 163.379 12.2553C163.056 12.2063 162.825 12.3493 162.825 12.5986ZM160.508 12.7283C160.387 12.871 160.457 12.9877 160.665 12.9877C160.872 12.9877 161.043 12.871 161.043 12.7283C161.043 12.5856 160.972 12.4689 160.885 12.4689C160.799 12.4689 160.629 12.5856 160.508 12.7283ZM231.46 12.7789C229.848 13.444 229.739 14.7106 231.223 15.5094C232.165 16.016 232.31 16.0262 233.351 15.6596C233.965 15.4432 234.562 15.0497 234.677 14.7853C234.911 14.2488 234.315 13.2835 233.452 12.8014C232.75 12.4089 232.367 12.4048 231.46 12.7789ZM158.547 13.2471C158.547 13.7315 158.642 13.8005 158.975 13.5585C159.307 13.3164 159.307 13.1779 158.975 12.9358C158.642 12.6938 158.547 12.7628 158.547 13.2471ZM175.725 13.312C175.788 13.6329 176 13.8957 176.196 13.8957C176.392 13.8957 176.604 13.6329 176.666 13.312C176.744 12.9104 176.598 12.7283 176.196 12.7283C175.794 12.7283 175.647 12.9104 175.725 13.312ZM109.878 13.2471C110 13.3898 110.249 13.5066 110.434 13.5066C110.619 13.5066 110.77 13.3898 110.77 13.2471C110.77 13.1045 110.519 12.9877 110.214 12.9877C109.908 12.9877 109.757 13.1045 109.878 13.2471ZM225.786 13.7299C225.459 14.1152 226.159 15.2305 226.849 15.4232C227.663 15.6505 228.848 14.8541 228.713 14.1694C228.633 13.7606 228.304 13.6179 227.304 13.5571C226.587 13.5138 225.904 13.5914 225.786 13.7299ZM154.268 14.1551C154.268 14.3692 154.429 14.5443 154.625 14.5443C154.821 14.5443 154.981 14.3692 154.981 14.1551C154.981 13.9411 154.821 13.766 154.625 13.766C154.429 13.766 154.268 13.9411 154.268 14.1551ZM183.215 14.2172C183.394 14.8932 184.575 14.9687 184.575 14.3038C184.575 13.9326 184.346 13.766 183.835 13.766C183.325 13.766 183.133 13.9058 183.215 14.2172ZM222.336 14.1832C221.932 14.5373 221.961 14.6538 222.524 14.9532C223.361 15.3986 223.795 15.2097 223.795 14.3993C223.795 13.6718 223.046 13.5608 222.336 14.1832ZM113.265 14.5443C113.265 14.687 113.436 14.8037 113.643 14.8037C113.851 14.8037 113.922 14.687 113.8 14.5443C113.679 14.4016 113.509 14.2849 113.423 14.2849C113.336 14.2849 113.265 14.4016 113.265 14.5443ZM274.484 14.7389C273.335 15.451 273.33 16.4836 274.471 17.3747C275.068 17.8414 275.468 17.9343 276.343 17.8092C278.364 17.5207 278.948 16.2085 277.607 14.9685C276.749 14.1751 275.537 14.0859 274.484 14.7389ZM103.639 15.1612C103.639 15.4199 103.936 15.582 104.411 15.582C104.836 15.582 105.117 15.5491 105.035 15.5086C104.954 15.4681 104.606 15.2787 104.263 15.0878C103.729 14.7902 103.639 14.8009 103.639 15.1612ZM124.318 15.0632C124.318 15.2058 124.479 15.3226 124.675 15.3226C124.871 15.3226 125.031 15.2058 125.031 15.0632C125.031 14.9205 124.871 14.8037 124.675 14.8037C124.479 14.8037 124.318 14.9205 124.318 15.0632ZM192.664 15.2307C192.199 15.569 192.421 15.8415 193.161 15.8415C193.576 15.8415 193.842 15.7055 193.763 15.5335C193.589 15.1542 192.994 14.9903 192.664 15.2307ZM211.672 16.0576C211.672 16.6698 211.972 16.8786 212.598 16.7038C213.387 16.4835 213.216 15.582 212.385 15.582C211.931 15.582 211.672 15.7551 211.672 16.0576ZM217.188 16.206C216.879 16.5489 216.233 16.9015 215.753 16.9892C215.128 17.1033 214.881 17.3267 214.881 17.7768C214.881 18.6085 215.446 18.8254 216.412 18.3649C216.965 18.1014 217.366 18.0666 217.761 18.2484C218.153 18.428 218.642 18.3956 219.366 18.1421C220.225 17.8412 220.387 17.6419 220.293 17.0039C220.082 15.589 218.183 15.1008 217.188 16.206ZM152.897 16.2145C152.965 16.4524 153.181 16.641 153.377 16.6335C153.906 16.613 153.809 16.0327 153.253 15.898C152.954 15.8254 152.82 15.9439 152.897 16.2145ZM148.275 16.3798C148.346 16.5331 148.556 16.6587 148.742 16.6587C148.928 16.6587 149.138 16.5331 149.208 16.3798C149.278 16.2264 149.069 16.1009 148.742 16.1009C148.415 16.1009 148.205 16.2264 148.275 16.3798ZM201.766 16.4003C201.952 16.8045 202.749 16.875 202.777 16.49C202.788 16.3473 202.528 16.1904 202.201 16.1408C201.83 16.0851 201.667 16.1821 201.766 16.4003ZM158.253 16.7632C158.414 17.3267 159.047 17.3612 159.192 16.8143C159.267 16.5302 159.092 16.3603 158.725 16.3603C158.382 16.3603 158.186 16.5282 158.253 16.7632ZM106.848 16.8792C106.848 17.0219 107.018 17.1386 107.225 17.1386C107.433 17.1386 107.504 17.0219 107.382 16.8792C107.261 16.7365 107.092 16.6197 107.005 16.6197C106.918 16.6197 106.848 16.7365 106.848 16.8792ZM116.831 16.8792C116.831 17.0219 116.991 17.1386 117.187 17.1386C117.384 17.1386 117.544 17.0219 117.544 16.8792C117.544 16.7365 117.384 16.6197 117.187 16.6197C116.991 16.6197 116.831 16.7365 116.831 16.8792ZM144.869 16.7998C144.468 17.0919 144.625 17.398 145.176 17.398C145.47 17.398 145.711 17.2883 145.711 17.1539C145.711 16.8268 145.154 16.5925 144.869 16.7998ZM98.2906 17.8025C98.2906 18.0248 98.4535 18.1335 98.6528 18.044C98.8521 17.9543 98.9231 17.7724 98.81 17.6396C98.5045 17.2797 98.2906 17.3467 98.2906 17.8025ZM164.608 17.9169C164.608 18.2023 164.768 18.4358 164.965 18.4358C165.161 18.4358 165.321 18.2023 165.321 17.9169C165.321 17.6315 165.161 17.398 164.965 17.398C164.768 17.398 164.608 17.6315 164.608 17.9169ZM222.595 18.3413C221.467 19.1624 221.461 19.2174 222.376 20.5216C223.17 21.6537 223.879 21.7988 225.55 21.1702C226.711 20.733 227.135 19.8868 226.583 19.1072C225.445 17.5023 224.103 17.2447 222.595 18.3413ZM138.826 18.6033C138.336 18.9598 138.589 19.5103 139.204 19.4242C139.547 19.376 139.828 19.1728 139.828 18.9728C139.828 18.5631 139.199 18.3315 138.826 18.6033ZM100.43 18.9546C100.43 19.0973 100.59 19.2141 100.786 19.2141C100.982 19.2141 101.143 19.0973 101.143 18.9546C101.143 18.8119 100.982 18.6952 100.786 18.6952C100.59 18.6952 100.43 18.8119 100.43 18.9546ZM135.368 19.0872C135.01 19.4014 135.032 19.4735 135.485 19.4735C136.15 19.4735 136.586 19.0503 136.131 18.8457C135.954 18.766 135.611 18.8747 135.368 19.0872ZM207.418 19.4852C206.102 19.9379 205.254 20.383 205.34 20.5753C205.521 20.9797 208.387 22.0317 209.364 22.0525C211.134 22.0899 212.151 20.8692 211.307 19.7218C210.57 18.7188 209.784 18.6711 207.418 19.4852ZM143.072 19.1456C142.689 19.4239 142.847 19.7329 143.373 19.7329C143.655 19.7329 143.975 19.6284 144.083 19.5007C144.31 19.2335 143.393 18.9115 143.072 19.1456ZM171.917 19.2141C171.775 19.3816 171.819 19.6354 172.015 19.778C172.253 19.9511 172.458 19.936 172.63 19.7329C172.773 19.5653 172.729 19.3116 172.533 19.1689C172.295 18.9959 172.09 19.0109 171.917 19.2141ZM92.7641 20.2518C92.8853 20.3945 93.1449 20.5112 93.341 20.5112C93.5371 20.5112 93.5984 20.3945 93.4772 20.2518C93.356 20.1091 93.0964 19.9923 92.9003 19.9923C92.7042 19.9923 92.6429 20.1091 92.7641 20.2518ZM148.207 20.5112C148.207 20.7966 148.367 21.0301 148.563 21.0301C148.76 21.0301 148.92 20.7966 148.92 20.5112C148.92 20.2258 148.76 19.9923 148.563 19.9923C148.367 19.9923 148.207 20.2258 148.207 20.5112ZM242.335 20.5112C240.814 21.6179 242.04 23.8838 244.16 23.8838C245.415 23.8838 246.97 22.8715 246.97 22.0548C246.97 21.7492 246.638 21.1603 246.233 20.7457C245.324 19.8167 243.445 19.7036 242.335 20.5112ZM179.583 20.9004C179.583 21.2571 179.743 21.5489 179.94 21.5489C180.136 21.5489 180.296 21.2571 180.296 20.9004C180.296 20.5436 180.136 20.2518 179.94 20.2518C179.743 20.2518 179.583 20.5436 179.583 20.9004ZM94.7251 21.0148C94.7251 21.1492 94.8855 21.331 95.0816 21.4192C95.2777 21.5074 95.4382 21.3974 95.4382 21.1751C95.4382 20.9527 95.2777 20.7706 95.0816 20.7706C94.8855 20.7706 94.7251 20.8804 94.7251 21.0148ZM126.101 21.1598C126.101 21.3738 126.244 21.5489 126.42 21.5489C126.595 21.5489 126.83 21.3738 126.943 21.1598C127.068 20.9227 126.944 20.7706 126.625 20.7706C126.337 20.7706 126.101 20.9458 126.101 21.1598ZM129.31 21.1598C129.31 21.3977 129.483 21.5502 129.693 21.4991C129.904 21.448 130.077 21.2955 130.077 21.1598C130.077 21.0241 129.904 20.8716 129.693 20.8205C129.483 20.7693 129.31 20.9219 129.31 21.1598ZM120.753 21.2895C120.753 21.4322 120.913 21.5489 121.109 21.5489C121.306 21.5489 121.466 21.4322 121.466 21.2895C121.466 21.1468 121.306 21.0301 121.109 21.0301C120.913 21.0301 120.753 21.1468 120.753 21.2895ZM123.094 21.2623C122.985 21.3902 123.136 21.5614 123.429 21.6434C123.753 21.7336 123.962 21.6426 123.962 21.4112C123.962 20.9914 123.405 20.8959 123.094 21.2623ZM196.825 22.3983C196.988 23.9692 197.475 24.6621 198.416 24.6621C198.854 24.6621 198.884 24.7314 198.551 24.9734C197.913 25.438 198.032 26.3359 198.871 27.37C199.511 28.16 199.753 28.2682 200.564 28.1283C202.134 27.8575 202.759 27.2821 202.752 26.1136C202.744 24.7412 201.428 23.6892 200.279 24.1367C199.485 24.446 199.297 24.1715 199.968 23.6833C200.609 23.2163 199.793 22.1685 198.62 21.9542C198.077 21.8551 197.416 21.5775 197.151 21.3372C196.737 20.961 196.691 21.1087 196.825 22.3983ZM187.628 21.7811C187.391 22.0605 188.14 22.2958 188.764 22.1376C189.009 22.0756 189.21 21.9176 189.21 21.7868C189.21 21.4804 187.888 21.4758 187.628 21.7811ZM133.069 22.0499C132.956 22.1827 133.027 22.3646 133.226 22.4543C133.652 22.6455 134.302 22.4027 134.302 22.0525C134.302 21.7368 133.336 21.7347 133.069 22.0499ZM153.912 22.219C153.912 22.445 154.102 22.5838 154.335 22.5272C154.996 22.3669 155.106 21.8084 154.476 21.8084C154.166 21.8084 153.912 21.9933 153.912 22.219ZM96.8644 22.3272C96.8644 22.4699 97.0344 22.5867 97.242 22.5867C97.4495 22.5867 97.5204 22.4699 97.3992 22.3272C97.278 22.1845 97.1083 22.0678 97.0216 22.0678C96.935 22.0678 96.8644 22.1845 96.8644 22.3272ZM87.2376 22.8461C87.2376 22.9888 87.3981 23.1055 87.5942 23.1055C87.7903 23.1055 87.9507 22.9888 87.9507 22.8461C87.9507 22.7034 87.7903 22.5867 87.5942 22.5867C87.3981 22.5867 87.2376 22.7034 87.2376 22.8461ZM110.413 22.9758C110.413 23.1898 110.574 23.3649 110.77 23.3649C110.966 23.3649 111.126 23.1898 111.126 22.9758C111.126 22.7618 110.966 22.5867 110.77 22.5867C110.574 22.5867 110.413 22.7618 110.413 22.9758ZM112.552 22.9911C112.552 23.2134 112.715 23.3221 112.915 23.2326C113.114 23.1429 113.185 22.961 113.072 22.8282C112.766 22.4684 112.552 22.5353 112.552 22.9911ZM114.335 22.9758C114.335 23.1898 114.576 23.3649 114.87 23.3649C115.164 23.3649 115.405 23.1898 115.405 22.9758C115.405 22.7618 115.164 22.5867 114.87 22.5867C114.576 22.5867 114.335 22.7618 114.335 22.9758ZM116.708 22.9867C116.941 23.4295 117.599 23.3751 117.819 22.8949C117.897 22.7236 117.635 22.5867 117.228 22.5867C116.716 22.5867 116.56 22.7062 116.708 22.9867ZM119.54 23.037C119.111 23.3491 119.345 23.6244 120.04 23.6244C120.432 23.6244 120.753 23.5201 120.753 23.3927C120.753 23.1011 119.826 22.8289 119.54 23.037ZM138.045 23.6244C137.924 23.7671 137.935 24.013 138.069 24.171C138.309 24.453 138.918 24.0208 138.931 23.5595C138.939 23.2752 138.302 23.3219 138.045 23.6244ZM160.686 24.1585C160.686 24.4522 160.846 24.6206 161.043 24.5324C161.239 24.4442 161.399 24.204 161.399 23.9982C161.399 23.7925 161.239 23.6244 161.043 23.6244C160.846 23.6244 160.686 23.8649 160.686 24.1585ZM106.135 24.418C106.135 24.7116 106.295 24.88 106.491 24.7918C106.687 24.7036 106.848 24.4634 106.848 24.2577C106.848 24.0519 106.687 23.8838 106.491 23.8838C106.295 23.8838 106.135 24.1243 106.135 24.418ZM107.561 24.2577C107.561 24.4634 107.728 24.7067 107.933 24.7988C108.393 25.0058 109.409 24.4299 109.14 24.1139C108.821 23.738 107.561 23.8527 107.561 24.2577ZM123.249 24.4027C123.249 24.7371 123.429 24.921 123.694 24.8567C123.94 24.7973 124.14 24.5928 124.14 24.4027C124.14 24.2125 123.94 24.0081 123.694 23.9487C123.429 23.8843 123.249 24.0683 123.249 24.4027ZM104.352 24.3874C104.352 24.5218 104.512 24.7036 104.708 24.7918C104.904 24.88 105.065 24.77 105.065 24.5477C105.065 24.3253 104.904 24.1432 104.708 24.1432C104.512 24.1432 104.352 24.253 104.352 24.3874ZM91.1596 24.8071C91.1596 25.0294 91.3226 25.1382 91.5219 25.0486C91.7212 24.9589 91.7922 24.777 91.6791 24.6442C91.3736 24.2844 91.1596 24.3513 91.1596 24.8071ZM101.499 24.6621C101.499 24.8048 101.66 24.9215 101.856 24.9215C102.052 24.9215 102.213 24.8048 102.213 24.6621C102.213 24.5194 102.052 24.4027 101.856 24.4027C101.66 24.4027 101.499 24.5194 101.499 24.6621ZM110.413 24.7918C110.413 25.0058 110.654 25.181 110.948 25.181C111.242 25.181 111.483 25.0058 111.483 24.7918C111.483 24.5778 111.242 24.4027 110.948 24.4027C110.654 24.4027 110.413 24.5778 110.413 24.7918ZM187.744 25.3527C187.119 25.4744 186.357 26.4947 186.357 27.211C186.357 27.9927 187.407 28.813 188.408 28.813C189.577 28.813 191.349 27.6243 191.349 26.8398C191.349 26.4626 190.931 26.0732 190.148 25.7211C188.934 25.1753 188.779 25.1514 187.744 25.3527ZM92.9424 25.6503C92.9424 25.9151 94.294 26.7375 94.729 26.7375C94.923 26.7375 95.0816 26.6208 95.0816 26.4781C95.0816 26.3354 94.841 26.2187 94.5468 26.2187C94.2527 26.2187 94.012 26.1144 94.012 25.987C94.012 25.8596 93.7713 25.6881 93.4772 25.6059C93.183 25.5239 92.9424 25.5439 92.9424 25.6503ZM98.8254 25.6171C96.8665 25.9372 95.7947 26.2947 95.7947 26.6281C95.7947 27.0626 96.2144 27.1067 96.7364 26.7269C96.9407 26.5783 97.8955 26.4319 98.8578 26.4021C99.8205 26.372 100.568 26.2599 100.519 26.1533C100.47 26.0467 100.43 25.8425 100.43 25.6998C100.43 25.4331 100.066 25.4145 98.8254 25.6171ZM143.409 25.9414C143.145 26.2519 143.816 26.5593 144.291 26.3458C144.69 26.1665 144.428 25.6998 143.928 25.6998C143.755 25.6998 143.522 25.8085 143.409 25.9414ZM167.46 26.2187C167.46 26.3614 167.701 26.4781 167.995 26.4781C168.289 26.4781 168.53 26.3614 168.53 26.2187C168.53 26.076 168.289 25.9593 167.995 25.9593C167.701 25.9593 167.46 26.076 167.46 26.2187ZM101.499 26.7375C101.499 27.0834 101.737 27.2564 102.213 27.2564C103.059 27.2564 103.17 26.6019 102.362 26.3762C101.544 26.1479 101.499 26.1663 101.499 26.7375ZM113.745 26.619C113.629 26.8392 113.627 27.087 113.741 27.17C114.1 27.4318 115.048 27.0302 115.048 26.6159C115.048 26.098 114.018 26.1006 113.745 26.619ZM128.122 26.3917C127.687 26.7077 127.876 27.2564 128.419 27.2564C128.716 27.2564 128.953 27.0258 128.953 26.7375C128.953 26.2208 128.573 26.0628 128.122 26.3917ZM214.737 26.8683C213.91 27.3239 213.886 28.5909 214.688 29.4816C216.043 30.9862 219.484 29.7283 218.954 27.9221C218.826 27.4847 218.559 26.9809 218.362 26.8024C217.876 26.3642 215.577 26.406 214.737 26.8683ZM269.909 27.0442C268.857 27.4144 268.682 28.1071 269.381 29.1259C270.569 30.8578 274.073 30.0845 273.565 28.2023C273.205 26.8683 271.733 26.4021 269.909 27.0442ZM90.2023 27.1651C90.587 27.4453 88.9712 28.2941 88.0534 28.2941C87.5724 28.2941 87.2922 28.408 87.4159 28.5536C87.7725 28.9736 89.2682 28.8527 90.9853 28.2656C92.9688 27.5872 93.105 26.997 91.2784 26.997C90.5596 26.997 90.075 27.0727 90.2023 27.1651ZM85.6332 27.5158C85.512 27.6585 85.6724 27.7753 85.9897 27.7753C86.3071 27.7753 86.4675 27.6585 86.3463 27.5158C86.2251 27.3732 86.0646 27.2564 85.9897 27.2564C85.9149 27.2564 85.7544 27.3732 85.6332 27.5158ZM182.435 27.6456C182.435 27.8596 182.596 28.0347 182.792 28.0347C182.988 28.0347 183.148 27.8596 183.148 27.6456C183.148 27.4315 182.988 27.2564 182.792 27.2564C182.596 27.2564 182.435 27.4315 182.435 27.6456ZM92.9424 28.1644C92.9424 28.3805 93.2593 28.5536 93.6555 28.5536C94.0516 28.5536 94.3685 28.3805 94.3685 28.1644C94.3685 27.9483 94.0516 27.7753 93.6555 27.7753C93.2593 27.7753 92.9424 27.9483 92.9424 28.1644ZM104.352 28.2941C104.811 28.9186 105.268 28.9596 105.562 28.4026C105.881 27.7968 105.858 27.7753 104.874 27.7753C104.081 27.7753 104.017 27.8386 104.352 28.2941ZM149.633 28.5536C149.633 28.6962 149.794 28.813 149.99 28.813C150.186 28.813 150.346 28.6962 150.346 28.5536C150.346 28.4109 150.186 28.2941 149.99 28.2941C149.794 28.2941 149.633 28.4109 149.633 28.5536ZM83.1063 29.2C82.7862 29.5557 82.615 30.0191 82.7259 30.2295C82.8372 30.4401 82.7744 30.6814 82.5869 30.7657C82.1715 30.9525 82.1319 31.6667 82.537 31.6667C82.697 31.6667 83.1937 31.193 83.6412 30.6137C84.3928 29.6406 84.4905 29.5965 84.9329 30.03C85.3783 30.4666 85.4528 30.4694 86.0101 30.0702C86.7221 29.5599 86.358 28.9757 85.4378 29.1508C85.0795 29.219 84.7026 29.1129 84.5978 28.9139C84.3118 28.3717 83.7563 28.4783 83.1063 29.2ZM117.544 28.813C117.544 28.9557 117.865 29.0724 118.257 29.0724C118.649 29.0724 118.97 28.9557 118.97 28.813C118.97 28.6703 118.649 28.5536 118.257 28.5536C117.865 28.5536 117.544 28.6703 117.544 28.813ZM178.946 28.8433C177.963 29.1077 177.929 29.8795 178.871 30.5003C179.483 30.9035 179.724 30.9248 180.555 30.6492C181.229 30.4259 181.564 30.4134 181.653 30.6083C181.836 31.0067 183.036 30.9562 183.255 30.5406C183.356 30.3494 183.298 30.0282 183.126 29.8271C182.876 29.5347 182.676 29.5238 182.124 29.7726C181.526 30.0419 181.406 30.0027 181.225 29.4792C180.986 28.7863 180.089 28.5356 178.946 28.8433ZM133.41 29.0724C133.268 29.24 133.312 29.4937 133.508 29.6364C133.746 29.8095 133.951 29.7944 134.123 29.5913C134.266 29.4237 134.222 29.17 134.026 29.0273C133.788 28.8543 133.583 28.8693 133.41 29.0724ZM95.5972 29.6139C95.286 29.9802 95.9734 30.4803 96.4768 30.2539C97.0423 29.9996 96.951 29.3319 96.3506 29.3319C96.0679 29.3319 95.7291 29.4587 95.5972 29.6139ZM76.2272 30.7019C75.6417 31.1279 75.7408 31.9262 76.3791 31.9262C76.8158 31.9262 76.8814 32.1148 76.696 32.8342C76.507 33.5668 76.573 33.7422 77.0365 33.7422C77.4669 33.7422 77.6109 33.4874 77.6109 32.726C77.6109 32.1672 77.7567 31.6711 77.9346 31.6234C78.1129 31.5759 78.3137 31.3186 78.3803 31.0516C78.4709 30.6915 78.2602 30.5462 77.5642 30.4889C77.0483 30.4464 76.4468 30.5421 76.2272 30.7019ZM108.452 30.629C108.192 30.9351 108.529 31.4073 109.008 31.4073C109.193 31.4073 109.343 31.1738 109.343 30.8884C109.343 30.3413 108.825 30.1903 108.452 30.629ZM86.7542 31.0143C86.6265 31.2563 86.7552 31.488 87.0654 31.5746C87.8042 31.7809 88.7526 31.4724 88.5765 31.0828C88.354 30.5914 87.0041 30.5405 86.7542 31.0143ZM177.691 31.3295C176.596 31.536 176.26 32.644 177.008 33.579C177.809 34.5796 178.792 34.7138 180.05 33.9944C181.131 33.3751 181.274 32.576 180.454 31.7246C179.924 31.1736 179.124 31.0591 177.691 31.3295ZM122.892 31.7964C122.892 32.0105 123.053 32.1856 123.249 32.1856C123.445 32.1856 123.605 32.0105 123.605 31.7964C123.605 31.5824 123.445 31.4073 123.249 31.4073C123.053 31.4073 122.892 31.5824 122.892 31.7964ZM175.376 31.9923C175.044 32.2842 175.026 32.4492 175.311 32.5776C175.839 32.815 176.108 32.5898 175.96 32.0359C175.851 31.6304 175.793 31.6263 175.376 31.9923ZM99.0036 32.445C99.0036 32.8357 99.1898 32.9758 99.6276 32.9146C99.9706 32.8664 100.252 32.6552 100.252 32.445C100.252 32.2349 99.9706 32.0237 99.6276 31.9754C99.1898 31.9142 99.0036 32.0543 99.0036 32.445ZM236.5 32.464C235.272 33.1668 235.245 34.3142 236.436 35.1807C237.445 35.9152 238.051 35.9671 239.455 35.4389C240.65 34.9893 240.991 34.2501 240.488 33.2002C239.849 31.8683 238.104 31.5458 236.5 32.464ZM69.4307 32.4305C69.0142 32.6222 68.9957 32.7942 69.3337 33.3343C69.5637 33.7014 69.9156 34.0016 70.116 34.0016C70.316 34.0016 70.48 34.1508 70.48 34.3329C70.48 34.5153 70.7449 34.9397 71.0687 35.2762L71.6577 35.8877L72.1051 35.2661C72.5562 34.6398 72.4082 33.1273 71.9176 33.3478C71.7725 33.4132 71.4733 33.1782 71.253 32.8261C70.8316 32.1534 70.2885 32.0354 69.4307 32.4305ZM78.5593 32.3778C78.4559 32.4998 78.5162 32.769 78.6941 32.9763C79.0353 33.3746 80.1 33.0949 80.2233 32.5747C80.3003 32.251 78.8164 32.0751 78.5593 32.3778ZM168.369 32.7561C166.983 33.7131 168.628 35.2954 170.477 34.7838C171.698 34.446 171.909 33.9559 171.24 33.0142C170.613 32.1321 169.426 32.0255 168.369 32.7561ZM172.313 32.5934C172.035 33.1203 172.684 34.0016 173.349 34.0016C173.919 34.0016 174.437 32.8925 174.069 32.4598C173.716 32.0437 172.557 32.1321 172.313 32.5934ZM190.698 33.0433C189.29 33.7596 189.159 34.9301 190.395 35.7746C191.166 36.3017 191.32 36.3165 192.623 35.9896C193.616 35.7406 194.058 35.4684 194.142 35.0531C194.347 34.0421 193.871 33.2464 192.826 32.8534C191.899 32.5044 191.728 32.5197 190.698 33.0433ZM89.7335 33.8566C89.7335 34.3477 90.244 34.5607 90.9493 34.3638C91.8535 34.1113 91.6217 33.4827 90.6248 33.4827C90.0864 33.4827 89.7335 33.6309 89.7335 33.8566ZM113.087 34.0016C112.966 34.1443 112.977 34.3902 113.111 34.5482C113.35 34.8302 113.96 34.398 113.973 33.9367C113.981 33.6524 113.344 33.6991 113.087 34.0016ZM62.2794 35.0077C62.2794 35.896 63.0849 36.4514 64.4301 36.4908C65.3482 36.5178 65.39 36.4724 65.1069 35.7543C64.6876 34.6909 64.1178 34.261 63.1273 34.261C62.431 34.261 62.2794 34.3944 62.2794 35.0077ZM81.3119 34.8972C81.2028 35.1045 81.2174 35.3966 81.3447 35.5465C81.6627 35.9206 82.9591 35.402 82.9591 34.9005C82.9591 34.4079 81.5714 34.405 81.3119 34.8972ZM162.494 35.2848C161.889 35.6174 161.736 35.8835 161.916 36.2958C162.165 36.8655 162.451 36.9558 163.717 36.8629C164.807 36.7827 165.039 36.4802 164.577 35.7416C164.02 34.8533 163.492 34.7374 162.494 35.2848ZM103.639 35.8176C103.639 36.152 103.819 36.336 104.084 36.2716C104.33 36.2122 104.53 36.0078 104.53 35.8176C104.53 35.6275 104.33 35.423 104.084 35.3636C103.819 35.2993 103.639 35.4832 103.639 35.8176ZM167.104 35.8023C167.104 36.0794 167.232 36.3635 167.388 36.4338C167.896 36.6623 168.64 36.1409 168.415 35.7141C168.106 35.1278 167.104 35.1953 167.104 35.8023ZM73.091 36.4924C72.7869 37.0688 73.7367 37.4505 74.3549 37.0006C74.6234 36.8053 74.7343 36.5178 74.6013 36.3614C74.2426 35.939 73.3416 36.0171 73.091 36.4924ZM55.9258 37.0219C55.3618 37.7556 55.8424 38.4119 56.9437 38.4119C57.4932 38.4119 58.1963 38.4828 58.5065 38.5694C59.3889 38.8159 59.1739 38.1857 58.0911 37.3509C56.9801 36.4945 56.3997 36.4063 55.9258 37.0219ZM65.3939 37.0105C64.9346 37.3446 65.1118 38.3364 65.6937 38.6877C66.1597 38.9689 66.3113 38.9635 66.5798 38.6548C67.0279 38.1395 67.0022 38.0293 66.2852 37.3851C65.9394 37.0743 65.5383 36.9057 65.3939 37.0105ZM94.012 37.4886C94.012 37.6944 94.1557 37.9271 94.3311 38.0059C94.6984 38.1709 95.1408 37.5037 94.8192 37.2699C94.4367 36.9916 94.012 37.1065 94.012 37.4886ZM118.257 37.6336C118.257 37.7763 118.427 37.8931 118.635 37.8931C118.842 37.8931 118.913 37.7763 118.792 37.6336C118.671 37.491 118.501 37.3742 118.414 37.3742C118.328 37.3742 118.257 37.491 118.257 37.6336ZM158.228 37.863C157.533 38.2524 157.423 38.4789 157.632 39.0896C158.158 40.6215 159.457 41.1105 160.963 40.3429C161.901 39.8647 162.008 38.7897 161.201 37.9509C160.529 37.2531 159.38 37.2191 158.228 37.863ZM208.82 37.5574C205.657 38.3985 206.273 41.7137 209.548 41.4789C211.975 41.3046 212.616 39.4881 210.762 38.0332C209.899 37.355 209.733 37.3145 208.82 37.5574ZM162.647 37.8931C162.526 38.0358 162.597 38.1525 162.804 38.1525C163.012 38.1525 163.182 38.0358 163.182 37.8931C163.182 37.7504 163.111 37.6336 163.025 37.6336C162.938 37.6336 162.768 37.7504 162.647 37.8931ZM84.9201 38.4119C84.6217 38.7632 85.0242 39.1902 85.6542 39.1902C85.937 39.1902 86.168 38.9567 86.168 38.6714C86.168 38.1343 85.3077 37.9553 84.9201 38.4119ZM152.04 39.0325C150.792 39.7215 151.6 41.4185 153.05 41.1539C153.794 41.0177 153.912 41.0875 153.912 41.6652C153.912 42.0331 154.054 42.2702 154.227 42.1921C154.4 42.1143 154.542 41.46 154.542 40.7385C154.542 38.9209 153.513 38.2189 152.04 39.0325ZM49.8717 39.2421C48.7325 40.071 49.8813 40.9372 51.6826 40.6083C52.2944 40.4964 52.6206 40.5712 52.7714 40.8573C53.0453 41.3767 53.7224 41.3905 53.7224 40.8765C53.7224 40.6625 53.4817 40.4874 53.1875 40.4874C52.8934 40.4874 52.6527 40.3304 52.6527 40.1385C52.6527 39.6896 51.5039 38.9308 50.824 38.9308C50.5356 38.9308 50.107 39.0709 49.8717 39.2421ZM168.202 39.6019C167.312 40.1467 167.148 40.4028 167.332 40.964C167.68 42.0248 168.146 42.3034 169.572 42.3034C171.186 42.3034 171.739 41.9306 171.739 40.8436C171.739 40.2479 171.468 39.851 170.799 39.4686C169.61 38.7881 169.524 38.7925 168.202 39.6019ZM59.4271 39.4497C59.4271 39.5923 59.6774 39.7091 59.9829 39.7091C60.2885 39.7091 60.4397 39.5923 60.3185 39.4497C60.1972 39.307 59.9473 39.1902 59.7626 39.1902C59.5779 39.1902 59.4271 39.307 59.4271 39.4497ZM57.5552 39.7298C56.6678 40.106 56.7833 40.4874 57.7845 40.4874C58.4901 40.4874 59.0705 40.0679 59.0705 39.5581C59.0705 39.3612 58.1899 39.4608 57.5552 39.7298ZM108.659 39.8603C108.676 40.1626 108.76 40.224 108.874 40.0173C108.977 39.83 108.964 39.6061 108.846 39.52C108.727 39.4338 108.643 39.5869 108.659 39.8603ZM75.9819 39.9976C75.6802 40.3527 76.4803 40.7476 77.1328 40.5652C77.3959 40.4921 77.6109 40.2692 77.6109 40.0705C77.6109 39.6411 76.333 39.5838 75.9819 39.9976ZM67.6276 41.5251C67.6276 42.1031 68.3265 42.21 68.9825 41.7327C69.6471 41.2491 69.4924 41.0062 68.519 41.0062C67.8655 41.0062 67.6276 41.1445 67.6276 41.5251ZM147.565 41.3175C146.583 42.0325 147.748 43.0189 149 42.5317C149.78 42.2279 149.799 41.9423 149.073 41.4138C148.401 40.9245 148.129 40.9074 147.565 41.3175ZM44.5114 41.5552C43.3932 41.8623 43.722 42.4331 45.0166 42.4331C45.5888 42.4331 46.1579 42.5343 46.2816 42.6578C46.4068 42.7828 46.7751 42.7732 47.1116 42.6362C47.6575 42.4139 47.6351 42.3516 46.8867 42.0035C45.458 41.3388 45.3635 41.3212 44.5114 41.5552ZM50.3947 41.4387C49.8653 41.8237 50.2068 42.3034 51.0101 42.3034C51.8287 42.3034 52.478 41.7438 52.0338 41.4208C51.7471 41.212 50.6899 41.2236 50.3947 41.4387ZM98.6471 41.5098C98.6471 41.6442 98.8075 41.826 99.0036 41.9142C99.1997 42.0025 99.3602 41.8924 99.3602 41.6701C99.3602 41.4478 99.1997 41.2657 99.0036 41.2657C98.8075 41.2657 98.6471 41.3754 98.6471 41.5098ZM54.4354 41.7845C54.4354 41.9272 54.6055 42.044 54.813 42.044C55.0205 42.044 55.0915 41.9272 54.9703 41.7845C54.849 41.6418 54.6793 41.5251 54.5927 41.5251C54.506 41.5251 54.4354 41.6418 54.4354 41.7845ZM266.143 42.4964C265.027 43 264.774 43.3492 265.023 44.0424C265.456 45.2459 267.844 45.3828 268.853 44.2621C269.328 43.7347 269.313 43.5943 268.699 42.8601C267.925 41.9337 267.518 41.8759 266.143 42.4964ZM59.2488 42.5628C58.9197 42.9504 59.3775 43.3411 60.1612 43.3411C60.6155 43.3411 60.8533 43.1629 60.8533 42.8223C60.8533 42.272 59.6599 42.079 59.2488 42.5628ZM89.0204 43.0817C89.0204 43.2244 89.2514 43.3411 89.5342 43.3411C89.8169 43.3411 90.1471 43.2244 90.2683 43.0817C90.3895 42.939 90.1581 42.8223 89.7545 42.8223C89.3509 42.8223 89.0204 42.939 89.0204 43.0817ZM268.156 44.6159C267.861 44.8305 266.768 44.231 266.649 43.7892C266.456 43.0778 267.799 43.125 268.084 43.8397C268.224 44.1933 268.257 44.5425 268.156 44.6159ZM43.9077 43.6119C43.7812 43.7609 43.8689 44.0501 44.1024 44.2551C44.6504 44.7353 45.9472 44.2919 45.6487 43.7264C45.4159 43.2848 44.2507 43.2083 43.9077 43.6119ZM48.0176 43.86C48.0176 44.0027 48.1684 44.1194 48.3531 44.1194C48.5378 44.1194 48.7878 44.0027 48.909 43.86C49.0302 43.7173 48.879 43.6005 48.5735 43.6005C48.2679 43.6005 48.0176 43.7173 48.0176 43.86ZM38.659 44.0268C38.1919 44.6121 38.0233 46.6782 38.428 46.86C38.9778 47.1073 39.9005 46.2086 39.6278 45.6913C39.5151 45.4775 39.5358 45.3849 39.6737 45.4853C40.0003 45.7227 40.8607 44.8954 40.8753 44.3301C40.8828 44.0499 40.63 43.9064 40.1736 43.9313C39.7814 43.9529 39.458 44.0914 39.4552 44.2395C39.452 44.3874 39.3119 44.35 39.1432 44.1565C38.9746 43.963 38.7567 43.9046 38.659 44.0268ZM52.022 44.1632C51.5535 44.5041 51.8469 45.1571 52.4691 45.1571C52.718 45.1571 53.1123 44.99 53.3451 44.7861C53.6824 44.4904 53.63 44.3612 53.087 44.1497C52.616 43.9663 52.2869 43.9705 52.022 44.1632ZM79.9409 44.1049C79.8147 44.2533 79.8525 44.5581 80.0251 44.7823C80.2953 45.1338 80.397 45.1387 80.7617 44.8188C81.0926 44.5288 81.074 44.3806 80.6776 44.1412C80.3342 43.9339 80.096 43.922 79.9409 44.1049ZM141.497 44.5036C140.944 44.9275 140.707 45.3782 140.784 45.8612C140.886 46.5077 141.054 46.5923 142.383 46.6626C143.67 46.7308 143.902 46.6616 144.121 46.1437C144.26 45.8153 144.674 45.3374 145.042 45.0822C145.41 44.8269 145.711 44.5021 145.711 44.3607C145.711 43.916 144.658 43.7863 144.044 44.1552C143.585 44.4312 143.423 44.4377 143.306 44.1843C143.076 43.6864 142.408 43.8042 141.497 44.5036ZM181.574 44.3545C180.678 45.0746 180.959 46.4091 182.14 47.0479C183.085 47.5587 183.104 47.5587 184.279 47.0611C185.583 46.509 186.017 45.3704 185.297 44.3908C184.771 43.6758 182.446 43.6532 181.574 44.3545ZM41.3174 44.8136C40.9637 44.9169 40.9534 45.0326 41.2721 45.312C41.8622 45.8296 42.3129 45.7624 42.3129 45.1571C42.3129 44.6307 42.1439 44.5724 41.3174 44.8136ZM136.229 45.5496C135.955 46.3471 136.596 46.9731 137.689 46.9731C138.991 46.9731 139.493 46.3251 138.792 45.5476C137.994 44.6611 136.536 44.6621 136.229 45.5496ZM71.1931 45.5463C71.1931 45.7603 71.4338 45.9354 71.7279 45.9354C72.0221 45.9354 72.2627 45.7603 72.2627 45.5463C72.2627 45.3322 72.0221 45.1571 71.7279 45.1571C71.4338 45.1571 71.1931 45.3322 71.1931 45.5463ZM149.225 45.7092C147.743 46.1041 147.574 47.7732 148.925 48.6628C149.519 49.054 149.654 49.054 150.689 48.6646C151.305 48.433 151.898 48.0739 152.007 47.8669C152.283 47.3441 151.88 46.3106 151.212 45.8239C150.58 45.3644 150.528 45.3616 149.225 45.7092ZM43.451 45.9549C43.5212 46.1082 43.7312 46.2338 43.9174 46.2338C44.1035 46.2338 44.3135 46.1082 44.3837 45.9549C44.454 45.8015 44.2443 45.676 43.9174 45.676C43.5904 45.676 43.3808 45.8015 43.451 45.9549ZM45.2918 46.0695C45.1802 46.2812 45.1802 46.6273 45.2918 46.839C45.5625 47.3519 46.5914 47.0471 46.5914 46.4543C46.5914 45.8615 45.5625 45.5567 45.2918 46.0695ZM62.1329 46.6473C61.6106 47.0274 62.0195 47.2588 63.0817 47.1841C63.7192 47.1394 64.2405 46.9991 64.2405 46.8722C64.2405 46.6081 62.4499 46.4169 62.1329 46.6473ZM33.4406 47.1361C33.4178 47.4396 33.1586 47.8332 32.8644 48.0109C32.5703 48.1886 32.3296 48.4947 32.3296 48.6911C32.3296 49.137 33.1875 49.156 33.8346 48.7243C34.102 48.5461 34.6347 48.2708 35.0187 48.1128C36.0131 47.7037 36.1343 46.9731 35.208 46.9731C34.8016 46.9731 34.4689 47.0899 34.4689 47.2326C34.4689 47.6726 33.8178 47.5187 33.6449 47.038C33.5155 46.6774 33.4734 46.6976 33.4406 47.1361ZM133.792 47.1213C133.12 47.6106 133.096 47.8083 133.66 48.2184C134.222 48.6273 135.373 48.6187 135.366 48.2054C135.357 47.5914 134.931 46.7137 134.642 46.7137C134.483 46.7137 134.101 46.8971 133.792 47.1213ZM231.218 47.1122C230.144 47.5364 229.722 48.2166 230.08 48.9472C230.796 50.4077 232.72 50.7925 234.072 49.7454C235.083 48.9625 235.053 48.2477 233.973 47.4002C232.981 46.6214 232.569 46.5783 231.218 47.1122ZM36.846 47.665C36.4356 47.9634 36.5861 48.2703 37.143 48.2703C37.4371 48.2703 37.6778 48.0952 37.6778 47.8812C37.6778 47.4759 37.256 47.3664 36.846 47.665ZM54.679 47.6606C54.2992 47.9369 54.393 48.7892 54.803 48.7892C55.3304 48.7892 55.6623 48.0215 55.2612 47.7296C55.0751 47.5942 54.813 47.5631 54.679 47.6606ZM38.8077 48.3121C38.8726 48.6457 39.1664 48.9189 39.4605 48.9189C40.2339 48.9189 40.1273 47.9068 39.3425 47.7968C38.8362 47.7258 38.7161 47.8415 38.8077 48.3121ZM84.2223 48.7713C84.1093 48.9041 84.1803 49.0859 84.3796 49.1757C84.5789 49.2652 84.7418 49.1565 84.7418 48.9342C84.7418 48.4784 84.5279 48.4114 84.2223 48.7713ZM131.331 49.2216C130.939 49.506 131.059 49.7618 131.66 49.9296C132.489 50.1613 132.99 49.851 132.493 49.4147C132.034 49.013 131.695 48.9565 131.331 49.2216ZM30.3897 49.5428C30.2588 49.6969 30.297 50.0116 30.4745 50.2425C30.7662 50.6215 30.8207 50.6176 31.0404 50.201C31.3188 49.6728 30.7598 49.107 30.3897 49.5428ZM46.5914 49.6972C46.5914 49.9898 46.8417 50.0964 47.3937 50.0396C47.8351 49.9939 48.1959 49.8399 48.1959 49.6972C48.1959 49.5545 47.8351 49.4004 47.3937 49.3547C46.8417 49.2979 46.5914 49.4045 46.5914 49.6972ZM28.9399 49.9403C28.8433 50.1631 28.6886 50.5219 28.5959 50.7372C28.5032 50.9526 28.3028 51.0986 28.1502 51.0615C27.86 50.9912 27.6945 51.2029 27.6945 51.645C27.6945 51.8009 27.9801 51.777 28.4012 51.5856C29.238 51.2053 29.9547 49.912 29.4534 49.6865C29.2676 49.603 29.0366 49.7172 28.9399 49.9403ZM74.9996 50.1903C74.8841 50.4093 74.9322 50.6527 75.1062 50.7307C75.5722 50.9404 75.9676 50.3434 75.5593 50.0464C75.3312 49.8803 75.1368 49.9301 74.9996 50.1903ZM32.1966 50.4832C31.9342 50.9806 33.4406 51.528 34.3569 51.2685C34.9538 51.0997 34.9385 51.0467 34.1619 50.586C33.1472 49.9836 32.4787 49.9486 32.1966 50.4832ZM159.137 50.5608C158.344 51.1987 158.393 52.0497 159.26 52.6806C160.171 53.3435 161.061 53.338 162.242 52.6617C163.375 52.0134 163.412 51.6662 162.443 50.7699C161.564 49.9566 160.01 49.8583 159.137 50.5608ZM122.803 50.7839C122.122 50.9136 121.978 51.7934 122.536 52.4212C122.726 52.6352 122.884 52.7084 122.887 52.5841C122.89 52.4596 123.114 52.4918 123.386 52.6557C123.78 52.8942 123.927 52.8179 124.113 52.2764C124.357 51.5697 124.091 50.5834 123.671 50.6353C123.536 50.6519 123.146 50.7188 122.803 50.7839ZM125.031 51.494C125.031 52.2458 125.186 52.4396 125.886 52.5675C126.357 52.6534 127.119 52.6848 127.58 52.6373C128.278 52.5654 128.419 52.3986 128.419 51.6429C128.419 50.7437 128.402 50.7341 126.725 50.6557L125.031 50.5766V51.494ZM39.9526 51.2413C39.8435 51.4486 39.8577 51.7405 39.9847 51.8899C40.4 52.3789 40.8867 52.1755 40.8867 51.5132C40.8867 50.8099 40.2742 50.6316 39.9526 51.2413ZM65.8998 51.2377C65.9679 51.4756 66.1836 51.6642 66.3797 51.6566C66.9088 51.6361 66.8119 51.0558 66.2564 50.9212C65.9565 50.8485 65.8232 50.9671 65.8998 51.2377ZM25.9118 52.2915C25.9118 52.5055 26.0723 52.6806 26.2684 52.6806C26.4645 52.6806 26.6249 52.5055 26.6249 52.2915C26.6249 52.0774 26.4645 51.9023 26.2684 51.9023C26.0723 51.9023 25.9118 52.0774 25.9118 52.2915ZM57.1591 52.0824C56.7576 52.3745 56.9149 52.6806 57.4661 52.6806C57.7602 52.6806 58.0009 52.5709 58.0009 52.4365C58.0009 52.1093 57.444 51.8751 57.1591 52.0824ZM131.291 52.4791C130.475 53.3266 130.612 54.1288 131.678 54.7387C132.441 55.1753 132.729 55.2181 133.193 54.9646C134.829 54.0725 135.045 53.3404 133.931 52.4702C133.001 51.7435 131.996 51.7469 131.291 52.4791ZM200.846 52.4401C199.684 53.1045 199.612 54.1544 200.66 55.1242C201.294 55.711 201.592 55.7943 202.532 55.6482C204.157 55.3956 204.541 55.0721 204.541 53.9562C204.541 53.2656 204.302 52.7979 203.761 52.4313C202.772 51.7609 202.028 51.763 200.846 52.4401ZM120.04 52.5193C120.04 52.7157 120.293 53.0293 120.602 53.2158C121.066 53.496 121.216 53.4942 121.46 53.2062C121.623 53.0145 121.674 52.7008 121.573 52.5096C121.332 52.0515 120.04 52.0596 120.04 52.5193ZM23.9508 52.6806C23.8296 52.8233 23.9711 52.9401 24.2653 52.9401C24.5594 52.9401 24.8992 52.8233 25.0204 52.6806C25.1417 52.5379 25.0001 52.4212 24.706 52.4212C24.4118 52.4212 24.072 52.5379 23.9508 52.6806ZM27.338 53.2184C27.338 53.8833 28.5182 53.8078 28.6971 53.1318C28.7795 52.8205 28.5873 52.6806 28.0771 52.6806C27.5669 52.6806 27.338 52.8472 27.338 53.2184ZM33.477 53.4989C33.5647 53.6911 33.9227 53.8883 34.2721 53.9378C34.6785 53.9949 34.85 53.9015 34.7477 53.6784C34.66 53.4861 34.302 53.289 33.9526 53.2395C33.5462 53.1824 33.3747 53.2758 33.477 53.4989ZM49.1276 53.5534C48.8088 53.8328 48.802 53.9791 49.1012 54.1137C49.6538 54.3623 50.194 53.9223 49.8431 53.5092C49.616 53.2418 49.4731 53.2506 49.1276 53.5534ZM23.0648 53.6535C23.068 53.7604 23.2259 54.0232 23.416 54.2372C23.6955 54.5519 23.7625 54.5145 23.7672 54.0426C23.77 53.7217 23.6121 53.4589 23.416 53.4589C23.2199 53.4589 23.0619 53.5466 23.0648 53.6535ZM118.851 54.1508C118.441 54.4492 118.592 54.7561 119.148 54.7561C119.443 54.7561 119.683 54.581 119.683 54.3669C119.683 53.9617 119.261 53.8522 118.851 54.1508ZM41.3064 55.1885C41.4797 55.8394 42.3129 55.9287 42.3129 55.2965C42.3129 54.9779 42.0826 54.7561 41.7521 54.7561C41.4198 54.7561 41.2379 54.9325 41.3064 55.1885ZM27.4763 55.5813C27.3562 55.723 27.4253 55.9611 27.6304 56.1103C28.0415 56.4094 29.1207 56.2078 29.1207 55.8322C29.1207 55.4882 27.7352 55.2768 27.4763 55.5813ZM22.3463 55.7938C22.3463 55.9365 22.587 56.0532 22.8812 56.0532C23.1753 56.0532 23.416 55.9365 23.416 55.7938C23.416 55.6511 23.1753 55.5344 22.8812 55.5344C22.587 55.5344 22.3463 55.6511 22.3463 55.7938ZM18.6622 56.2263C18.5313 56.3212 18.4243 56.5197 18.4243 56.6673C18.4243 56.8297 18.5905 56.8144 18.8461 56.6284C19.0783 56.4595 19.1852 56.261 19.084 56.1873C18.9827 56.1137 18.7927 56.1311 18.6622 56.2263ZM59.4271 56.5568C59.4271 56.6912 59.5875 56.873 59.7836 56.9612C59.9797 57.0494 60.1402 56.9394 60.1402 56.7171C60.1402 56.4948 59.9797 56.3127 59.7836 56.3127C59.5875 56.3127 59.4271 56.4224 59.4271 56.5568ZM108.423 57.1947C106.982 58.1045 106.899 58.6641 108.284 58.1248C108.739 57.9473 109.612 57.8874 110.365 57.9818C113.294 58.3487 113.444 58.3243 113.444 57.4801C113.444 56.7794 113.331 56.7018 112.316 56.7018C111.696 56.7018 111.067 56.6141 110.919 56.5072C110.42 56.1453 109.824 56.3096 108.423 57.1947ZM139.365 56.624C138.831 57.0126 138.81 58.2501 139.326 58.9516C139.636 59.3729 139.939 59.4486 140.808 59.3223C142.3 59.1049 142.859 58.7119 142.859 57.8778C142.859 56.6237 140.519 55.7842 139.365 56.624ZM34.3352 56.7791C34.0532 57.1109 34.7071 57.6936 35.1421 57.498C35.7147 57.2406 35.6298 56.5721 35.0248 56.5721C34.742 56.5721 34.4318 56.6652 34.3352 56.7791ZM174.413 57.6604C173.437 58.063 173.177 58.3943 173.17 59.2437C173.164 60.1569 174.674 61.2455 175.682 61.0535C176.743 60.8517 177.763 59.7766 177.538 59.0984C177.312 58.4187 176.063 57.347 175.51 57.3582C175.299 57.3626 174.805 57.4985 174.413 57.6604ZM50.87 57.8692C50.87 58.0119 51.1203 58.1287 51.4259 58.1287C51.7314 58.1287 51.8826 58.0119 51.7614 57.8692C51.6401 57.7265 51.3902 57.6098 51.2055 57.6098C51.0208 57.6098 50.87 57.7265 50.87 57.8692ZM22.2372 58.2945C21.9524 58.5017 22.2743 58.907 22.7239 58.907C22.9086 58.907 23.0594 58.7318 23.0594 58.5178C23.0594 58.1167 22.6387 58.0023 22.2372 58.2945ZM115.12 58.44C113.958 59.2849 115.504 61.2397 116.902 60.6952C117.652 60.4031 118.255 59.4704 118.003 58.99C117.916 58.8216 117.351 58.5588 116.749 58.4062C115.429 58.0716 115.632 58.0672 115.12 58.44ZM17.7113 58.6475C17.7113 58.7902 17.8717 58.907 18.0678 58.907C18.2639 58.907 18.4243 58.7902 18.4243 58.6475C18.4243 58.5048 18.2639 58.3881 18.0678 58.3881C17.8717 58.3881 17.7113 58.5048 17.7113 58.6475ZM28.0511 58.7988C28.0511 59.0247 28.2415 59.1635 28.4747 59.107C29.1357 58.9467 29.2451 58.3881 28.6155 58.3881C28.3053 58.3881 28.0511 58.5731 28.0511 58.7988ZM42.8477 58.6475C42.7055 58.8151 42.7493 59.0688 42.9454 59.2115C43.1832 59.3846 43.3882 59.3695 43.5608 59.1664C43.7031 58.9988 43.6592 58.7451 43.4631 58.6024C43.2253 58.4294 43.0203 58.4444 42.8477 58.6475ZM35.5385 60.6086C35.5385 60.8309 35.699 60.9409 35.8951 60.8527C36.0912 60.7645 36.2516 60.5826 36.2516 60.4483C36.2516 60.3139 36.0912 60.2041 35.8951 60.2041C35.699 60.2041 35.5385 60.3862 35.5385 60.6086ZM16.9982 60.9824C16.9982 61.1251 17.149 61.2418 17.3337 61.2418C17.5184 61.2418 17.7683 61.1251 17.8895 60.9824C18.0108 60.8397 17.8596 60.723 17.554 60.723C17.2485 60.723 16.9982 60.8397 16.9982 60.9824ZM22.2027 61.2014C22.0793 61.3466 22.152 61.5436 22.3642 61.639C22.9125 61.8855 23.2662 61.548 22.8084 61.2149C22.5524 61.0286 22.3531 61.0242 22.2027 61.2014ZM96.0176 61.1894C95.7684 61.4831 96.1192 61.7848 97.8534 62.767C99.0988 63.4724 99.4732 63.572 99.9036 63.3121C100.865 62.7315 100.503 62.0922 98.891 61.5244C97.2751 60.9552 96.3117 60.8428 96.0176 61.1894ZM52.8606 61.4665C52.7069 61.6473 52.6777 61.8653 52.7953 61.9509C53.1144 62.1831 53.4624 61.8417 53.2899 61.4655C53.1694 61.2019 53.0852 61.2019 52.8606 61.4665ZM28.4076 62.2796C28.4076 62.4223 28.5681 62.539 28.7642 62.539C28.9603 62.539 29.1207 62.4223 29.1207 62.2796C29.1207 62.1369 28.9603 62.0201 28.7642 62.0201C28.5681 62.0201 28.4076 62.1369 28.4076 62.2796ZM44.0956 62.5543C44.0956 62.7053 44.2561 62.7569 44.4522 62.6687C44.6483 62.5805 44.8087 62.457 44.8087 62.394C44.8087 62.3309 44.6483 62.2796 44.4522 62.2796C44.2561 62.2796 44.0956 62.4033 44.0956 62.5543ZM121.313 62.9466C120.464 63.5643 120.62 64.539 121.644 65.0275C122.47 65.421 122.601 65.421 123.427 65.0275C124.685 64.4277 124.672 63.1427 123.404 62.7919C122.181 62.4539 121.969 62.4695 121.313 62.9466ZM16.9315 63.4945C17.1886 63.5695 17.4963 63.5601 17.6146 63.474C17.733 63.3879 17.5226 63.3266 17.1468 63.3378C16.7315 63.3502 16.647 63.4117 16.9315 63.4945ZM35.5385 63.8361C35.5385 63.9788 35.8691 64.0956 36.2727 64.0956C36.6763 64.0956 36.9077 63.9788 36.7864 63.8361C36.6652 63.6935 36.3351 63.5767 36.0523 63.5767C35.7696 63.5767 35.5385 63.6935 35.5385 63.8361ZM150.509 64.2056C149.997 64.7745 149.996 64.9081 150.494 65.6088C151.18 66.5742 151.691 66.714 152.906 66.2681C154.154 65.8096 154.481 65.0186 153.755 64.2126C152.975 63.3471 151.286 63.3435 150.509 64.2056ZM21.9898 64.0956C21.9898 64.2383 22.2305 64.355 22.5246 64.355C22.8188 64.355 23.0594 64.2383 23.0594 64.0956C23.0594 63.9529 22.8188 63.8361 22.5246 63.8361C22.2305 63.8361 21.9898 63.9529 21.9898 64.0956ZM101.011 64.5768C100.329 65.1258 100.553 65.8229 101.482 66.0374C102.887 66.3617 103.941 65.5108 103.268 64.5958C102.803 63.9625 101.786 63.9542 101.011 64.5768ZM85.0984 65.1017C85.0984 65.8493 85.8489 66.576 86.2899 66.2553C86.6747 65.9751 86.5563 65.0007 86.0967 64.6663C85.4096 64.1664 85.0984 64.3021 85.0984 65.1017ZM224.846 64.8871C224.032 65.4796 224.158 66.176 225.22 66.9491C225.839 67.3992 225.904 67.3981 226.98 66.9218C228.496 66.2509 228.682 65.7515 227.699 64.9904C226.699 64.2154 225.813 64.1833 224.846 64.8871ZM28.4076 65.263C28.4076 65.477 28.5681 65.6522 28.7642 65.6522C28.9603 65.6522 29.1207 65.477 29.1207 65.263C29.1207 65.049 28.9603 64.8739 28.7642 64.8739C28.5681 64.8739 28.4076 65.049 28.4076 65.263ZM35.7763 66.3441C35.366 66.6424 35.5164 66.9493 36.0734 66.9493C36.3675 66.9493 36.6082 66.7742 36.6082 66.5602C36.6082 66.1549 36.1864 66.0455 35.7763 66.3441ZM21.2767 66.6899C21.9681 67.015 22.3463 67.015 22.3463 66.6899C22.3463 66.5472 21.9855 66.4323 21.5441 66.4344C20.8956 66.4377 20.8442 66.4865 21.2767 66.6899ZM86.0493 66.8629C85.6129 67.1802 85.8047 68.0013 86.3509 68.1538C87.0505 68.3492 87.9507 67.7995 87.9507 67.1771C87.9507 66.8396 87.6951 66.6899 87.1189 66.6899C86.6611 66.6899 86.1798 66.7677 86.0493 66.8629ZM74.2237 68.2465C73.9649 69.6165 74.0872 69.9753 74.7175 69.6918C75.0898 69.5244 75.0634 67.3442 74.6858 67.0692C74.5699 66.9851 74.3621 67.5149 74.2237 68.2465ZM53.9006 67.4682C53.7794 67.6109 53.8504 67.7276 54.0579 67.7276C54.2654 67.7276 54.4354 67.6109 54.4354 67.4682C54.4354 67.3255 54.3649 67.2087 54.2782 67.2087C54.1916 67.2087 54.0219 67.3255 53.9006 67.4682ZM27.6232 68.0389C27.9559 68.281 28.1463 68.281 28.4789 68.0389C28.8116 67.7969 28.7167 67.7276 28.0511 67.7276C27.3854 67.7276 27.2906 67.7969 27.6232 68.0389ZM44.0956 68.3762C44.0956 68.5902 44.2561 68.7653 44.4522 68.7653C44.6483 68.7653 44.8087 68.5902 44.8087 68.3762C44.8087 68.1622 44.6483 67.987 44.4522 67.987C44.2561 67.987 44.0956 68.1622 44.0956 68.3762ZM105.689 68.7861C104.343 69.3566 105.321 71.0636 106.798 70.7225C108.004 70.4438 108.432 69.8726 107.977 69.1467C107.555 68.4729 106.734 68.3435 105.689 68.7861ZM193.556 69.0349C192.629 69.6632 192.564 70.3647 193.351 71.239C194.019 71.981 194.548 72.0297 196.002 71.4826C197.402 70.9557 197.455 69.8111 196.114 69.0437C194.941 68.372 194.535 68.3705 193.556 69.0349ZM20.2071 69.0248C20.2071 69.1675 20.3675 69.2842 20.5636 69.2842C20.7597 69.2842 20.9202 69.1675 20.9202 69.0248C20.9202 68.8821 20.7597 68.7653 20.5636 68.7653C20.3675 68.7653 20.2071 68.8821 20.2071 69.0248ZM34.9032 69.0647C35.0882 69.4689 35.8858 69.5395 35.914 69.1545C35.9243 69.0118 35.6651 68.8548 35.3382 68.8053C34.9663 68.7495 34.8033 68.8466 34.9032 69.0647ZM53.3658 69.5436C53.3658 69.6863 53.6161 69.8031 53.9217 69.8031C54.2272 69.8031 54.3784 69.6863 54.2572 69.5436C54.1359 69.4009 53.886 69.2842 53.7013 69.2842C53.5166 69.2842 53.3658 69.4009 53.3658 69.5436ZM63.0025 69.5338C62.5529 69.7405 62.5658 69.7997 63.0917 69.9465C63.8229 70.1507 64.7753 69.9276 64.7753 69.5517C64.7753 69.2199 63.7078 69.209 63.0025 69.5338ZM130.459 69.6881C129.438 70.2085 129.459 70.7811 130.536 71.7488C131.373 72.5001 131.437 72.5133 132.407 72.1299C133.613 71.6523 133.953 70.365 133.048 69.7058C132.319 69.1758 131.476 69.17 130.459 69.6881ZM87.5942 69.7942C86.8205 70.1611 87.5828 70.9479 88.815 71.0545C89.6914 71.1303 89.7748 71.067 89.6707 70.406C89.5463 69.6165 88.5733 69.3301 87.5942 69.7942ZM26.2684 70.0625C26.2684 70.2052 26.5989 70.3219 27.0025 70.3219C27.4061 70.3219 27.6375 70.2052 27.5163 70.0625C27.395 69.9198 27.0649 69.8031 26.7821 69.8031C26.4994 69.8031 26.2684 69.9198 26.2684 70.0625ZM43.451 70.6008C43.5212 70.7541 43.7312 70.8797 43.9174 70.8797C44.1035 70.8797 44.3135 70.7541 44.3837 70.6008C44.454 70.4475 44.2443 70.3219 43.9174 70.3219C43.5904 70.3219 43.3808 70.4475 43.451 70.6008ZM18.4243 71.2299C18.4243 71.444 18.5848 71.6191 18.7809 71.6191C18.977 71.6191 19.1374 71.444 19.1374 71.2299C19.1374 71.0159 18.977 70.8408 18.7809 70.8408C18.5848 70.8408 18.4243 71.0159 18.4243 71.2299ZM74.7849 71.0834C73.7381 71.2782 73.444 71.7548 74.2344 71.9753C75.2292 72.2531 76.7969 71.3692 75.9173 71.0268C75.7701 70.9695 75.2606 70.9949 74.7849 71.0834ZM33.9341 71.3596C33.7918 71.5272 33.8357 71.7809 34.0318 71.9236C34.2696 72.0967 34.4746 72.0816 34.6472 71.8785C34.7894 71.7109 34.7456 71.4572 34.5495 71.3145C34.3117 71.1415 34.1066 71.1565 33.9341 71.3596ZM52.5094 71.5506C52.1268 71.8289 52.2848 72.1379 52.81 72.1379C53.0927 72.1379 53.4125 72.0334 53.5209 71.9057C53.7477 71.6385 52.8306 71.3166 52.5094 71.5506ZM62.4042 71.7568C62.1515 72.236 62.8004 72.6467 63.8197 72.6529C64.2897 72.6557 64.4369 72.496 64.3545 72.0731C64.213 71.3493 62.7447 71.1111 62.4042 71.7568ZM25.0315 71.9545C24.8789 72.2103 24.8543 72.4926 24.9762 72.5815C25.3385 72.8449 25.6305 72.4749 25.4636 71.9636C25.316 71.5104 25.2968 71.5101 25.0315 71.9545ZM10.9369 72.3974C10.9369 72.54 11.0973 72.6568 11.2934 72.6568C11.4895 72.6568 11.65 72.54 11.65 72.3974C11.65 72.2547 11.4895 72.1379 11.2934 72.1379C11.0973 72.1379 10.9369 72.2547 10.9369 72.3974ZM42.1332 72.6586C42.0109 72.8023 42.1689 72.992 42.484 73.0799C43.1665 73.2703 43.5469 73.0605 43.2189 72.6742C42.9229 72.3255 42.422 72.3185 42.1332 72.6586ZM16.1663 72.8298C15.756 73.1282 15.9064 73.4351 16.4633 73.4351C16.7575 73.4351 16.9982 73.26 16.9982 73.0459C16.9982 72.6407 16.5764 72.5312 16.1663 72.8298ZM3.80598 73.6945C3.80598 73.8372 3.97605 73.954 4.18356 73.954C4.39107 73.954 4.46202 73.8372 4.3408 73.6945C4.21957 73.5518 4.04986 73.4351 3.96322 73.4351C3.87657 73.4351 3.80598 73.5518 3.80598 73.6945ZM32.4526 73.8354C32.3364 74.0556 32.331 74.3008 32.4402 74.3802C32.7525 74.6074 33.3993 74.2222 33.3993 73.8089C33.3993 73.3111 32.719 73.3303 32.4526 73.8354ZM51.8284 73.8621C51.3235 74.2292 51.6091 74.7322 52.3222 74.7322C52.8207 74.7322 53.0239 74.5914 52.9462 74.2998C52.8189 73.8222 52.2102 73.584 51.8284 73.8621ZM165.544 74.0881C164.638 74.7475 164.796 75.9845 165.83 76.3272C167.817 76.9862 169.683 75.8631 168.811 74.5327C168.248 73.674 166.45 73.4291 165.544 74.0881ZM8.08452 74.2134C8.08452 74.3561 8.24497 74.4728 8.44107 74.4728C8.63717 74.4728 8.79762 74.3561 8.79762 74.2134C8.79762 74.0707 8.63717 73.954 8.44107 73.954C8.24497 73.954 8.08452 74.0707 8.08452 74.2134ZM62.2794 74.7019C62.2794 74.9855 62.605 75.2524 63.0546 75.338C64.0383 75.5253 64.4187 75.352 64.4187 74.7169C64.4187 74.3304 64.1702 74.2134 63.3491 74.2134C62.5394 74.2134 62.2794 74.332 62.2794 74.7019ZM75.5372 74.9268C75.6182 75.44 75.8503 75.6402 76.363 75.6402C76.8757 75.6402 77.1078 75.44 77.1888 74.9268C77.2868 74.3083 77.1766 74.2134 76.363 74.2134C75.5494 74.2134 75.4392 74.3083 75.5372 74.9268ZM91.4064 74.3953C90.9478 74.4816 90.7935 74.7164 90.8716 75.2083C90.9621 75.7783 91.1846 75.9139 92.1401 75.9809C93.152 76.052 93.2989 75.9845 93.2989 75.449C93.2989 74.8757 92.6882 74.1758 92.2471 74.2435C92.1394 74.2601 91.7608 74.3283 91.4064 74.3953ZM22.7129 74.7224C22.2611 74.9302 22.2711 74.987 22.7849 75.1305C23.4392 75.3131 24.1291 75.1009 24.1291 74.7169C24.1291 74.4064 23.3935 74.409 22.7129 74.7224ZM0.597068 74.9917C0.27582 75.1427 0.231609 75.2446 0.486896 75.2472C0.720433 75.2493 1.01066 75.1344 1.13189 74.9917C1.40536 74.6695 1.28199 74.6695 0.597068 74.9917ZM41.2433 75.6402C41.2433 76.0496 41.4447 76.2888 41.7891 76.2888C42.5343 76.2888 42.8905 75.5121 42.2758 75.2288C41.4736 74.8593 41.2433 74.9509 41.2433 75.6402ZM13.7179 75.5624C14.0506 75.8045 14.241 75.8045 14.5737 75.5624C14.9063 75.3204 14.8115 75.2511 14.1458 75.2511C13.4801 75.2511 13.3853 75.3204 13.7179 75.5624ZM111.926 75.5513C111.363 75.9612 111.355 76.8702 111.911 77.2747C112.146 77.4459 112.784 77.586 113.33 77.586C115.21 77.586 115.115 75.4721 113.227 75.3048C112.755 75.263 112.17 75.3738 111.926 75.5513ZM30.9601 76.6284C30.4756 77.0531 30.7658 77.3266 31.7021 77.3266C32.1449 77.3266 32.3417 77.1758 32.2665 76.8941C32.1132 76.3184 31.4643 76.1863 30.9601 76.6284ZM51.1078 76.9807C50.7227 77.2609 50.8329 77.5201 51.4048 77.6799C52.1382 77.8846 53.0093 77.6072 53.0093 77.1691C53.0093 76.8022 51.5517 76.6577 51.1078 76.9807ZM21.0093 77.9103C21.091 78.0888 21.3719 78.2346 21.6333 78.2346C21.8946 78.2346 22.1756 78.0888 22.2572 77.9103C22.3456 77.7173 22.0928 77.586 21.6333 77.586C21.1737 77.586 20.9209 77.7173 21.0093 77.9103ZM64.0622 78.5459C64.0622 78.8888 63.967 78.9176 63.6343 78.6756C63.0057 78.2182 62.636 78.295 62.636 78.8831C62.636 79.1685 62.8367 79.4036 63.0817 79.4056C63.327 79.4075 63.8882 79.4796 64.3296 79.5654C65.0359 79.7032 65.1318 79.6254 65.1318 78.9135C65.1318 78.3676 64.9578 78.1048 64.597 78.1048C64.3029 78.1048 64.0622 78.3033 64.0622 78.5459ZM11.1152 78.6237C11.2364 78.7664 11.6468 78.8831 12.0276 78.8831C12.4084 78.8831 12.7196 78.7664 12.7196 78.6237C12.7196 78.481 12.3089 78.3643 11.8072 78.3643C11.2899 78.3643 10.99 78.4766 11.1152 78.6237ZM40.7434 78.8146C40.6261 78.8997 40.5302 79.1921 40.5302 79.4642C40.5302 80.0739 41.716 79.9883 41.8808 79.3667C41.9927 78.9438 41.1367 78.5282 40.7434 78.8146ZM142.499 78.9703C141.238 79.4357 140.866 80.028 141.351 80.8016C142.17 82.1102 144.998 81.7851 144.998 80.3824C144.998 79.1462 143.823 78.4821 142.499 78.9703ZM77.8298 79.5392C77.12 80.0558 77.4747 80.6991 78.4691 80.6991C79.7103 80.6991 80.2123 80.1764 79.5117 79.6132C78.7986 79.0396 78.5326 79.0279 77.8298 79.5392ZM30.0049 80.7074C29.8666 80.8704 29.9212 81.1259 30.1262 81.2751C30.6054 81.6237 31.7224 81.3197 31.5274 80.8935C31.3292 80.46 30.3201 80.3365 30.0049 80.7074ZM51.7992 81.6289C51.5635 82.0757 52.1254 82.7746 52.7201 82.7746C53.1897 82.7746 52.9216 81.4095 52.4292 81.292C52.2081 81.2393 51.9247 81.391 51.7992 81.6289ZM95.6899 81.7415C95.5148 82.2277 96.2212 83.034 96.8216 83.034C97.6031 83.034 98.3619 82.3089 98.1319 81.782C97.7978 81.0156 95.9616 80.985 95.6899 81.7415ZM20.0851 81.6526C19.597 82.0077 19.8783 82.5152 20.5636 82.5152C20.9558 82.5152 21.2767 82.4127 21.2767 82.2874C21.2767 81.9473 20.355 81.4562 20.0851 81.6526ZM9.86725 82.7746C9.86725 82.9173 10.1079 83.034 10.4021 83.034C10.6962 83.034 10.9369 82.9173 10.9369 82.7746C10.9369 82.6319 10.6962 82.5152 10.4021 82.5152C10.1079 82.5152 9.86725 82.6319 9.86725 82.7746ZM0.0622495 83.5529C-0.058976 83.6956 0.00235117 83.8123 0.198451 83.8123C0.394551 83.8123 0.654115 83.6956 0.775341 83.5529C0.896566 83.4102 0.835239 83.2935 0.639139 83.2935C0.443039 83.2935 0.183475 83.4102 0.0622495 83.5529ZM218.179 83.7335C217.738 83.7968 217.377 84.0126 217.377 84.2137C217.377 84.4767 217.777 84.5623 218.81 84.5198C219.859 84.4767 220.216 84.3574 220.143 84.0746C220.034 83.6564 219.438 83.5529 218.179 83.7335ZM65.5775 83.9841C64.9938 84.1555 65.0088 84.712 65.6067 85.0734C65.9579 85.2854 66.2564 85.2672 66.752 85.0034C67.3214 84.7006 67.3506 84.5839 66.9466 84.2295C66.4496 83.7936 66.3106 83.7687 65.5775 83.9841ZM40.7801 84.2357C40.22 84.6433 40.5762 85.1095 41.4476 85.1095C42.1271 85.1095 42.3343 84.9925 42.2459 84.6583C42.1207 84.1862 41.2094 83.9233 40.7801 84.2357ZM120.231 85.0789C119.928 85.7744 120.745 86.6661 121.686 86.6661C122.674 86.6661 123.334 86.0733 123.187 85.3183C123.093 84.8363 122.817 84.705 121.764 84.6412C120.717 84.5776 120.412 84.6648 120.231 85.0789ZM29.9536 86.0349C29.6726 86.5677 30.2367 86.966 30.8692 86.6814C31.408 86.439 31.1598 85.6283 30.5469 85.6283C30.3383 85.6283 30.0716 85.8112 29.9536 86.0349ZM81.4035 86.4782C81.0206 86.6819 80.8697 86.9779 81.0116 87.2467C81.2705 87.7378 82.4075 88.0815 82.9559 87.8351C83.5224 87.58 83.3755 86.4788 82.7516 86.3047C82.0342 86.1044 82.1291 86.0922 81.4035 86.4782ZM184.485 87.1222C183.946 87.3655 183.506 87.6252 183.507 87.6991C183.508 87.7731 183.889 88.1798 184.355 88.603C185.126 89.3045 185.284 89.3449 186.146 89.0593C187.393 88.6458 187.634 88.1028 186.923 87.3125C186.241 86.555 185.816 86.5221 184.485 87.1222ZM19.1374 87.676C19.1374 87.9785 20.1789 88.266 20.5957 88.0784C21.2243 87.7959 20.9098 87.4444 20.0288 87.4444C19.5386 87.4444 19.1374 87.5486 19.1374 87.676ZM53.0093 88.0652C53.0093 88.8458 53.9481 89.1447 54.4133 88.5122C54.6476 88.1936 54.6262 87.9463 54.3474 87.7435C53.666 87.2477 53.0093 87.4054 53.0093 88.0652ZM9.15416 88.7415C9.15416 88.8842 9.39483 89.0009 9.68898 89.0009C9.98313 89.0009 10.2238 88.8842 10.2238 88.7415C10.2238 88.5988 9.98313 88.4821 9.68898 88.4821C9.39483 88.4821 9.15416 88.5988 9.15416 88.7415ZM102.618 89.9393C102.117 90.1943 101.857 90.5583 101.925 90.907C102.013 91.3574 102.276 91.4655 103.282 91.4655C104.269 91.4655 104.552 91.3542 104.635 90.9324C104.693 90.639 104.443 90.2036 104.08 89.9647C103.477 89.5673 103.352 89.5652 102.618 89.9393ZM41.6601 91.1181C41.725 91.4518 42.0188 91.725 42.3129 91.725C43.0862 91.725 42.9796 90.7129 42.1949 90.6029C41.6886 90.5319 41.5684 90.6475 41.6601 91.1181ZM68.0366 91.3031C67.6551 91.4819 67.6415 91.6482 67.9713 92.0967C68.5261 92.8509 69.5886 92.6919 69.5886 91.8547C69.5886 91.1765 68.8595 90.9174 68.0366 91.3031ZM156.112 91.2966C155.843 91.424 155.688 91.8477 155.755 92.2721C155.859 92.9349 156.013 93.0221 157.082 93.0221C158.53 93.0221 159.298 92.3702 158.687 91.6601C158.25 91.1524 156.836 90.9529 156.112 91.2966ZM30.4378 93.0582C30.0659 93.3288 30.5369 93.6707 31.281 93.6707C31.6618 93.6707 31.9731 93.4956 31.9731 93.2815C31.9731 92.8968 30.8785 92.7375 30.4378 93.0582ZM20.0784 94.8885C19.6769 95.1806 19.8341 95.4867 20.3853 95.4867C20.6795 95.4867 20.9202 95.377 20.9202 95.2426C20.9202 94.9154 20.3632 94.6812 20.0784 94.8885ZM85.6517 95.2055C85.3287 95.5858 86.1003 96.7839 86.6686 96.7839C87.6159 96.7839 88.3472 96.0261 87.9375 95.4688C87.5589 94.9538 86.0161 94.7764 85.6517 95.2055ZM54.792 95.5848C54.792 95.7812 55.0394 96.0914 55.3418 96.2741C56.0196 96.6835 56.7783 96.2471 56.4549 95.6338C56.1907 95.1328 54.792 95.0916 54.792 95.5848ZM131.457 95.7402C130.669 96.3138 130.824 96.9203 131.861 97.3243C133.414 97.929 134.727 96.9058 133.767 95.8393C133.094 95.0926 132.389 95.0623 131.457 95.7402ZM9.51071 96.1506C9.51071 96.3729 9.67365 96.4816 9.87296 96.3921C10.0723 96.3023 10.1432 96.1205 10.0302 95.9877C9.72464 95.6278 9.51071 95.6948 9.51071 96.1506ZM43.026 99.1034C43.026 99.751 43.7262 100.07 44.1299 99.606C44.6501 99.0087 44.491 98.5999 43.7391 98.5999C43.2709 98.5999 43.026 98.7729 43.026 99.1034ZM71.1931 100.276C71.1931 101.041 72.1658 101.461 72.6549 100.908C73.1626 100.333 72.8599 99.7746 71.9917 99.6843C71.34 99.6169 71.1931 99.7258 71.1931 100.276ZM109.362 100.529C108.275 101.483 110.411 102.559 111.656 101.685C112.212 101.294 112.281 101.09 111.977 100.737C111.468 100.146 109.938 100.024 109.362 100.529ZM31.7802 101.73C31.4522 102.117 31.8326 102.327 32.515 102.136C32.8302 102.048 32.9882 101.859 32.8659 101.715C32.5771 101.375 32.0761 101.382 31.7802 101.73ZM20.9202 103.788C20.9202 103.931 21.0806 104.048 21.2767 104.048C21.4728 104.048 21.6333 103.931 21.6333 103.788C21.6333 103.646 21.4728 103.529 21.2767 103.529C21.0806 103.529 20.9202 103.646 20.9202 103.788ZM57.1841 104.469C57.045 104.57 56.9313 104.758 56.9313 104.887C56.9313 105.203 58.7161 105.023 58.8142 104.696C58.9062 104.391 57.5513 104.202 57.1841 104.469ZM9.86725 105.345C9.86725 105.488 10.0277 105.604 10.2238 105.604C10.4199 105.604 10.5803 105.488 10.5803 105.345C10.5803 105.202 10.4199 105.086 10.2238 105.086C10.0277 105.086 9.86725 105.202 9.86725 105.345ZM90.9322 105.475C90.6198 106.067 91.0566 106.642 91.8178 106.642C92.6828 106.642 93.4415 105.99 93.1716 105.478C92.9039 104.97 91.1992 104.968 90.9322 105.475ZM172.809 105.867C172.809 106.2 173.879 106.393 174.798 106.225C176.147 105.978 175.811 105.636 174.235 105.651C173.45 105.659 172.809 105.756 172.809 105.867ZM44.629 108.201C44.5067 108.344 44.6647 108.534 44.9799 108.622C45.6623 108.812 46.0427 108.602 45.7147 108.216C45.4188 107.868 44.9178 107.861 44.629 108.201ZM144.404 108.654C143.483 108.766 143.004 109.495 143.649 109.802C144.416 110.167 146.228 109.931 146.354 109.448C146.488 108.931 145.488 108.523 144.404 108.654ZM74.4626 110.059C74.5411 110.462 74.8573 110.692 75.411 110.749C76.1024 110.82 76.2222 110.733 76.1241 110.23C76.0457 109.827 75.7294 109.597 75.1757 109.54C74.4844 109.469 74.3646 109.556 74.4626 110.059ZM32.6862 111.312C32.6862 111.455 32.9268 111.571 33.221 111.571C33.5151 111.571 33.7558 111.455 33.7558 111.312C33.7558 111.169 33.5151 111.053 33.221 111.053C32.9268 111.053 32.6862 111.169 32.6862 111.312ZM117.64 112.541C117.344 113.103 118.743 113.994 119.608 113.794C120.466 113.596 120.921 112.887 120.423 112.525C119.855 112.111 117.861 112.123 117.64 112.541ZM59.2417 114.174C59.1033 114.337 59.1579 114.592 59.3629 114.742C59.8421 115.09 60.9592 114.786 60.7641 114.36C60.5659 113.927 59.5569 113.803 59.2417 114.174ZM95.922 116.374C95.6307 116.926 96.4362 117.538 97.4541 117.538C98.4667 117.538 98.9106 116.914 98.2866 116.368C97.7147 115.866 96.1876 115.87 95.922 116.374ZM46.1219 117.707C45.7422 117.983 45.8359 118.835 46.246 118.835C46.7733 118.835 47.1052 118.068 46.7041 117.776C46.518 117.641 46.2559 117.609 46.1219 117.707ZM77.3727 120.542C77.254 120.767 77.3866 121.118 77.6676 121.323C78.1008 121.638 78.2791 121.641 78.8439 121.34C79.6739 120.898 79.3444 120.133 78.324 120.133C77.9193 120.133 77.4915 120.317 77.3727 120.542ZM33.3993 121.689C33.3993 121.832 33.5597 121.949 33.7558 121.949C33.9519 121.949 34.1124 121.832 34.1124 121.689C34.1124 121.547 33.9519 121.43 33.7558 121.43C33.5597 121.43 33.3993 121.547 33.3993 121.689ZM159.795 124.284C159.673 124.426 159.825 124.543 160.13 124.543C160.436 124.543 160.686 124.426 160.686 124.284C160.686 124.141 160.535 124.024 160.351 124.024C160.166 124.024 159.916 124.141 159.795 124.284ZM158.19 124.543C158.19 124.686 158.341 124.802 158.526 124.802C158.71 124.802 158.96 124.686 159.082 124.543C159.203 124.4 159.052 124.284 158.746 124.284C158.441 124.284 158.19 124.4 158.19 124.543ZM60.4921 124.936C59.9683 125.395 60.332 125.84 61.2308 125.84C61.6722 125.84 61.9229 125.662 61.9229 125.349C61.9229 124.721 61.0308 124.464 60.4921 124.936ZM127.562 126.458C127.245 126.736 127.282 126.853 127.726 126.977C128.548 127.207 129.407 127.168 130.023 126.874C130.498 126.647 130.498 126.59 130.023 126.363C129.252 125.995 128.037 126.042 127.562 126.458ZM45.9497 128.746C45.7143 128.917 45.5218 129.15 45.5218 129.265C45.5218 129.574 46.5127 129.515 46.789 129.19C47.1562 128.758 46.4481 128.383 45.9497 128.746ZM100.955 129.224C100.61 129.63 101.477 130.25 102.391 130.25C103.304 130.25 104.172 129.63 103.827 129.224C103.7 129.075 103.054 128.953 102.391 128.953C101.728 128.953 101.082 129.075 100.955 129.224ZM32.5079 132.066C32.3867 132.209 32.4576 132.326 32.6651 132.326C32.8726 132.326 33.0427 132.209 33.0427 132.066C33.0427 131.924 32.9721 131.807 32.8855 131.807C32.7988 131.807 32.6291 131.924 32.5079 132.066ZM79.0371 132.56C79.0371 133.159 80.2554 133.737 81.0509 133.514C81.3603 133.428 81.5351 133.121 81.4687 132.781C81.3814 132.332 81.0847 132.177 80.1959 132.115C79.2328 132.047 79.0371 132.122 79.0371 132.56ZM59.7736 135.837C59.3711 136.19 59.3761 136.295 59.8065 136.496C60.5912 136.863 61.3881 136.657 61.3881 136.088C61.3881 135.439 60.4026 135.285 59.7736 135.837ZM43.3825 139.571C43.3825 139.942 43.6114 140.109 44.1217 140.109C44.6319 140.109 44.824 139.969 44.7417 139.658C44.5627 138.982 43.3825 138.906 43.3825 139.571ZM28.7642 142.573C28.7642 142.811 28.9367 142.964 29.1475 142.913C29.3582 142.862 29.5307 142.709 29.5307 142.573C29.5307 142.438 29.3582 142.285 29.1475 142.234C28.9367 142.183 28.7642 142.336 28.7642 142.573ZM106.372 143.395C106.242 143.49 106.135 143.728 106.135 143.923C106.135 144.194 106.299 144.214 106.824 144.009C107.203 143.862 107.935 143.741 108.45 143.741C108.983 143.741 109.291 143.629 109.165 143.481C108.92 143.192 106.744 143.125 106.372 143.395ZM81.4252 144.943C81.3008 145.034 80.833 145.122 80.3856 145.138C79.9181 145.155 79.5719 145.333 79.5719 145.557C79.5719 145.835 79.962 145.946 80.9428 145.946C82.4507 145.946 82.7131 145.809 82.3872 145.191C82.1586 144.758 81.8053 144.667 81.4252 144.943ZM57.7335 147.312C56.6674 147.441 56.712 148.09 57.8119 148.454C59.2167 148.92 60.5427 147.915 59.1597 147.433C58.8163 147.313 58.1749 147.259 57.7335 147.312ZM38.1634 150.356C37.839 150.971 38.4986 151.32 39.6049 151.117C40.8643 150.888 40.6995 150.126 39.3664 150.015C38.7139 149.96 38.3121 150.074 38.1634 150.356ZM22.3463 153.34C22.3463 153.625 22.4872 153.859 22.6594 153.859C23.1268 153.859 23.8018 153.188 23.5319 152.992C23.0437 152.636 22.3463 152.841 22.3463 153.34ZM8.08452 155.949C8.08452 156.1 8.24497 156.152 8.44107 156.064C8.63717 155.976 8.79762 155.852 8.79762 155.789C8.79762 155.726 8.63717 155.675 8.44107 155.675C8.24497 155.675 8.08452 155.798 8.08452 155.949ZM32.3189 163.184C32.5232 163.461 32.8495 163.76 33.0445 163.848C33.5469 164.073 33.4863 163.365 32.9714 162.991C32.3057 162.506 31.9075 162.624 32.3189 163.184ZM30.1904 163.587C30.1904 163.801 30.4506 163.976 30.7687 163.976C31.2425 163.976 31.2671 163.906 30.9034 163.587C30.6592 163.373 30.3989 163.198 30.3251 163.198C30.251 163.198 30.1904 163.373 30.1904 163.587ZM12.1848 165.274C12.0564 165.425 12.4119 165.533 13.0341 165.533C13.6224 165.533 14.2028 165.416 14.3241 165.274C14.4524 165.123 14.097 165.014 13.4748 165.014C12.8865 165.014 12.306 165.131 12.1848 165.274Z" fill="url(#paint0_radial_387_1030)" fill-opacity="0.2"/>
<defs>
<radialGradient id="paint0_radial_387_1030" cx="0" cy="0" r="1" gradientTransform="matrix(-140.141 39.5114 -59.615 -111.445 140.141 45.9784)" gradientUnits="userSpaceOnUse">
<stop stop-color="#474747"/>
<stop offset="1" stop-color="#D5D5D5" stop-opacity="0"/>
</radialGradient>
</defs>
</svg>
