<svg width="209" height="76" viewBox="0 0 209 76" fill="none" xmlns="http://www.w3.org/2000/svg">
<path fill-rule="evenodd" clip-rule="evenodd" d="M242.138 -49.6611C242.021 -49.5041 242.08 -49.3757 242.268 -49.3757C242.456 -49.3757 242.705 -49.5041 242.822 -49.6611C242.938 -49.8181 242.879 -49.9465 242.691 -49.9465C242.503 -49.9465 242.254 -49.8181 242.138 -49.6611ZM227.948 -43.6414C227.948 -43.4993 228.256 -43.3829 228.632 -43.3829C229.008 -43.3829 229.316 -43.4322 229.316 -43.4922C229.316 -43.5524 229.008 -43.6688 228.632 -43.751C228.256 -43.8329 227.948 -43.7838 227.948 -43.6414ZM247.78 -42.6378C247.779 -42.4531 248.137 -42.3775 248.634 -42.4568C249.744 -42.6341 249.744 -43.0493 248.634 -42.9959C248.164 -42.9734 247.78 -42.8121 247.78 -42.6378ZM235.406 -42.3318C235.653 -42.2494 235.948 -42.2596 236.061 -42.3544C236.175 -42.4491 235.973 -42.5165 235.613 -42.5042C235.215 -42.4905 235.133 -42.4229 235.406 -42.3318ZM262.824 -41.6706C262.824 -41.5137 263.122 -41.3853 263.487 -41.3853C263.853 -41.3853 264.246 -41.5137 264.362 -41.6706C264.482 -41.8324 264.195 -41.956 263.699 -41.956C263.218 -41.956 262.824 -41.8276 262.824 -41.6706ZM223.845 -40.5291C223.845 -40.3722 224.008 -40.2438 224.207 -40.2438C224.406 -40.2438 224.474 -40.3722 224.358 -40.5291C224.242 -40.6861 224.079 -40.8145 223.996 -40.8145C223.913 -40.8145 223.845 -40.6861 223.845 -40.5291ZM225.056 -40.2634C224.948 -40.1173 225.016 -39.9173 225.207 -39.8186C225.398 -39.7201 225.555 -39.8397 225.555 -40.0842C225.555 -40.5856 225.35 -40.6593 225.056 -40.2634ZM229.316 -40.2269C229.316 -40.0608 229.47 -40.004 229.658 -40.1011C229.846 -40.1981 230 -40.3339 230 -40.4033C230 -40.4726 229.846 -40.5291 229.658 -40.5291C229.47 -40.5291 229.316 -40.393 229.316 -40.2269ZM220.084 -38.8169C220.084 -38.6599 220.238 -38.5315 220.426 -38.5315C220.614 -38.5315 220.768 -38.6599 220.768 -38.8169C220.768 -38.9738 220.614 -39.1023 220.426 -39.1023C220.238 -39.1023 220.084 -38.9738 220.084 -38.8169ZM215.297 -37.39C215.297 -37.2331 215.614 -37.1046 216.001 -37.1046C216.388 -37.1046 216.61 -37.2331 216.494 -37.39C216.378 -37.547 216.061 -37.6754 215.79 -37.6754C215.519 -37.6754 215.297 -37.547 215.297 -37.39ZM231.721 -36.4035C231.342 -36.0222 231.431 -35.9632 232.38 -35.9632C233.105 -35.9632 233.428 -36.0839 233.333 -36.3199C233.12 -36.8555 232.217 -36.9023 231.721 -36.4035ZM220.853 -36.3113C220.052 -36.2046 219.764 -35.6746 220.511 -35.6821C221.027 -35.6875 222.01 -36.1775 221.784 -36.3156C221.695 -36.3698 221.276 -36.3678 220.853 -36.3113ZM245.386 -35.5351C245.386 -35.2688 245.709 -35.107 246.241 -35.107C246.773 -35.107 247.095 -35.2688 247.095 -35.5351C247.095 -35.8013 246.773 -35.9632 246.241 -35.9632C245.709 -35.9632 245.386 -35.8013 245.386 -35.5351ZM261.23 -34.3765C260.973 -33.818 261.282 -33.5634 261.954 -33.7786C262.631 -33.9952 262.632 -34.4273 261.956 -34.6436C261.653 -34.7406 261.345 -34.6273 261.23 -34.3765ZM211.194 -34.2509C211.194 -34.094 211.511 -33.9655 211.898 -33.9655C212.285 -33.9655 212.507 -34.094 212.391 -34.2509C212.275 -34.4079 211.958 -34.5363 211.687 -34.5363C211.416 -34.5363 211.194 -34.4079 211.194 -34.2509ZM213.246 -33.9655C213.246 -33.8086 213.476 -33.6802 213.758 -33.6802C214.041 -33.6802 214.271 -33.8086 214.271 -33.9655C214.271 -34.1225 214.041 -34.2509 213.758 -34.2509C213.476 -34.2509 213.246 -34.1225 213.246 -33.9655ZM208.459 -32.9667C208.459 -32.705 208.624 -32.5372 208.826 -32.5935C209.028 -32.6497 209.194 -32.8175 209.194 -32.9667C209.194 -33.116 209.028 -33.2838 208.826 -33.34C208.624 -33.3962 208.459 -33.2284 208.459 -32.9667ZM278.723 -32.824C278.839 -32.6671 279.002 -32.5387 279.085 -32.5387C279.168 -32.5387 279.236 -32.6671 279.236 -32.824C279.236 -32.981 279.073 -33.1094 278.874 -33.1094C278.675 -33.1094 278.607 -32.981 278.723 -32.824ZM203.516 -31.1315C203.407 -30.9854 203.475 -30.7853 203.666 -30.6866C204.074 -30.4763 204.698 -30.7434 204.698 -31.1286C204.698 -31.4759 203.772 -31.4782 203.516 -31.1315ZM217.605 -30.3444C216.786 -30.1658 216.848 -29.6849 217.691 -29.6849C218.067 -29.6849 218.488 -29.653 218.626 -29.6136C218.764 -29.5742 218.93 -29.7671 218.993 -30.0416C219.107 -30.5359 218.795 -30.6038 217.605 -30.3444ZM207.433 -29.3996C207.433 -29.0856 207.524 -28.8288 207.635 -28.8288C207.747 -28.8288 208.229 -29.0856 208.707 -29.3996L209.577 -29.9703H208.505C207.661 -29.9703 207.433 -29.849 207.433 -29.3996ZM229.23 -29.7737C228.356 -29.5828 228.499 -29.1421 229.544 -28.8105C230.583 -28.4809 231.25 -28.9721 230.622 -29.6039C230.244 -29.9846 230.214 -29.988 229.23 -29.7737ZM202.475 -28.2581C202.359 -28.1011 202.427 -27.9727 202.626 -27.9727C202.825 -27.9727 202.988 -28.1011 202.988 -28.2581C202.988 -28.415 202.92 -28.5434 202.837 -28.5434C202.754 -28.5434 202.591 -28.415 202.475 -28.2581ZM243.163 -28.2581C242.851 -27.836 243.284 -27.4019 244.018 -27.4019C244.855 -27.4019 245.265 -27.9661 244.66 -28.2855C244.031 -28.6185 243.422 -28.6071 243.163 -28.2581ZM199.227 -27.9727C198.789 -27.7364 198.801 -27.6953 199.312 -27.6916C199.641 -27.6893 200.022 -27.6776 200.159 -27.6659C200.295 -27.6542 200.462 -27.7826 200.529 -27.9513C200.681 -28.3317 199.916 -28.3442 199.227 -27.9727ZM258.53 -27.3745C258.402 -27.2025 258.508 -26.8863 258.766 -26.6714C259.359 -26.1765 260.27 -26.5963 259.978 -27.2304C259.738 -27.7532 258.874 -27.8391 258.53 -27.3745ZM197.346 -27.1166C197.463 -26.9596 197.702 -26.8312 197.879 -26.8312C198.057 -26.8312 198.201 -26.9596 198.201 -27.1166C198.201 -27.2735 197.961 -27.4019 197.668 -27.4019C197.375 -27.4019 197.23 -27.2735 197.346 -27.1166ZM275.817 -26.8312C275.817 -26.6742 276.047 -26.5458 276.329 -26.5458C276.612 -26.5458 276.842 -26.6742 276.842 -26.8312C276.842 -26.9881 276.612 -27.1166 276.329 -27.1166C276.047 -27.1166 275.817 -26.9881 275.817 -26.8312ZM192.132 -25.0476C192.21 -24.8513 192.557 -24.6909 192.901 -24.6909C193.246 -24.6909 193.592 -24.8513 193.671 -25.0476C193.761 -25.2736 193.479 -25.4043 192.901 -25.4043C192.324 -25.4043 192.042 -25.2736 192.132 -25.0476ZM204.441 -24.0542C204.027 -23.9338 203.817 -22.836 204.207 -22.836C204.626 -22.836 205.723 -23.4407 205.723 -23.6715C205.723 -23.9917 204.984 -24.2123 204.441 -24.0542ZM194.949 -23.4007C194.833 -23.2449 194.979 -23.0403 195.273 -22.9461C195.9 -22.7452 197.037 -23.0471 196.703 -23.3257C196.314 -23.6504 195.17 -23.6992 194.949 -23.4007ZM214.584 -23.2349C214.281 -22.9296 214.267 -22.7252 214.536 -22.5006C215.009 -22.1065 215.981 -22.4016 215.981 -22.9393C215.981 -23.5337 215.073 -23.726 214.584 -23.2349ZM192.218 -22.836C192.101 -22.679 192.246 -22.5506 192.539 -22.5506C192.832 -22.5506 193.072 -22.679 193.072 -22.836C193.072 -22.9929 192.928 -23.1213 192.751 -23.1213C192.574 -23.1213 192.334 -22.9929 192.218 -22.836ZM226.666 -22.3617C226.052 -22.1551 226.139 -21.5018 226.808 -21.2875C227.528 -21.0572 228.103 -21.5155 227.833 -22.1034C227.622 -22.5631 227.406 -22.6108 226.666 -22.3617ZM272.134 -22.2116C272.345 -21.6825 273.081 -21.5949 273.081 -22.0988C273.081 -22.3474 272.838 -22.5506 272.54 -22.5506C272.242 -22.5506 272.059 -22.3982 272.134 -22.2116ZM187.003 -22.0823C186.1 -21.7652 186.634 -21.3785 187.858 -21.4633C188.564 -21.5118 189.107 -21.6802 189.065 -21.8371C188.982 -22.1565 187.661 -22.3134 187.003 -22.0823ZM239.635 -21.0524C239.751 -20.37 241.092 -19.9945 241.675 -20.481C242.265 -20.9733 241.59 -21.6945 240.539 -21.6945C239.684 -21.6945 239.543 -21.5943 239.635 -21.0524ZM255.304 -21.1309C254.914 -20.9251 254.888 -20.7835 255.196 -20.527C255.679 -20.124 256.782 -20.4128 256.591 -20.892C256.404 -21.3589 255.911 -21.4505 255.304 -21.1309ZM181.789 -19.6968C181.789 -19.5399 182.02 -19.4115 182.302 -19.4115C182.584 -19.4115 182.815 -19.5399 182.815 -19.6968C182.815 -19.8538 182.584 -19.9822 182.302 -19.9822C182.02 -19.9822 181.789 -19.8538 181.789 -19.6968ZM266.756 -19.4115C266.416 -18.9526 266.901 -18.5553 267.802 -18.5553C268.408 -18.5553 268.636 -18.7112 268.636 -19.1261C268.636 -19.541 268.408 -19.6968 267.802 -19.6968C267.343 -19.6968 266.872 -19.5684 266.756 -19.4115ZM183.499 -17.3045C183.499 -16.8445 184.775 -16.4887 185.057 -16.8699C185.355 -17.2723 184.895 -17.6992 184.162 -17.6992C183.797 -17.6992 183.499 -17.5214 183.499 -17.3045ZM191.363 -17.2903C191.363 -16.8251 192.541 -16.4265 193.086 -16.7073C193.603 -16.9741 192.813 -17.6992 192.005 -17.6992C191.652 -17.6992 191.363 -17.5152 191.363 -17.2903ZM260.536 -17.2324C260.284 -16.683 260.812 -15.878 261.499 -15.7647C261.765 -15.721 262.268 -15.8594 262.617 -16.0726C263.145 -16.3948 263.185 -16.5649 262.855 -17.0797C262.38 -17.8202 260.853 -17.921 260.536 -17.2324ZM273.765 -17.4139C273.765 -17.2569 273.928 -17.1285 274.127 -17.1285C274.326 -17.1285 274.394 -17.2569 274.278 -17.4139C274.162 -17.5708 273.999 -17.6992 273.916 -17.6992C273.833 -17.6992 273.765 -17.5708 273.765 -17.4139ZM200.974 -16.7384C200.679 -16.441 200.713 -16.2604 201.118 -15.9798C201.771 -15.5272 202.5 -16.0044 202.189 -16.6813C201.936 -17.2321 201.486 -17.2532 200.974 -16.7384ZM251.113 -16.9147C250.366 -16.7729 250.326 -15.8229 251.058 -15.5886C251.783 -15.3566 252.224 -15.6157 252.224 -16.2724C252.224 -16.9033 251.935 -17.0705 251.113 -16.9147ZM176.577 -16.6784C176.231 -16.3893 176.694 -15.7016 177.235 -15.7016C177.519 -15.7016 177.689 -15.9076 177.626 -16.1773C177.507 -16.6881 176.923 -16.9672 176.577 -16.6784ZM211.397 -15.8106C211.273 -15.5412 211.32 -15.1968 211.502 -15.0452C211.996 -14.6329 212.971 -15.0564 212.839 -15.626C212.686 -16.294 211.678 -16.4227 211.397 -15.8106ZM253.848 -15.6788C253.026 -15.2793 253.088 -13.9149 253.957 -13.2582C254.603 -12.7705 254.744 -12.7614 255.579 -13.1526C256.704 -13.6797 256.897 -14.3698 256.177 -15.2875C255.595 -16.0283 254.832 -16.1568 253.848 -15.6788ZM223.247 -15.493C222.716 -15.3386 222.694 -14.7787 223.203 -14.3541C223.723 -13.9197 224.529 -14.2182 224.529 -14.8455C224.529 -15.3945 223.936 -15.6939 223.247 -15.493ZM235.817 -15.3449C235.826 -14.7425 236.399 -14.1908 236.8 -14.3977C237.467 -14.7422 237.244 -15.7016 236.496 -15.7016C236.12 -15.7016 235.815 -15.5409 235.817 -15.3449ZM171.076 -14.6551C170.642 -14.2936 170.85 -13.9894 171.532 -13.9894C171.911 -13.9894 172.215 -14.1797 172.215 -14.4174C172.215 -14.8518 171.492 -15.0027 171.076 -14.6551ZM244.578 -13.2759C244.265 -12.5945 244.729 -11.931 245.414 -12.0805C245.936 -12.1944 246.023 -12.0454 245.978 -11.1091C245.891 -9.29011 248.03 -8.46708 249.476 -9.76268C250.328 -10.5266 250.346 -10.9427 249.574 -12.0428C249.057 -12.7802 248.826 -12.8755 247.865 -12.7468C246.932 -12.6221 246.754 -12.6872 246.754 -13.1512C246.754 -13.5707 246.515 -13.704 245.764 -13.704C245.201 -13.704 244.69 -13.5199 244.578 -13.2759ZM132.895 -13.1332C132.895 -12.9763 133.049 -12.8479 133.237 -12.8479C133.425 -12.8479 133.579 -12.9763 133.579 -13.1332C133.579 -13.2902 133.425 -13.4186 133.237 -13.4186C133.049 -13.4186 132.895 -13.2902 132.895 -13.1332ZM268.85 -12.9055C268.561 -12.5154 269.109 -12.1379 270.089 -12.0523C271.172 -11.9578 271.238 -12.0622 270.493 -12.6849C269.914 -13.1675 269.123 -13.2739 268.85 -12.9055ZM267.915 -12.3485C267.785 -11.6122 268.101 -10.6779 268.585 -10.3705C269.265 -9.93876 270.346 -9.88283 270.346 -10.2795C270.346 -10.4365 270.055 -10.5649 269.7 -10.5649C269.233 -10.5649 268.992 -10.8408 268.83 -11.5637C268.634 -12.4332 268.023 -12.958 267.915 -12.3485ZM172.451 -12.0928C171.981 -11.7007 172.224 -11.0951 172.814 -11.1898C173.143 -11.2429 173.412 -11.4664 173.412 -11.6864C173.412 -12.137 172.809 -12.3918 172.451 -12.0928ZM126.084 -11.54C126.1 -11.2075 126.181 -11.1399 126.29 -11.3674C126.389 -11.5734 126.377 -11.8197 126.263 -11.9144C126.15 -12.0092 126.069 -11.8408 126.084 -11.54ZM166.267 -11.538C166.153 -11.2883 166.141 -10.973 166.242 -10.8368C166.549 -10.4216 167.429 -10.8771 167.429 -11.4515C167.429 -12.1068 166.559 -12.1715 166.267 -11.538ZM179.368 -11.6921C179.012 -11.5086 178.988 -11.3617 179.274 -11.1234C179.722 -10.7492 181.305 -10.8639 181.216 -11.264C181.123 -11.685 179.902 -11.9678 179.368 -11.6921ZM237.21 -11.3086C236.976 -11.0737 236.836 -10.5857 236.897 -10.2239C236.982 -9.72504 237.257 -9.54809 238.035 -9.49159C239.585 -9.37944 240.133 -9.79067 239.725 -10.7621C239.338 -11.6867 237.897 -11.9997 237.21 -11.3086ZM230.911 -10.9453C230.786 -10.8408 230.683 -10.4579 230.683 -10.0946C230.683 -9.62829 230.432 -9.38172 229.829 -9.2553C229.165 -9.11632 228.974 -8.8926 228.974 -8.25764C228.974 -6.54226 232.119 -5.98805 232.609 -7.61725C232.776 -8.17117 232.669 -8.47253 232.205 -8.75534C231.716 -9.05413 231.666 -9.21648 231.984 -9.48159C232.562 -9.96416 232.491 -10.7578 231.852 -10.9624C231.183 -11.177 231.189 -11.177 230.911 -10.9453ZM188.289 -10.4256C187.946 -10.0806 187.975 -9.96617 188.441 -9.81692C189.115 -9.60118 189.833 -10.0911 189.501 -10.54C189.185 -10.9661 188.789 -10.9287 188.289 -10.4256ZM118.378 -9.72844C118.27 -9.58233 118.338 -9.38229 118.529 -9.28355C118.72 -9.1851 118.876 -9.30468 118.876 -9.54924C118.876 -10.0506 118.671 -10.1243 118.378 -9.72844ZM161.274 -9.58975C161.274 -9.34148 161.518 -9.13801 161.815 -9.13801C162.113 -9.13801 162.296 -9.2904 162.222 -9.47675C162.01 -10.0061 161.274 -10.0937 161.274 -9.58975ZM197.517 -9.04298C197.517 -8.45054 197.922 -8.25534 198.426 -8.60464C199.089 -9.0638 198.99 -9.42338 198.201 -9.42338C197.825 -9.42338 197.517 -9.25215 197.517 -9.04298ZM218.816 -9.1069C218.274 -8.65458 218.656 -7.99651 219.461 -7.99651C219.955 -7.99651 220.103 -8.15975 220.022 -8.61634C219.894 -9.34576 219.361 -9.56207 218.816 -9.1069ZM207.775 -8.42457C207.775 -7.62667 208.603 -7.44116 208.936 -8.16487C209.196 -8.72934 208.915 -9.13801 208.268 -9.13801C207.97 -9.13801 207.775 -8.85549 207.775 -8.42457ZM157.171 -8.31557C157.171 -8.15862 157.325 -7.95085 157.513 -7.85382C157.701 -7.7568 157.855 -7.80587 157.855 -7.96282C157.855 -8.11978 157.701 -8.32754 157.513 -8.42457C157.325 -8.5216 157.171 -8.47253 157.171 -8.31557ZM111.696 -7.837C111.696 -7.59243 111.852 -7.47285 112.043 -7.57131C112.234 -7.67005 112.303 -7.87008 112.194 -8.0162C111.901 -8.41201 111.696 -8.3384 111.696 -7.837ZM122.979 -7.40894C122.979 -7.24285 123.133 -7.18605 123.321 -7.28308C123.509 -7.3801 123.663 -7.51593 123.663 -7.58528C123.663 -7.65462 123.509 -7.71114 123.321 -7.71114C123.133 -7.71114 122.979 -7.57503 122.979 -7.40894ZM224.248 -7.3447C223.711 -6.80477 224.516 -5.90016 225.406 -6.04314C226.36 -6.19638 226.316 -7.53876 225.354 -7.65349C224.961 -7.70029 224.464 -7.5613 224.248 -7.3447ZM239.11 -6.44065C238.021 -5.59822 237.968 -4.90163 238.914 -3.89712C239.848 -2.9063 241.522 -2.87833 242.757 -3.83319C243.543 -4.44161 243.608 -4.63167 243.32 -5.4741C242.718 -7.23685 240.73 -7.69344 239.11 -6.44065ZM161.768 -6.54481C161.436 -6.09591 162.155 -5.60594 162.828 -5.82168C163.294 -5.97093 163.323 -6.08535 162.98 -6.43037C162.48 -6.93348 162.084 -6.97087 161.768 -6.54481ZM156.145 -6.14158C156.145 -5.84765 156.369 -5.7078 156.744 -5.76773C157.464 -5.88359 157.419 -6.39014 156.676 -6.51913C156.367 -6.57307 156.145 -6.41583 156.145 -6.14158ZM153.923 -5.9989C153.807 -5.84194 153.875 -5.71352 154.074 -5.71352C154.273 -5.71352 154.436 -5.84194 154.436 -5.9989C154.436 -6.15585 154.368 -6.28427 154.285 -6.28427C154.202 -6.28427 154.039 -6.15585 153.923 -5.9989ZM221.965 -5.94326C220.419 -5.21156 220.313 -3.81836 221.737 -2.9397C222.64 -2.38236 222.78 -2.37124 223.777 -2.77447C224.366 -3.01247 224.939 -3.44538 225.05 -3.73618C225.274 -4.32633 224.702 -5.3882 223.875 -5.91843C223.201 -6.3502 222.834 -6.35477 221.965 -5.94326ZM152.042 -5.42815C152.042 -4.89535 152.134 -4.81946 152.453 -5.08571C152.772 -5.35197 152.772 -5.50433 152.453 -5.77058C152.134 -6.03684 152.042 -5.96094 152.042 -5.42815ZM168.516 -5.3568C168.576 -5.00379 168.779 -4.71471 168.967 -4.71471C169.155 -4.71471 169.358 -5.00379 169.419 -5.3568C169.493 -5.79856 169.353 -5.9989 168.967 -5.9989C168.582 -5.9989 168.441 -5.79856 168.516 -5.3568ZM105.37 -5.42815C105.487 -5.27119 105.726 -5.14277 105.904 -5.14277C106.081 -5.14277 106.225 -5.27119 106.225 -5.42815C106.225 -5.5851 105.985 -5.71352 105.692 -5.71352C105.399 -5.71352 105.254 -5.5851 105.37 -5.42815ZM216.523 -4.89708C216.209 -4.4733 216.881 -3.24648 217.543 -3.03445C218.323 -2.78446 219.459 -3.66053 219.33 -4.41363C219.253 -4.86338 218.938 -5.02036 217.979 -5.08714C217.291 -5.1348 216.636 -5.04947 216.523 -4.89708ZM147.939 -4.42934C147.939 -4.1939 148.093 -4.00128 148.281 -4.00128C148.469 -4.00128 148.623 -4.1939 148.623 -4.42934C148.623 -4.66477 148.469 -4.8574 148.281 -4.8574C148.093 -4.8574 147.939 -4.66477 147.939 -4.42934ZM175.699 -4.36113C175.871 -3.61745 177.002 -3.53441 177.002 -4.26582C177.002 -4.67419 176.783 -4.8574 176.293 -4.8574C175.804 -4.8574 175.62 -4.70358 175.699 -4.36113ZM213.215 -4.39851C212.827 -4.00897 212.855 -3.88084 213.394 -3.55151C214.197 -3.06153 214.613 -3.26928 214.613 -4.16079C214.613 -4.96098 213.896 -5.08312 213.215 -4.39851ZM108.619 -4.00128C108.619 -3.84432 108.782 -3.7159 108.981 -3.7159C109.18 -3.7159 109.248 -3.84432 109.132 -4.00128C109.015 -4.15823 108.853 -4.28665 108.769 -4.28665C108.686 -4.28665 108.619 -4.15823 108.619 -4.00128ZM263.223 -3.78725C262.121 -3.0039 262.116 -1.8681 263.21 -0.887839C263.783 -0.37445 264.167 -0.272307 265.005 -0.409858C266.944 -0.727195 267.504 -2.1706 266.218 -3.53469C265.396 -4.40736 264.233 -4.50553 263.223 -3.78725ZM99.3869 -3.32264C99.3869 -3.03813 99.6724 -2.85978 100.128 -2.85978C100.535 -2.85978 100.804 -2.89601 100.726 -2.94053C100.648 -2.98505 100.314 -3.19339 99.9852 -3.40343C99.4731 -3.73075 99.3869 -3.71903 99.3869 -3.32264ZM119.218 -3.43053C119.218 -3.27357 119.372 -3.14516 119.56 -3.14516C119.748 -3.14516 119.902 -3.27357 119.902 -3.43053C119.902 -3.58749 119.748 -3.7159 119.56 -3.7159C119.372 -3.7159 119.218 -3.58749 119.218 -3.43053ZM184.76 -3.24618C184.314 -2.87405 184.527 -2.57441 185.237 -2.57441C185.635 -2.57441 185.889 -2.72395 185.814 -2.91315C185.647 -3.33037 185.076 -3.51072 184.76 -3.24618ZM202.988 -2.33669C202.988 -1.66321 203.276 -1.43349 203.876 -1.62583C204.633 -1.86811 204.468 -2.85978 203.672 -2.85978C203.237 -2.85978 202.988 -2.66944 202.988 -2.33669ZM208.278 -2.17345C207.981 -1.79618 207.362 -1.40839 206.902 -1.31193C206.303 -1.18636 206.065 -0.940654 206.065 -0.445529C206.065 0.46938 206.607 0.707978 207.534 0.20144C208.064 -0.0885001 208.448 -0.126769 208.828 0.0732774C209.203 0.270757 209.672 0.235108 210.366 -0.0437003C211.19 -0.374736 211.346 -0.593925 211.255 -1.29566C211.053 -2.85209 209.232 -3.38914 208.278 -2.17345ZM146.624 -2.16404C146.69 -1.90235 146.896 -1.69489 147.084 -1.70317C147.592 -1.72571 147.499 -2.36408 146.966 -2.51219C146.679 -2.5921 146.551 -2.46169 146.624 -2.16404ZM142.192 -1.98227C142.26 -1.81362 142.461 -1.67548 142.64 -1.67548C142.818 -1.67548 143.019 -1.81362 143.087 -1.98227C143.154 -2.15093 142.953 -2.28903 142.64 -2.28903C142.326 -2.28903 142.125 -2.15093 142.192 -1.98227ZM193.489 -1.9597C193.666 -1.51509 194.431 -1.43748 194.458 -1.86097C194.468 -2.01793 194.22 -2.19057 193.906 -2.24507C193.549 -2.30643 193.393 -2.1997 193.489 -1.9597ZM151.761 -1.56048C151.915 -0.94065 152.522 -0.902686 152.661 -1.50426C152.733 -1.81674 152.565 -2.00366 152.213 -2.00366C151.885 -2.00366 151.696 -1.81903 151.761 -1.56048ZM102.464 -1.43291C102.464 -1.27596 102.627 -1.14754 102.826 -1.14754C103.025 -1.14754 103.093 -1.27596 102.977 -1.43291C102.861 -1.58987 102.698 -1.71829 102.615 -1.71829C102.532 -1.71829 102.464 -1.58987 102.464 -1.43291ZM112.038 -1.43291C112.038 -1.27596 112.192 -1.14754 112.38 -1.14754C112.568 -1.14754 112.722 -1.27596 112.722 -1.43291C112.722 -1.58987 112.568 -1.71829 112.38 -1.71829C112.192 -1.71829 112.038 -1.58987 112.038 -1.43291ZM138.926 -1.52025C138.541 -1.19892 138.692 -0.862166 139.22 -0.862166C139.502 -0.862166 139.733 -0.98289 139.733 -1.13071C139.733 -1.49057 139.199 -1.74826 138.926 -1.52025ZM94.2581 -0.417277C94.2581 -0.172713 94.4144 -0.0531341 94.6055 -0.151588C94.7966 -0.250327 94.8647 -0.450362 94.7563 -0.596473C94.4633 -0.992286 94.2581 -0.918681 94.2581 -0.417277ZM157.855 -0.291415C157.855 0.0224923 158.009 0.279332 158.197 0.279332C158.385 0.279332 158.539 0.0224923 158.539 -0.291415C158.539 -0.605327 158.385 -0.862166 158.197 -0.862166C158.009 -0.862166 157.855 -0.605327 157.855 -0.291415ZM213.463 0.17545C212.381 1.07866 212.376 1.13917 213.252 2.57375C214.014 3.81912 214.694 3.97864 216.297 3.28718C217.41 2.80633 217.817 1.87543 217.287 1.01788C216.196 -0.747439 214.909 -1.03083 213.463 0.17545ZM133.13 0.463681C132.66 0.855786 132.904 1.46137 133.493 1.36662C133.822 1.31354 134.092 1.09006 134.092 0.870038C134.092 0.419434 133.488 0.164609 133.13 0.463681ZM96.3096 0.850079C96.3096 1.00704 96.4635 1.13545 96.6515 1.13545C96.8396 1.13545 96.9935 1.00704 96.9935 0.850079C96.9935 0.693124 96.8396 0.564706 96.6515 0.564706C96.4635 0.564706 96.3096 0.693124 96.3096 0.850079ZM129.815 0.9959C129.471 1.34149 129.492 1.42083 129.927 1.42083C130.565 1.42083 130.982 0.955369 130.546 0.73021C130.376 0.642598 130.047 0.762181 129.815 0.9959ZM198.909 1.43368C197.647 1.93166 196.833 2.42133 196.916 2.63279C197.089 3.07769 199.838 4.23491 200.775 4.25774C202.472 4.29883 203.448 2.95615 202.638 1.69394C201.931 0.590684 201.177 0.538178 198.909 1.43368ZM137.202 1.0601C136.835 1.36631 136.987 1.7062 137.491 1.7062C137.762 1.7062 138.068 1.59119 138.172 1.45078C138.39 1.15685 137.51 0.802697 137.202 1.0601ZM164.864 1.13545C164.728 1.3198 164.77 1.59889 164.958 1.75584C165.186 1.94619 165.383 1.92965 165.548 1.7062C165.684 1.52185 165.642 1.24277 165.454 1.08581C165.226 0.895467 165.03 0.912003 164.864 1.13545ZM88.9584 2.27695C89.0746 2.4339 89.3236 2.56232 89.5116 2.56232C89.6997 2.56232 89.7585 2.4339 89.6422 2.27695C89.526 2.11999 89.2771 1.99157 89.089 1.99157C88.9009 1.99157 88.8421 2.11999 88.9584 2.27695ZM142.127 2.56232C142.127 2.87623 142.281 3.13307 142.469 3.13307C142.657 3.13307 142.81 2.87623 142.81 2.56232C142.81 2.24841 142.657 1.99157 142.469 1.99157C142.281 1.99157 142.127 2.24841 142.127 2.56232ZM232.393 2.56232C230.934 3.77972 232.11 6.27218 234.143 6.27218C235.346 6.27218 236.838 5.15864 236.838 4.26028C236.838 3.92411 236.52 3.27634 236.131 2.82031C235.259 1.79839 233.457 1.67395 232.393 2.56232ZM172.215 2.99038C172.215 3.38277 172.369 3.70382 172.557 3.70382C172.745 3.70382 172.899 3.38277 172.899 2.99038C172.899 2.59799 172.745 2.27695 172.557 2.27695C172.369 2.27695 172.215 2.59799 172.215 2.99038ZM90.8389 3.11624C90.8389 3.26407 90.9928 3.4641 91.1809 3.56113C91.3689 3.65816 91.5228 3.53715 91.5228 3.29258C91.5228 3.04802 91.3689 2.8477 91.1809 2.8477C90.9928 2.8477 90.8389 2.96842 90.8389 3.11624ZM120.928 3.27576C120.928 3.51119 121.065 3.70382 121.233 3.70382C121.401 3.70382 121.627 3.51119 121.735 3.27576C121.855 3.01492 121.736 2.8477 121.43 2.8477C121.154 2.8477 120.928 3.04032 120.928 3.27576ZM124.005 3.27576C124.005 3.53745 124.17 3.70524 124.373 3.64902C124.575 3.5928 124.74 3.42501 124.74 3.27576C124.74 3.12651 124.575 2.95871 124.373 2.90249C124.17 2.84627 124.005 3.01407 124.005 3.27576ZM115.799 3.41844C115.799 3.5754 115.953 3.70382 116.141 3.70382C116.329 3.70382 116.483 3.5754 116.483 3.41844C116.483 3.26149 116.329 3.13307 116.141 3.13307C115.953 3.13307 115.799 3.26149 115.799 3.41844ZM118.044 3.38849C117.939 3.52918 118.084 3.71752 118.365 3.8077C118.676 3.90701 118.876 3.80684 118.876 3.55228C118.876 3.09055 118.342 2.98554 118.044 3.38849ZM188.75 4.63815C188.906 6.36609 189.374 7.1283 190.276 7.1283C190.696 7.1283 190.724 7.20448 190.405 7.47074C189.793 7.98184 189.908 8.96953 190.712 10.107C191.326 10.976 191.558 11.095 192.336 10.9412C193.841 10.6432 194.441 10.0103 194.434 8.72496C194.426 7.21534 193.164 6.05814 192.063 6.55042C191.301 6.89058 191.12 6.58868 191.764 6.0516C192.379 5.53793 191.596 4.38529 190.471 4.14957C189.95 4.04056 189.317 3.7352 189.063 3.47094C188.665 3.05715 188.622 3.21955 188.75 4.63815ZM179.931 3.95923C179.703 4.26658 180.422 4.52542 181.02 4.35134C181.255 4.28314 181.447 4.10933 181.447 3.9655C181.447 3.62848 180.179 3.62335 179.931 3.95923ZM127.61 4.25488C127.501 4.40099 127.569 4.60103 127.761 4.69977C128.169 4.91009 128.792 4.64299 128.792 4.25774C128.792 3.91044 127.866 3.90815 127.61 4.25488ZM147.597 4.44094C147.597 4.6895 147.78 4.84217 148.004 4.77996C148.637 4.6036 148.742 3.98919 148.139 3.98919C147.841 3.98919 147.597 4.19267 147.597 4.44094ZM92.8905 4.55994C92.8905 4.71689 93.0535 4.84531 93.2525 4.84531C93.4515 4.84531 93.5196 4.71689 93.4033 4.55994C93.2871 4.40298 93.1243 4.27456 93.0412 4.27456C92.9582 4.27456 92.8905 4.40298 92.8905 4.55994ZM83.6587 5.13069C83.6587 5.28764 83.8125 5.41606 84.0006 5.41606C84.1886 5.41606 84.3425 5.28764 84.3425 5.13069C84.3425 4.97373 84.1886 4.84531 84.0006 4.84531C83.8125 4.84531 83.6587 4.97373 83.6587 5.13069ZM105.883 5.27337C105.883 5.50881 106.037 5.70144 106.225 5.70144C106.413 5.70144 106.567 5.50881 106.567 5.27337C106.567 5.03794 106.413 4.84531 106.225 4.84531C106.037 4.84531 105.883 5.03794 105.883 5.27337ZM107.935 5.2902C107.935 5.53476 108.091 5.65434 108.282 5.55589C108.473 5.45715 108.541 5.25711 108.433 5.111C108.14 4.71519 107.935 4.7888 107.935 5.2902ZM109.644 5.27337C109.644 5.50881 109.875 5.70144 110.157 5.70144C110.439 5.70144 110.67 5.50881 110.67 5.27337C110.67 5.03794 110.439 4.84531 110.157 4.84531C109.875 4.84531 109.644 5.03794 109.644 5.27337ZM111.92 5.28536C112.144 5.77249 112.774 5.71256 112.985 5.18433C113.061 4.99599 112.809 4.84531 112.419 4.84531C111.927 4.84531 111.778 4.97687 111.92 5.28536ZM114.636 5.34071C114.224 5.68401 114.449 5.98681 115.115 5.98681C115.491 5.98681 115.799 5.87211 115.799 5.73198C115.799 5.41122 114.91 5.11184 114.636 5.34071ZM132.382 5.98681C132.266 6.14376 132.276 6.41431 132.405 6.58811C132.634 6.89831 133.219 6.42286 133.232 5.91546C133.239 5.6027 132.629 5.65406 132.382 5.98681ZM154.094 6.57438C154.094 6.89742 154.248 7.08264 154.436 6.98562C154.624 6.88859 154.778 6.62434 154.778 6.39805C154.778 6.17174 154.624 5.98681 154.436 5.98681C154.248 5.98681 154.094 6.25134 154.094 6.57438ZM101.78 6.85976C101.78 7.1828 101.934 7.36802 102.122 7.27099C102.31 7.17396 102.464 6.90972 102.464 6.68342C102.464 6.45712 102.31 6.27218 102.122 6.27218C101.934 6.27218 101.78 6.53671 101.78 6.85976ZM103.148 6.68342C103.148 6.90972 103.309 7.17738 103.505 7.27869C103.946 7.50642 104.92 6.87288 104.663 6.5253C104.356 6.11179 103.148 6.23795 103.148 6.68342ZM118.192 6.84293C118.192 7.21078 118.365 7.41311 118.62 7.34234C118.855 7.27698 119.047 7.05211 119.047 6.84293C119.047 6.63375 118.855 6.40887 118.62 6.34353C118.365 6.27275 118.192 6.47508 118.192 6.84293ZM100.071 6.8261C100.071 6.97393 100.225 7.17396 100.413 7.27099C100.601 7.36802 100.755 7.24701 100.755 7.00244C100.755 6.75788 100.601 6.55756 100.413 6.55756C100.225 6.55756 100.071 6.67828 100.071 6.8261ZM87.4198 7.28782C87.4198 7.53238 87.576 7.65196 87.7671 7.55351C87.9583 7.45477 88.0263 7.25473 87.9179 7.10862C87.6249 6.71281 87.4198 6.78642 87.4198 7.28782ZM97.3354 7.1283C97.3354 7.28526 97.4892 7.41368 97.6773 7.41368C97.8654 7.41368 98.0192 7.28526 98.0192 7.1283C98.0192 6.97135 97.8654 6.84293 97.6773 6.84293C97.4892 6.84293 97.3354 6.97135 97.3354 7.1283ZM105.883 7.27099C105.883 7.50642 106.114 7.69905 106.396 7.69905C106.678 7.69905 106.909 7.50642 106.909 7.27099C106.909 7.03556 106.678 6.84293 106.396 6.84293C106.114 6.84293 105.883 7.03556 105.883 7.27099ZM180.042 7.88797C179.442 8.02181 178.712 9.14417 178.712 9.93209C178.712 10.7919 179.719 11.6943 180.679 11.6943C181.8 11.6943 183.499 10.3867 183.499 9.52374C183.499 9.10881 183.098 8.68046 182.347 8.29321C181.183 7.69278 181.035 7.66652 180.042 7.88797ZM89.1294 8.21528C89.1294 8.50665 90.4256 9.41129 90.8427 9.41129C91.0287 9.41129 91.1809 9.28288 91.1809 9.12592C91.1809 8.96896 90.9501 8.84055 90.668 8.84055C90.3859 8.84055 90.1551 8.72584 90.1551 8.58572C90.1551 8.44561 89.9243 8.25694 89.6422 8.16648C89.3601 8.0763 89.1294 8.09828 89.1294 8.21528ZM94.771 8.17877C92.8925 8.53093 91.8647 8.92416 91.8647 9.29087C91.8647 9.76887 92.2671 9.81738 92.7677 9.39959C92.9636 9.23607 93.8793 9.07513 94.8021 9.04232C95.7253 9.00921 96.4419 8.88593 96.3951 8.76865C96.3483 8.65136 96.3096 8.42675 96.3096 8.2698C96.3096 7.97643 95.9609 7.95589 94.771 8.17877ZM137.525 8.53549C137.272 8.87708 137.916 9.21524 138.371 8.98038C138.754 8.78318 138.502 8.2698 138.024 8.2698C137.858 8.2698 137.634 8.38938 137.525 8.53549ZM160.59 8.84055C160.59 8.9975 160.821 9.12592 161.103 9.12592C161.385 9.12592 161.616 8.9975 161.616 8.84055C161.616 8.68359 161.385 8.55517 161.103 8.55517C160.821 8.55517 160.59 8.68359 160.59 8.84055ZM97.3354 9.41129C97.3354 9.7917 97.5634 9.98204 98.0192 9.98204C98.8306 9.98204 98.9369 9.26206 98.1621 9.01379C97.3778 8.76266 97.3354 8.7829 97.3354 9.41129ZM109.079 9.28087C108.967 9.52315 108.965 9.79569 109.074 9.88701C109.419 10.175 110.328 9.7332 110.328 9.27745C110.328 8.70785 109.341 8.71069 109.079 9.28087ZM122.865 9.03089C122.449 9.37848 122.63 9.98204 123.15 9.98204C123.435 9.98204 123.663 9.72834 123.663 9.41129C123.663 8.84283 123.299 8.66903 122.865 9.03089ZM205.928 9.55513C205.134 10.0562 205.111 11.45 205.88 12.4297C207.18 14.0849 210.479 12.7011 209.971 10.7143C209.848 10.2332 209.593 9.67897 209.403 9.48264C208.938 9.00064 206.732 9.0466 205.928 9.55513ZM258.836 9.74861C257.827 10.1558 257.659 10.9178 258.329 12.0385C259.469 13.9436 262.829 13.0929 262.342 11.0225C261.997 9.55512 260.585 9.04231 258.836 9.74861ZM86.5017 9.88158C86.8706 10.1898 85.3211 11.1235 84.441 11.1235C83.9797 11.1235 83.711 11.2488 83.8296 11.4089C84.1715 11.8709 85.6059 11.738 87.2526 11.0922C89.1547 10.3459 89.2853 9.69667 87.5336 9.69667C86.8443 9.69667 86.3796 9.77998 86.5017 9.88158ZM82.12 10.2674C82.0038 10.4244 82.1576 10.5528 82.4619 10.5528C82.7663 10.5528 82.9201 10.4244 82.8039 10.2674C82.6876 10.1105 82.5337 9.98204 82.4619 9.98204C82.3901 9.98204 82.2363 10.1105 82.12 10.2674ZM174.951 10.4101C174.951 10.6455 175.105 10.8382 175.293 10.8382C175.481 10.8382 175.635 10.6455 175.635 10.4101C175.635 10.1747 175.481 9.98204 175.293 9.98204C175.105 9.98204 174.951 10.1747 174.951 10.4101ZM89.1294 10.9809C89.1294 11.2186 89.4333 11.4089 89.8132 11.4089C90.1931 11.4089 90.497 11.2186 90.497 10.9809C90.497 10.7431 90.1931 10.5528 89.8132 10.5528C89.4333 10.5528 89.1294 10.7431 89.1294 10.9809ZM100.071 11.1235C100.511 11.8104 100.949 11.8555 101.231 11.2428C101.537 10.5765 101.515 10.5528 100.572 10.5528C99.8109 10.5528 99.7493 10.6224 100.071 11.1235ZM143.494 11.4089C143.494 11.5659 143.648 11.6943 143.836 11.6943C144.024 11.6943 144.178 11.5659 144.178 11.4089C144.178 11.252 144.024 11.1235 143.836 11.1235C143.648 11.1235 143.494 11.252 143.494 11.4089ZM79.6969 12.12C79.3898 12.5113 79.2257 13.021 79.332 13.2524C79.4387 13.4841 79.3785 13.7495 79.1987 13.8423C78.8003 14.0478 78.7624 14.8334 79.1508 14.8334C79.3043 14.8334 79.7806 14.3123 80.2097 13.6751C80.9305 12.6046 81.0242 12.5561 81.4485 13.033C81.8756 13.5133 81.947 13.5164 82.4814 13.0772C83.1642 12.5159 82.8152 11.8732 81.9327 12.0658C81.589 12.1409 81.2276 12.0242 81.1271 11.8053C80.8529 11.2089 80.3202 11.3261 79.6969 12.12ZM112.722 11.6943C112.722 11.8512 113.029 11.9797 113.406 11.9797C113.782 11.9797 114.089 11.8512 114.089 11.6943C114.089 11.5373 113.782 11.4089 113.406 11.4089C113.029 11.4089 112.722 11.5373 112.722 11.6943ZM171.604 11.7277C170.662 12.0185 170.629 12.8675 171.533 13.5504C172.12 13.9938 172.351 14.0172 173.148 13.7142C173.794 13.4685 174.115 13.4548 174.201 13.6691C174.376 14.1074 175.527 14.0518 175.737 13.5946C175.834 13.3843 175.778 13.031 175.613 12.8098C175.373 12.4882 175.181 12.4762 174.652 12.7499C174.079 13.0461 173.964 13.003 173.79 12.4271C173.561 11.6649 172.7 11.3892 171.604 11.7277ZM127.937 11.9797C127.801 12.164 127.843 12.4431 128.031 12.6C128.259 12.7904 128.455 12.7739 128.621 12.5504C128.757 12.3661 128.715 12.087 128.527 11.93C128.299 11.7397 128.103 11.7562 127.937 11.9797ZM91.6753 12.5752C91.3768 12.9782 92.036 13.5284 92.5188 13.2792C93.0611 12.9996 92.9735 12.265 92.3977 12.265C92.1266 12.265 91.8018 12.4046 91.6753 12.5752ZM73.0999 13.7721C72.5385 14.2407 72.6335 15.1188 73.2456 15.1188C73.6644 15.1188 73.7273 15.3262 73.5495 16.1176C73.3683 16.9235 73.4316 17.1164 73.876 17.1164C74.2887 17.1164 74.4269 16.8362 74.4269 15.9986C74.4269 15.3839 74.5667 14.8383 74.7373 14.7857C74.9083 14.7335 75.1008 14.4504 75.1647 14.1568C75.2516 13.7607 75.0495 13.6009 74.3821 13.5378C73.8873 13.491 73.3105 13.5963 73.0999 13.7721ZM104.003 13.6919C103.754 14.0286 104.077 14.548 104.536 14.548C104.713 14.548 104.858 14.2912 104.858 13.9773C104.858 13.3754 104.36 13.2093 104.003 13.6919ZM83.195 14.1157C83.0726 14.3819 83.196 14.6368 83.4935 14.7321C84.202 14.959 85.1115 14.6197 84.9426 14.191C84.7292 13.6505 83.4347 13.5946 83.195 14.1157ZM170.401 14.4624C169.351 14.6896 169.029 15.9084 169.746 16.9369C170.514 18.0376 171.457 18.1851 172.663 17.3938C173.7 16.7126 173.837 15.8336 173.051 14.897C172.542 14.2909 171.776 14.165 170.401 14.4624ZM117.85 14.9761C117.85 15.2115 118.004 15.4041 118.192 15.4041C118.38 15.4041 118.534 15.2115 118.534 14.9761C118.534 14.7407 118.38 14.548 118.192 14.548C118.004 14.548 117.85 14.7407 117.85 14.9761ZM168.181 15.1915C167.862 15.5126 167.845 15.6941 168.119 15.8353C168.625 16.0965 168.883 15.8488 168.741 15.2395C168.637 14.7934 168.581 14.7889 168.181 15.1915ZM94.942 15.6895C94.942 16.1193 95.1204 16.2734 95.5403 16.2061C95.8692 16.153 96.1387 15.9207 96.1387 15.6895C96.1387 15.4584 95.8692 15.2261 95.5403 15.173C95.1204 15.1056 94.942 15.2597 94.942 15.6895ZM226.798 15.7104C225.62 16.4834 225.594 17.7457 226.736 18.6988C227.704 19.5067 228.285 19.5638 229.631 18.9827C230.777 18.4882 231.104 17.6752 230.622 16.5202C230.009 15.0551 228.335 14.7004 226.798 15.7104ZM66.5822 15.6735C66.1829 15.8844 66.1651 16.0736 66.4892 16.6678C66.7098 17.0716 67.0473 17.4018 67.2394 17.4018C67.4312 17.4018 67.5885 17.5658 67.5885 17.7662C67.5885 17.9668 67.8426 18.4337 68.153 18.8038L68.7179 19.4764L69.147 18.7927C69.5795 18.1038 69.4376 16.44 68.9671 16.6826C68.828 16.7545 68.5411 16.496 68.3298 16.1087C67.9256 15.3688 67.4049 15.2389 66.5822 15.6735ZM75.3364 15.6156C75.2372 15.7497 75.295 16.0459 75.4656 16.274C75.7928 16.712 76.8138 16.4044 76.9321 15.8322C77.006 15.4761 75.5829 15.2826 75.3364 15.6156ZM161.461 16.0317C160.132 17.0844 161.71 18.8249 163.483 18.2622C164.654 17.8906 164.856 17.3515 164.215 16.3156C163.613 15.3453 162.475 15.2281 161.461 16.0317ZM165.244 15.8528C164.977 16.4324 165.599 17.4018 166.237 17.4018C166.783 17.4018 167.28 16.1818 166.928 15.7058C166.589 15.2481 165.477 15.3454 165.244 15.8528ZM182.875 16.3476C181.524 17.1355 181.399 18.4231 182.584 19.352C183.323 19.9319 183.471 19.9481 184.721 19.5886C185.673 19.3146 186.096 19.0153 186.177 18.5584C186.374 17.4463 185.917 16.571 184.915 16.1387C184.026 15.7549 183.862 15.7717 182.875 16.3476ZM86.0521 17.2423C86.0521 17.7825 86.5417 18.0167 87.218 17.8001C88.0851 17.5225 87.8629 16.831 86.9069 16.831C86.3906 16.831 86.0521 16.994 86.0521 17.2423ZM108.448 17.4018C108.331 17.5587 108.342 17.8293 108.47 18.0031C108.7 18.3133 109.285 17.8378 109.297 17.3304C109.305 17.0177 108.694 17.069 108.448 17.4018ZM59.7244 18.5085C59.7244 19.4856 60.4968 20.0965 61.7869 20.1399C62.6673 20.1696 62.7073 20.1197 62.4358 19.3297C62.0337 18.16 61.4873 17.6871 60.5375 17.6871C59.8697 17.6871 59.7244 17.8338 59.7244 18.5085ZM77.976 18.3869C77.8714 18.6149 77.8854 18.9362 78.0074 19.1012C78.3124 19.5127 79.5556 18.9422 79.5556 18.3906C79.5556 17.8487 78.2249 17.8455 77.976 18.3869ZM155.828 18.8132C155.247 19.1791 155.101 19.4719 155.273 19.9253C155.512 20.552 155.786 20.6513 157 20.5492C158.046 20.461 158.268 20.1282 157.825 19.3158C157.291 18.3387 156.784 18.2111 155.828 18.8132ZM99.3869 19.3994C99.3869 19.7672 99.5599 19.9696 99.8143 19.8988C100.05 19.8334 100.242 19.6086 100.242 19.3994C100.242 19.1902 100.05 18.9653 99.8143 18.9C99.5599 18.8292 99.3869 19.0315 99.3869 19.3994ZM160.248 19.3826C160.248 19.6873 160.371 19.9998 160.521 20.0771C161.008 20.3286 161.721 19.7549 161.506 19.2855C161.209 18.6406 160.248 18.7148 160.248 19.3826ZM70.0924 20.1416C69.8007 20.7757 70.7116 21.1955 71.3045 20.7007C71.5619 20.4858 71.6683 20.1696 71.5407 19.9975C71.1968 19.5329 70.3327 19.6188 70.0924 20.1416ZM53.6314 20.7241C53.0905 21.5311 53.5514 22.2531 54.6076 22.2531C55.1345 22.2531 55.8088 22.331 56.1062 22.4264C56.9525 22.6975 56.7463 22.0043 55.7079 21.0859C54.6425 20.1439 54.0858 20.0469 53.6314 20.7241ZM62.711 20.7115C62.2707 21.0791 62.4406 22.1701 62.9986 22.5565C63.4455 22.8658 63.5908 22.8598 63.8483 22.5202C64.2781 21.9535 64.2534 21.8322 63.5658 21.1236C63.2342 20.7817 62.8495 20.5962 62.711 20.7115ZM90.1551 21.2375C90.1551 21.4638 90.2929 21.7198 90.4611 21.8065C90.8133 21.988 91.2376 21.254 90.9292 20.9969C90.5623 20.6907 90.1551 20.8171 90.1551 21.2375ZM113.406 21.397C113.406 21.554 113.569 21.6824 113.768 21.6824C113.967 21.6824 114.035 21.554 113.918 21.397C113.802 21.24 113.639 21.1116 113.556 21.1116C113.473 21.1116 113.406 21.24 113.406 21.397ZM151.737 21.6493C151.07 22.0776 150.964 22.3268 151.165 22.9985C151.669 24.6837 152.916 25.2216 154.359 24.3772C155.259 23.8512 155.362 22.6686 154.587 21.746C153.943 20.9784 152.841 20.941 151.737 21.6493ZM200.253 21.3131C197.22 22.2383 197.81 25.8851 200.951 25.6268C203.279 25.435 203.893 23.4369 202.116 21.8365C201.288 21.0905 201.129 21.046 200.253 21.3131ZM155.974 21.6824C155.858 21.8393 155.926 21.9677 156.125 21.9677C156.324 21.9677 156.487 21.8393 156.487 21.6824C156.487 21.5254 156.42 21.397 156.336 21.397C156.253 21.397 156.091 21.5254 155.974 21.6824ZM81.4362 22.2531C81.15 22.6395 81.536 23.1092 82.1402 23.1092C82.4113 23.1092 82.6329 22.8524 82.6329 22.5385C82.6329 21.9478 81.8079 21.7509 81.4362 22.2531ZM145.802 22.9357C144.606 23.6937 145.381 25.5603 146.771 25.2692C147.485 25.1194 147.597 25.1962 147.597 25.8317C147.597 26.2364 147.733 26.4972 147.9 26.4113C148.066 26.3257 148.202 25.606 148.202 24.8124C148.202 22.813 147.215 22.0408 145.802 22.9357ZM47.8256 23.1663C46.7332 24.0781 47.8349 25.0309 49.5623 24.6691C50.149 24.5461 50.4618 24.6283 50.6065 24.9431C50.8691 25.5144 51.5184 25.5295 51.5184 24.9642C51.5184 24.7287 51.2876 24.5361 51.0055 24.5361C50.7234 24.5361 50.4926 24.3635 50.4926 24.1523C50.4926 23.6586 49.391 22.8239 48.7389 22.8239C48.4623 22.8239 48.0513 22.978 47.8256 23.1663ZM161.301 23.5621C160.448 24.1614 160.291 24.4431 160.467 25.0604C160.801 26.2272 161.247 26.5337 162.615 26.5337C164.163 26.5337 164.693 26.1237 164.693 24.9279C164.693 24.2727 164.433 23.8361 163.792 23.4154C162.652 22.6669 162.569 22.6718 161.301 23.5621ZM56.9891 23.3946C56.9891 23.5516 57.2291 23.68 57.5221 23.68C57.8151 23.68 57.9601 23.5516 57.8438 23.3946C57.7276 23.2377 57.4879 23.1092 57.3108 23.1092C57.1337 23.1092 56.9891 23.2377 56.9891 23.3946ZM55.194 23.7028C54.3429 24.1166 54.4537 24.5361 55.4138 24.5361C56.0905 24.5361 56.6471 24.0746 56.6471 23.5139C56.6471 23.2973 55.8026 23.4069 55.194 23.7028ZM104.201 23.8464C104.217 24.1788 104.298 24.2465 104.407 24.019C104.506 23.813 104.494 23.5667 104.38 23.4719C104.267 23.3772 104.186 23.5456 104.201 23.8464ZM72.8647 23.9973C72.5754 24.388 73.3426 24.8224 73.9684 24.6217C74.2207 24.5413 74.4269 24.2961 74.4269 24.0775C74.4269 23.6052 73.2014 23.5422 72.8647 23.9973ZM64.8532 25.6776C64.8532 26.3134 65.5233 26.431 66.1525 25.9059C66.7898 25.374 66.6414 25.1069 65.708 25.1069C65.0812 25.1069 64.8532 25.259 64.8532 25.6776ZM141.511 25.4493C140.569 26.2358 141.687 27.3208 142.887 26.7849C143.636 26.4507 143.653 26.1365 142.957 25.5552C142.312 25.017 142.052 24.9981 141.511 25.4493ZM42.6853 25.7107C41.613 26.0486 41.9282 26.6764 43.1697 26.6764C43.7185 26.6764 44.2642 26.7877 44.3829 26.9235C44.5029 27.0611 44.8561 27.0505 45.1789 26.8999C45.7023 26.6553 45.6808 26.5868 44.9631 26.2038C43.593 25.4727 43.5024 25.4533 42.6853 25.7107ZM48.3272 25.5826C47.8195 26.0061 48.1471 26.5337 48.9174 26.5337C49.7024 26.5337 50.3251 25.9182 49.899 25.5629C49.6241 25.3332 48.6104 25.346 48.3272 25.5826ZM94.6 25.6608C94.6 25.8086 94.7539 26.0086 94.942 26.1057C95.13 26.2027 95.2839 26.0817 95.2839 25.8371C95.2839 25.5926 95.13 25.3922 94.942 25.3922C94.7539 25.3922 94.6 25.513 94.6 25.6608ZM52.2022 25.963C52.2022 26.1199 52.3653 26.2484 52.5643 26.2484C52.7633 26.2484 52.8313 26.1199 52.7151 25.963C52.5988 25.806 52.4361 25.6776 52.353 25.6776C52.2699 25.6776 52.2022 25.806 52.2022 25.963ZM255.224 26.7461C254.154 27.3 253.911 27.6841 254.15 28.4466C254.565 29.7704 256.855 29.9211 257.823 28.6883C258.279 28.1081 258.264 27.9537 257.675 27.1461C256.933 26.1271 256.543 26.0634 255.224 26.7461ZM56.8181 26.8191C56.5025 27.2454 56.9415 27.6752 57.6931 27.6752C58.1287 27.6752 58.3567 27.4792 58.3567 27.1045C58.3567 26.4992 57.2123 26.2869 56.8181 26.8191ZM85.3683 27.3898C85.3683 27.5468 85.5898 27.6752 85.861 27.6752C86.1321 27.6752 86.4487 27.5468 86.565 27.3898C86.6812 27.2329 86.4593 27.1045 86.0723 27.1045C85.6852 27.1045 85.3683 27.2329 85.3683 27.3898ZM257.154 29.0775C256.872 29.3135 255.824 28.6541 255.709 28.1681C255.525 27.3856 256.813 27.4375 257.085 28.2237C257.22 28.6127 257.251 28.9968 257.154 29.0775ZM42.1064 27.9731C41.985 28.1369 42.0691 28.4551 42.2931 28.6806C42.8186 29.2088 44.0622 28.7211 43.776 28.099C43.5527 27.6133 42.4353 27.5291 42.1064 27.9731ZM46.0477 28.246C46.0477 28.4029 46.1923 28.5313 46.3694 28.5313C46.5465 28.5313 46.7862 28.4029 46.9025 28.246C47.0187 28.089 46.8737 27.9606 46.5807 27.9606C46.2877 27.9606 46.0477 28.089 46.0477 28.246ZM37.073 28.4295C36.6251 29.0733 36.4634 31.346 36.8514 31.546C37.3787 31.818 38.2636 30.8294 38.002 30.2604C37.894 30.0253 37.9138 29.9234 38.0461 30.0338C38.3593 30.295 39.1844 29.3849 39.1984 28.7631C39.2056 28.4549 38.9631 28.2971 38.5255 28.3245C38.1494 28.3481 37.8393 28.5005 37.8365 28.6635C37.8334 28.8261 37.6991 28.785 37.5373 28.5721C37.3756 28.3592 37.1667 28.295 37.073 28.4295ZM49.8878 28.5796C49.4385 28.9545 49.7199 29.6728 50.3165 29.6728C50.5552 29.6728 50.9333 29.489 51.1566 29.2647C51.4801 28.9394 51.4298 28.7973 50.9091 28.5647C50.4574 28.363 50.1418 28.3675 49.8878 28.5796ZM76.6613 28.5154C76.5403 28.6786 76.5765 29.0139 76.742 29.2605C77.0012 29.6472 77.0986 29.6526 77.4484 29.3007C77.7657 28.9817 77.7479 28.8187 77.3677 28.5553C77.0384 28.3273 76.81 28.3142 76.6613 28.5154ZM135.692 28.954C135.162 29.4203 134.935 29.916 135.008 30.4473C135.106 31.1585 135.267 31.2515 136.542 31.3289C137.775 31.4039 137.998 31.3277 138.208 30.7581C138.341 30.3968 138.739 29.8712 139.092 29.5904C139.445 29.3096 139.733 28.9523 139.733 28.7968C139.733 28.3076 138.724 28.1649 138.135 28.5707C137.694 28.8743 137.539 28.8815 137.427 28.6027C137.206 28.0551 136.566 28.1846 135.692 28.954ZM174.125 28.7899C173.266 29.5821 173.535 31.05 174.668 31.7526C175.573 32.3145 175.592 32.3145 176.719 31.7672C177.97 31.1599 178.385 29.9074 177.695 28.8299C177.19 28.0434 174.961 28.0185 174.125 28.7899ZM39.6223 29.295C39.2832 29.4086 39.2733 29.5359 39.5789 29.8432C40.1448 30.4125 40.577 30.3386 40.577 29.6728C40.577 29.0938 40.4149 29.0296 39.6223 29.295ZM130.641 30.1046C130.377 30.9818 130.992 31.6705 132.04 31.6705C133.289 31.6705 133.77 30.9576 133.098 30.1023C132.333 29.1272 130.934 29.1283 130.641 30.1046ZM68.2724 30.1009C68.2724 30.3363 68.5031 30.529 68.7852 30.529C69.0673 30.529 69.2981 30.3363 69.2981 30.1009C69.2981 29.8655 69.0673 29.6728 68.7852 29.6728C68.5031 29.6728 68.2724 29.8655 68.2724 30.1009ZM143.102 30.2801C141.682 30.7145 141.52 32.5505 142.815 33.5291C143.385 33.9594 143.514 33.9594 144.507 33.5311C145.098 33.2763 145.667 32.8813 145.771 32.6536C146.036 32.0785 145.649 30.9416 145.008 30.4062C144.403 29.9008 144.353 29.8977 143.102 30.2801ZM41.6684 30.5503C41.7357 30.719 41.9371 30.8572 42.1156 30.8572C42.2941 30.8572 42.4955 30.719 42.5628 30.5503C42.6302 30.3817 42.4292 30.2436 42.1156 30.2436C41.8021 30.2436 41.601 30.3817 41.6684 30.5503ZM43.4337 30.6765C43.3267 30.9094 43.3267 31.2901 43.4337 31.5229C43.6932 32.0871 44.68 31.7518 44.68 31.0997C44.68 30.4476 43.6932 30.1123 43.4337 30.6765ZM59.5839 31.312C59.083 31.7301 59.4751 31.9847 60.4937 31.9025C61.1051 31.8534 61.6049 31.699 61.6049 31.5594C61.6049 31.2689 59.8878 31.0586 59.5839 31.312ZM32.0687 31.8497C32.0468 32.1836 31.7982 32.6165 31.5162 32.812C31.2341 33.0074 31.0033 33.3442 31.0033 33.5602C31.0033 34.0507 31.8259 34.0716 32.4465 33.5967C32.703 33.4007 33.2138 33.0979 33.582 32.9241C34.5356 32.4741 34.6519 31.6705 33.7636 31.6705C33.3738 31.6705 33.0548 31.7989 33.0548 31.9558C33.0548 32.4398 32.4304 32.2706 32.2646 31.7418C32.1405 31.3451 32.1002 31.3674 32.0687 31.8497ZM128.303 31.8334C127.658 32.3716 127.636 32.5891 128.176 33.0403C128.715 33.49 129.819 33.4806 129.813 33.026C129.804 32.3505 129.395 31.3851 129.118 31.3851C128.966 31.3851 128.599 31.5869 128.303 31.8334ZM221.732 31.8234C220.702 32.29 220.298 33.0383 220.641 33.8419C221.328 35.4485 223.173 35.8717 224.469 34.72C225.438 33.8587 225.41 33.0725 224.374 32.1402C223.423 31.2835 223.028 31.2361 221.732 31.8234ZM35.3344 32.4315C34.9408 32.7597 35.0851 33.0973 35.6192 33.0973C35.9013 33.0973 36.1321 32.9047 36.1321 32.6693C36.1321 32.2235 35.7276 32.1031 35.3344 32.4315ZM52.4357 32.4267C52.0716 32.7306 52.1615 33.6681 52.5547 33.6681C53.0604 33.6681 53.3787 32.8237 52.9941 32.5026C52.8156 32.3536 52.5643 32.3194 52.4357 32.4267ZM37.2156 33.1433C37.2778 33.5103 37.5596 33.8108 37.8416 33.8108C38.5833 33.8108 38.481 32.6975 37.7285 32.5765C37.2429 32.4983 37.1277 32.6256 37.2156 33.1433ZM80.7671 33.6484C80.6587 33.7945 80.7267 33.9945 80.9178 34.0933C81.109 34.1917 81.2652 34.0722 81.2652 33.8276C81.2652 33.3262 81.0601 33.2526 80.7671 33.6484ZM125.943 34.1438C125.568 34.4566 125.682 34.7379 126.258 34.9226C127.054 35.1774 127.534 34.8361 127.057 34.3561C126.618 33.9144 126.292 33.8521 125.943 34.1438ZM29.1429 34.4971C29.0174 34.6666 29.054 35.0128 29.2243 35.2668C29.504 35.6837 29.5563 35.6794 29.7669 35.2211C30.0339 34.6401 29.4978 34.0177 29.1429 34.4971ZM44.68 34.6669C44.68 34.9888 44.92 35.1061 45.4493 35.0436C45.8726 34.9933 46.2186 34.8238 46.2186 34.6669C46.2186 34.5099 45.8726 34.3404 45.4493 34.2902C44.92 34.2277 44.68 34.345 44.68 34.6669ZM27.7527 34.9343C27.66 35.1794 27.5116 35.5741 27.4227 35.811C27.3338 36.0478 27.1417 36.2085 26.9953 36.1677C26.717 36.0903 26.5583 36.3232 26.5583 36.8095C26.5583 36.981 26.8322 36.9547 27.236 36.7441C28.0385 36.3258 28.7258 34.9032 28.245 34.6552C28.0669 34.5633 27.8453 34.6889 27.7527 34.9343ZM71.9227 35.2094C71.8119 35.4502 71.858 35.7179 72.0249 35.8038C72.4718 36.0344 72.851 35.3777 72.4595 35.051C72.2406 34.8683 72.0543 34.9232 71.9227 35.2094ZM30.8757 35.5316C30.6241 36.0786 32.0687 36.6808 32.9474 36.3954C33.5198 36.2096 33.5051 36.1514 32.7604 35.6446C31.7873 34.9819 31.1462 34.9434 30.8757 35.5316ZM152.608 35.6169C151.847 36.3186 151.895 37.2547 152.726 37.9487C153.6 38.6778 154.453 38.6718 155.586 37.9279C156.673 37.2147 156.708 36.8329 155.778 35.8469C154.936 34.9523 153.446 34.8441 152.608 35.6169ZM117.765 35.8623C117.112 36.005 116.974 36.9727 117.509 37.6633C117.691 37.8987 117.842 37.9792 117.845 37.8425C117.848 37.7056 118.063 37.7409 118.324 37.9213C118.702 38.1836 118.842 38.0996 119.022 37.5041C119.255 36.7267 119 35.6417 118.597 35.6988C118.468 35.7171 118.094 35.7907 117.765 35.8623ZM119.902 36.6434C119.902 37.4704 120.05 37.6836 120.722 37.8243C121.173 37.9187 121.904 37.9532 122.346 37.901C123.015 37.822 123.15 37.6385 123.15 36.8072C123.15 35.8181 123.134 35.8075 121.526 35.7213L119.902 35.6343V36.6434ZM38.3135 36.3654C38.2089 36.5934 38.2225 36.9145 38.3443 37.0789C38.7426 37.6168 39.2093 37.3931 39.2093 36.6645C39.2093 35.8908 38.6219 35.6948 38.3135 36.3654ZM63.1962 36.3614C63.2615 36.6231 63.4684 36.8306 63.6565 36.8223C64.1639 36.7998 64.0709 36.1614 63.5381 36.0133C63.2506 35.9334 63.1227 36.0638 63.1962 36.3614ZM24.8488 37.5206C24.8488 37.7561 25.0026 37.9487 25.1907 37.9487C25.3787 37.9487 25.5326 37.7561 25.5326 37.5206C25.5326 37.2852 25.3787 37.0926 25.1907 37.0926C25.0026 37.0926 24.8488 37.2852 24.8488 37.5206ZM54.8141 37.2906C54.4291 37.6119 54.5799 37.9487 55.1085 37.9487C55.3906 37.9487 55.6214 37.828 55.6214 37.6801C55.6214 37.3203 55.0873 37.0626 54.8141 37.2906ZM125.905 37.727C125.122 38.6593 125.254 39.5416 126.276 40.2125C127.008 40.6928 127.283 40.7399 127.729 40.4611C129.298 39.4797 129.505 38.6744 128.437 37.7172C127.545 36.9179 126.581 36.9216 125.905 37.727ZM192.606 37.6841C191.492 38.415 191.423 39.5699 192.428 40.6366C193.036 41.2821 193.321 41.3737 194.223 41.2131C195.781 40.9351 196.15 40.5793 196.15 39.3519C196.15 38.5922 195.92 38.0777 195.401 37.6744C194.453 36.937 193.74 36.9393 192.606 37.6841ZM115.115 37.7712C115.115 37.9872 115.358 38.3322 115.654 38.5374C116.099 38.8456 116.243 38.8436 116.477 38.5269C116.634 38.316 116.682 37.9709 116.585 37.7606C116.354 37.2566 115.115 37.2655 115.115 37.7712ZM22.9682 37.9487C22.852 38.1056 22.9877 38.2341 23.2698 38.2341C23.5519 38.2341 23.8777 38.1056 23.994 37.9487C24.1102 37.7917 23.9745 37.6633 23.6924 37.6633C23.4103 37.6633 23.0845 37.7917 22.9682 37.9487ZM26.2164 38.5403C26.2164 39.2717 27.3482 39.1886 27.5198 38.4449C27.5988 38.1025 27.4145 37.9487 26.9252 37.9487C26.4359 37.9487 26.2164 38.1319 26.2164 38.5403ZM32.1036 38.8488C32.1877 39.0602 32.531 39.2771 32.866 39.3316C33.2558 39.3944 33.4203 39.2916 33.3222 39.0462C33.2381 38.8348 32.8948 38.6179 32.5597 38.5634C32.1699 38.5006 32.0054 38.6033 32.1036 38.8488ZM47.1121 38.9087C46.8064 39.216 46.7999 39.377 47.0868 39.5251C47.6167 39.7985 48.1347 39.3145 47.7983 38.8602C47.5805 38.5659 47.4434 38.5757 47.1121 38.9087ZM22.1185 39.0188C22.1216 39.1364 22.2731 39.4255 22.4553 39.6609C22.7234 40.0071 22.7877 39.966 22.7921 39.4469C22.7949 39.0939 22.6434 38.8048 22.4553 38.8048C22.2673 38.8048 22.1158 38.9013 22.1185 39.0188ZM113.976 39.5659C113.582 39.8941 113.726 40.2317 114.26 40.2317C114.542 40.2317 114.773 40.039 114.773 39.8036C114.773 39.3579 114.369 39.2374 113.976 39.5659ZM39.6118 40.7074C39.7779 41.4234 40.577 41.5216 40.577 40.8261C40.577 40.4757 40.3561 40.2317 40.0391 40.2317C39.7205 40.2317 39.5461 40.4257 39.6118 40.7074ZM26.3491 41.1395C26.2339 41.2953 26.3002 41.5572 26.4968 41.7213C26.891 42.0504 27.926 41.8286 27.926 41.4154C27.926 41.037 26.5973 40.8044 26.3491 41.1395ZM21.4296 41.3732C21.4296 41.5301 21.6604 41.6585 21.9425 41.6585C22.2245 41.6585 22.4553 41.5301 22.4553 41.3732C22.4553 41.2162 22.2245 41.0878 21.9425 41.0878C21.6604 41.0878 21.4296 41.2162 21.4296 41.3732ZM17.8965 41.8489C17.7711 41.9533 17.6685 42.1716 17.6685 42.334C17.6685 42.5127 17.8278 42.4958 18.073 42.2912C18.2956 42.1054 18.3981 41.8871 18.301 41.8061C18.2039 41.725 18.0217 41.7442 17.8965 41.8489ZM56.9891 42.2125C56.9891 42.3603 57.1429 42.5603 57.331 42.6574C57.519 42.7544 57.6729 42.6334 57.6729 42.3888C57.6729 42.1442 57.519 41.9439 57.331 41.9439C57.1429 41.9439 56.9891 42.0646 56.9891 42.2125ZM103.974 42.9142C102.593 43.915 102.513 44.5305 103.841 43.9373C104.278 43.7421 105.115 43.6761 105.837 43.78C108.646 44.1835 108.79 44.1567 108.79 43.2281C108.79 42.4573 108.682 42.372 107.708 42.372C107.113 42.372 106.51 42.2755 106.369 42.1579C105.89 41.7599 105.318 41.9405 103.974 42.9142ZM133.647 42.2863C133.135 42.7138 133.115 44.0751 133.61 44.8467C133.907 45.3102 134.198 45.3935 135.031 45.2545C136.462 45.0154 136.998 44.583 136.998 43.6656C136.998 42.2861 134.754 41.3626 133.647 42.2863ZM32.9266 42.457C32.6561 42.822 33.2832 43.463 33.7003 43.2478C34.2494 42.9647 34.1681 42.2293 33.5878 42.2293C33.3167 42.2293 33.0192 42.3317 32.9266 42.457ZM167.258 43.4264C166.321 43.8693 166.072 44.2338 166.066 45.1681C166.06 46.1726 167.508 47.37 168.475 47.1589C169.492 46.9368 170.471 45.7542 170.255 45.0083C170.038 44.2606 168.84 43.0817 168.309 43.094C168.107 43.0988 167.634 43.2483 167.258 43.4264ZM48.783 43.6562C48.783 43.8131 49.023 43.9415 49.3161 43.9415C49.6091 43.9415 49.7541 43.8131 49.6378 43.6562C49.5216 43.4992 49.2819 43.3708 49.1048 43.3708C48.9276 43.3708 48.783 43.4992 48.783 43.6562ZM21.3249 44.1239C21.0518 44.3519 21.3605 44.7977 21.7917 44.7977C21.9688 44.7977 22.1134 44.605 22.1134 44.3696C22.1134 43.9284 21.7099 43.8026 21.3249 44.1239ZM110.397 44.284C109.283 45.2134 110.765 47.3637 112.106 46.7647C112.825 46.4434 113.403 45.4175 113.162 44.889C113.078 44.7038 112.537 44.4147 111.96 44.2469C110.694 43.8787 110.888 43.8739 110.397 44.284ZM16.9846 44.5123C16.9846 44.6692 17.1385 44.7977 17.3266 44.7977C17.5146 44.7977 17.6685 44.6692 17.6685 44.5123C17.6685 44.3553 17.5146 44.2269 17.3266 44.2269C17.1385 44.2269 16.9846 44.3553 16.9846 44.5123ZM26.9003 44.6787C26.9003 44.9272 27.0828 45.0799 27.3065 45.0177C27.9404 44.8413 28.0453 44.2269 27.4415 44.2269C27.144 44.2269 26.9003 44.4304 26.9003 44.6787ZM41.0899 44.5123C40.9534 44.6966 40.9955 44.9757 41.1835 45.1327C41.4116 45.323 41.6082 45.3065 41.7737 45.083C41.9101 44.8987 41.8681 44.6196 41.68 44.4626C41.452 44.2723 41.2553 44.2888 41.0899 44.5123ZM34.0805 46.6694C34.0805 46.914 34.2344 47.035 34.4225 46.938C34.6105 46.8409 34.7644 46.6409 34.7644 46.4931C34.7644 46.3452 34.6105 46.2245 34.4225 46.2245C34.2344 46.2245 34.0805 46.4248 34.0805 46.6694ZM16.3008 47.0806C16.3008 47.2376 16.4454 47.366 16.6225 47.366C16.7997 47.366 17.0393 47.2376 17.1556 47.0806C17.2719 46.9237 17.1269 46.7953 16.8339 46.7953C16.5408 46.7953 16.3008 46.9237 16.3008 47.0806ZM21.2918 47.3215C21.1735 47.4813 21.2432 47.6979 21.4467 47.8029C21.9725 48.074 22.3117 47.7028 21.8727 47.3363C21.6272 47.1314 21.4361 47.1266 21.2918 47.3215ZM92.0784 47.3084C91.8394 47.6314 92.1758 47.9633 93.8389 49.0437C95.0332 49.8197 95.3923 49.9292 95.805 49.6433C96.7271 49.0046 96.3797 48.3015 94.8339 47.6768C93.2843 47.0507 92.3605 46.9271 92.0784 47.3084ZM50.6919 47.6131C50.5446 47.8121 50.5165 48.0518 50.6294 48.146C50.9354 48.4014 51.2691 48.0258 51.1036 47.612C50.988 47.3221 50.9074 47.3221 50.6919 47.6131ZM27.2422 48.5075C27.2422 48.6645 27.396 48.7929 27.5841 48.7929C27.7722 48.7929 27.926 48.6645 27.926 48.5075C27.926 48.3506 27.7722 48.2221 27.5841 48.2221C27.396 48.2221 27.2422 48.3506 27.2422 48.5075ZM42.2866 48.8097C42.2866 48.9758 42.4404 49.0326 42.6285 48.9356C42.8165 48.8385 42.9704 48.7027 42.9704 48.6334C42.9704 48.564 42.8165 48.5075 42.6285 48.5075C42.4404 48.5075 42.2866 48.6436 42.2866 48.8097ZM116.336 49.2412C115.522 49.9207 115.671 50.9928 116.654 51.5302C117.446 51.9631 117.571 51.9631 118.363 51.5302C119.57 50.8704 119.557 49.4569 118.341 49.0711C117.169 48.6993 116.965 48.7164 116.336 49.2412ZM16.2369 49.8439C16.4834 49.9264 16.7785 49.9161 16.892 49.8214C17.0055 49.7266 16.8038 49.6593 16.4434 49.6715C16.0451 49.6853 15.964 49.7529 16.2369 49.8439ZM34.0805 50.2198C34.0805 50.3767 34.3975 50.5051 34.7846 50.5051C35.1716 50.5051 35.3935 50.3767 35.2773 50.2198C35.161 50.0628 34.8444 49.9344 34.5732 49.9344C34.3021 49.9344 34.0805 50.0628 34.0805 50.2198ZM144.335 50.6261C143.843 51.2519 143.842 51.3989 144.32 52.1697C144.978 53.2316 145.468 53.3854 146.633 52.8949C147.83 52.3906 148.143 51.5205 147.447 50.6339C146.699 49.6818 145.079 49.6778 144.335 50.6261ZM21.0877 50.5051C21.0877 50.6621 21.3185 50.7905 21.6005 50.7905C21.8826 50.7905 22.1134 50.6621 22.1134 50.5051C22.1134 50.3482 21.8826 50.2198 21.6005 50.2198C21.3185 50.2198 21.0877 50.3482 21.0877 50.5051ZM96.8673 51.0345C96.2125 51.6383 96.4279 52.4051 97.319 52.6412C98.6658 52.9979 99.6772 52.0618 99.0316 51.0553C98.5851 50.3587 97.6103 50.3496 96.8673 51.0345ZM81.6071 51.6118C81.6071 52.4343 82.3269 53.2336 82.7499 52.8809C83.1188 52.5727 83.0053 51.5008 82.5645 51.1329C81.9056 50.583 81.6071 50.7323 81.6071 51.6118ZM215.622 51.3758C214.841 52.0276 214.962 52.7936 215.981 53.644C216.574 54.1391 216.636 54.138 217.668 53.614C219.122 52.876 219.3 52.3267 218.358 51.4894C217.399 50.637 216.549 50.6016 215.622 51.3758ZM27.2422 51.7893C27.2422 52.0248 27.396 52.2174 27.5841 52.2174C27.7722 52.2174 27.926 52.0248 27.926 51.7893C27.926 51.5539 27.7722 51.3613 27.5841 51.3613C27.396 51.3613 27.2422 51.5539 27.2422 51.7893ZM34.3086 52.9785C33.9151 53.3066 34.0593 53.6442 34.5934 53.6442C34.8755 53.6442 35.1063 53.4516 35.1063 53.2162C35.1063 52.7704 34.7018 52.65 34.3086 52.9785ZM20.4038 53.3589C21.0668 53.7164 21.4296 53.7164 21.4296 53.3589C21.4296 53.2019 21.0836 53.0755 20.6603 53.0778C20.0383 53.0815 19.9891 53.1351 20.4038 53.3589ZM82.519 53.5492C82.1005 53.8982 82.2845 54.8014 82.8083 54.9692C83.4792 55.1841 84.3425 54.5794 84.3425 53.8948C84.3425 53.5235 84.0973 53.3589 83.5448 53.3589C83.1058 53.3589 82.6442 53.4445 82.519 53.5492ZM71.1787 55.0711C70.9304 56.5782 71.0477 56.9729 71.6522 56.6609C72.0092 56.4769 71.9839 54.0786 71.6218 53.7761C71.5107 53.6836 71.3113 54.2664 71.1787 55.0711ZM51.6893 54.215C51.5731 54.3719 51.6411 54.5004 51.8401 54.5004C52.0391 54.5004 52.2022 54.3719 52.2022 54.215C52.2022 54.058 52.1345 53.9296 52.0514 53.9296C51.9683 53.9296 51.8056 54.058 51.6893 54.215ZM26.49 54.8428C26.809 55.1091 26.9916 55.1091 27.3106 54.8428C27.6296 54.5765 27.5386 54.5004 26.9003 54.5004C26.2619 54.5004 26.171 54.5765 26.49 54.8428ZM42.2866 55.2138C42.2866 55.4492 42.4404 55.6419 42.6285 55.6419C42.8165 55.6419 42.9704 55.4492 42.9704 55.2138C42.9704 54.9784 42.8165 54.7857 42.6285 54.7857C42.4404 54.7857 42.2866 54.9784 42.2866 55.2138ZM101.353 55.6647C100.062 56.2922 101 58.17 102.417 57.7947C103.573 57.4882 103.983 56.8598 103.547 56.0614C103.143 55.3202 102.355 55.1778 101.353 55.6647ZM185.615 55.9383C184.726 56.6295 184.664 57.4012 185.419 58.3629C186.059 59.1791 186.567 59.2327 187.961 58.6309C189.304 58.0513 189.354 56.7922 188.068 55.9481C186.943 55.2092 186.554 55.2075 185.615 55.9383ZM19.3781 55.9272C19.3781 56.0842 19.5319 56.2126 19.72 56.2126C19.908 56.2126 20.0619 56.0842 20.0619 55.9272C20.0619 55.7703 19.908 55.6419 19.72 55.6419C19.5319 55.6419 19.3781 55.7703 19.3781 55.9272ZM33.4712 55.9712C33.6487 56.4158 34.4136 56.4934 34.4406 56.0699C34.4505 55.913 34.2019 55.7403 33.8884 55.6858C33.5318 55.6245 33.3755 55.7312 33.4712 55.9712ZM51.1764 56.498C51.1764 56.6549 51.4165 56.7834 51.7095 56.7834C52.0025 56.7834 52.1475 56.6549 52.0312 56.498C51.915 56.341 51.6753 56.2126 51.4982 56.2126C51.3211 56.2126 51.1764 56.341 51.1764 56.498ZM60.4178 56.4872C59.9867 56.7146 59.999 56.7796 60.5033 56.9412C61.2046 57.1657 62.1178 56.9203 62.1178 56.5068C62.1178 56.1418 61.0941 56.1299 60.4178 56.4872ZM125.107 56.6569C124.127 57.2294 124.148 57.8592 125.181 58.9237C125.983 59.7501 126.045 59.7647 126.975 59.3429C128.132 58.8175 128.458 57.4015 127.589 56.6763C126.89 56.0933 126.082 56.087 125.107 56.6569ZM84.0006 56.7736C83.2586 57.1772 83.9896 58.0427 85.1713 58.16C86.0117 58.2433 86.0918 58.1737 85.9919 57.4466C85.8726 56.5782 84.9395 56.2631 84.0006 56.7736ZM25.1907 57.0687C25.1907 57.2257 25.5076 57.3541 25.8947 57.3541C26.2817 57.3541 26.5036 57.2257 26.3874 57.0687C26.2711 56.9118 25.9545 56.7834 25.6834 56.7834C25.4122 56.7834 25.1907 56.9118 25.1907 57.0687ZM41.6684 57.6609C41.7357 57.8295 41.9371 57.9677 42.1156 57.9677C42.2941 57.9677 42.4955 57.8295 42.5628 57.6609C42.6302 57.4922 42.4292 57.3541 42.1156 57.3541C41.8021 57.3541 41.601 57.4922 41.6684 57.6609ZM17.6685 58.3529C17.6685 58.5883 17.8223 58.781 18.0104 58.781C18.1984 58.781 18.3523 58.5883 18.3523 58.3529C18.3523 58.1175 18.1984 57.9249 18.0104 57.9249C17.8223 57.9249 17.6685 58.1175 17.6685 58.3529ZM71.7168 58.1917C70.713 58.406 70.4309 58.9302 71.1889 59.1728C72.1429 59.4784 73.6463 58.5062 72.8028 58.1295C72.6615 58.0664 72.173 58.0944 71.7168 58.1917ZM32.5419 58.4956C32.4055 58.68 32.4475 58.959 32.6356 59.116C32.8637 59.3063 33.0603 59.2898 33.2257 59.0663C33.3622 58.882 33.3201 58.6029 33.1321 58.446C32.904 58.2556 32.7074 58.2722 32.5419 58.4956ZM50.3552 58.7056C49.9883 59.0118 50.1397 59.3517 50.6434 59.3517C50.9145 59.3517 51.2212 59.2367 51.3252 59.0963C51.5426 58.8024 50.6632 58.4482 50.3552 58.7056ZM59.8441 58.9325C59.6017 59.4596 60.2239 59.9113 61.2015 59.9182C61.6521 59.9213 61.7933 59.7455 61.7144 59.2804C61.5786 58.4842 60.1706 58.2222 59.8441 58.9325ZM24.0046 59.15C23.8582 59.4313 23.8346 59.7418 23.9516 59.8397C24.299 60.1294 24.579 59.7224 24.419 59.16C24.2774 58.6614 24.2589 58.6611 24.0046 59.15ZM10.4882 59.6371C10.4882 59.7941 10.6421 59.9225 10.8301 59.9225C11.0182 59.9225 11.172 59.7941 11.172 59.6371C11.172 59.4801 11.0182 59.3517 10.8301 59.3517C10.6421 59.3517 10.4882 59.4801 10.4882 59.6371ZM40.4047 59.9245C40.2874 60.0826 40.4388 60.2912 40.7411 60.3879C41.3955 60.5974 41.7604 60.3665 41.4458 59.9416C41.162 59.5581 40.6816 59.5503 40.4047 59.9245ZM15.5031 60.1128C15.1096 60.441 15.2539 60.7786 15.7879 60.7786C16.07 60.7786 16.3008 60.586 16.3008 60.3505C16.3008 59.9048 15.8963 59.7843 15.5031 60.1128ZM3.64984 61.064C3.64984 61.2209 3.81293 61.3493 4.01193 61.3493C4.21092 61.3493 4.27896 61.2209 4.16271 61.064C4.04646 60.907 3.88371 60.7786 3.80062 60.7786C3.71754 60.7786 3.64984 60.907 3.64984 61.064ZM31.1212 61.2189C31.0098 61.4612 31.0046 61.7309 31.1093 61.8182C31.4088 62.0682 32.029 61.6444 32.029 61.1898C32.029 60.6422 31.3767 60.6633 31.1212 61.2189ZM49.7021 61.2483C49.2179 61.6521 49.4918 62.2055 50.1757 62.2055C50.6537 62.2055 50.8485 62.0505 50.774 61.7297C50.6519 61.2044 50.0683 60.9424 49.7021 61.2483ZM158.752 61.4969C157.884 62.2223 158.035 63.5829 159.026 63.9599C160.932 64.6848 162.722 63.4494 161.885 61.986C161.346 61.0414 159.621 60.772 158.752 61.4969ZM7.75285 61.6347C7.75285 61.7917 7.90672 61.9201 8.09477 61.9201C8.28282 61.9201 8.43669 61.7917 8.43669 61.6347C8.43669 61.4778 8.28282 61.3493 8.09477 61.3493C7.90672 61.3493 7.75285 61.4778 7.75285 61.6347ZM59.7244 62.1721C59.7244 62.484 60.0366 62.7776 60.4677 62.8718C61.4111 63.0778 61.7759 62.8872 61.7759 62.1886C61.7759 61.7634 61.5376 61.6347 60.7502 61.6347C59.9737 61.6347 59.7244 61.7651 59.7244 62.1721ZM72.4383 62.4195C72.5159 62.984 72.7385 63.2043 73.2302 63.2043C73.7218 63.2043 73.9444 62.984 74.022 62.4195C74.1161 61.7392 74.0104 61.6347 73.2302 61.6347C72.4499 61.6347 72.3442 61.7392 72.4383 62.4195ZM87.6564 61.8348C87.2167 61.9298 87.0686 62.188 87.1435 62.7291C87.2303 63.3561 87.4437 63.5053 88.36 63.579C89.3304 63.6572 89.4713 63.5829 89.4713 62.9939C89.4713 62.3633 88.8856 61.5933 88.4626 61.6678C88.3593 61.6861 87.9962 61.7611 87.6564 61.8348ZM21.7811 62.1946C21.3479 62.4232 21.3574 62.4857 21.8501 62.6435C22.4776 62.8444 23.1392 62.611 23.1392 62.1886C23.1392 61.847 22.4338 61.8499 21.7811 62.1946ZM0.572573 62.4908C0.264505 62.6569 0.222107 62.7691 0.466921 62.7719C0.690877 62.7742 0.969198 62.6478 1.08545 62.4908C1.3477 62.1364 1.2294 62.1364 0.572573 62.4908ZM39.5512 63.2043C39.5512 63.6546 39.7444 63.9177 40.0747 63.9177C40.7893 63.9177 41.1309 63.0633 40.5414 62.7516C39.7721 62.3453 39.5512 62.446 39.5512 63.2043ZM13.1552 63.1186C13.4742 63.3849 13.6567 63.3849 13.9758 63.1186C14.2948 62.8524 14.2038 62.7762 13.5655 62.7762C12.9271 62.7762 12.8361 62.8524 13.1552 63.1186ZM107.334 63.1064C106.794 63.5573 106.786 64.5572 107.319 65.0021C107.545 65.1905 108.157 65.3446 108.681 65.3446C110.484 65.3446 110.392 63.0194 108.582 62.8353C108.129 62.7893 107.568 62.9112 107.334 63.1064ZM29.69 64.2912C29.2253 64.7584 29.5036 65.0592 30.4015 65.0592C30.8262 65.0592 31.0149 64.8934 30.9428 64.5835C30.7957 63.9502 30.1734 63.805 29.69 64.2912ZM49.0111 64.6788C48.6418 64.987 48.7475 65.2721 49.2959 65.4479C49.9992 65.6731 50.8345 65.368 50.8345 64.886C50.8345 64.4824 49.4368 64.3235 49.0111 64.6788ZM20.1474 65.7013C20.2257 65.8976 20.4951 66.058 20.7457 66.058C20.9964 66.058 21.2658 65.8976 21.3441 65.7013C21.4289 65.489 21.1865 65.3446 20.7457 65.3446C20.305 65.3446 20.0626 65.489 20.1474 65.7013ZM61.434 66.4004C61.434 66.7777 61.3427 66.8094 61.0237 66.5431C60.4209 66.04 60.0663 66.1245 60.0663 66.7714C60.0663 67.0854 60.2588 67.3439 60.4937 67.3462C60.729 67.3482 61.2671 67.4275 61.6904 67.522C62.3678 67.6735 62.4597 67.5879 62.4597 66.8048C62.4597 66.2044 62.2929 65.9153 61.9469 65.9153C61.6648 65.9153 61.434 66.1336 61.434 66.4004ZM10.6592 66.4861C10.7754 66.643 11.169 66.7714 11.5341 66.7714C11.8993 66.7714 12.1978 66.643 12.1978 66.4861C12.1978 66.3291 11.8039 66.2007 11.3228 66.2007C10.8267 66.2007 10.5391 66.3243 10.6592 66.4861ZM39.0719 66.6961C38.9594 66.7897 38.8674 67.1113 38.8674 67.4107C38.8674 68.0813 40.0046 67.9871 40.1626 67.3034C40.2699 66.8382 39.449 66.381 39.0719 66.6961ZM136.653 66.8673C135.444 67.3793 135.087 68.0308 135.552 68.8818C136.337 70.3212 139.049 69.9637 139.049 68.4206C139.049 67.0608 137.922 66.3303 136.653 66.8673ZM74.6368 67.4932C73.9561 68.0613 74.2963 68.7691 75.2499 68.7691C76.4401 68.7691 76.9215 68.194 76.2496 67.5745C75.5658 66.9435 75.3107 66.9307 74.6368 67.4932ZM28.774 68.7782C28.6413 68.9574 28.6936 69.2385 28.8902 69.4026C29.3498 69.7861 30.421 69.4517 30.234 68.9828C30.0439 68.506 29.0762 68.3701 28.774 68.7782ZM49.6741 69.7918C49.4481 70.2832 49.9869 71.0521 50.5572 71.0521C51.0075 71.0521 50.7504 69.5504 50.2782 69.4212C50.0662 69.3632 49.7944 69.5302 49.6741 69.7918ZM91.7642 69.9157C91.5963 70.4505 92.2736 71.3374 92.8494 71.3374C93.5989 71.3374 94.3265 70.5398 94.106 69.9602C93.7856 69.1172 92.0247 69.0835 91.7642 69.9157ZM19.2611 69.8178C18.793 70.2085 19.0628 70.7667 19.72 70.7667C20.0961 70.7667 20.4038 70.6539 20.4038 70.5161C20.4038 70.142 19.52 69.6018 19.2611 69.8178ZM9.46244 71.0521C9.46244 71.209 9.69324 71.3374 9.97532 71.3374C10.2574 71.3374 10.4882 71.209 10.4882 71.0521C10.4882 70.8951 10.2574 70.7667 9.97532 70.7667C9.69324 70.7667 9.46244 70.8951 9.46244 71.0521ZM0.0596957 71.9082C-0.0565565 72.0651 0.00225471 72.1936 0.19031 72.1936C0.378365 72.1936 0.62728 72.0651 0.743532 71.9082C0.859784 71.7512 0.800973 71.6228 0.612918 71.6228C0.424863 71.6228 0.175948 71.7512 0.0596957 71.9082ZM209.228 72.1068C208.805 72.1764 208.459 72.4139 208.459 72.635C208.459 72.9244 208.843 73.0186 209.833 72.9718C210.839 72.9244 211.182 72.7931 211.111 72.4821C211.007 72.022 210.436 71.9082 209.228 72.1068ZM62.8871 72.3825C62.3274 72.5711 62.3418 73.1832 62.9152 73.5807C63.252 73.8139 63.5382 73.7939 64.0134 73.5037C64.5595 73.1707 64.5875 73.0423 64.2001 72.6524C63.7235 72.173 63.5901 72.1456 62.8871 72.3825ZM39.1071 72.6593C38.5699 73.1076 38.9115 73.6204 39.7472 73.6204C40.3988 73.6204 40.5975 73.4917 40.5127 73.1241C40.3927 72.6048 39.5188 72.3157 39.1071 72.6593ZM115.299 73.5867C115.008 74.3518 115.792 75.3327 116.694 75.3327C117.641 75.3327 118.274 74.6806 118.133 73.8502C118.043 73.3199 117.778 73.1755 116.768 73.1053C115.764 73.0354 115.472 73.1313 115.299 73.5867ZM28.7247 74.6384C28.4553 75.2245 28.9962 75.6625 29.6028 75.3495C30.1194 75.0829 29.8814 74.1912 29.2937 74.1912C29.0937 74.1912 28.8379 74.3924 28.7247 74.6384ZM78.0639 75.1261C77.6966 75.3501 77.552 75.6757 77.6881 75.9713C77.9363 76.5116 79.0267 76.8897 79.5526 76.6186C80.0959 76.338 79.955 75.1266 79.3566 74.9352C78.6687 74.7148 78.7597 74.7014 78.0639 75.1261ZM176.917 75.8344C176.399 76.102 175.977 76.3877 175.978 76.469C175.979 76.5504 176.345 76.9978 176.791 77.4632C177.531 78.2349 177.683 78.2794 178.509 77.9652C179.705 77.5103 179.937 76.913 179.254 76.0438C178.6 75.2105 178.193 75.1743 176.917 75.8344ZM18.3523 76.4436C18.3523 76.7764 19.3511 77.0926 19.7508 76.8862C20.3536 76.5755 20.052 76.1888 19.2071 76.1888C18.737 76.1888 18.3523 76.3035 18.3523 76.4436ZM50.8345 76.8717C50.8345 77.7304 51.7348 78.0591 52.181 77.3634C52.4056 77.0129 52.3851 76.741 52.1177 76.5178C51.4643 75.9725 50.8345 76.146 50.8345 76.8717ZM8.77861 77.6157C8.77861 77.7726 9.0094 77.901 9.29148 77.901C9.57357 77.901 9.80436 77.7726 9.80436 77.6157C9.80436 77.4587 9.57357 77.3303 9.29148 77.3303C9.0094 77.3303 8.77861 77.4587 8.77861 77.6157ZM98.408 78.9332C97.9279 79.2137 97.678 79.6141 97.7433 79.9977C97.8281 80.4931 98.0804 80.6121 99.045 80.6121C99.9917 80.6121 100.263 80.4896 100.342 80.0256C100.398 79.7029 100.158 79.224 99.8102 78.9612C99.2313 78.524 99.1116 78.5217 98.408 78.9332ZM39.9509 80.23C40.0132 80.597 40.2949 80.8975 40.577 80.8975C41.3186 80.8975 41.2164 79.7842 40.4638 79.6632C39.9783 79.585 39.8631 79.7123 39.9509 80.23ZM65.2453 80.4334C64.8795 80.6301 64.8665 80.813 65.1828 81.3064C65.7148 82.136 66.7337 81.961 66.7337 81.0401C66.7337 80.2942 66.0345 80.0091 65.2453 80.4334ZM149.707 80.4263C149.45 80.5664 149.301 81.0324 149.365 81.4993C149.465 82.2284 149.613 82.3243 150.637 82.3243C152.026 82.3243 152.763 81.6072 152.177 80.8261C151.758 80.2676 150.402 80.0482 149.707 80.4263ZM29.1891 82.364C28.8324 82.6616 29.2841 83.0378 29.9977 83.0378C30.3629 83.0378 30.6614 82.8451 30.6614 82.6097C30.6614 82.1865 29.6117 82.0113 29.1891 82.364ZM19.2546 84.3773C18.8696 84.6986 19.0204 85.0354 19.549 85.0354C19.8311 85.0354 20.0619 84.9146 20.0619 84.7668C20.0619 84.407 19.5278 84.1493 19.2546 84.3773ZM82.1378 84.726C81.828 85.1444 82.5679 86.4622 83.113 86.4622C84.0214 86.4622 84.7227 85.6287 84.3299 85.0157C83.9667 84.4492 82.4873 84.254 82.1378 84.726ZM52.5441 85.1433C52.5441 85.3593 52.7814 85.7006 53.0714 85.9015C53.7213 86.3518 54.4489 85.8718 54.1388 85.1972C53.8855 84.6461 52.5441 84.6008 52.5441 85.1433ZM126.064 85.3142C125.308 85.9452 125.457 86.6124 126.451 87.0567C127.941 87.7219 129.2 86.5964 128.279 85.4232C127.634 84.6019 126.958 84.5685 126.064 85.3142ZM9.12052 85.7656C9.12052 86.0102 9.27678 86.1298 9.46791 86.0313C9.65904 85.9326 9.72709 85.7326 9.6187 85.5864C9.32568 85.1906 9.12052 85.2642 9.12052 85.7656ZM41.2608 89.0138C41.2608 89.7261 41.9323 90.0768 42.3194 89.5666C42.8183 88.9096 42.6658 88.4599 41.9447 88.4599C41.4957 88.4599 41.2608 88.6502 41.2608 89.0138ZM68.2724 90.304C68.2724 91.145 69.2051 91.607 69.6742 90.9985C70.1611 90.3664 69.8708 89.7521 69.0382 89.6527C68.4132 89.5785 68.2724 89.6984 68.2724 90.304ZM104.876 90.5822C103.833 91.6309 105.882 92.8147 107.075 91.853C107.608 91.4235 107.674 91.1989 107.383 90.8102C106.895 90.1601 105.428 90.0266 104.876 90.5822ZM30.4764 91.9035C30.1618 92.3284 30.5266 92.5593 31.1811 92.3498C31.4833 92.253 31.6348 92.0444 31.5175 91.8863C31.2406 91.5122 30.7602 91.5199 30.4764 91.9035ZM20.0619 94.1673C20.0619 94.3243 20.2158 94.4527 20.4038 94.4527C20.5919 94.4527 20.7457 94.3243 20.7457 94.1673C20.7457 94.0104 20.5919 93.882 20.4038 93.882C20.2158 93.882 20.0619 94.0104 20.0619 94.1673ZM54.838 94.9162C54.7047 95.0275 54.5956 95.2341 54.5956 95.3753C54.5956 95.7238 56.3073 95.5254 56.4013 95.1661C56.4895 94.8297 55.1902 94.6222 54.838 94.9162ZM9.46244 95.8796C9.46244 96.0365 9.61631 96.165 9.80436 96.165C9.99242 96.165 10.1463 96.0365 10.1463 95.8796C10.1463 95.7226 9.99242 95.5942 9.80436 95.5942C9.61631 95.5942 9.46244 95.7226 9.46244 95.8796ZM87.2016 96.0223C86.9021 96.6732 87.3209 97.3064 88.0509 97.3064C88.8804 97.3064 89.608 96.5887 89.3492 96.026C89.0924 95.4675 87.4577 95.4647 87.2016 96.0223ZM165.719 96.4535C165.719 96.8199 166.745 97.0319 167.627 96.8473C168.921 96.5762 168.598 96.1992 167.087 96.2166C166.334 96.2252 165.719 96.3319 165.719 96.4535ZM42.7981 99.0207C42.6808 99.1788 42.8323 99.3874 43.1345 99.4841C43.789 99.6936 44.1538 99.4627 43.8392 99.0378C43.5554 98.6543 43.075 98.6466 42.7981 99.0207ZM138.48 99.5195C137.596 99.6428 137.137 100.444 137.756 100.783C138.491 101.184 140.229 100.924 140.349 100.393C140.479 99.8237 139.519 99.3748 138.48 99.5195ZM71.4077 101.065C71.483 101.508 71.7862 101.761 72.3172 101.824C72.9802 101.902 73.0951 101.806 73.0011 101.253C72.9258 100.81 72.6226 100.557 72.0916 100.494C71.4286 100.416 71.3137 100.511 71.4077 101.065ZM31.3452 102.443C31.3452 102.6 31.576 102.729 31.8581 102.729C32.1402 102.729 32.371 102.6 32.371 102.443C32.371 102.286 32.1402 102.158 31.8581 102.158C31.576 102.158 31.3452 102.286 31.3452 102.443ZM112.814 103.796C112.53 104.414 113.872 105.393 114.701 105.173C115.524 104.955 115.96 104.176 115.482 103.777C114.938 103.322 113.025 103.336 112.814 103.796ZM56.8113 105.591C56.6786 105.771 56.7309 106.052 56.9275 106.216C57.387 106.599 58.4583 106.265 58.2712 105.796C58.0811 105.319 57.1135 105.183 56.8113 105.591ZM91.9868 108.012C91.7074 108.619 92.4798 109.292 93.456 109.292C94.427 109.292 94.8527 108.606 94.2544 108.004C93.7059 107.453 92.2415 107.457 91.9868 108.012ZM44.2297 109.478C43.8656 109.782 43.9555 110.719 44.3487 110.719C44.8544 110.719 45.1727 109.875 44.788 109.554C44.6096 109.405 44.3583 109.37 44.2297 109.478ZM74.1985 112.596C74.0846 112.844 74.2118 113.23 74.4812 113.455C74.8967 113.802 75.0676 113.805 75.6092 113.474C76.4052 112.988 76.0893 112.146 75.1107 112.146C74.7226 112.146 74.3123 112.349 74.1985 112.596ZM32.029 113.858C32.029 114.015 32.1829 114.144 32.371 114.144C32.559 114.144 32.7129 114.015 32.7129 113.858C32.7129 113.701 32.559 113.573 32.371 113.573C32.1829 113.573 32.029 113.701 32.029 113.858ZM153.239 116.712C153.123 116.869 153.268 116.997 153.561 116.997C153.854 116.997 154.094 116.869 154.094 116.712C154.094 116.555 153.949 116.427 153.772 116.427C153.595 116.427 153.355 116.555 153.239 116.712ZM151.7 116.997C151.7 117.154 151.845 117.283 152.022 117.283C152.199 117.283 152.439 117.154 152.555 116.997C152.671 116.84 152.526 116.712 152.233 116.712C151.94 116.712 151.7 116.84 151.7 116.997ZM58.0104 117.43C57.5081 117.935 57.8568 118.424 58.7188 118.424C59.1421 118.424 59.3825 118.228 59.3825 117.884C59.3825 117.193 58.527 116.91 58.0104 117.43ZM122.329 119.104C122.025 119.41 122.06 119.539 122.486 119.675C123.274 119.927 124.098 119.885 124.689 119.561C125.145 119.311 125.145 119.249 124.689 118.999C123.95 118.594 122.784 118.646 122.329 119.104ZM44.0645 121.62C43.8389 121.809 43.6542 122.065 43.6542 122.191C43.6542 122.531 44.6044 122.467 44.8694 122.109C45.2216 121.634 44.5426 121.221 44.0645 121.62ZM96.8133 122.147C96.4823 122.593 97.3142 123.275 98.1902 123.275C99.0662 123.275 99.8981 122.593 99.5671 122.147C99.4457 121.983 98.8261 121.849 98.1902 121.849C97.5542 121.849 96.9347 121.983 96.8133 122.147ZM31.1742 125.273C31.058 125.43 31.126 125.558 31.325 125.558C31.524 125.558 31.6871 125.43 31.6871 125.273C31.6871 125.116 31.6194 124.988 31.5363 124.988C31.4532 124.988 31.2905 125.116 31.1742 125.273ZM75.7945 125.816C75.7945 126.475 76.9629 127.11 77.7257 126.866C78.0225 126.771 78.19 126.433 78.1264 126.059C78.0427 125.566 77.7582 125.395 76.9058 125.326C75.9823 125.252 75.7945 125.335 75.7945 125.816ZM57.3214 129.42C56.9354 129.809 56.9402 129.924 57.3529 130.146C58.1054 130.549 58.8696 130.323 58.8696 129.696C58.8696 128.982 57.9245 128.814 57.3214 129.42ZM41.6027 133.528C41.6027 133.936 41.8223 134.12 42.3115 134.12C42.8008 134.12 42.9851 133.966 42.9061 133.623C42.7345 132.88 41.6027 132.797 41.6027 133.528ZM27.5841 136.831C27.5841 137.092 27.7496 137.26 27.9517 137.204C28.1537 137.148 28.3192 136.98 28.3192 136.831C28.3192 136.681 28.1537 136.514 27.9517 136.457C27.7496 136.401 27.5841 136.569 27.5841 136.831ZM102.008 137.735C101.883 137.839 101.78 138.1 101.78 138.315C101.78 138.613 101.938 138.635 102.442 138.41C102.805 138.248 103.507 138.115 104 138.115C104.512 138.115 104.807 137.992 104.687 137.83C104.451 137.511 102.364 137.437 102.008 137.735ZM78.0847 139.438C77.9654 139.537 77.5168 139.634 77.0877 139.652C76.6394 139.67 76.3074 139.867 76.3074 140.113C76.3074 140.419 76.6815 140.541 77.6221 140.541C79.0681 140.541 79.3197 140.39 79.0072 139.71C78.788 139.234 78.4492 139.133 78.0847 139.438ZM55.3649 142.043C54.3426 142.185 54.3853 142.899 55.4402 143.3C56.7873 143.812 58.0589 142.707 56.7326 142.176C56.4033 142.045 55.7882 141.985 55.3649 142.043ZM36.5977 145.392C36.2866 146.069 36.9191 146.452 37.9801 146.229C39.1878 145.976 39.0298 145.139 37.7514 145.016C37.1257 144.956 36.7403 145.081 36.5977 145.392ZM21.4296 148.674C21.4296 148.988 21.5646 149.244 21.7298 149.244C22.178 149.244 22.8253 148.507 22.5665 148.291C22.0984 147.9 21.4296 148.125 21.4296 148.674ZM7.75285 151.544C7.75285 151.71 7.90672 151.767 8.09477 151.67C8.28282 151.573 8.43669 151.437 8.43669 151.368C8.43669 151.299 8.28282 151.242 8.09477 151.242C7.90672 151.242 7.75285 151.378 7.75285 151.544ZM30.993 159.502C31.1889 159.807 31.5018 160.136 31.6888 160.232C32.1706 160.481 32.1125 159.702 31.6187 159.29C30.9804 158.757 30.5984 158.886 30.993 159.502ZM28.9518 159.946C28.9518 160.181 29.2014 160.374 29.5064 160.374C29.9608 160.374 29.9844 160.297 29.6356 159.946C29.4014 159.711 29.1518 159.518 29.081 159.518C29.0099 159.518 28.9518 159.711 28.9518 159.946ZM11.6849 161.801C11.5618 161.967 11.9027 162.086 12.4994 162.086C13.0635 162.086 13.6202 161.958 13.7364 161.801C13.8595 161.635 13.5186 161.516 12.922 161.516C12.3578 161.516 11.8012 161.644 11.6849 161.801Z" fill="url(#paint0_radial_387_920)" fill-opacity="0.2"/>
<defs>
<radialGradient id="paint0_radial_387_920" cx="0" cy="0" r="1" gradientTransform="matrix(-134.392 43.4626 -57.1692 -122.589 134.392 30.5762)" gradientUnits="userSpaceOnUse">
<stop stop-color="#474747"/>
<stop offset="1" stop-color="#D5D5D5" stop-opacity="0"/>
</radialGradient>
</defs>
</svg>
