<svg width="355" height="169" viewBox="0 0 355 169" fill="none" xmlns="http://www.w3.org/2000/svg">
<path fill-rule="evenodd" clip-rule="evenodd" d="M394.551 0.32121C394.361 0.497876 394.457 0.64242 394.763 0.64242C395.07 0.64242 395.475 0.497876 395.665 0.32121C395.854 0.144545 395.758 0 395.452 0C395.146 0 394.74 0.144545 394.551 0.32121ZM371.429 7.09682C371.429 7.25678 371.931 7.38783 372.544 7.38783C373.157 7.38783 373.658 7.33227 373.658 7.26481C373.658 7.19704 373.157 7.06599 372.544 6.97348C371.931 6.88129 371.429 6.93653 371.429 7.09682ZM403.744 8.22652C403.743 8.43434 404.326 8.51946 405.136 8.43016C406.945 8.23069 406.945 7.76333 405.137 7.8234C404.371 7.84878 403.744 8.03026 403.744 8.22652ZM383.582 8.57085C383.984 8.66368 384.465 8.65212 384.65 8.54548C384.835 8.43884 384.506 8.36302 383.919 8.37683C383.27 8.39225 383.138 8.46838 383.582 8.57085ZM428.257 9.3151C428.257 9.49176 428.744 9.63631 429.339 9.63631C429.934 9.63631 430.575 9.49176 430.765 9.3151C430.96 9.13297 430.492 8.99389 429.683 8.99389C428.899 8.99389 428.257 9.13843 428.257 9.3151ZM364.744 10.5999C364.744 10.7766 365.009 10.9211 365.334 10.9211C365.658 10.9211 365.769 10.7766 365.579 10.5999C365.39 10.4233 365.125 10.2787 364.989 10.2787C364.854 10.2787 364.744 10.4233 364.744 10.5999ZM366.718 10.899C366.541 11.0635 366.652 11.2886 366.963 11.3997C367.275 11.5106 367.529 11.376 367.529 11.1007C367.529 10.5363 367.195 10.4535 366.718 10.899ZM373.658 10.9401C373.658 11.127 373.909 11.191 374.215 11.0818C374.521 10.9725 374.772 10.8196 374.772 10.7416C374.772 10.6635 374.521 10.5999 374.215 10.5999C373.909 10.5999 373.658 10.7532 373.658 10.9401ZM358.615 12.5272C358.615 12.7039 358.866 12.8484 359.172 12.8484C359.479 12.8484 359.73 12.7039 359.73 12.5272C359.73 12.3505 359.479 12.206 359.172 12.206C358.866 12.206 358.615 12.3505 358.615 12.5272ZM350.815 14.1332C350.815 14.3099 351.332 14.4545 351.962 14.4545C352.593 14.4545 352.955 14.3099 352.765 14.1332C352.576 13.9566 352.06 13.812 351.618 13.812C351.176 13.812 350.815 13.9566 350.815 14.1332ZM377.578 15.2437C376.96 15.6728 377.104 15.7393 378.65 15.7393C379.832 15.7393 380.358 15.6034 380.204 15.3378C379.857 14.7349 378.386 14.6822 377.578 15.2437ZM359.869 15.3474C358.563 15.4676 358.094 16.064 359.312 16.0557C360.151 16.0496 361.754 15.4981 361.385 15.3426C361.24 15.2816 360.558 15.2838 359.869 15.3474ZM399.843 16.2211C399.843 16.5208 400.369 16.7029 401.236 16.7029C402.103 16.7029 402.629 16.5208 402.629 16.2211C402.629 15.9214 402.103 15.7393 401.236 15.7393C400.369 15.7393 399.843 15.9214 399.843 16.2211ZM425.661 17.5252C425.242 18.1538 425.745 18.4404 426.841 18.1982C427.943 17.9544 427.944 17.4681 426.843 17.2246C426.35 17.1154 425.848 17.2429 425.661 17.5252ZM344.13 17.6666C344.13 17.8432 344.646 17.9878 345.277 17.9878C345.907 17.9878 346.269 17.8432 346.08 17.6666C345.89 17.4899 345.374 17.3454 344.932 17.3454C344.491 17.3454 344.13 17.4899 344.13 17.6666ZM347.472 17.9878C347.472 18.1644 347.849 18.309 348.308 18.309C348.768 18.309 349.144 18.1644 349.144 17.9878C349.144 17.8111 348.768 17.6666 348.308 17.6666C347.849 17.6666 347.472 17.8111 347.472 17.9878ZM339.673 19.112C339.673 19.4066 339.942 19.5954 340.271 19.5321C340.601 19.4689 340.87 19.28 340.87 19.112C340.87 18.944 340.601 18.7551 340.271 18.6919C339.942 18.6286 339.673 18.8175 339.673 19.112ZM454.164 19.2726C454.354 19.4493 454.619 19.5938 454.754 19.5938C454.89 19.5938 455 19.4493 455 19.2726C455 19.0959 454.734 18.9514 454.41 18.9514C454.086 18.9514 453.975 19.0959 454.164 19.2726ZM331.618 21.1777C331.441 21.3422 331.552 21.5673 331.864 21.6785C332.528 21.9152 333.544 21.6146 333.544 21.1809C333.544 20.79 332.036 20.7874 331.618 21.1777ZM354.576 22.0636C353.241 22.2647 353.343 22.8059 354.715 22.8059C355.328 22.8059 356.014 22.8419 356.24 22.8862C356.465 22.9306 356.734 22.7134 356.838 22.4044C357.023 21.8481 356.515 21.7716 354.576 22.0636ZM338.001 23.1271C338.001 23.4805 338.15 23.7696 338.331 23.7696C338.513 23.7696 339.299 23.4805 340.078 23.1271L341.494 22.4847H339.748C338.373 22.4847 338.001 22.6212 338.001 23.1271ZM373.519 22.706C372.094 22.9209 372.327 23.4169 374.03 23.7901C375.723 24.1611 376.81 23.6083 375.786 22.8971C375.17 22.4687 375.122 22.4648 373.519 22.706ZM329.923 24.412C329.733 24.5886 329.844 24.7332 330.168 24.7332C330.493 24.7332 330.758 24.5886 330.758 24.412C330.758 24.2353 330.648 24.0908 330.513 24.0908C330.377 24.0908 330.112 24.2353 329.923 24.412ZM396.222 24.412C395.713 24.887 396.419 25.3756 397.615 25.3756C398.978 25.3756 399.646 24.7406 398.661 24.3811C397.635 24.0063 396.643 24.0191 396.222 24.412ZM324.63 24.7332C323.916 24.9991 323.936 25.0454 324.769 25.0496C325.305 25.0521 325.926 25.0653 326.148 25.0785C326.37 25.0917 326.642 24.9471 326.751 24.7573C326.999 24.3291 325.752 24.315 324.63 24.7332ZM421.26 25.4064C421.052 25.6001 421.226 25.956 421.645 26.1979C422.611 26.7549 424.096 26.2824 423.62 25.5687C423.229 24.9802 421.821 24.8835 421.26 25.4064ZM321.566 25.6968C321.755 25.8735 322.146 26.018 322.434 26.018C322.723 26.018 322.958 25.8735 322.958 25.6968C322.958 25.5202 322.567 25.3756 322.09 25.3756C321.612 25.3756 321.376 25.5202 321.566 25.6968ZM449.429 26.018C449.429 26.1947 449.805 26.3392 450.264 26.3392C450.724 26.3392 451.1 26.1947 451.1 26.018C451.1 25.8414 450.724 25.6968 450.264 25.6968C449.805 25.6968 449.429 25.8414 449.429 26.018ZM313.069 28.0256C313.197 28.2466 313.761 28.4271 314.323 28.4271C314.884 28.4271 315.449 28.2466 315.576 28.0256C315.723 27.7712 315.264 27.6241 314.323 27.6241C313.382 27.6241 312.922 27.7712 313.069 28.0256ZM333.126 29.1437C332.452 29.2793 332.108 30.515 332.745 30.515C333.428 30.515 335.215 29.8343 335.215 29.5745C335.215 29.2141 334.01 28.9658 333.126 29.1437ZM317.658 29.8793C317.47 30.0547 317.709 30.285 318.188 30.391C319.209 30.6171 321.061 30.2773 320.516 29.9638C319.883 29.5982 318.019 29.5433 317.658 29.8793ZM349.654 30.0659C349.159 30.4096 349.137 30.6396 349.576 30.8924C350.345 31.336 351.93 31.0039 351.93 30.3987C351.93 29.7296 350.45 29.5131 349.654 30.0659ZM313.209 30.515C313.019 30.6916 313.255 30.8362 313.733 30.8362C314.21 30.8362 314.601 30.6916 314.601 30.515C314.601 30.3383 314.366 30.1938 314.077 30.1938C313.788 30.1938 313.398 30.3383 313.209 30.515ZM369.34 31.0488C368.341 31.2814 368.482 32.0166 369.572 32.2579C370.745 32.5171 371.682 32.0012 371.242 31.3395C370.898 30.8221 370.546 30.7684 369.34 31.0488ZM443.428 31.2178C443.772 31.8133 444.972 31.9119 444.972 31.3447C444.972 31.0649 444.575 30.8362 444.09 30.8362C443.604 30.8362 443.306 31.0077 443.428 31.2178ZM304.712 31.3633C303.241 31.7201 304.11 32.1554 306.105 32.06C307.254 32.0054 308.139 31.8159 308.072 31.6392C307.936 31.2798 305.784 31.1031 304.712 31.3633ZM390.472 32.5225C390.662 33.2905 392.847 33.7133 393.797 33.1656C394.758 32.6115 393.657 31.7998 391.945 31.7998C390.552 31.7998 390.322 31.9126 390.472 32.5225ZM416.005 32.4342C415.369 32.6658 415.327 32.8251 415.828 33.1139C416.615 33.5674 418.413 33.2424 418.101 32.7031C417.797 32.1776 416.993 32.0744 416.005 32.4342ZM296.216 34.0483C296.216 34.2249 296.592 34.3695 297.052 34.3695C297.511 34.3695 297.887 34.2249 297.887 34.0483C297.887 33.8716 297.511 33.7271 297.052 33.7271C296.592 33.7271 296.216 33.8716 296.216 34.0483ZM434.664 34.3695C434.111 34.886 434.901 35.3331 436.369 35.3331C437.357 35.3331 437.729 35.1577 437.729 34.6907C437.729 34.2237 437.357 34.0483 436.369 34.0483C435.621 34.0483 434.854 34.1928 434.664 34.3695ZM299.002 36.741C299.002 37.2588 301.081 37.6593 301.541 37.2302C302.027 36.7773 301.276 36.2968 300.083 36.2968C299.488 36.2968 299.002 36.4969 299.002 36.741ZM311.816 36.757C311.816 37.2806 313.736 37.7293 314.624 37.4133C315.465 37.1129 314.178 36.2968 312.862 36.2968C312.286 36.2968 311.816 36.5039 311.816 36.757ZM424.53 36.8222C424.118 37.4406 424.979 38.3467 426.1 38.4743C426.532 38.5234 427.352 38.3676 427.921 38.1276C428.781 37.765 428.846 37.5736 428.308 36.9941C427.535 36.1606 425.046 36.0472 424.53 36.8222ZM446.086 36.618C446.086 36.7946 446.352 36.9392 446.676 36.9392C447 36.9392 447.111 36.7946 446.922 36.618C446.732 36.4413 446.467 36.2968 446.331 36.2968C446.196 36.2968 446.086 36.4413 446.086 36.618ZM327.477 37.3782C326.995 37.7129 327.051 37.9163 327.711 38.2321C328.775 38.7415 329.964 38.2044 329.457 37.4425C329.044 36.8226 328.311 36.7988 327.477 37.3782ZM409.175 37.1798C407.958 37.3394 407.893 38.4087 409.086 38.6724C410.266 38.9336 410.986 38.6419 410.986 37.9028C410.986 37.1926 410.515 37.0044 409.175 37.1798ZM287.723 37.4457C287.159 37.7711 287.913 38.5452 288.795 38.5452C289.258 38.5452 289.534 38.3133 289.432 38.0098C289.238 37.4348 288.287 37.1207 287.723 37.4457ZM344.46 38.4225C344.258 38.7258 344.335 39.1135 344.631 39.284C345.436 39.7482 347.025 39.2715 346.811 38.6303C346.56 37.8784 344.919 37.7335 344.46 38.4225ZM413.633 38.5709C412.293 39.0206 412.393 40.5563 413.81 41.2954C414.862 41.8444 415.092 41.8547 416.452 41.4143C418.286 40.821 418.601 40.0443 417.427 39.0113C416.479 38.1775 415.235 38.0329 413.633 38.5709ZM363.769 38.78C362.904 38.9538 362.868 39.584 363.697 40.062C364.545 40.5509 365.858 40.2149 365.858 39.5089C365.858 38.8908 364.892 38.5539 363.769 38.78ZM384.252 38.9467C384.266 39.6248 385.199 40.2457 385.853 40.0128C386.941 39.6251 386.576 38.5452 385.358 38.5452C384.745 38.5452 384.247 38.7261 384.252 38.9467ZM278.759 39.7231C278.053 40.1301 278.392 40.4725 279.502 40.4725C280.121 40.4725 280.616 40.2582 280.616 39.9907C280.616 39.5018 279.438 39.3319 278.759 39.7231ZM398.527 41.2755C398.017 42.0426 398.773 42.7894 399.889 42.621C400.739 42.4929 400.881 42.6606 400.808 43.7145C400.666 45.7619 404.151 46.6882 406.507 45.2299C407.897 44.3701 407.926 43.9017 406.668 42.6635C405.825 41.8335 405.448 41.7262 403.883 41.871C402.363 42.0114 402.072 41.9382 402.072 41.4159C402.072 40.9437 401.683 40.7937 400.46 40.7937C399.541 40.7937 398.71 41.0009 398.527 41.2755ZM216.545 41.4361C216.545 41.6128 216.796 41.7573 217.102 41.7573C217.409 41.7573 217.659 41.6128 217.659 41.4361C217.659 41.2595 217.409 41.1149 217.102 41.1149C216.796 41.1149 216.545 41.2595 216.545 41.4361ZM438.077 41.6924C437.606 42.1315 438.499 42.5565 440.097 42.6528C441.86 42.7592 441.969 42.6416 440.753 41.9407C439.811 41.3976 438.522 41.2778 438.077 41.6924ZM436.553 42.3194C436.341 43.1482 436.857 44.1998 437.645 44.5458C438.753 45.0318 440.514 45.0947 440.514 44.6482C440.514 44.4716 440.041 44.327 439.462 44.327C438.701 44.327 438.309 44.0164 438.044 43.2028C437.725 42.224 436.729 41.6333 436.553 42.3194ZM280.999 42.6072C280.234 43.0486 280.63 43.7302 281.591 43.6236C282.127 43.5638 282.566 43.3123 282.566 43.0646C282.566 42.5574 281.583 42.2706 280.999 42.6072ZM205.446 43.2294C205.473 43.6036 205.605 43.6798 205.783 43.4238C205.944 43.1918 205.924 42.9146 205.739 42.808C205.554 42.7014 205.423 42.8909 205.446 43.2294ZM270.924 43.2317C270.737 43.5127 270.718 43.8677 270.882 44.0209C271.383 44.4883 272.816 43.9756 272.816 43.329C272.816 42.5915 271.399 42.5186 270.924 43.2317ZM292.271 43.0582C291.691 43.2648 291.652 43.4302 292.117 43.6984C292.847 44.1195 295.427 43.9904 295.282 43.5401C295.13 43.0663 293.141 42.748 292.271 43.0582ZM386.521 43.4899C386.141 43.7543 385.912 44.3035 386.011 44.7108C386.149 45.2723 386.597 45.4715 387.865 45.5351C390.392 45.6613 391.284 45.1984 390.62 44.105C389.989 43.0643 387.641 42.712 386.521 43.4899ZM376.258 43.8988C376.054 44.0164 375.886 44.4474 375.886 44.8563C375.886 45.3812 375.478 45.6587 374.494 45.801C373.413 45.9575 373.101 46.2093 373.101 46.924C373.101 48.8548 378.226 49.4786 379.024 47.6448C379.296 47.0213 379.122 46.6821 378.366 46.3638C377.569 46.0275 377.488 45.8447 378.006 45.5463C378.948 45.0032 378.833 44.1099 377.791 43.8796C376.7 43.638 376.71 43.638 376.258 43.8988ZM306.807 44.4838C306.248 44.8721 306.295 45.0009 307.055 45.1689C308.152 45.4117 309.323 44.8602 308.782 44.355C308.267 43.8754 307.622 43.9175 306.807 44.4838ZM192.891 45.2685C192.714 45.4329 192.825 45.6581 193.137 45.7692C193.448 45.8801 193.703 45.7455 193.703 45.4702C193.703 44.9058 193.368 44.823 192.891 45.2685ZM262.788 45.4246C262.788 45.704 263.184 45.9331 263.67 45.9331C264.155 45.9331 264.453 45.7615 264.331 45.5518C263.987 44.9559 262.788 44.8573 262.788 45.4246ZM321.844 46.04C321.844 46.7069 322.504 46.9266 323.325 46.5334C324.405 46.0166 324.244 45.6118 322.958 45.6118C322.346 45.6118 321.844 45.8046 321.844 46.04ZM356.549 45.9681C355.666 46.4772 356.289 47.2179 357.6 47.2179C358.405 47.2179 358.646 47.0342 358.515 46.5202C358.305 45.6992 357.437 45.4557 356.549 45.9681ZM338.558 46.7361C338.558 47.6342 339.908 47.843 340.45 47.0284C340.873 46.393 340.416 45.9331 339.361 45.9331C338.876 45.9331 338.558 46.2511 338.558 46.7361ZM256.102 46.8588C256.102 47.0354 256.353 47.2693 256.659 47.3785C256.965 47.4877 257.216 47.4325 257.216 47.2558C257.216 47.0792 256.965 46.8453 256.659 46.7361C256.353 46.6269 256.102 46.6821 256.102 46.8588ZM182.003 47.3974C182.003 47.6727 182.257 47.8073 182.569 47.6965C182.88 47.5854 182.991 47.3602 182.814 47.1957C182.337 46.7502 182.003 46.8331 182.003 47.3974ZM200.388 47.8793C200.388 48.0662 200.639 48.1301 200.945 48.0209C201.252 47.9117 201.502 47.7588 201.502 47.6808C201.502 47.6027 201.252 47.5391 200.945 47.5391C200.639 47.5391 200.388 47.6923 200.388 47.8793ZM365.401 47.9516C364.526 48.5593 365.837 49.5775 367.288 49.4166C368.841 49.2441 368.77 47.7331 367.202 47.604C366.562 47.5513 365.752 47.7078 365.401 47.9516ZM389.618 48.9691C387.843 49.9174 387.756 50.7014 389.298 51.8321C390.82 52.9473 393.547 52.9788 395.559 51.904C396.84 51.2192 396.947 51.0053 396.478 50.0571C395.497 48.073 392.257 47.559 389.618 48.9691ZM263.593 48.8519C263.052 49.3572 264.222 49.9087 265.32 49.6658C266.08 49.4978 266.127 49.3691 265.568 48.9807C264.753 48.4144 264.107 48.3723 263.593 48.8519ZM254.431 49.3058C254.431 49.6366 254.795 49.794 255.406 49.7266C256.58 49.5962 256.506 49.026 255.296 48.8808C254.791 48.8201 254.431 48.9971 254.431 49.3058ZM250.809 49.4664C250.62 49.643 250.731 49.7876 251.055 49.7876C251.379 49.7876 251.645 49.643 251.645 49.4664C251.645 49.2897 251.535 49.1452 251.399 49.1452C251.264 49.1452 250.999 49.2897 250.809 49.4664ZM361.679 49.529C359.161 50.3526 358.989 51.9207 361.309 52.9097C362.78 53.5371 363.008 53.5496 364.633 53.0957C365.593 52.8278 366.526 52.3405 366.707 52.0132C367.072 51.349 366.14 50.1538 364.792 49.5569C363.695 49.071 363.097 49.0658 361.679 49.529ZM247.745 50.1088C247.745 50.7085 247.894 50.7939 248.413 50.4942C248.933 50.1945 248.933 50.023 248.413 49.7234C247.894 49.4237 247.745 49.5091 247.745 50.1088ZM274.588 50.1891C274.686 50.5864 275.017 50.9118 275.323 50.9118C275.63 50.9118 275.961 50.5864 276.059 50.1891C276.181 49.6919 275.952 49.4664 275.323 49.4664C274.695 49.4664 274.466 49.6919 274.588 50.1891ZM171.696 50.1088C171.885 50.2855 172.276 50.43 172.564 50.43C172.853 50.43 173.088 50.2855 173.088 50.1088C173.088 49.9321 172.697 49.7876 172.22 49.7876C171.742 49.7876 171.506 49.9321 171.696 50.1088ZM352.813 50.7066C352.302 51.1835 353.396 52.5644 354.475 52.8031C355.746 53.0845 357.597 52.0984 357.386 51.2507C357.261 50.7445 356.747 50.5678 355.185 50.4926C354.064 50.439 352.997 50.535 352.813 50.7066ZM241.059 51.233C241.059 51.498 241.31 51.7148 241.616 51.7148C241.923 51.7148 242.174 51.498 242.174 51.233C242.174 50.968 241.923 50.7512 241.616 50.7512C241.31 50.7512 241.059 50.968 241.059 51.233ZM286.292 51.3098C286.572 52.1469 288.416 52.2403 288.416 51.4171C288.416 50.9574 288.058 50.7512 287.261 50.7512C286.464 50.7512 286.163 50.9244 286.292 51.3098ZM347.422 51.2677C346.791 51.7062 346.836 51.8504 347.715 52.2211C349.024 52.7726 349.701 52.5388 349.701 51.5353C349.701 50.6346 348.532 50.4971 347.422 51.2677ZM176.988 51.7148C176.988 51.8915 177.254 52.0361 177.578 52.0361C177.903 52.0361 178.014 51.8915 177.824 51.7148C177.635 51.5382 177.37 51.3936 177.234 51.3936C177.099 51.3936 176.988 51.5382 176.988 51.7148ZM428.908 51.9558C427.112 52.8375 427.105 54.1159 428.887 55.2193C429.821 55.7971 430.446 55.9121 431.812 55.7573C434.971 55.4001 435.884 53.7754 433.788 52.24C432.448 51.2578 430.553 51.1473 428.908 51.9558ZM161.946 52.4787C161.946 52.7989 162.411 52.9997 163.153 52.9997C163.817 52.9997 164.256 52.9589 164.128 52.9088C164 52.8587 163.457 52.6242 162.921 52.3878C162.086 52.0193 161.946 52.0325 161.946 52.4787ZM194.26 52.3573C194.26 52.5339 194.51 52.6785 194.817 52.6785C195.123 52.6785 195.374 52.5339 195.374 52.3573C195.374 52.1806 195.123 52.0361 194.817 52.0361C194.51 52.0361 194.26 52.1806 194.26 52.3573ZM301.056 52.5648C300.329 52.9836 300.676 53.3209 301.833 53.3209C302.482 53.3209 302.897 53.1526 302.774 52.9396C302.503 52.47 301.572 52.267 301.056 52.5648ZM330.758 53.5885C330.758 54.3465 331.227 54.6051 332.206 54.3886C333.438 54.1159 333.17 52.9997 331.873 52.9997C331.163 52.9997 330.758 53.2139 330.758 53.5885ZM339.377 53.7722C338.895 54.1968 337.886 54.6333 337.136 54.7419C336.159 54.8832 335.773 55.1598 335.773 55.7171C335.773 56.7469 336.656 57.0155 338.165 56.4453C339.029 56.119 339.655 56.0759 340.274 56.3011C340.885 56.5233 341.649 56.4832 342.781 56.1694C344.123 55.7968 344.377 55.5501 344.229 54.7602C343.9 53.0083 340.932 52.4038 339.377 53.7722ZM238.916 53.7828C239.023 54.0773 239.36 54.3109 239.666 54.3015C240.493 54.2762 240.342 53.5576 239.474 53.3909C239.005 53.301 238.797 53.4478 238.916 53.7828ZM231.695 53.9874C231.805 54.1772 232.133 54.3327 232.424 54.3327C232.714 54.3327 233.043 54.1772 233.152 53.9874C233.262 53.7976 232.935 53.6421 232.424 53.6421C231.913 53.6421 231.585 53.7976 231.695 53.9874ZM315.28 54.0128C315.569 54.5132 316.815 54.6006 316.859 54.1239C316.876 53.9473 316.471 53.7529 315.96 53.6916C315.379 53.6225 315.124 53.7427 315.28 54.0128ZM247.286 54.4621C247.538 55.1598 248.527 55.2025 248.753 54.5254C248.87 54.1737 248.597 53.9633 248.023 53.9633C247.488 53.9633 247.181 54.1711 247.286 54.4621ZM166.96 54.6057C166.96 54.7824 167.226 54.9269 167.55 54.9269C167.874 54.9269 167.985 54.7824 167.796 54.6057C167.606 54.4291 167.341 54.2845 167.206 54.2845C167.07 54.2845 166.96 54.4291 166.96 54.6057ZM182.56 54.6057C182.56 54.7824 182.811 54.9269 183.117 54.9269C183.423 54.9269 183.674 54.7824 183.674 54.6057C183.674 54.4291 183.423 54.2845 183.117 54.2845C182.811 54.2845 182.56 54.4291 182.56 54.6057ZM226.373 54.5074C225.745 54.8691 225.991 55.2482 226.852 55.2482C227.312 55.2482 227.688 55.1123 227.688 54.9459C227.688 54.5408 226.818 54.2508 226.373 54.5074ZM153.589 55.7489C153.589 56.0242 153.843 56.1588 154.155 56.048C154.466 55.9368 154.577 55.7117 154.4 55.5472C153.923 55.1017 153.589 55.1845 153.589 55.7489ZM257.216 55.8906C257.216 56.2439 257.467 56.533 257.773 56.533C258.08 56.533 258.33 56.2439 258.33 55.8906C258.33 55.5372 258.08 55.2482 257.773 55.2482C257.467 55.2482 257.216 55.5372 257.216 55.8906ZM347.827 56.4161C346.063 57.4327 346.055 57.5008 347.484 59.1155C348.724 60.5173 349.833 60.6969 352.444 59.9186C354.259 59.3773 354.921 58.3295 354.058 57.3643C352.28 55.3773 350.182 55.0583 347.827 56.4161ZM216.928 56.7405C216.163 57.1818 216.56 57.8635 217.52 57.7568C218.056 57.6971 218.495 57.4455 218.495 57.1979C218.495 56.6907 217.512 56.4039 216.928 56.7405ZM156.931 57.1754C156.931 57.3521 157.182 57.4966 157.489 57.4966C157.795 57.4966 158.046 57.3521 158.046 57.1754C158.046 56.9987 157.795 56.8542 157.489 56.8542C157.182 56.8542 156.931 56.9987 156.931 57.1754ZM211.526 57.3396C210.966 57.7285 211 57.8178 211.709 57.8178C212.748 57.8178 213.429 57.2939 212.718 57.0405C212.441 56.9419 211.905 57.0765 211.526 57.3396ZM324.112 57.8323C322.055 58.3928 320.729 58.944 320.864 59.182C321.147 59.6828 325.625 60.9853 327.152 61.011C329.917 61.0573 331.507 59.546 330.188 58.1252C329.036 56.8834 327.808 56.8243 324.112 57.8323ZM223.564 57.4118C222.966 57.7565 223.213 58.139 224.034 58.139C224.475 58.139 224.975 58.0096 225.145 57.8516C225.499 57.5207 224.066 57.1221 223.564 57.4118ZM268.638 57.4966C268.415 57.7041 268.484 58.0183 268.79 58.1949C269.162 58.4092 269.482 58.3906 269.752 58.139C269.974 57.9315 269.906 57.6174 269.599 57.4408C269.228 57.2265 268.907 57.2451 268.638 57.4966ZM144.953 58.7815C145.142 58.9581 145.548 59.1027 145.854 59.1027C146.161 59.1027 146.257 58.9581 146.067 58.7815C145.878 58.6048 145.472 58.4603 145.166 58.4603C144.859 58.4603 144.764 58.6048 144.953 58.7815ZM231.588 59.1027C231.588 59.456 231.839 59.7451 232.145 59.7451C232.451 59.7451 232.702 59.456 232.702 59.1027C232.702 58.7493 232.451 58.4603 232.145 58.4603C231.839 58.4603 231.588 58.7493 231.588 59.1027ZM378.672 59.1027C376.295 60.473 378.211 63.2784 381.524 63.2784C383.485 63.2784 385.915 62.025 385.915 61.0139C385.915 60.6355 385.396 59.9064 384.763 59.3931C383.342 58.2428 380.407 58.1027 378.672 59.1027ZM280.616 59.5845C280.616 60.0262 280.867 60.3875 281.173 60.3875C281.48 60.3875 281.73 60.0262 281.73 59.5845C281.73 59.1428 281.48 58.7815 281.173 58.7815C280.867 58.7815 280.616 59.1428 280.616 59.5845ZM148.017 59.7262C148.017 59.8925 148.268 60.1177 148.574 60.2269C148.881 60.3361 149.132 60.1999 149.132 59.9246C149.132 59.6494 148.881 59.4239 148.574 59.4239C148.268 59.4239 148.017 59.5598 148.017 59.7262ZM197.045 59.9057C197.045 60.1707 197.269 60.3875 197.543 60.3875C197.816 60.3875 198.185 60.1707 198.361 59.9057C198.556 59.6121 198.362 59.4239 197.864 59.4239C197.414 59.4239 197.045 59.6407 197.045 59.9057ZM202.06 59.9057C202.06 60.2003 202.329 60.3891 202.659 60.3258C202.988 60.2626 203.257 60.0737 203.257 59.9057C203.257 59.7377 202.988 59.5488 202.659 59.4856C202.329 59.4223 202.06 59.6112 202.06 59.9057ZM188.688 60.0663C188.688 60.243 188.939 60.3875 189.245 60.3875C189.552 60.3875 189.803 60.243 189.803 60.0663C189.803 59.8896 189.552 59.7451 189.245 59.7451C188.939 59.7451 188.688 59.8896 188.688 60.0663ZM192.346 60.0326C192.176 60.1909 192.412 60.4029 192.87 60.5044C193.376 60.6162 193.703 60.5035 193.703 60.217C193.703 59.6972 192.832 59.579 192.346 60.0326ZM307.559 61.4392C307.813 63.3841 308.574 64.242 310.045 64.242C310.729 64.242 310.775 64.3278 310.256 64.6275C309.258 65.2028 309.445 66.3145 310.755 67.5948C311.756 68.5729 312.133 68.7069 313.401 68.5337C315.854 68.1984 316.831 67.4859 316.82 66.0392C316.808 64.34 314.751 63.0375 312.956 63.5916C311.715 63.9745 311.421 63.6346 312.469 63.0301C313.472 62.452 312.196 61.1546 310.363 60.8893C309.514 60.7665 308.482 60.4228 308.068 60.1254C307.42 59.6596 307.35 59.8424 307.559 61.4392ZM293.188 60.675C292.817 61.021 293.988 61.3123 294.962 61.1164C295.346 61.0396 295.659 60.844 295.659 60.6821C295.659 60.3027 293.593 60.2969 293.188 60.675ZM207.934 61.0078C207.757 61.1722 207.868 61.3974 208.179 61.5085C208.844 61.7453 209.86 61.4446 209.86 61.011C209.86 60.6201 208.351 60.6175 207.934 61.0078ZM240.502 61.2172C240.502 61.497 240.8 61.6688 241.164 61.5988C242.197 61.4003 242.368 60.7087 241.384 60.7087C240.899 60.7087 240.502 60.9378 240.502 61.2172ZM151.36 61.3511C151.36 61.5278 151.626 61.6724 151.95 61.6724C152.274 61.6724 152.385 61.5278 152.196 61.3511C152.006 61.1745 151.741 61.0299 151.606 61.0299C151.47 61.0299 151.36 61.1745 151.36 61.3511ZM136.317 61.9936C136.317 62.1702 136.568 62.3148 136.875 62.3148C137.181 62.3148 137.432 62.1702 137.432 61.9936C137.432 61.8169 137.181 61.6724 136.875 61.6724C136.568 61.6724 136.317 61.8169 136.317 61.9936ZM172.531 62.1542C172.531 62.4192 172.782 62.636 173.088 62.636C173.395 62.636 173.646 62.4192 173.646 62.1542C173.646 61.8892 173.395 61.6724 173.088 61.6724C172.782 61.6724 172.531 61.8892 172.531 62.1542ZM175.874 62.1731C175.874 62.4484 176.129 62.583 176.44 62.4722C176.752 62.361 176.863 62.1359 176.686 61.9714C176.208 61.5259 175.874 61.6087 175.874 62.1731ZM178.66 62.1542C178.66 62.4192 179.036 62.636 179.496 62.636C179.955 62.636 180.331 62.4192 180.331 62.1542C180.331 61.8892 179.955 61.6724 179.496 61.6724C179.036 61.6724 178.66 61.8892 178.66 62.1542ZM182.368 62.1677C182.733 62.716 183.76 62.6485 184.104 62.054C184.226 61.842 183.816 61.6724 183.181 61.6724C182.38 61.6724 182.136 61.8204 182.368 62.1677ZM186.793 62.23C186.122 62.6164 186.488 62.9572 187.574 62.9572C188.187 62.9572 188.688 62.8281 188.688 62.6704C188.688 62.3093 187.239 61.9724 186.793 62.23ZM215.709 62.9572C215.52 63.1339 215.537 63.4384 215.746 63.634C216.121 63.9832 217.073 63.448 217.094 62.8769C217.106 62.5248 216.111 62.5827 215.709 62.9572ZM251.088 63.6186C251.088 63.9822 251.338 64.1906 251.645 64.0814C251.951 63.9722 252.202 63.6748 252.202 63.4201C252.202 63.1654 251.951 62.9572 251.645 62.9572C251.338 62.9572 251.088 63.255 251.088 63.6186ZM165.846 63.9398C165.846 64.3034 166.096 64.5119 166.403 64.4026C166.709 64.2934 166.96 63.996 166.96 63.7413C166.96 63.4866 166.709 63.2784 166.403 63.2784C166.096 63.2784 165.846 63.5762 165.846 63.9398ZM168.074 63.7413C168.074 63.996 168.336 64.2973 168.656 64.4113C169.375 64.6676 170.962 63.9545 170.542 63.5633C170.043 63.0979 168.074 63.2399 168.074 63.7413ZM192.588 63.9208C192.588 64.3349 192.87 64.5626 193.285 64.483C193.668 64.4094 193.981 64.1563 193.981 63.9208C193.981 63.6854 193.668 63.4323 193.285 63.3587C192.87 63.2791 192.588 63.5068 192.588 63.9208ZM163.06 63.9019C163.06 64.0683 163.311 64.2934 163.617 64.4026C163.924 64.5119 164.174 64.3757 164.174 64.1004C164.174 63.8251 163.924 63.5996 163.617 63.5996C163.311 63.5996 163.06 63.7355 163.06 63.9019ZM142.446 64.4216C142.446 64.6969 142.701 64.8315 143.012 64.7206C143.323 64.6095 143.434 64.3843 143.258 64.2199C142.78 63.7744 142.446 63.8572 142.446 64.4216ZM158.603 64.242C158.603 64.4187 158.854 64.5633 159.16 64.5633C159.466 64.5633 159.717 64.4187 159.717 64.242C159.717 64.0654 159.466 63.9208 159.16 63.9208C158.854 63.9208 158.603 64.0654 158.603 64.242ZM172.531 64.4026C172.531 64.6676 172.907 64.8845 173.367 64.8845C173.827 64.8845 174.203 64.6676 174.203 64.4026C174.203 64.1376 173.827 63.9208 173.367 63.9208C172.907 63.9208 172.531 64.1376 172.531 64.4026ZM293.368 65.0971C292.392 65.2477 291.202 66.5111 291.202 67.3979C291.202 68.3657 292.842 69.3814 294.406 69.3814C296.233 69.3814 299.002 67.9096 299.002 66.9383C299.002 66.4712 298.349 65.9891 297.125 65.5532C295.229 64.8774 294.986 64.8478 293.368 65.0971ZM145.232 65.4655C145.232 65.7935 147.344 66.8117 148.023 66.8117C148.326 66.8117 148.574 66.6672 148.574 66.4905C148.574 66.3138 148.198 66.1693 147.739 66.1693C147.279 66.1693 146.903 66.0402 146.903 65.8825C146.903 65.7248 146.527 65.5124 146.067 65.4106C145.608 65.3091 145.232 65.3338 145.232 65.4655ZM154.424 65.4244C151.363 65.8208 149.689 66.2634 149.689 66.6762C149.689 67.2142 150.344 67.2688 151.16 66.7985C151.479 66.6145 152.971 66.4333 154.475 66.3964C155.979 66.3591 157.147 66.2204 157.071 66.0884C156.994 65.9564 156.931 65.7035 156.931 65.5269C156.931 65.1967 156.363 65.1736 154.424 65.4244ZM224.09 65.8259C223.678 66.2104 224.726 66.591 225.468 66.3267C226.092 66.1047 225.682 65.5269 224.902 65.5269C224.632 65.5269 224.267 65.6615 224.09 65.8259ZM261.673 66.1693C261.673 66.346 262.049 66.4905 262.509 66.4905C262.969 66.4905 263.345 66.346 263.345 66.1693C263.345 65.9926 262.969 65.8481 262.509 65.8481C262.049 65.8481 261.673 65.9926 261.673 66.1693ZM158.603 66.8117C158.603 67.2399 158.974 67.4541 159.717 67.4541C161.039 67.4541 161.213 66.6437 159.95 66.3643C158.672 66.0816 158.603 66.1044 158.603 66.8117ZM177.738 66.6649C177.556 66.9376 177.553 67.2444 177.731 67.3472C178.293 67.6713 179.774 67.174 179.774 66.6611C179.774 66.0199 178.165 66.0231 177.738 66.6649ZM200.203 66.3835C199.524 66.7748 199.819 67.4541 200.667 67.4541C201.131 67.4541 201.502 67.1686 201.502 66.8117C201.502 66.1719 200.909 65.9763 200.203 66.3835ZM335.548 66.9736C334.256 67.5377 334.218 69.1065 335.471 70.2092C337.588 72.0722 342.965 70.5146 342.137 68.2784C341.937 67.7368 341.52 67.113 341.211 66.892C340.453 66.3495 336.86 66.4012 335.548 66.9736ZM421.759 67.1914C420.116 67.6498 419.841 68.5074 420.934 69.7688C422.791 71.9132 428.266 70.9557 427.472 68.6253C426.91 66.9736 424.61 66.3964 421.759 67.1914ZM140.95 67.3411C141.551 67.688 139.026 68.739 137.592 68.739C136.841 68.739 136.403 68.88 136.596 69.0602C137.153 69.5802 139.49 69.4306 142.173 68.7037C145.273 67.8637 145.486 67.1329 142.631 67.1329C141.508 67.1329 140.751 67.2267 140.95 67.3411ZM133.81 67.7754C133.621 67.952 133.872 68.0966 134.367 68.0966C134.863 68.0966 135.114 67.952 134.925 67.7754C134.735 67.5987 134.484 67.4541 134.367 67.4541C134.25 67.4541 134 67.5987 133.81 67.7754ZM285.073 67.936C285.073 68.201 285.324 68.4178 285.63 68.4178C285.937 68.4178 286.187 68.201 286.187 67.936C286.187 67.671 285.937 67.4541 285.63 67.4541C285.324 67.4541 285.073 67.671 285.073 67.936ZM145.232 68.5784C145.232 68.8459 145.727 69.0602 146.346 69.0602C146.965 69.0602 147.46 68.8459 147.46 68.5784C147.46 68.3108 146.965 68.0966 146.346 68.0966C145.727 68.0966 145.232 68.3108 145.232 68.5784ZM163.06 68.739C163.778 69.5121 164.491 69.5629 164.95 68.8732C165.45 68.1232 165.413 68.0966 163.876 68.0966C162.637 68.0966 162.536 68.1749 163.06 68.739ZM233.816 69.0602C233.816 69.2369 234.067 69.3814 234.374 69.3814C234.68 69.3814 234.931 69.2369 234.931 69.0602C234.931 68.8835 234.68 68.739 234.374 68.739C234.067 68.739 233.816 68.8835 233.816 69.0602ZM129.862 69.8606C129.362 70.301 129.094 70.8747 129.267 71.1352C129.441 71.396 129.343 71.6948 129.05 71.7991C128.401 72.0304 128.339 72.9147 128.972 72.9147C129.222 72.9147 129.998 72.3282 130.698 71.6109C131.872 70.4061 132.025 70.3515 132.716 70.8882C133.412 71.4288 133.528 71.4323 134.399 70.938C135.512 70.3062 134.943 69.5828 133.505 69.7996C132.945 69.8841 132.356 69.7527 132.192 69.5064C131.746 68.835 130.877 68.967 129.862 69.8606ZM183.674 69.3814C183.674 69.5581 184.175 69.7026 184.788 69.7026C185.401 69.7026 185.903 69.5581 185.903 69.3814C185.903 69.2047 185.401 69.0602 184.788 69.0602C184.175 69.0602 183.674 69.2047 183.674 69.3814ZM279.62 69.419C278.085 69.7463 278.031 70.7019 279.504 71.4706C280.461 71.9697 280.837 71.9961 282.135 71.6549C283.189 71.3784 283.711 71.363 283.851 71.6042C284.137 72.0976 286.012 72.0349 286.355 71.5204C286.512 71.2836 286.421 70.886 286.153 70.637C285.762 70.275 285.449 70.2615 284.586 70.5696C283.652 70.903 283.465 70.8545 283.182 70.2063C282.809 69.3483 281.406 69.038 279.62 69.419ZM208.467 69.7026C208.244 69.9101 208.313 70.2242 208.619 70.4009C208.991 70.6152 209.311 70.5965 209.581 70.345C209.803 70.1375 209.735 69.8234 209.428 69.6467C209.057 69.4325 208.736 69.4511 208.467 69.7026ZM149.38 70.373C148.894 70.8265 149.968 71.4458 150.754 71.1654C151.638 70.8506 151.495 70.0238 150.557 70.0238C150.115 70.0238 149.586 70.1809 149.38 70.373ZM119.112 71.7201C118.198 72.2476 118.353 73.2359 119.35 73.2359C120.032 73.2359 120.135 73.4694 119.845 74.3602C119.55 75.2673 119.653 75.4844 120.377 75.4844C121.05 75.4844 121.275 75.169 121.275 74.2262C121.275 73.5343 121.503 72.9202 121.781 72.8611C122.059 72.8023 122.373 72.4837 122.477 72.1531C122.618 71.7073 122.289 71.5274 121.202 71.4564C120.396 71.4037 119.456 71.5223 119.112 71.7201ZM169.467 71.6299C169.061 72.0089 169.588 72.5935 170.336 72.5935C170.624 72.5935 170.86 72.3044 170.86 71.9511C170.86 71.2737 170.049 71.0867 169.467 71.6299ZM135.562 72.1069C135.362 72.4066 135.564 72.6934 136.048 72.8007C137.203 73.0561 138.685 72.6741 138.409 72.1917C138.062 71.5833 135.952 71.5203 135.562 72.1069ZM277.659 72.4971C275.949 72.7528 275.423 74.1247 276.593 75.2823C277.844 76.5213 279.381 76.6873 281.345 75.7966C283.036 75.0299 283.258 74.0406 281.977 72.9864C281.149 72.3041 279.9 72.1624 277.659 72.4971ZM192.031 73.0753C192.031 73.3403 192.282 73.5571 192.588 73.5571C192.895 73.5571 193.145 73.3403 193.145 73.0753C193.145 72.8103 192.895 72.5935 192.588 72.5935C192.282 72.5935 192.031 72.8103 192.031 73.0753ZM274.042 73.3178C273.523 73.6792 273.495 73.8835 273.94 74.0425C274.765 74.3364 275.187 74.0576 274.954 73.3718C274.785 72.8697 274.694 72.8646 274.042 73.3178ZM154.703 73.8783C154.703 74.3621 154.994 74.5356 155.678 74.4598C156.214 74.4 156.653 74.1385 156.653 73.8783C156.653 73.6182 156.214 73.3567 155.678 73.2969C154.994 73.2211 154.703 73.3946 154.703 73.8783ZM369.555 73.9018C367.635 74.772 367.593 76.1927 369.454 77.2655C371.031 78.1749 371.979 78.2391 374.172 77.5851C376.039 77.0285 376.572 76.1133 375.786 74.8134C374.788 73.1643 372.061 72.765 369.555 73.9018ZM108.492 73.8604C107.842 74.0977 107.813 74.3107 108.341 74.9794C108.7 75.434 109.25 75.8056 109.563 75.8056C109.876 75.8056 110.132 75.9903 110.132 76.2158C110.132 76.4416 110.546 76.9671 111.052 77.3837L111.972 78.1408L112.671 77.3712C113.376 76.5958 113.145 74.7231 112.378 74.9962C112.152 75.0771 111.684 74.7861 111.34 74.3502C110.681 73.5173 109.833 73.3712 108.492 73.8604ZM122.757 73.7951C122.595 73.9461 122.689 74.2795 122.967 74.5362C123.5 75.0292 125.164 74.683 125.357 74.039C125.477 73.6381 123.158 73.4203 122.757 73.7951ZM263.092 74.2635C260.927 75.4484 263.498 77.4075 266.387 76.7741C268.294 76.3558 268.625 75.7491 267.579 74.5831C266.6 73.491 264.745 73.3589 263.092 74.2635ZM269.257 74.0621C268.822 74.7145 269.835 75.8056 270.875 75.8056C271.765 75.8056 272.574 74.4324 272 73.8967C271.448 73.3814 269.636 73.491 269.257 74.0621ZM297.985 74.6191C295.783 75.5059 295.58 76.9552 297.511 78.0008C298.715 78.6534 298.957 78.6718 300.993 78.267C302.544 77.9587 303.234 77.6217 303.366 77.1075C303.686 75.8557 302.942 74.8706 301.31 74.3839C299.861 73.9519 299.594 73.9709 297.985 74.6191ZM140.217 75.6261C140.217 76.2341 141.015 76.4978 142.117 76.254C143.53 75.9415 143.168 75.1632 141.61 75.1632C140.769 75.1632 140.217 75.3466 140.217 75.6261ZM176.71 75.8056C176.52 75.9823 176.537 76.2868 176.747 76.4824C177.121 76.8316 178.074 76.2964 178.094 75.7253C178.107 75.3733 177.112 75.4311 176.71 75.8056ZM97.3178 77.0513C97.3178 78.1511 98.5763 78.8388 100.678 78.8876C102.113 78.921 102.178 78.8648 101.736 77.9757C101.081 76.6591 100.19 76.1268 98.6426 76.1268C97.5545 76.1268 97.3178 76.2919 97.3178 77.0513ZM127.058 76.9144C126.887 77.1711 126.91 77.5327 127.109 77.7184C127.606 78.1816 129.632 77.5395 129.632 76.9186C129.632 76.3086 127.463 76.3051 127.058 76.9144ZM253.913 77.3943C252.967 77.8061 252.729 78.1357 253.01 78.6461C253.398 79.3515 253.845 79.4632 255.823 79.3483C257.527 79.249 257.89 78.8745 257.167 77.96C256.298 76.8601 255.472 76.7166 253.913 77.3943ZM161.946 78.0541C161.946 78.4681 162.228 78.6959 162.642 78.6162C163.025 78.5426 163.339 78.2895 163.339 78.0541C163.339 77.8186 163.025 77.5655 162.642 77.492C162.228 77.4123 161.946 77.64 161.946 78.0541ZM261.116 78.0351C261.116 78.3782 261.316 78.7299 261.561 78.817C262.355 79.0999 263.516 78.4543 263.165 77.9259C262.682 77.2 261.116 77.2835 261.116 78.0351ZM114.212 78.8895C113.737 79.6033 115.221 80.0758 116.187 79.5188C116.606 79.2769 116.78 78.921 116.572 78.7273C116.011 78.2044 114.604 78.3011 114.212 78.8895ZM87.3896 79.5451C86.5082 80.4535 87.2592 81.2662 88.9802 81.2662C89.8387 81.2662 90.9374 81.3539 91.4221 81.4612C92.8011 81.7663 92.4651 80.9861 90.7731 79.9524C89.037 78.8921 88.13 78.7829 87.3896 79.5451ZM102.184 79.531C101.467 79.9447 101.744 81.1727 102.653 81.6076C103.381 81.9558 103.618 81.9491 104.037 81.5668C104.738 80.9289 104.698 80.7924 103.577 79.9948C103.037 79.61 102.41 79.4012 102.184 79.531ZM146.903 80.123C146.903 80.3777 147.128 80.6659 147.402 80.7635C147.975 80.9678 148.667 80.1416 148.164 79.8522C147.567 79.5076 146.903 79.6499 146.903 80.123ZM184.788 80.3026C184.788 80.4792 185.054 80.6238 185.378 80.6238C185.703 80.6238 185.813 80.4792 185.624 80.3026C185.435 80.1259 185.169 79.9813 185.034 79.9813C184.899 79.9813 184.788 80.1259 184.788 80.3026ZM247.247 80.5865C246.16 81.0687 245.988 81.3491 246.316 82.1052C247.137 84.0019 249.168 84.6074 251.521 83.6569C252.987 83.065 253.154 81.7339 251.892 80.6954C250.842 79.8313 249.046 79.7893 247.247 80.5865ZM326.301 80.2081C321.36 81.2495 322.322 85.3542 327.439 85.0635C331.232 84.8477 332.233 82.5986 329.337 80.7972C327.988 79.9576 327.729 79.9075 326.301 80.2081ZM254.152 80.6238C253.963 80.8004 254.073 80.945 254.398 80.945C254.722 80.945 254.988 80.8004 254.988 80.6238C254.988 80.4471 254.877 80.3026 254.742 80.3026C254.607 80.3026 254.341 80.4471 254.152 80.6238ZM132.696 81.2662C132.23 81.7011 132.859 82.2298 133.843 82.2298C134.285 82.2298 134.646 81.9407 134.646 81.5874C134.646 80.9225 133.302 80.7008 132.696 81.2662ZM237.577 82.0345C235.628 82.8876 236.89 84.9887 239.155 84.661C240.319 84.4924 240.502 84.5788 240.502 85.2942C240.502 85.7497 240.724 86.0432 240.995 85.9465C241.266 85.8502 241.488 85.0401 241.488 84.1468C241.488 81.8964 239.879 81.0272 237.577 82.0345ZM77.9294 82.294C76.1493 83.3203 77.9444 84.3928 80.7591 83.9855C81.7151 83.8471 82.2249 83.9396 82.4606 84.2939C82.8885 84.937 83.9465 84.954 83.9465 84.3177C83.9465 84.0527 83.5704 83.8359 83.1108 83.8359C82.6511 83.8359 82.275 83.6415 82.275 83.4038C82.275 82.8482 80.48 81.9086 79.4175 81.9086C78.9668 81.9086 78.2971 82.082 77.9294 82.294ZM262.832 82.7396C261.442 83.4141 261.186 83.7312 261.473 84.4259C262.016 85.7394 262.744 86.0843 264.973 86.0843C267.494 86.0843 268.359 85.6228 268.359 84.2769C268.359 83.5394 267.935 83.0479 266.891 82.5745C265.033 81.7319 264.897 81.7374 262.832 82.7396ZM92.8607 82.551C92.8607 82.7277 93.2518 82.8722 93.7292 82.8722C94.2067 82.8722 94.4429 82.7277 94.2535 82.551C94.0641 82.3744 93.6735 82.2298 93.3849 82.2298C93.0963 82.2298 92.8607 82.3744 92.8607 82.551ZM89.9357 82.8979C88.549 83.3637 88.7295 83.8359 90.2939 83.8359C91.3965 83.8359 92.3035 83.3165 92.3035 82.6853C92.3035 82.4415 90.9274 82.5648 89.9357 82.8979ZM169.79 83.0595C169.816 83.4337 169.948 83.5098 170.126 83.2538C170.287 83.0219 170.267 82.7447 170.082 82.6381C169.897 82.5314 169.766 82.7209 169.79 83.0595ZM118.729 83.2294C118.258 83.6692 119.508 84.1581 120.528 83.9322C120.939 83.8417 121.275 83.5657 121.275 83.3197C121.275 82.7881 119.278 82.7171 118.729 83.2294ZM105.675 85.1207C105.675 85.8364 106.767 85.9687 107.792 85.3777C108.83 84.7789 108.589 84.4783 107.068 84.4783C106.046 84.4783 105.675 84.6495 105.675 85.1207ZM230.585 84.8637C229.05 85.749 230.871 86.9702 232.827 86.367C234.047 85.9909 234.076 85.6372 232.941 84.9829C231.89 84.3771 231.466 84.3559 230.585 84.8637ZM69.5534 85.1579C67.8062 85.5383 68.3199 86.2449 70.3428 86.2449C71.237 86.2449 72.1262 86.3702 72.3196 86.5231C72.5151 86.6779 73.0906 86.666 73.6166 86.4964C74.4696 86.2212 74.4345 86.1441 73.265 85.713C71.0326 84.8901 70.8849 84.8682 69.5534 85.1579ZM78.7467 85.0137C77.9194 85.4904 78.4531 86.0843 79.7083 86.0843C80.9875 86.0843 82.0021 85.3915 81.3079 84.9916C80.8599 84.733 79.208 84.7475 78.7467 85.0137ZM154.146 85.1018C154.146 85.2681 154.396 85.4933 154.703 85.6025C155.009 85.7117 155.26 85.5755 155.26 85.3002C155.26 85.025 155.009 84.7995 154.703 84.7995C154.396 84.7995 154.146 84.9354 154.146 85.1018ZM85.0607 85.4419C85.0607 85.6186 85.3265 85.7631 85.6508 85.7631C85.975 85.7631 86.0859 85.6186 85.8964 85.4419C85.707 85.2652 85.4418 85.1207 85.3064 85.1207C85.171 85.1207 85.0607 85.2652 85.0607 85.4419ZM415.874 86.3233C414.13 86.9468 413.735 87.3791 414.125 88.2374C414.8 89.7275 418.532 89.8971 420.109 88.5095C420.851 87.8565 420.827 87.6827 419.868 86.7736C418.659 85.6266 418.023 85.555 415.874 86.3233ZM92.5821 86.4055C92.0679 86.8854 92.7832 87.3692 94.0078 87.3692C94.7176 87.3692 95.0892 87.1485 95.0892 86.7267C95.0892 86.0455 93.2245 85.8065 92.5821 86.4055ZM139.103 87.048C139.103 87.2246 139.464 87.3692 139.906 87.3692C140.348 87.3692 140.864 87.2246 141.053 87.048C141.242 86.8713 140.881 86.7267 140.25 86.7267C139.62 86.7267 139.103 86.8713 139.103 87.048ZM419.02 88.9476C418.559 89.2132 416.852 88.4709 416.665 87.9239C416.364 87.0432 418.463 87.1016 418.907 87.9865C419.127 88.4243 419.177 88.8567 419.02 88.9476ZM68.6101 87.7045C68.4124 87.8889 68.5494 88.247 68.9143 88.5008C69.7707 89.0953 71.797 88.5464 71.3306 87.8462C70.9668 87.2995 69.1461 87.2047 68.6101 87.7045ZM75.0323 88.0116C75.0323 88.1883 75.2679 88.3328 75.5565 88.3328C75.8451 88.3328 76.2357 88.1883 76.4251 88.0116C76.6145 87.8349 76.3783 87.6904 75.9008 87.6904C75.4234 87.6904 75.0323 87.8349 75.0323 88.0116ZM60.4085 88.2181C59.6787 88.9428 59.4151 91.5009 60.0475 91.7261C60.9066 92.0322 62.3485 90.9195 61.9223 90.279C61.7462 90.0143 61.7785 89.8997 61.9941 90.024C62.5045 90.3179 63.8488 89.2936 63.8717 88.5936C63.8834 88.2467 63.4884 88.0691 62.7752 88.0999C62.1624 88.1266 61.6571 88.2981 61.6526 88.4815C61.6476 88.6646 61.4286 88.6183 61.1651 88.3787C60.9016 88.1391 60.5612 88.0668 60.4085 88.2181ZM81.2895 88.3871C80.5574 88.8091 81.0159 89.6176 81.9881 89.6176C82.377 89.6176 82.9932 89.4108 83.357 89.1583C83.8841 88.7921 83.8022 88.6322 82.9536 88.3704C82.2177 88.1433 81.7034 88.1484 81.2895 88.3871ZM124.916 88.3148C124.718 88.4985 124.777 88.876 125.047 89.1535C125.469 89.5888 125.628 89.5949 126.198 89.1988C126.715 88.8397 126.686 88.6563 126.067 88.3598C125.53 88.1031 125.158 88.0884 124.916 88.3148ZM221.103 88.8085C220.239 89.3334 219.869 89.8913 219.988 90.4894C220.148 91.2899 220.411 91.3946 222.488 91.4816C224.498 91.5661 224.861 91.4803 225.203 90.8392C225.42 90.4326 226.068 89.8409 226.643 89.5248C227.218 89.2088 227.688 88.8066 227.688 88.6315C227.688 88.081 226.043 87.9204 225.083 88.3771C224.365 88.7189 224.113 88.7269 223.929 88.4131C223.57 87.7967 222.527 87.9425 221.103 88.8085ZM283.728 88.6238C282.328 89.5155 282.766 91.1678 284.612 91.9586C286.088 92.5911 286.118 92.5911 287.955 91.975C289.992 91.2915 290.67 89.8817 289.544 88.6688C288.722 87.7835 285.09 87.7556 283.728 88.6238ZM64.5625 89.1924C64.0098 89.3202 63.9937 89.4635 64.4918 89.8094C65.4138 90.4502 66.1181 90.367 66.1181 89.6176C66.1181 88.9659 65.854 88.8936 64.5625 89.1924ZM212.872 90.1036C212.442 91.091 213.445 91.8661 215.152 91.8661C217.187 91.8661 217.971 91.0637 216.877 90.1011C215.629 89.0035 213.351 89.0048 212.872 90.1036ZM111.246 90.0995C111.246 90.3645 111.622 90.5813 112.082 90.5813C112.542 90.5813 112.918 90.3645 112.918 90.0995C112.918 89.8345 112.542 89.6176 112.082 89.6176C111.622 89.6176 111.246 89.8345 111.246 90.0995ZM233.178 90.3012C230.864 90.7901 230.6 92.8567 232.71 93.9581C233.638 94.4425 233.849 94.4426 235.466 93.9604C236.429 93.6736 237.356 93.229 237.526 92.9727C237.958 92.3254 237.328 91.0457 236.283 90.4431C235.297 89.8743 235.215 89.8708 233.178 90.3012ZM67.8964 90.6053C68.0062 90.7952 68.3344 90.9507 68.6252 90.9507C68.916 90.9507 69.2442 90.7952 69.3539 90.6053C69.4637 90.4155 69.1361 90.2601 68.6252 90.2601C68.1143 90.2601 67.7867 90.4155 67.8964 90.6053ZM70.7729 90.7473C70.5986 91.0094 70.5986 91.438 70.7729 91.7001C71.1958 92.3351 72.8037 91.9577 72.8037 91.2237C72.8037 90.4897 71.1958 90.1123 70.7729 90.7473ZM97.0888 91.4627C96.2726 91.9333 96.9116 92.2198 98.5713 92.1273C99.5675 92.072 100.382 91.8982 100.382 91.7412C100.382 91.4142 97.5841 91.1774 97.0888 91.4627ZM52.2543 92.0679C52.2186 92.4437 51.8136 92.9309 51.3539 93.151C50.8943 93.371 50.5182 93.75 50.5182 93.9932C50.5182 94.5453 51.8587 94.5688 52.8699 94.0343C53.2877 93.8136 54.1201 93.4728 54.7201 93.2772C56.274 92.7706 56.4634 91.8661 55.016 91.8661C54.3808 91.8661 53.861 92.0107 53.861 92.1873C53.861 92.7321 52.8437 92.5416 52.5735 91.9464C52.3713 91.4999 52.3055 91.525 52.2543 92.0679ZM209.063 92.0495C208.013 92.6553 207.976 92.9001 208.857 93.4079C209.735 93.9142 211.533 93.9036 211.523 93.3919C211.509 92.6316 210.843 91.5449 210.392 91.5449C210.143 91.5449 209.545 91.772 209.063 92.0495ZM361.3 92.0383C359.622 92.5635 358.963 93.4057 359.523 94.3102C360.642 96.1186 363.648 96.595 365.761 95.2986C367.34 94.3292 367.293 93.4442 365.606 92.3948C364.056 91.4306 363.412 91.3772 361.3 92.0383ZM57.5755 92.7228C56.9342 93.0922 57.1693 93.4722 58.0396 93.4722C58.4992 93.4722 58.8753 93.2554 58.8753 92.9904C58.8753 92.4886 58.2162 92.3531 57.5755 92.7228ZM85.4413 92.7173C84.8479 93.0594 84.9944 94.1146 85.6351 94.1146C86.4592 94.1146 86.9778 93.1641 86.3511 92.8028C86.0602 92.6351 85.6507 92.5966 85.4413 92.7173ZM60.6409 93.5239C60.7422 93.937 61.2013 94.2752 61.661 94.2752C62.8694 94.2752 62.7028 93.0222 61.4766 92.886C60.6854 92.798 60.4977 92.9412 60.6409 93.5239ZM131.606 94.0924C131.429 94.2569 131.54 94.4821 131.851 94.5932C132.163 94.704 132.417 94.5694 132.417 94.2941C132.417 93.7298 132.083 93.6469 131.606 94.0924ZM205.217 94.65C204.606 95.0021 204.792 95.3188 205.731 95.5266C207.027 95.8135 207.81 95.4293 207.033 94.889C206.317 94.3918 205.786 94.3218 205.217 94.65ZM47.4868 95.0477C47.2824 95.2385 47.342 95.6282 47.6194 95.914C48.0752 96.3833 48.1604 96.3785 48.5036 95.8626C48.9387 95.2086 48.0651 94.5081 47.4868 95.0477ZM72.8037 95.2388C72.8037 95.6011 73.1948 95.7331 74.0573 95.6628C74.747 95.6063 75.3108 95.4155 75.3108 95.2388C75.3108 95.0622 74.747 94.8714 74.0573 94.8148C73.1948 94.7445 72.8037 94.8765 72.8037 95.2388ZM45.2215 95.5398C45.0705 95.8157 44.8287 96.26 44.6839 96.5266C44.539 96.7932 44.2259 96.974 43.9874 96.9281C43.5339 96.841 43.2754 97.1032 43.2754 97.6505C43.2754 97.8435 43.7217 97.814 44.3797 97.5769C45.6873 97.106 46.8071 95.5048 46.0238 95.2256C45.7335 95.1222 45.3725 95.2636 45.2215 95.5398ZM117.194 95.8494C117.014 96.1205 117.089 96.4218 117.361 96.5185C118.089 96.7781 118.707 96.0389 118.069 95.6712C117.712 95.4656 117.409 95.5273 117.194 95.8494ZM50.3104 96.2121C49.9003 96.8279 52.2543 97.5056 53.6861 97.1844C54.6187 96.9753 54.5948 96.9098 53.3813 96.3393C51.7957 95.5934 50.7511 95.5501 50.3104 96.2121ZM248.667 96.3081C247.427 97.098 247.504 98.1516 248.859 98.9327C250.283 99.7534 251.674 99.7467 253.52 98.9093C255.29 98.1066 255.348 97.6768 253.833 96.567C252.459 95.56 250.032 95.4383 248.667 96.3081ZM191.892 96.5844C190.827 96.745 190.603 97.8342 191.474 98.6115C191.771 98.8765 192.018 98.9671 192.023 98.8133C192.027 98.6591 192.378 98.6989 192.803 98.9019C193.419 99.1971 193.647 99.1027 193.939 98.4323C194.32 97.5573 193.904 96.3361 193.247 96.4003C193.038 96.4209 192.428 96.5037 191.892 96.5844ZM195.374 97.4635C195.374 98.3944 195.615 98.6343 196.71 98.7927C197.445 98.899 198.636 98.9379 199.356 98.8791C200.447 98.7901 200.667 98.5836 200.667 97.6479C200.667 96.5346 200.641 96.5227 198.02 96.4257L195.374 96.3277V97.4635ZM62.4298 97.1507C62.2593 97.4073 62.2816 97.7687 62.48 97.9537C63.129 98.5592 63.8895 98.3073 63.8895 97.4873C63.8895 96.6165 62.9324 96.3958 62.4298 97.1507ZM102.975 97.1462C103.081 97.4407 103.418 97.6742 103.725 97.6649C104.552 97.6395 104.4 96.921 103.532 96.7543C103.064 96.6644 102.855 96.8111 102.975 97.1462ZM40.4897 98.4509C40.4897 98.7159 40.7405 98.9327 41.0469 98.9327C41.3533 98.9327 41.604 98.7159 41.604 98.4509C41.604 98.1859 41.3533 97.9691 41.0469 97.9691C40.7405 97.9691 40.4897 98.1859 40.4897 98.4509ZM89.3167 98.192C88.6894 98.5537 88.9351 98.9327 89.7964 98.9327C90.256 98.9327 90.6321 98.7969 90.6321 98.6305C90.6321 98.2254 89.7619 97.9354 89.3167 98.192ZM205.156 98.6832C203.88 99.7326 204.095 100.726 205.76 101.481C206.952 102.021 207.401 102.074 208.127 101.761C210.684 100.656 211.022 99.7496 209.281 98.6722C207.827 97.7725 206.257 97.7767 205.156 98.6832ZM313.841 98.635C312.026 99.4576 311.913 100.758 313.551 101.958C314.542 102.685 315.007 102.788 316.476 102.607C319.015 102.294 319.616 101.894 319.616 100.512C319.616 99.6571 319.242 99.0779 318.396 98.624C316.851 97.794 315.689 97.7966 313.841 98.635ZM187.574 98.733C187.574 98.9761 187.969 99.3645 188.452 99.5954C189.177 99.9423 189.411 99.9401 189.794 99.5835C190.048 99.3461 190.127 98.9578 189.97 98.721C189.593 98.1538 187.574 98.1638 187.574 98.733ZM37.4255 98.9327C37.2361 99.1094 37.4572 99.254 37.9169 99.254C38.3765 99.254 38.9075 99.1094 39.0969 98.9327C39.2863 98.7561 39.0651 98.6115 38.6055 98.6115C38.1459 98.6115 37.6149 98.7561 37.4255 98.9327ZM42.7183 99.5986C42.7183 100.422 44.5624 100.328 44.8421 99.4913C44.9708 99.1059 44.6705 98.9327 43.8732 98.9327C43.076 98.9327 42.7183 99.139 42.7183 99.5986ZM52.3111 99.9459C52.4481 100.184 53.0075 100.428 53.5535 100.489C54.1886 100.56 54.4566 100.444 54.2967 100.168C54.1597 99.9301 53.6003 99.686 53.0543 99.6247C52.4192 99.554 52.1512 99.6696 52.3111 99.9459ZM76.7666 100.013C76.2686 100.359 76.258 100.54 76.7254 100.707C77.589 101.015 78.433 100.47 77.8848 99.9587C77.5299 99.6275 77.3065 99.6384 76.7666 100.013ZM36.041 100.137C36.046 100.27 36.2928 100.595 36.5898 100.86C37.0266 101.25 37.1313 101.203 37.1386 100.619C37.143 100.222 36.8962 99.8964 36.5898 99.8964C36.2833 99.8964 36.0365 100.005 36.041 100.137ZM185.717 100.753C185.076 101.122 185.311 101.502 186.181 101.502C186.641 101.502 187.017 101.286 187.017 101.021C187.017 100.519 186.358 100.383 185.717 100.753ZM64.5453 102.038C64.816 102.844 66.1181 102.954 66.1181 102.172C66.1181 101.777 65.7582 101.502 65.2417 101.502C64.7224 101.502 64.4383 101.721 64.5453 102.038ZM42.9345 102.524C42.7467 102.7 42.8548 102.994 43.1751 103.179C43.8175 103.549 45.504 103.3 45.504 102.835C45.504 102.409 43.3389 102.147 42.9345 102.524ZM34.9184 102.787C34.9184 102.964 35.2944 103.108 35.7541 103.108C36.2137 103.108 36.5898 102.964 36.5898 102.787C36.5898 102.611 36.2137 102.466 35.7541 102.466C35.2944 102.466 34.9184 102.611 34.9184 102.787ZM29.1615 103.323C28.957 103.44 28.7899 103.686 28.7899 103.869C28.7899 104.07 29.0495 104.051 29.4489 103.821C29.8116 103.612 29.9788 103.366 29.8206 103.275C29.6623 103.183 29.3654 103.205 29.1615 103.323ZM92.8607 103.732C92.8607 103.898 93.1114 104.123 93.4178 104.233C93.7242 104.342 93.9749 104.206 93.9749 103.93C93.9749 103.655 93.7242 103.43 93.4178 103.43C93.1114 103.43 92.8607 103.566 92.8607 103.732ZM169.421 104.522C167.17 105.648 167.04 106.341 169.204 105.673C169.916 105.454 171.279 105.379 172.456 105.496C177.033 105.951 177.267 105.92 177.267 104.875C177.267 104.008 177.091 103.912 175.505 103.912C174.535 103.912 173.553 103.803 173.322 103.671C172.542 103.223 171.61 103.426 169.421 104.522ZM217.771 103.815C216.936 104.296 216.905 105.828 217.711 106.697C218.195 107.219 218.668 107.312 220.026 107.156C222.358 106.887 223.231 106.4 223.231 105.368C223.231 103.815 219.574 102.775 217.771 103.815ZM53.6521 104.007C53.2114 104.418 54.2332 105.139 54.9129 104.897C55.8077 104.579 55.6751 103.751 54.7296 103.751C54.2878 103.751 53.8031 103.866 53.6521 104.007ZM272.538 105.098C271.012 105.597 270.606 106.007 270.596 107.059C270.585 108.189 272.945 109.537 274.52 109.299C276.178 109.05 277.773 107.718 277.421 106.879C277.068 106.037 275.115 104.71 274.251 104.724C273.921 104.73 273.15 104.898 272.538 105.098ZM79.4894 105.357C79.4894 105.534 79.8805 105.678 80.3579 105.678C80.8354 105.678 81.0716 105.534 80.8822 105.357C80.6928 105.18 80.3022 105.036 80.0136 105.036C79.725 105.036 79.4894 105.18 79.4894 105.357ZM34.7479 105.883C34.3027 106.14 34.8058 106.642 35.5084 106.642C35.797 106.642 36.0326 106.425 36.0326 106.16C36.0326 105.663 35.3752 105.522 34.7479 105.883ZM179.886 106.064C178.071 107.11 180.486 109.53 182.671 108.856C183.843 108.494 184.784 107.339 184.392 106.745C184.255 106.536 183.373 106.211 182.432 106.022C180.37 105.607 180.686 105.602 179.886 106.064ZM27.6756 106.321C27.6756 106.497 27.9263 106.642 28.2327 106.642C28.5391 106.642 28.7899 106.497 28.7899 106.321C28.7899 106.144 28.5391 105.999 28.2327 105.999C27.9263 105.999 27.6756 106.144 27.6756 106.321ZM43.8326 106.508C43.8326 106.788 44.1301 106.959 44.4944 106.889C45.5274 106.691 45.6984 105.999 44.7145 105.999C44.2298 105.999 43.8326 106.228 43.8326 106.508ZM66.9538 106.321C66.7315 106.528 66.8 106.842 67.1064 107.019C67.478 107.233 67.7984 107.215 68.068 106.963C68.2903 106.755 68.2218 106.441 67.9154 106.265C67.5438 106.05 67.2234 106.069 66.9538 106.321ZM55.5324 108.749C55.5324 109.024 55.7832 109.16 56.0896 109.051C56.396 108.942 56.6467 108.717 56.6467 108.55C56.6467 108.384 56.396 108.248 56.0896 108.248C55.7832 108.248 55.5324 108.473 55.5324 108.749ZM26.5613 109.211C26.5613 109.388 26.797 109.533 27.0856 109.533C27.3742 109.533 27.7647 109.388 27.9541 109.211C28.1436 109.035 27.9073 108.89 27.4299 108.89C26.9524 108.89 26.5613 109.035 26.5613 109.211ZM34.6938 109.483C34.5011 109.662 34.6147 109.906 34.9462 110.024C35.8031 110.33 36.3558 109.912 35.6404 109.499C35.2404 109.269 34.9289 109.263 34.6938 109.483ZM150.037 109.468C149.647 109.831 150.196 110.205 152.906 111.421C154.852 112.294 155.437 112.418 156.109 112.096C157.612 111.377 157.046 110.586 154.527 109.882C152.002 109.178 150.497 109.039 150.037 109.468ZM82.5999 109.811C82.3597 110.035 82.314 110.305 82.4979 110.411C82.9965 110.698 83.5403 110.275 83.2707 109.81C83.0823 109.483 82.9509 109.483 82.5999 109.811ZM44.3897 110.818C44.3897 110.994 44.6404 111.139 44.9468 111.139C45.2533 111.139 45.504 110.994 45.504 110.818C45.504 110.641 45.2533 110.496 44.9468 110.496C44.6404 110.496 44.3897 110.641 44.3897 110.818ZM68.9038 111.158C68.9038 111.345 69.1545 111.409 69.4609 111.299C69.7673 111.19 70.018 111.037 70.018 110.959C70.018 110.881 69.7673 110.818 69.4609 110.818C69.1545 110.818 68.9038 110.971 68.9038 111.158ZM189.564 111.643C188.238 112.408 188.48 113.615 190.081 114.22C191.371 114.707 191.577 114.707 192.867 114.22C194.832 113.477 194.812 111.886 192.831 111.452C190.92 111.033 190.589 111.053 189.564 111.643ZM26.4571 112.322C26.8588 112.415 27.3396 112.403 27.5246 112.296C27.7096 112.19 27.3809 112.114 26.7936 112.128C26.1446 112.143 26.0125 112.219 26.4571 112.322ZM55.5324 112.745C55.5324 112.921 56.0489 113.066 56.6796 113.066C57.3103 113.066 57.6719 112.921 57.4824 112.745C57.293 112.568 56.7771 112.424 56.3353 112.424C55.8935 112.424 55.5324 112.568 55.5324 112.745ZM235.186 113.202C234.385 113.907 234.383 114.072 235.161 114.94C236.233 116.135 237.032 116.308 238.93 115.756C240.881 115.188 241.391 114.209 240.257 113.211C239.039 112.139 236.399 112.135 235.186 113.202ZM34.3612 113.066C34.3612 113.243 34.7373 113.387 35.1969 113.387C35.6566 113.387 36.0326 113.243 36.0326 113.066C36.0326 112.889 35.6566 112.745 35.1969 112.745C34.7373 112.745 34.3612 112.889 34.3612 113.066ZM157.84 113.662C156.773 114.342 157.124 115.205 158.576 115.47C160.771 115.872 162.419 114.818 161.367 113.685C160.639 112.901 159.051 112.891 157.84 113.662ZM132.975 114.312C132.975 115.237 134.147 116.137 134.837 115.74C135.438 115.393 135.253 114.187 134.535 113.773C133.461 113.154 132.975 113.322 132.975 114.312ZM351.344 114.046C350.071 114.78 350.269 115.642 351.929 116.599C352.896 117.156 352.996 117.155 354.679 116.565C357.047 115.735 357.338 115.116 355.803 114.174C354.239 113.214 352.856 113.175 351.344 114.046ZM44.3897 114.511C44.3897 114.776 44.6404 114.993 44.9468 114.993C45.2533 114.993 45.504 114.776 45.504 114.511C45.504 114.246 45.2533 114.03 44.9468 114.03C44.6404 114.03 44.3897 114.246 44.3897 114.511ZM55.9041 115.85C55.2628 116.219 55.4979 116.599 56.3682 116.599C56.8278 116.599 57.2039 116.382 57.2039 116.117C57.2039 115.616 56.5448 115.48 55.9041 115.85ZM33.247 116.278C34.3272 116.681 34.9184 116.681 34.9184 116.278C34.9184 116.101 34.3545 115.959 33.6648 115.962C32.6514 115.966 32.5711 116.026 33.247 116.278ZM134.46 116.492C133.779 116.885 134.078 117.902 134.932 118.091C136.025 118.333 137.432 117.652 137.432 116.881C137.432 116.463 137.032 116.278 136.132 116.278C135.416 116.278 134.664 116.374 134.46 116.492ZM115.982 118.205C115.577 119.902 115.768 120.346 116.754 119.995C117.335 119.788 117.294 117.088 116.704 116.748C116.523 116.644 116.198 117.3 115.982 118.205ZM84.225 117.242C84.0356 117.418 84.1465 117.563 84.4707 117.563C84.795 117.563 85.0607 117.418 85.0607 117.242C85.0607 117.065 84.9504 116.921 84.815 116.921C84.6797 116.921 84.4145 117.065 84.225 117.242ZM43.164 117.948C43.6838 118.248 43.9813 118.248 44.5011 117.948C45.0209 117.649 44.8727 117.563 43.8326 117.563C42.7924 117.563 42.6442 117.649 43.164 117.948ZM68.9038 118.366C68.9038 118.631 69.1545 118.848 69.4609 118.848C69.7673 118.848 70.018 118.631 70.018 118.366C70.018 118.101 69.7673 117.884 69.4609 117.884C69.1545 117.884 68.9038 118.101 68.9038 118.366ZM165.149 118.873C163.046 119.58 164.575 121.693 166.883 121.271C168.767 120.926 169.435 120.219 168.725 119.32C168.066 118.486 166.782 118.325 165.149 118.873ZM302.45 119.181C301.001 119.959 300.9 120.828 302.13 121.911C303.174 122.829 304.001 122.89 306.272 122.212C308.461 121.56 308.543 120.143 306.448 119.192C304.614 118.361 303.981 118.359 302.45 119.181ZM31.5755 119.169C31.5755 119.346 31.8263 119.49 32.1327 119.49C32.4391 119.49 32.6898 119.346 32.6898 119.169C32.6898 118.992 32.4391 118.848 32.1327 118.848C31.8263 118.848 31.5755 118.992 31.5755 119.169ZM54.5396 119.218C54.8288 119.719 56.0751 119.806 56.1191 119.33C56.1353 119.153 55.7302 118.959 55.2193 118.897C54.6382 118.828 54.3836 118.948 54.5396 119.218ZM83.3893 119.811C83.3893 119.988 83.7804 120.133 84.2579 120.133C84.7354 120.133 84.9716 119.988 84.7822 119.811C84.5927 119.635 84.2022 119.49 83.9136 119.49C83.625 119.49 83.3893 119.635 83.3893 119.811ZM98.4476 119.799C97.7451 120.055 97.7652 120.128 98.5869 120.31C99.7296 120.563 101.218 120.287 101.218 119.821C101.218 119.411 99.5497 119.397 98.4476 119.799ZM203.855 119.99C202.259 120.635 202.293 121.344 203.976 122.542C205.283 123.472 205.383 123.488 206.898 123.014C208.784 122.422 209.315 120.828 207.9 120.012C206.761 119.356 205.444 119.349 203.855 119.99ZM136.875 120.122C135.666 120.576 136.857 121.55 138.782 121.682C140.152 121.776 140.282 121.698 140.119 120.879C139.925 119.902 138.404 119.547 136.875 120.122ZM41.0469 120.454C41.0469 120.63 41.5633 120.775 42.194 120.775C42.8247 120.775 43.1863 120.63 42.9969 120.454C42.8074 120.277 42.2915 120.133 41.8497 120.133C41.4079 120.133 41.0469 120.277 41.0469 120.454ZM67.8964 121.12C68.0062 121.31 68.3344 121.466 68.6252 121.466C68.916 121.466 69.2442 121.31 69.3539 121.12C69.4637 120.93 69.1361 120.775 68.6252 120.775C68.1143 120.775 67.7867 120.93 67.8964 121.12ZM28.7899 121.899C28.7899 122.164 29.0406 122.381 29.347 122.381C29.6534 122.381 29.9041 122.164 29.9041 121.899C29.9041 121.634 29.6534 121.417 29.347 121.417C29.0406 121.417 28.7899 121.634 28.7899 121.899ZM116.859 121.718C115.223 121.959 114.763 122.549 115.999 122.822C117.553 123.166 120.003 122.072 118.628 121.648C118.398 121.577 117.602 121.608 116.859 121.718ZM53.0253 122.06C52.803 122.267 52.8716 122.582 53.178 122.758C53.5496 122.972 53.87 122.954 54.1396 122.702C54.3619 122.495 54.2934 122.181 53.987 122.004C53.6153 121.79 53.295 121.808 53.0253 122.06ZM82.0511 122.296C81.4533 122.641 81.7001 123.024 82.5207 123.024C82.9626 123.024 83.4623 122.894 83.6317 122.736C83.986 122.405 82.5531 122.007 82.0511 122.296ZM97.5128 122.552C97.1178 123.145 98.1317 123.653 99.7246 123.661C100.459 123.665 100.689 123.467 100.56 122.943C100.339 122.047 98.0448 121.752 97.5128 122.552ZM39.1142 122.796C38.8757 123.113 38.8373 123.463 39.0278 123.573C39.5939 123.899 40.0502 123.441 39.7894 122.808C39.5588 122.246 39.5287 122.246 39.1142 122.796ZM17.09 123.345C17.09 123.521 17.3407 123.666 17.6471 123.666C17.9535 123.666 18.2042 123.521 18.2042 123.345C18.2042 123.168 17.9535 123.024 17.6471 123.024C17.3407 123.024 17.09 123.168 17.09 123.345ZM65.8373 123.668C65.6462 123.846 65.893 124.081 66.3855 124.19C67.4518 124.426 68.0463 124.166 67.5337 123.687C67.0713 123.256 66.2885 123.247 65.8373 123.668ZM25.2615 123.88C24.6202 124.25 24.8553 124.63 25.7256 124.63C26.1852 124.63 26.5613 124.413 26.5613 124.148C26.5613 123.646 25.9022 123.51 25.2615 123.88ZM5.94721 124.951C5.94721 125.127 6.21297 125.272 6.53722 125.272C6.86148 125.272 6.97235 125.127 6.78292 124.951C6.59349 124.774 6.3283 124.63 6.19291 124.63C6.05753 124.63 5.94721 124.774 5.94721 124.951ZM50.7104 125.125C50.5288 125.398 50.5204 125.701 50.6909 125.8C51.179 126.081 52.1896 125.604 52.1896 125.092C52.1896 124.476 51.1266 124.5 50.7104 125.125ZM80.9869 125.158C80.198 125.613 80.6443 126.236 81.7586 126.236C82.5375 126.236 82.855 126.061 82.7336 125.7C82.5347 125.109 81.5836 124.814 80.9869 125.158ZM258.679 125.438C257.263 126.255 257.509 127.786 259.125 128.21C262.23 129.026 265.146 127.636 263.784 125.989C262.905 124.925 260.094 124.622 258.679 125.438ZM12.6329 125.593C12.6329 125.77 12.8836 125.914 13.19 125.914C13.4964 125.914 13.7471 125.77 13.7471 125.593C13.7471 125.417 13.4964 125.272 13.19 125.272C12.8836 125.272 12.6329 125.417 12.6329 125.593ZM97.3178 126.198C97.3178 126.549 97.8264 126.88 98.529 126.986C100.066 127.218 100.661 127.003 100.661 126.217C100.661 125.738 100.272 125.593 98.9892 125.593C97.7239 125.593 97.3178 125.74 97.3178 126.198ZM118.034 126.477C118.161 127.112 118.524 127.36 119.325 127.36C120.126 127.36 120.489 127.112 120.615 126.477C120.768 125.711 120.596 125.593 119.325 125.593C118.053 125.593 117.881 125.711 118.034 126.477ZM142.831 125.818C142.115 125.925 141.874 126.216 141.996 126.825C142.137 127.531 142.485 127.699 143.978 127.782C145.559 127.87 145.789 127.786 145.789 127.123C145.789 126.413 144.834 125.547 144.145 125.63C143.977 125.651 143.385 125.736 142.831 125.818ZM35.4911 126.223C34.7852 126.481 34.8008 126.551 35.6036 126.729C36.626 126.955 37.704 126.692 37.704 126.217C37.704 125.832 36.5547 125.835 35.4911 126.223ZM0.932977 126.557C0.430996 126.744 0.361912 126.87 0.760823 126.873C1.12575 126.876 1.57926 126.733 1.76868 126.557C2.19601 126.158 2.00324 126.158 0.932977 126.557ZM64.4467 127.36C64.4467 127.867 64.7614 128.163 65.2996 128.163C66.4641 128.163 67.0206 127.201 66.0601 126.85C64.8066 126.393 64.4467 126.506 64.4467 127.36ZM21.4356 127.263C21.9554 127.563 22.253 127.563 22.7728 127.263C23.2926 126.964 23.1444 126.878 22.1042 126.878C21.064 126.878 20.9158 126.964 21.4356 127.263ZM174.895 127.25C174.015 127.757 174.003 128.883 174.871 129.383C175.239 129.595 176.237 129.769 177.089 129.769C180.028 129.769 179.878 127.152 176.928 126.945C176.191 126.893 175.276 127.03 174.895 127.25ZM48.3782 128.583C47.6211 129.109 48.0746 129.448 49.5377 129.448C50.2296 129.448 50.5372 129.261 50.4196 128.912C50.18 128.199 49.166 128.036 48.3782 128.583ZM79.861 129.02C79.2593 129.366 79.4314 129.687 80.3251 129.885C81.4711 130.139 82.8322 129.795 82.8322 129.253C82.8322 128.799 80.5546 128.62 79.861 129.02ZM32.8291 130.17C32.9567 130.391 33.3957 130.572 33.8041 130.572C34.2125 130.572 34.6515 130.391 34.7791 130.17C34.9172 129.931 34.5222 129.769 33.8041 129.769C33.0859 129.769 32.6909 129.931 32.8291 130.17ZM100.103 130.957C100.103 131.382 99.9547 131.418 99.4349 131.118C98.4526 130.552 97.8749 130.647 97.8749 131.375C97.8749 131.728 98.1886 132.019 98.5713 132.022C98.9546 132.024 99.8316 132.113 100.521 132.22C101.625 132.39 101.775 132.294 101.775 131.413C101.775 130.737 101.503 130.411 100.939 130.411C100.48 130.411 100.103 130.657 100.103 130.957ZM17.3685 131.054C17.558 131.23 18.1992 131.375 18.7942 131.375C19.3893 131.375 19.8757 131.23 19.8757 131.054C19.8757 130.877 19.2338 130.733 18.4499 130.733C17.6415 130.733 17.173 130.872 17.3685 131.054ZM63.6656 131.29C63.4823 131.396 63.3324 131.758 63.3324 132.094C63.3324 132.849 65.1854 132.743 65.4428 131.974C65.6177 131.45 64.2801 130.936 63.6656 131.29ZM222.669 131.483C220.698 132.059 220.118 132.792 220.874 133.75C222.154 135.371 226.574 134.968 226.574 133.231C226.574 131.701 224.737 130.878 222.669 131.483ZM121.617 132.187C120.508 132.827 121.062 133.623 122.616 133.623C124.555 133.623 125.34 132.976 124.245 132.279C123.13 131.569 122.715 131.554 121.617 132.187ZM46.8857 133.634C46.6695 133.835 46.7548 134.152 47.0751 134.337C47.8239 134.768 49.5694 134.392 49.2647 133.864C48.9549 133.327 47.3782 133.174 46.8857 133.634ZM80.9413 134.775C80.573 135.328 81.451 136.193 82.3803 136.193C83.1141 136.193 82.6951 134.503 81.9257 134.357C81.5803 134.292 81.1374 134.48 80.9413 134.775ZM149.525 134.914C149.251 135.516 150.355 136.514 151.293 136.514C152.514 136.514 153.7 135.617 153.341 134.964C152.819 134.015 149.949 133.977 149.525 134.914ZM31.385 134.804C30.6223 135.244 31.0619 135.872 32.1327 135.872C32.7455 135.872 33.247 135.745 33.247 135.59C33.247 135.169 31.8068 134.561 31.385 134.804ZM15.4186 136.193C15.4186 136.37 15.7946 136.514 16.2543 136.514C16.7139 136.514 17.09 136.37 17.09 136.193C17.09 136.016 16.7139 135.872 16.2543 135.872C15.7946 135.872 15.4186 136.016 15.4186 136.193ZM0.0972709 137.157C-0.0921558 137.333 0.00367393 137.478 0.3101 137.478C0.616525 137.478 1.02212 137.333 1.21155 137.157C1.40097 136.98 1.30514 136.836 0.998717 136.836C0.692292 136.836 0.286698 136.98 0.0972709 137.157ZM340.926 137.38C340.237 137.459 339.673 137.726 339.673 137.975C339.673 138.301 340.298 138.407 341.912 138.354C343.551 138.301 344.11 138.153 343.995 137.803C343.825 137.285 342.894 137.157 340.926 137.38ZM102.471 137.691C101.559 137.903 101.583 138.592 102.517 139.039C103.066 139.302 103.532 139.279 104.306 138.953C105.196 138.578 105.242 138.433 104.611 137.994C103.834 137.455 103.617 137.424 102.471 137.691ZM63.7229 138.002C62.8477 138.507 63.4042 139.084 64.7659 139.084C65.8278 139.084 66.1515 138.939 66.0133 138.525C65.8178 137.941 64.3937 137.615 63.7229 138.002ZM187.873 139.046C187.4 139.907 188.677 141.011 190.147 141.011C191.69 141.011 192.721 140.277 192.492 139.343C192.345 138.746 191.914 138.583 190.268 138.504C188.632 138.426 188.156 138.533 187.873 139.046ZM46.8054 140.23C46.3664 140.89 47.2478 141.383 48.2362 141.03C49.078 140.73 48.6902 139.726 47.7325 139.726C47.4066 139.726 46.9899 139.953 46.8054 140.23ZM127.201 140.779C126.603 141.031 126.367 141.397 126.589 141.73C126.993 142.338 128.77 142.764 129.627 142.459C130.512 142.143 130.282 140.779 129.307 140.564C128.187 140.316 128.335 140.301 127.201 140.779ZM288.277 141.576C287.434 141.877 286.746 142.199 286.747 142.29C286.749 142.382 287.345 142.886 288.072 143.409C289.278 144.278 289.525 144.328 290.871 143.974C292.82 143.462 293.197 142.79 292.086 141.812C291.02 140.874 290.356 140.833 288.277 141.576ZM29.9041 142.262C29.9041 142.636 31.5315 142.992 32.1828 142.76C33.165 142.41 32.6737 141.975 31.297 141.975C30.5309 141.975 29.9041 142.104 29.9041 142.262ZM82.8322 142.744C82.8322 143.71 84.2991 144.08 85.0262 143.297C85.3922 142.903 85.3588 142.596 84.9231 142.345C83.8584 141.731 82.8322 141.927 82.8322 142.744ZM14.3043 143.581C14.3043 143.758 14.6803 143.902 15.14 143.902C15.5996 143.902 15.9757 143.758 15.9757 143.581C15.9757 143.404 15.5996 143.26 15.14 143.26C14.6803 143.26 14.3043 143.404 14.3043 143.581ZM160.351 145.064C159.568 145.38 159.161 145.83 159.268 146.262C159.406 146.82 159.817 146.954 161.389 146.954C162.931 146.954 163.373 146.816 163.502 146.294C163.593 145.93 163.202 145.391 162.635 145.095C161.692 144.603 161.497 144.601 160.351 145.064ZM65.0979 146.524C65.1993 146.937 65.6584 147.275 66.1181 147.275C67.3265 147.275 67.1599 146.022 65.9337 145.886C65.1425 145.798 64.9548 145.941 65.0979 146.524ZM106.314 146.753C105.718 146.974 105.697 147.18 106.212 147.735C107.079 148.669 108.739 148.472 108.739 147.435C108.739 146.596 107.6 146.275 106.314 146.753ZM243.94 146.745C243.521 146.902 243.278 147.427 243.382 147.952C243.545 148.773 243.786 148.881 245.456 148.881C247.718 148.881 248.919 148.074 247.964 147.195C247.281 146.566 245.072 146.319 243.94 146.745ZM47.562 148.926C46.9809 149.261 47.7169 149.684 48.8797 149.684C49.4747 149.684 49.9611 149.467 49.9611 149.202C49.9611 148.726 48.2507 148.529 47.562 148.926ZM31.3744 151.192C30.7471 151.553 30.9928 151.932 31.8541 151.932C32.3137 151.932 32.6898 151.797 32.6898 151.63C32.6898 151.225 31.8196 150.935 31.3744 151.192ZM133.839 151.584C133.334 152.055 134.54 153.538 135.428 153.538C136.909 153.538 138.051 152.6 137.411 151.91C136.819 151.273 134.409 151.053 133.839 151.584ZM85.6179 152.054C85.6179 152.297 86.0045 152.681 86.477 152.907C87.5361 153.414 88.7217 152.874 88.2164 152.115C87.8035 151.494 85.6179 151.443 85.6179 152.054ZM205.415 152.246C204.183 152.956 204.425 153.707 206.046 154.208C208.473 154.956 210.524 153.689 209.024 152.369C207.973 151.445 206.871 151.407 205.415 152.246ZM14.8614 152.754C14.8614 153.03 15.116 153.164 15.4275 153.053C15.7389 152.942 15.8498 152.717 15.6732 152.553C15.1957 152.107 14.8614 152.19 14.8614 152.754ZM67.2323 156.41C67.2323 157.212 68.3265 157.607 68.9572 157.033C69.7701 156.293 69.5216 155.787 68.3466 155.787C67.6151 155.787 67.2323 156.001 67.2323 156.41ZM111.246 157.863C111.246 158.809 112.766 159.329 113.53 158.644C114.324 157.933 113.851 157.241 112.494 157.13C111.476 157.046 111.246 157.181 111.246 157.863ZM170.889 158.176C169.19 159.356 172.529 160.689 174.474 159.606C175.342 159.123 175.45 158.87 174.974 158.432C174.18 157.701 171.789 157.55 170.889 158.176ZM49.6597 159.663C49.1471 160.141 49.7416 160.401 50.8079 160.165C51.3004 160.056 51.5472 159.822 51.3561 159.644C50.9049 159.223 50.1221 159.231 49.6597 159.663ZM32.6898 162.211C32.6898 162.388 32.9405 162.532 33.247 162.532C33.5534 162.532 33.8041 162.388 33.8041 162.211C33.8041 162.034 33.5534 161.89 33.247 161.89C32.9405 161.89 32.6898 162.034 32.6898 162.211ZM89.3557 163.054C89.1384 163.179 88.9607 163.412 88.9607 163.571C88.9607 163.963 91.7497 163.74 91.9029 163.335C92.0467 162.957 89.9296 162.723 89.3557 163.054ZM15.4186 164.138C15.4186 164.315 15.6693 164.46 15.9757 164.46C16.2821 164.46 16.5328 164.315 16.5328 164.138C16.5328 163.962 16.2821 163.817 15.9757 163.817C15.6693 163.817 15.4186 163.962 15.4186 164.138ZM142.09 164.299C141.602 165.032 142.285 165.744 143.474 165.744C144.826 165.744 146.012 164.937 145.59 164.303C145.171 163.675 142.508 163.671 142.09 164.299ZM270.03 164.784C270.03 165.197 271.703 165.435 273.139 165.228C275.247 164.922 274.721 164.498 272.259 164.518C271.033 164.527 270.03 164.648 270.03 164.784ZM69.7372 167.674C69.5461 167.852 69.7929 168.087 70.2854 168.196C71.3518 168.431 71.9463 168.172 71.4337 167.693C70.9713 167.262 70.1885 167.253 69.7372 167.674ZM225.646 168.235C224.206 168.374 223.457 169.276 224.465 169.657C225.664 170.109 228.496 169.816 228.692 169.219C228.902 168.578 227.339 168.073 225.646 168.235ZM116.355 169.975C116.478 170.474 116.972 170.759 117.837 170.829C118.917 170.918 119.105 170.81 118.951 170.187C118.829 169.688 118.335 169.403 117.469 169.332C116.389 169.244 116.202 169.352 116.355 169.975ZM51.0753 171.526C51.0753 171.703 51.4514 171.847 51.9111 171.847C52.3707 171.847 52.7468 171.703 52.7468 171.526C52.7468 171.35 52.3707 171.205 51.9111 171.205C51.4514 171.205 51.0753 171.35 51.0753 171.526ZM183.824 173.048C183.362 173.744 185.548 174.847 186.9 174.599C188.24 174.354 188.951 173.476 188.172 173.028C187.285 172.516 184.169 172.531 183.824 173.048ZM92.5709 175.07C92.3548 175.272 92.44 175.588 92.7604 175.773C93.5092 176.204 95.2547 175.828 94.9499 175.3C94.6402 174.763 93.0635 174.611 92.5709 175.07ZM149.888 177.794C149.432 178.478 150.691 179.235 152.282 179.235C153.864 179.235 154.558 178.463 153.583 177.786C152.689 177.165 150.303 177.17 149.888 177.794ZM72.07 179.444C71.4766 179.786 71.6231 180.841 72.2639 180.841C73.0879 180.841 73.6065 179.891 72.9798 179.53C72.6889 179.362 72.2794 179.323 72.07 179.444ZM120.903 182.954C120.717 183.233 120.924 183.668 121.363 183.921C122.04 184.311 122.319 184.315 123.201 183.942C124.498 183.396 123.983 182.447 122.389 182.447C121.757 182.447 121.088 182.675 120.903 182.954ZM52.1896 184.375C52.1896 184.551 52.4403 184.696 52.7468 184.696C53.0532 184.696 53.3039 184.551 53.3039 184.375C53.3039 184.198 53.0532 184.053 52.7468 184.053C52.4403 184.053 52.1896 184.198 52.1896 184.375ZM249.695 187.587C249.505 187.763 249.742 187.908 250.219 187.908C250.697 187.908 251.088 187.763 251.088 187.587C251.088 187.41 250.852 187.266 250.563 187.266C250.275 187.266 249.884 187.41 249.695 187.587ZM247.188 187.908C247.188 188.085 247.423 188.229 247.712 188.229C248.001 188.229 248.391 188.085 248.581 187.908C248.77 187.731 248.534 187.587 248.056 187.587C247.579 187.587 247.188 187.731 247.188 187.908ZM94.5248 188.395C93.7064 188.963 94.2747 189.514 95.6792 189.514C96.3689 189.514 96.7606 189.294 96.7606 188.906C96.7606 188.129 95.3667 187.81 94.5248 188.395ZM199.328 190.279C198.833 190.623 198.891 190.769 199.584 190.922C200.869 191.206 202.211 191.158 203.174 190.794C203.917 190.513 203.917 190.443 203.174 190.161C201.969 189.705 200.07 189.764 199.328 190.279ZM71.8009 193.112C71.4332 193.324 71.1323 193.613 71.1323 193.754C71.1323 194.137 72.6806 194.065 73.1124 193.662C73.6862 193.127 72.5797 192.663 71.8009 193.112ZM157.752 193.704C157.213 194.207 158.568 194.975 159.996 194.975C161.423 194.975 162.779 194.207 162.239 193.704C162.042 193.519 161.032 193.369 159.996 193.369C158.959 193.369 157.95 193.519 157.752 193.704ZM50.7968 197.223C50.6074 197.4 50.7182 197.544 51.0425 197.544C51.3667 197.544 51.6325 197.4 51.6325 197.223C51.6325 197.046 51.5222 196.902 51.3868 196.902C51.2514 196.902 50.9862 197.046 50.7968 197.223ZM123.503 197.834C123.503 198.576 125.407 199.291 126.65 199.016C127.134 198.909 127.407 198.529 127.303 198.108C127.166 197.552 126.703 197.36 125.314 197.283C123.809 197.199 123.503 197.292 123.503 197.834ZM93.4022 201.891C92.7732 202.329 92.781 202.458 93.4535 202.708C94.6797 203.162 95.9249 202.907 95.9249 202.202C95.9249 201.398 94.385 201.209 93.4022 201.891ZM67.7895 206.515C67.7895 206.974 68.1472 207.181 68.9444 207.181C69.7417 207.181 70.042 207.007 69.9133 206.622C69.6336 205.785 67.7895 205.691 67.7895 206.515ZM44.9468 210.232C44.9468 210.527 45.2165 210.715 45.5458 210.652C45.875 210.589 46.1447 210.4 46.1447 210.232C46.1447 210.064 45.875 209.875 45.5458 209.812C45.2165 209.749 44.9468 209.938 44.9468 210.232ZM166.217 211.249C166.013 211.367 165.846 211.661 165.846 211.903C165.846 212.238 166.102 212.263 166.923 212.01C167.516 211.827 168.659 211.678 169.463 211.678C170.296 211.678 170.777 211.539 170.581 211.356C170.197 210.998 166.797 210.915 166.217 211.249ZM127.235 213.166C127.04 213.278 126.31 213.387 125.61 213.407C124.88 213.428 124.339 213.649 124.339 213.926C124.339 214.271 124.948 214.408 126.481 214.408C128.837 214.408 129.247 214.238 128.738 213.473C128.381 212.937 127.829 212.824 127.235 213.166ZM90.2143 216.099C88.5484 216.259 88.6181 217.062 90.3368 217.513C92.5319 218.09 94.6039 216.846 92.4428 216.249C91.9063 216.101 90.904 216.034 90.2143 216.099ZM59.6341 219.868C59.1271 220.63 60.1578 221.061 61.8866 220.811C63.8544 220.526 63.597 219.584 61.5139 219.445C60.4943 219.378 59.8664 219.519 59.6341 219.868ZM34.9184 223.562C34.9184 223.916 35.1384 224.205 35.4075 224.205C36.1379 224.205 37.1926 223.374 36.7708 223.131C36.0081 222.691 34.9184 222.945 34.9184 223.562ZM12.6329 226.793C12.6329 226.98 12.8836 227.044 13.19 226.935C13.4964 226.826 13.7471 226.673 13.7471 226.595C13.7471 226.517 13.4964 226.453 13.19 226.453C12.8836 226.453 12.6329 226.606 12.6329 226.793ZM50.5015 235.75C50.8207 236.094 51.3305 236.464 51.6353 236.572C52.4203 236.852 52.3256 235.975 51.5211 235.511C50.4809 234.912 49.8586 235.057 50.5015 235.75ZM47.1754 236.25C47.1754 236.515 47.5821 236.732 48.0791 236.732C48.8195 236.732 48.8579 236.645 48.2897 236.25C47.908 235.985 47.5013 235.768 47.386 235.768C47.2701 235.768 47.1754 235.985 47.1754 236.25ZM19.0399 238.338C18.8394 238.525 19.3948 238.659 20.367 238.659C21.2863 238.659 22.1933 238.515 22.3828 238.338C22.5833 238.151 22.0279 238.017 21.0557 238.017C20.1364 238.017 19.2294 238.161 19.0399 238.338Z" fill="url(#paint0_radial_2_2034)" fill-opacity="0.2"/>
<defs>
<radialGradient id="paint0_radial_2_2034" cx="0" cy="0" r="1" gradientTransform="matrix(-218.984 48.9205 -93.1543 -137.984 218.984 90.6345)" gradientUnits="userSpaceOnUse">
<stop stop-color="#474747"/>
<stop offset="1" stop-color="#D5D5D5" stop-opacity="0"/>
</radialGradient>
</defs>
</svg>
