<svg width="391" height="180" viewBox="0 0 391 180" fill="none" xmlns="http://www.w3.org/2000/svg">
<path fill-rule="evenodd" clip-rule="evenodd" d="M394.551 0.40646C394.361 0.630013 394.457 0.812921 394.763 0.812921C395.07 0.812921 395.475 0.630013 395.665 0.40646C395.854 0.182907 395.758 0 395.452 0C395.146 0 394.74 0.182907 394.551 0.40646ZM371.429 8.98033C371.429 9.18275 371.931 9.34859 372.544 9.34859C373.157 9.34859 373.658 9.27827 373.658 9.19292C373.658 9.10715 373.157 8.94132 372.544 8.82426C371.931 8.70761 371.429 8.77751 371.429 8.98033ZM403.744 10.4099C403.743 10.6728 404.326 10.7805 405.136 10.6675C406.945 10.4151 406.945 9.82375 405.137 9.89975C404.371 9.93187 403.744 10.1615 403.744 10.4099ZM383.582 10.8456C383.984 10.963 384.465 10.9484 384.65 10.8135C384.835 10.6785 384.506 10.5826 383.919 10.6001C383.27 10.6196 383.138 10.7159 383.582 10.8456ZM428.257 11.7873C428.257 12.0109 428.744 12.1938 429.339 12.1938C429.934 12.1938 430.575 12.0109 430.765 11.7873C430.96 11.5569 430.492 11.3809 429.683 11.3809C428.899 11.3809 428.257 11.5638 428.257 11.7873ZM364.744 13.4132C364.744 13.6367 365.009 13.8196 365.334 13.8196C365.658 13.8196 365.769 13.6367 365.579 13.4132C365.39 13.1896 365.125 13.0067 364.989 13.0067C364.854 13.0067 364.744 13.1896 364.744 13.4132ZM366.718 13.7916C366.541 13.9997 366.652 14.2846 366.963 14.4253C367.275 14.5655 367.529 14.3952 367.529 14.0469C367.529 13.3327 367.195 13.2279 366.718 13.7916ZM373.658 13.8436C373.658 14.0802 373.909 14.1611 374.215 14.0229C374.521 13.8847 374.772 13.6912 374.772 13.5924C374.772 13.4937 374.521 13.4132 374.215 13.4132C373.909 13.4132 373.658 13.6071 373.658 13.8436ZM358.615 15.852C358.615 16.0755 358.866 16.2584 359.172 16.2584C359.479 16.2584 359.73 16.0755 359.73 15.852C359.73 15.6284 359.479 15.4455 359.172 15.4455C358.866 15.4455 358.615 15.6284 358.615 15.852ZM350.815 17.8843C350.815 18.1078 351.332 18.2907 351.962 18.2907C352.593 18.2907 352.955 18.1078 352.765 17.8843C352.576 17.6607 352.06 17.4778 351.618 17.4778C351.176 17.4778 350.815 17.6607 350.815 17.8843ZM377.578 19.2894C376.96 19.8324 377.104 19.9166 378.65 19.9166C379.832 19.9166 380.358 19.7446 380.204 19.4085C379.857 18.6456 378.386 18.5789 377.578 19.2894ZM359.869 19.4207C358.563 19.5727 358.094 20.3275 359.312 20.3169C360.151 20.3092 361.754 19.6113 361.385 19.4146C361.24 19.3374 360.558 19.3402 359.869 19.4207ZM399.843 20.5262C399.843 20.9055 400.369 21.1359 401.236 21.1359C402.103 21.1359 402.629 20.9055 402.629 20.5262C402.629 20.147 402.103 19.9166 401.236 19.9166C400.369 19.9166 399.843 20.147 399.843 20.5262ZM425.661 22.1765C425.242 22.9719 425.745 23.3345 426.841 23.028C427.943 22.7195 427.944 22.1041 426.843 21.796C426.35 21.6578 425.848 21.8192 425.661 22.1765ZM344.13 22.3553C344.13 22.5789 344.646 22.7618 345.277 22.7618C345.907 22.7618 346.269 22.5789 346.08 22.3553C345.89 22.1318 345.374 21.9489 344.932 21.9489C344.491 21.9489 344.13 22.1318 344.13 22.3553ZM347.472 22.7618C347.472 22.9853 347.849 23.1682 348.308 23.1682C348.768 23.1682 349.144 22.9853 349.144 22.7618C349.144 22.5382 348.768 22.3553 348.308 22.3553C347.849 22.3553 347.472 22.5382 347.472 22.7618ZM339.673 24.1844C339.673 24.5571 339.942 24.7961 340.271 24.716C340.601 24.636 340.87 24.397 340.87 24.1844C340.87 23.9718 340.601 23.7328 340.271 23.6527C339.942 23.5727 339.673 23.8117 339.673 24.1844ZM454.164 24.3876C454.354 24.6112 454.619 24.7941 454.754 24.7941C454.89 24.7941 455 24.6112 455 24.3876C455 24.1641 454.734 23.9812 454.41 23.9812C454.086 23.9812 453.975 24.1641 454.164 24.3876ZM331.618 26.7983C331.441 27.0065 331.552 27.2914 331.864 27.432C332.528 27.7316 333.544 27.3511 333.544 26.8024C333.544 26.3077 332.036 26.3045 331.618 26.7983ZM354.576 27.9194C353.241 28.1738 353.343 28.8587 354.715 28.8587C355.328 28.8587 356.014 28.9042 356.24 28.9603C356.465 29.0164 356.734 28.7416 356.838 28.3506C357.023 27.6466 356.515 27.5499 354.576 27.9194ZM338.001 29.2651C338.001 29.7122 338.15 30.0781 338.331 30.0781C338.513 30.0781 339.299 29.7122 340.078 29.2651L341.494 28.4522H339.748C338.373 28.4522 338.001 28.625 338.001 29.2651ZM373.519 28.7323C372.094 29.0042 372.327 29.6318 374.03 30.1041C375.723 30.5736 376.81 29.874 375.786 28.9741C375.17 28.4319 375.122 28.427 373.519 28.7323ZM329.923 30.891C329.733 31.1145 329.844 31.2974 330.168 31.2974C330.493 31.2974 330.758 31.1145 330.758 30.891C330.758 30.6674 330.648 30.4845 330.513 30.4845C330.377 30.4845 330.112 30.6674 329.923 30.891ZM396.222 30.891C395.713 31.4921 396.419 32.1104 397.615 32.1104C398.978 32.1104 399.646 31.3068 398.661 30.852C397.635 30.3776 396.643 30.3939 396.222 30.891ZM324.63 31.2974C323.916 31.634 323.936 31.6925 324.769 31.6978C325.305 31.7011 325.926 31.7177 326.148 31.7344C326.37 31.7511 326.642 31.5682 326.751 31.3279C326.999 30.7861 325.752 30.7682 324.63 31.2974ZM421.26 32.1494C421.052 32.3945 421.226 32.8448 421.645 33.1509C422.611 33.8557 424.096 33.2578 423.62 32.3547C423.229 31.61 421.821 31.4877 421.26 32.1494ZM321.566 32.5168C321.755 32.7404 322.146 32.9233 322.434 32.9233C322.723 32.9233 322.958 32.7404 322.958 32.5168C322.958 32.2933 322.567 32.1104 322.09 32.1104C321.612 32.1104 321.376 32.2933 321.566 32.5168ZM449.429 32.9233C449.429 33.1468 449.805 33.3297 450.264 33.3297C450.724 33.3297 451.1 33.1468 451.1 32.9233C451.1 32.6997 450.724 32.5168 450.264 32.5168C449.805 32.5168 449.429 32.6997 449.429 32.9233ZM313.069 35.4637C313.197 35.7433 313.761 35.9717 314.323 35.9717C314.884 35.9717 315.449 35.7433 315.576 35.4637C315.723 35.1417 315.264 34.9556 314.323 34.9556C313.382 34.9556 312.922 35.1417 313.069 35.4637ZM333.126 36.8786C332.452 37.0501 332.108 38.6137 332.745 38.6137C333.428 38.6137 335.215 37.7525 335.215 37.4236C335.215 36.9676 334.01 36.6534 333.126 36.8786ZM317.658 37.8093C317.47 38.0313 317.709 38.3227 318.188 38.4568C319.209 38.743 321.061 38.3129 320.516 37.9162C319.883 37.4537 318.019 37.3842 317.658 37.8093ZM349.654 38.0455C349.159 38.4804 349.137 38.7714 349.576 39.0913C350.345 39.6526 351.93 39.2324 351.93 38.4666C351.93 37.6199 350.45 37.346 349.654 38.0455ZM313.209 38.6137C313.019 38.8373 313.255 39.0202 313.733 39.0202C314.21 39.0202 314.601 38.8373 314.601 38.6137C314.601 38.3902 314.366 38.2073 314.077 38.2073C313.788 38.2073 313.398 38.3902 313.209 38.6137ZM369.34 39.2893C368.341 39.5835 368.482 40.5139 369.572 40.8192C370.745 41.1472 371.682 40.4944 371.242 39.6571C370.898 39.0023 370.546 38.9344 369.34 39.2893ZM443.428 39.5031C443.772 40.2566 444.972 40.3814 444.972 39.6636C444.972 39.3096 444.575 39.0202 444.09 39.0202C443.604 39.0202 443.306 39.2372 443.428 39.5031ZM304.712 39.6872C303.241 40.1388 304.11 40.6895 306.105 40.5688C307.254 40.4997 308.139 40.2599 308.072 40.0363C307.936 39.5815 305.784 39.358 304.712 39.6872ZM390.472 41.1541C390.662 42.126 392.847 42.6609 393.797 41.9678C394.758 41.2667 393.657 40.2396 391.945 40.2396C390.552 40.2396 390.322 40.3822 390.472 41.1541ZM416.005 41.0423C415.369 41.3354 415.327 41.537 415.828 41.9024C416.615 42.4763 418.413 42.065 418.101 41.3825C417.797 40.7176 416.993 40.5871 416.005 41.0423ZM296.216 43.0848C296.216 43.3083 296.592 43.4913 297.052 43.4913C297.511 43.4913 297.887 43.3083 297.887 43.0848C297.887 42.8612 297.511 42.6783 297.052 42.6783C296.592 42.6783 296.216 42.8612 296.216 43.0848ZM434.664 43.4913C434.111 44.1448 434.901 44.7106 436.369 44.7106C437.357 44.7106 437.729 44.4887 437.729 43.8977C437.729 43.3067 437.357 43.0848 436.369 43.0848C435.621 43.0848 434.854 43.2677 434.664 43.4913ZM299.002 46.4922C299.002 47.1474 301.081 47.6542 301.541 47.1112C302.027 46.5381 301.276 45.93 300.083 45.93C299.488 45.93 299.002 46.1833 299.002 46.4922ZM311.816 46.5125C311.816 47.175 313.736 47.7428 314.624 47.3429C315.465 46.9628 314.178 45.93 312.862 45.93C312.286 45.93 311.816 46.1922 311.816 46.5125ZM424.53 46.595C424.118 47.3774 424.979 48.5241 426.1 48.6854C426.532 48.7476 427.352 48.5504 427.921 48.2468C428.781 47.7879 428.846 47.5457 428.308 46.8124C427.535 45.7577 425.046 45.6142 424.53 46.595ZM446.086 46.3365C446.086 46.56 446.352 46.7429 446.676 46.7429C447 46.7429 447.111 46.56 446.922 46.3365C446.732 46.1129 446.467 45.93 446.331 45.93C446.196 45.93 446.086 46.1129 446.086 46.3365ZM327.477 47.2985C326.995 47.7221 327.051 47.9794 327.711 48.379C328.775 49.0236 329.964 48.344 329.457 47.3799C329.044 46.5954 328.311 46.5653 327.477 47.2985ZM409.175 47.0474C407.958 47.2494 407.893 48.6025 409.086 48.9362C410.266 49.2666 410.986 48.8976 410.986 47.9623C410.986 47.0636 410.515 46.8255 409.175 47.0474ZM287.723 47.3839C287.159 47.7957 287.913 48.7752 288.795 48.7752C289.258 48.7752 289.534 48.4818 289.432 48.0977C289.238 47.3701 288.287 46.9726 287.723 47.3839ZM344.46 48.62C344.258 49.0037 344.335 49.4943 344.631 49.7101C345.436 50.2975 347.025 49.6942 346.811 48.883C346.56 47.9314 344.919 47.7481 344.46 48.62ZM413.633 48.8077C412.293 49.3768 412.393 51.3201 413.81 52.2554C414.862 52.95 415.092 52.963 416.452 52.4057C418.286 51.655 418.601 50.6722 417.427 49.365C416.479 48.3099 415.235 48.1269 413.633 48.8077ZM363.769 49.0723C362.904 49.2922 362.868 50.0897 363.697 50.6946C364.545 51.3132 365.858 50.888 365.858 49.9946C365.858 49.2126 364.892 48.7862 363.769 49.0723ZM384.252 49.2833C384.266 50.1414 385.199 50.927 385.853 50.6323C386.941 50.1417 386.576 48.7752 385.358 48.7752C384.745 48.7752 384.247 49.0041 384.252 49.2833ZM278.759 50.2657C278.053 50.7807 278.392 51.214 279.502 51.214C280.121 51.214 280.616 50.9429 280.616 50.6043C280.616 49.9857 279.438 49.7707 278.759 50.2657ZM398.527 52.2302C398.017 53.2008 398.773 54.1458 399.889 53.9328C400.739 53.7706 400.881 53.9828 400.808 55.3164C400.666 57.9072 404.151 59.0794 406.507 57.2341C407.897 56.146 407.926 55.5534 406.668 53.9865C405.825 52.9362 405.448 52.8004 403.883 52.9837C402.363 53.1614 402.072 53.0687 402.072 52.4078C402.072 51.8103 401.683 51.6205 400.46 51.6205C399.541 51.6205 398.71 51.8826 398.527 52.2302ZM216.545 52.4334C216.545 52.6569 216.796 52.8398 217.102 52.8398C217.409 52.8398 217.659 52.6569 217.659 52.4334C217.659 52.2098 217.409 52.0269 217.102 52.0269C216.796 52.0269 216.545 52.2098 216.545 52.4334ZM438.077 52.7577C437.606 53.3134 438.499 53.8511 440.097 53.973C441.86 54.1076 441.969 53.9588 440.753 53.0719C439.811 52.3846 438.522 52.233 438.077 52.7577ZM436.553 53.5511C436.341 54.5998 436.857 55.9306 437.645 56.3683C438.753 56.9833 440.514 57.063 440.514 56.498C440.514 56.2744 440.041 56.0915 439.462 56.0915C438.701 56.0915 438.309 55.6985 438.044 54.6689C437.725 53.4304 436.729 52.6829 436.553 53.5511ZM280.999 53.9153C280.234 54.4738 280.63 55.3363 281.591 55.2014C282.127 55.1258 282.566 54.8075 282.566 54.4941C282.566 53.8523 281.583 53.4894 280.999 53.9153ZM205.446 54.7027C205.473 55.1762 205.605 55.2725 205.783 54.9486C205.944 54.6551 205.924 54.3043 205.739 54.1694C205.554 54.0344 205.423 54.2742 205.446 54.7027ZM270.924 54.7055C270.737 55.0611 270.718 55.5103 270.882 55.7042C271.383 56.2956 272.816 55.6468 272.816 54.8286C272.816 53.8954 271.399 53.8031 270.924 54.7055ZM292.271 54.486C291.691 54.7474 291.652 54.9567 292.117 55.2961C292.847 55.8289 295.427 55.6656 295.282 55.0957C295.13 54.4962 293.141 54.0934 292.271 54.486ZM386.521 55.0323C386.141 55.3668 385.912 56.0618 386.011 56.5772C386.149 57.2877 386.597 57.5397 387.865 57.6202C390.392 57.78 391.284 57.1942 390.62 55.8106C389.989 54.4937 387.641 54.0479 386.521 55.0323ZM376.258 55.5497C376.054 55.6985 375.886 56.2439 375.886 56.7613C375.886 57.4255 375.478 57.7767 374.494 57.9568C373.413 58.1547 373.101 58.4734 373.101 59.3777C373.101 61.821 378.226 62.6103 379.024 60.2898C379.296 59.5009 379.122 59.0717 378.366 58.6689C377.569 58.2433 377.488 58.0121 378.006 57.6345C378.948 56.9471 378.833 55.8168 377.791 55.5253C376.7 55.2197 376.71 55.2197 376.258 55.5497ZM306.807 56.2899C306.248 56.7813 306.295 56.9443 307.055 57.1568C308.152 57.4641 309.323 56.7663 308.782 56.1269C308.267 55.5201 307.622 55.5733 306.807 56.2899ZM192.891 57.2829C192.714 57.491 192.825 57.7759 193.137 57.9165C193.448 58.0568 193.703 57.8864 193.703 57.5381C193.703 56.8239 193.368 56.7191 192.891 57.2829ZM262.788 57.4804C262.788 57.834 263.184 58.1238 263.67 58.1238C264.155 58.1238 264.453 57.9068 264.331 57.6414C263.987 56.8874 262.788 56.7626 262.788 57.4804ZM321.844 58.2592C321.844 59.103 322.504 59.381 323.325 58.8835C324.405 58.2295 324.244 57.7174 322.958 57.7174C322.346 57.7174 321.844 57.9612 321.844 58.2592ZM356.549 58.1681C355.666 58.8124 356.289 59.7497 357.6 59.7497C358.405 59.7497 358.646 59.5172 358.515 58.8668C358.305 57.8279 357.437 57.5198 356.549 58.1681ZM338.558 59.14C338.558 60.2764 339.908 60.5406 340.45 59.5099C340.873 58.7059 340.416 58.1238 339.361 58.1238C338.876 58.1238 338.558 58.5262 338.558 59.14ZM256.102 59.2952C256.102 59.5188 256.353 59.8147 256.659 59.9529C256.965 60.0911 257.216 60.0212 257.216 59.7976C257.216 59.5741 256.965 59.2782 256.659 59.14C256.353 59.0018 256.102 59.0717 256.102 59.2952ZM182.003 59.9769C182.003 60.3252 182.257 60.4955 182.569 60.3553C182.88 60.2147 182.991 59.9297 182.814 59.7216C182.337 59.1579 182.003 59.2627 182.003 59.9769ZM200.388 60.5866C200.388 60.8231 200.639 60.904 200.945 60.7658C201.252 60.6276 201.502 60.4342 201.502 60.3354C201.502 60.2366 201.252 60.1561 200.945 60.1561C200.639 60.1561 200.388 60.35 200.388 60.5866ZM365.401 60.678C364.526 61.4471 365.837 62.7355 367.288 62.5319C368.841 62.3136 368.77 60.4016 367.202 60.2382C366.562 60.1716 365.752 60.3695 365.401 60.678ZM389.618 61.9657C387.843 63.1656 387.756 64.1577 389.298 65.5885C390.82 66.9997 393.547 67.0395 395.559 65.6795C396.84 64.8129 396.947 64.5422 396.478 63.3424C395.497 60.8317 392.257 60.1813 389.618 61.9657ZM263.593 61.8173C263.052 62.4567 264.222 63.1546 265.32 62.8473C266.08 62.6347 266.127 62.4717 265.568 61.9803C264.753 61.2637 264.107 61.2105 263.593 61.8173ZM254.431 62.3917C254.431 62.8103 254.795 63.0095 255.406 62.9241C256.58 62.7591 256.506 62.0376 255.296 61.8539C254.791 61.7771 254.431 62.001 254.431 62.3917ZM250.809 62.5949C250.62 62.8184 250.731 63.0013 251.055 63.0013C251.379 63.0013 251.645 62.8184 251.645 62.5949C251.645 62.3713 251.535 62.1884 251.399 62.1884C251.264 62.1884 250.999 62.3713 250.809 62.5949ZM361.679 62.6741C359.161 63.7163 358.989 65.7006 361.309 66.9521C362.78 67.7459 363.008 67.7618 364.633 67.1875C365.593 66.8485 366.526 66.2319 366.707 65.8177C367.072 64.9771 366.14 63.4647 364.792 62.7095C363.695 62.0945 363.097 62.088 361.679 62.6741ZM247.745 63.4078C247.745 64.1667 247.894 64.2748 248.413 63.8955C248.933 63.5163 248.933 63.2993 248.413 62.9201C247.894 62.5408 247.745 62.6489 247.745 63.4078ZM274.588 63.5094C274.686 64.0122 275.017 64.424 275.323 64.424C275.63 64.424 275.961 64.0122 276.059 63.5094C276.181 62.8802 275.952 62.5949 275.323 62.5949C274.695 62.5949 274.466 62.8802 274.588 63.5094ZM171.696 63.4078C171.885 63.6314 172.276 63.8143 172.564 63.8143C172.853 63.8143 173.088 63.6314 173.088 63.4078C173.088 63.1843 172.697 63.0013 172.22 63.0013C171.742 63.0013 171.506 63.1843 171.696 63.4078ZM352.813 64.1642C352.302 64.7678 353.396 66.5152 354.475 66.8172C355.746 67.1732 357.597 65.9254 357.386 64.8528C357.261 64.2122 356.747 63.9886 355.185 63.8935C354.064 63.8256 352.997 63.9472 352.813 64.1642ZM241.059 64.8304C241.059 65.1658 241.31 65.4401 241.616 65.4401C241.923 65.4401 242.174 65.1658 242.174 64.8304C242.174 64.4951 241.923 64.2207 241.616 64.2207C241.31 64.2207 241.059 64.4951 241.059 64.8304ZM286.292 64.9276C286.572 65.9868 288.416 66.1051 288.416 65.0633C288.416 64.4817 288.058 64.2207 287.261 64.2207C286.464 64.2207 286.163 64.4398 286.292 64.9276ZM347.422 64.8743C346.791 65.4291 346.836 65.6117 347.715 66.0807C349.024 66.7786 349.701 66.4827 349.701 65.2129C349.701 64.0732 348.532 63.8992 347.422 64.8743ZM176.988 65.4401C176.988 65.6637 177.254 65.8466 177.578 65.8466C177.903 65.8466 178.014 65.6637 177.824 65.4401C177.635 65.2166 177.37 65.0336 177.234 65.0336C177.099 65.0336 176.988 65.2166 176.988 65.4401ZM428.908 65.745C427.112 66.8607 427.105 68.4784 428.887 69.8746C429.821 70.6058 430.446 70.7513 431.812 70.5554C434.971 70.1034 435.884 68.0476 433.788 66.1047C432.448 64.8617 430.553 64.7219 428.908 65.745ZM161.946 66.4067C161.946 66.8119 162.411 67.066 163.153 67.066C163.817 67.066 164.256 67.0143 164.128 66.9509C164 66.8875 163.457 66.5908 162.921 66.2916C162.086 65.8254 161.946 65.8421 161.946 66.4067ZM194.26 66.253C194.26 66.4766 194.51 66.6595 194.817 66.6595C195.123 66.6595 195.374 66.4766 195.374 66.253C195.374 66.0295 195.123 65.8466 194.817 65.8466C194.51 65.8466 194.26 66.0295 194.26 66.253ZM301.056 66.5156C300.329 67.0456 300.676 67.4724 301.833 67.4724C302.482 67.4724 302.897 67.2594 302.774 66.9899C302.503 66.3957 301.572 66.1388 301.056 66.5156ZM330.758 67.811C330.758 68.7702 331.227 69.0974 332.206 68.8235C333.438 68.4784 333.17 67.066 331.873 67.066C331.163 67.066 330.758 67.3371 330.758 67.811ZM339.377 68.0435C338.895 68.5808 337.886 69.1332 337.136 69.2706C336.159 69.4494 335.773 69.7994 335.773 70.5046C335.773 71.8077 336.656 72.1475 338.165 71.4261C339.029 71.0131 339.655 70.9586 340.274 71.2435C340.885 71.5248 341.649 71.474 342.781 71.0769C344.123 70.6054 344.377 70.2932 344.229 69.2937C343.9 67.0769 340.932 66.312 339.377 68.0435ZM238.916 68.0569C239.023 68.4296 239.36 68.7251 239.666 68.7133C240.493 68.6812 240.342 67.772 239.474 67.561C239.005 67.4472 238.797 67.633 238.916 68.0569ZM231.695 68.3158C231.805 68.556 232.133 68.7528 232.424 68.7528C232.714 68.7528 233.043 68.556 233.152 68.3158C233.262 68.0756 232.935 67.8789 232.424 67.8789C231.913 67.8789 231.585 68.0756 231.695 68.3158ZM315.28 68.3479C315.569 68.9812 316.815 69.0918 316.859 68.4886C316.876 68.265 316.471 68.0191 315.96 67.9415C315.379 67.8541 315.124 68.0061 315.28 68.3479ZM247.286 68.9166C247.538 69.7994 248.527 69.8535 248.753 68.9966C248.87 68.5516 248.597 68.2853 248.023 68.2853C247.488 68.2853 247.181 68.5483 247.286 68.9166ZM166.96 69.0983C166.96 69.3218 167.226 69.5047 167.55 69.5047C167.874 69.5047 167.985 69.3218 167.796 69.0983C167.606 68.8747 167.341 68.6918 167.206 68.6918C167.07 68.6918 166.96 68.8747 166.96 69.0983ZM182.56 69.0983C182.56 69.3218 182.811 69.5047 183.117 69.5047C183.423 69.5047 183.674 69.3218 183.674 69.0983C183.674 68.8747 183.423 68.6918 183.117 68.6918C182.811 68.6918 182.56 68.8747 182.56 69.0983ZM226.373 68.9739C225.745 69.4315 225.991 69.9112 226.852 69.9112C227.312 69.9112 227.688 69.7392 227.688 69.5287C227.688 69.0161 226.818 68.6491 226.373 68.9739ZM153.589 70.5448C153.589 70.8932 153.843 71.0635 154.155 70.9233C154.466 70.7826 154.577 70.4977 154.4 70.2896C153.923 69.7258 153.589 69.8307 153.589 70.5448ZM257.216 70.7241C257.216 71.1712 257.467 71.537 257.773 71.537C258.08 71.537 258.33 71.1712 258.33 70.7241C258.33 70.277 258.08 69.9112 257.773 69.9112C257.467 69.9112 257.216 70.277 257.216 70.7241ZM347.827 71.3891C346.063 72.6755 346.055 72.7617 347.484 74.805C348.724 76.5788 349.833 76.806 352.444 75.8211C354.259 75.1362 354.921 73.8104 354.058 72.5889C352.28 70.0746 350.182 69.6709 347.827 71.3891ZM216.928 71.7996C216.163 72.3581 216.56 73.2206 217.52 73.0857C218.056 73.0101 218.495 72.6917 218.495 72.3784C218.495 71.7366 217.512 71.3736 216.928 71.7996ZM156.931 72.3499C156.931 72.5735 157.182 72.7564 157.489 72.7564C157.795 72.7564 158.046 72.5735 158.046 72.3499C158.046 72.1264 157.795 71.9435 157.489 71.9435C157.182 71.9435 156.931 72.1264 156.931 72.3499ZM211.526 72.5576C210.966 73.0499 211 73.1629 211.709 73.1629C212.748 73.1629 213.429 72.4999 212.718 72.1792C212.441 72.0544 211.905 72.2247 211.526 72.5576ZM324.112 73.1812C322.055 73.8904 320.729 74.5879 320.864 74.8891C321.147 75.5227 325.625 77.171 327.152 77.2035C329.917 77.262 331.507 75.3496 330.188 73.5519C329.036 71.9805 327.808 71.9057 324.112 73.1812ZM223.564 72.6491C222.966 73.0852 223.213 73.5693 224.034 73.5693C224.475 73.5693 224.975 73.4055 225.145 73.2055C225.499 72.7869 224.066 72.2824 223.564 72.6491ZM268.638 72.7564C268.415 73.019 268.484 73.4165 268.79 73.64C269.162 73.9111 269.482 73.8876 269.752 73.5693C269.974 73.3067 269.906 72.9092 269.599 72.6857C269.228 72.4146 268.907 72.4381 268.638 72.7564ZM144.953 74.3822C145.142 74.6058 145.548 74.7887 145.854 74.7887C146.161 74.7887 146.257 74.6058 146.067 74.3822C145.878 74.1587 145.472 73.9758 145.166 73.9758C144.859 73.9758 144.764 74.1587 144.953 74.3822ZM231.588 74.7887C231.588 75.2358 231.839 75.6016 232.145 75.6016C232.451 75.6016 232.702 75.2358 232.702 74.7887C232.702 74.3416 232.451 73.9758 232.145 73.9758C231.839 73.9758 231.588 74.3416 231.588 74.7887ZM378.672 74.7887C376.295 76.5227 378.211 80.0727 381.524 80.0727C383.485 80.0727 385.915 78.4867 385.915 77.2071C385.915 76.7283 385.396 75.8057 384.763 75.1562C383.342 73.7006 380.407 73.5234 378.672 74.7887ZM280.616 75.3984C280.616 75.9573 280.867 76.4145 281.173 76.4145C281.48 76.4145 281.73 75.9573 281.73 75.3984C281.73 74.8395 281.48 74.3822 281.173 74.3822C280.867 74.3822 280.616 74.8395 280.616 75.3984ZM148.017 75.5777C148.017 75.7882 148.268 76.0731 148.574 76.2113C148.881 76.3495 149.132 76.1772 149.132 75.8288C149.132 75.4805 148.881 75.1952 148.574 75.1952C148.268 75.1952 148.017 75.3671 148.017 75.5777ZM197.045 75.8049C197.045 76.1402 197.269 76.4145 197.543 76.4145C197.816 76.4145 198.185 76.1402 198.361 75.8049C198.556 75.4333 198.362 75.1952 197.864 75.1952C197.414 75.1952 197.045 75.4695 197.045 75.8049ZM202.06 75.8049C202.06 76.1776 202.329 76.4166 202.659 76.3365C202.988 76.2564 203.257 76.0174 203.257 75.8049C203.257 75.5923 202.988 75.3533 202.659 75.2732C202.329 75.1931 202.06 75.4321 202.06 75.8049ZM188.688 76.0081C188.688 76.2316 188.939 76.4145 189.245 76.4145C189.552 76.4145 189.803 76.2316 189.803 76.0081C189.803 75.7845 189.552 75.6016 189.245 75.6016C188.939 75.6016 188.688 75.7845 188.688 76.0081ZM192.346 75.9654C192.176 76.1658 192.412 76.4341 192.87 76.5625C193.376 76.7039 193.703 76.5613 193.703 76.1987C193.703 75.541 192.832 75.3915 192.346 75.9654ZM307.559 77.7453C307.813 80.2064 308.574 81.2921 310.045 81.2921C310.729 81.2921 310.775 81.4006 310.256 81.7798C309.258 82.5078 309.445 83.9145 310.755 85.5347C311.756 86.7724 312.133 86.9418 313.401 86.7228C315.854 86.2984 316.831 85.3969 316.82 83.5662C316.808 81.416 314.751 79.7678 312.956 80.469C311.715 80.9535 311.421 80.5235 312.469 79.7585C313.472 79.0269 312.196 77.3852 310.363 77.0494C309.514 76.8942 308.482 76.4592 308.068 76.0829C307.42 75.4935 307.35 75.7248 307.559 77.7453ZM293.188 76.7783C292.817 77.2161 293.988 77.5848 294.962 77.3368C295.346 77.2397 295.659 76.9921 295.659 76.7873C295.659 76.3072 293.593 76.2999 293.188 76.7783ZM207.934 77.1994C207.757 77.4075 207.868 77.6924 208.179 77.8331C208.844 78.1326 209.86 77.7522 209.86 77.2035C209.86 76.7088 208.351 76.7056 207.934 77.1994ZM240.502 77.4644C240.502 77.8185 240.8 78.0359 241.164 77.9473C242.197 77.6961 242.368 76.821 241.384 76.821C240.899 76.821 240.502 77.1108 240.502 77.4644ZM151.36 77.6339C151.36 77.8575 151.626 78.0404 151.95 78.0404C152.274 78.0404 152.385 77.8575 152.196 77.6339C152.006 77.4104 151.741 77.2275 151.606 77.2275C151.47 77.2275 151.36 77.4104 151.36 77.6339ZM136.317 78.4468C136.317 78.6704 136.568 78.8533 136.875 78.8533C137.181 78.8533 137.432 78.6704 137.432 78.4468C137.432 78.2233 137.181 78.0404 136.875 78.0404C136.568 78.0404 136.317 78.2233 136.317 78.4468ZM172.531 78.6501C172.531 78.9854 172.782 79.2598 173.088 79.2598C173.395 79.2598 173.646 78.9854 173.646 78.6501C173.646 78.3147 173.395 78.0404 173.088 78.0404C172.782 78.0404 172.531 78.3147 172.531 78.6501ZM175.874 78.674C175.874 79.0224 176.129 79.1927 176.44 79.0525C176.752 78.9118 176.863 78.6269 176.686 78.4188C176.208 77.855 175.874 77.9599 175.874 78.674ZM178.66 78.6501C178.66 78.9854 179.036 79.2598 179.496 79.2598C179.955 79.2598 180.331 78.9854 180.331 78.6501C180.331 78.3147 179.955 78.0404 179.496 78.0404C179.036 78.0404 178.66 78.3147 178.66 78.6501ZM182.368 78.6671C182.733 79.361 183.76 79.2756 184.104 78.5232C184.226 78.255 183.816 78.0404 183.181 78.0404C182.38 78.0404 182.136 78.2278 182.368 78.6671ZM186.793 78.746C186.122 79.235 186.488 79.6662 187.574 79.6662C188.187 79.6662 188.688 79.5028 188.688 79.3033C188.688 78.8464 187.239 78.42 186.793 78.746ZM215.709 79.6662C215.52 79.8898 215.537 80.2751 215.746 80.5227C216.121 80.9645 217.073 80.2873 217.094 79.5646C217.106 79.1191 216.111 79.1923 215.709 79.6662ZM251.088 80.5031C251.088 80.9632 251.338 81.227 251.645 81.0888C251.951 80.9506 252.202 80.5743 252.202 80.2519C252.202 79.9296 251.951 79.6662 251.645 79.6662C251.338 79.6662 251.088 80.043 251.088 80.5031ZM165.846 80.9096C165.846 81.3697 166.096 81.6335 166.403 81.4953C166.709 81.3571 166.96 80.9807 166.96 80.6584C166.96 80.3361 166.709 80.0727 166.403 80.0727C166.096 80.0727 165.846 80.4495 165.846 80.9096ZM168.074 80.6584C168.074 80.9807 168.336 81.362 168.656 81.5063C169.375 81.8306 170.962 80.9283 170.542 80.4332C170.043 79.8442 168.074 80.0239 168.074 80.6584ZM192.588 80.8856C192.588 81.4095 192.87 81.6977 193.285 81.5969C193.668 81.5038 193.981 81.1835 193.981 80.8856C193.981 80.5877 193.668 80.2674 193.285 80.1743C192.87 80.0735 192.588 80.3617 192.588 80.8856ZM163.06 80.8616C163.06 81.0722 163.311 81.3571 163.617 81.4953C163.924 81.6335 164.174 81.4611 164.174 81.1128C164.174 80.7645 163.924 80.4791 163.617 80.4791C163.311 80.4791 163.06 80.6511 163.06 80.8616ZM142.446 81.5193C142.446 81.8676 142.701 82.0379 143.012 81.8977C143.323 81.7571 143.434 81.4721 143.258 81.264C142.78 80.7003 142.446 80.8051 142.446 81.5193ZM158.603 81.2921C158.603 81.5156 158.854 81.6985 159.16 81.6985C159.466 81.6985 159.717 81.5156 159.717 81.2921C159.717 81.0685 159.466 80.8856 159.16 80.8856C158.854 80.8856 158.603 81.0685 158.603 81.2921ZM172.531 81.4953C172.531 81.8306 172.907 82.105 173.367 82.105C173.827 82.105 174.203 81.8306 174.203 81.4953C174.203 81.16 173.827 80.8856 173.367 80.8856C172.907 80.8856 172.531 81.16 172.531 81.4953ZM293.368 82.3741C292.392 82.5647 291.202 84.1633 291.202 85.2855C291.202 86.5102 292.842 87.7954 294.406 87.7954C296.233 87.7954 299.002 85.933 299.002 84.7039C299.002 84.1129 298.349 83.5028 297.125 82.9513C295.229 82.0961 294.986 82.0586 293.368 82.3741ZM145.232 82.8403C145.232 83.2553 147.344 84.5437 148.023 84.5437C148.326 84.5437 148.574 84.3608 148.574 84.1373C148.574 83.9137 148.198 83.7308 147.739 83.7308C147.279 83.7308 146.903 83.5675 146.903 83.3679C146.903 83.1683 146.527 82.8996 146.067 82.7707C145.608 82.6423 145.232 82.6736 145.232 82.8403ZM154.424 82.7883C151.363 83.2898 149.689 83.8499 149.689 84.3722C149.689 85.053 150.344 85.1221 151.16 84.5271C151.479 84.2942 152.971 84.065 154.475 84.0182C155.979 83.9711 157.147 83.7955 157.071 83.6284C156.994 83.4614 156.931 83.1415 156.931 82.9179C156.931 82.5001 156.363 82.4708 154.424 82.7883ZM224.09 83.2963C223.678 83.7829 224.726 84.2645 225.468 83.93C226.092 83.6491 225.682 82.9179 224.902 82.9179C224.632 82.9179 224.267 83.0882 224.09 83.2963ZM261.673 83.7308C261.673 83.9544 262.049 84.1373 262.509 84.1373C262.969 84.1373 263.345 83.9544 263.345 83.7308C263.345 83.5073 262.969 83.3244 262.509 83.3244C262.049 83.3244 261.673 83.5073 261.673 83.7308ZM158.603 84.5437C158.603 85.0856 158.974 85.3567 159.717 85.3567C161.039 85.3567 161.213 84.3312 159.95 83.9776C158.672 83.6199 158.603 83.6487 158.603 84.5437ZM177.738 84.358C177.556 84.7031 177.553 85.0912 177.731 85.2213C178.293 85.6314 179.774 85.0022 179.774 84.3531C179.774 83.5418 178.165 83.5459 177.738 84.358ZM200.203 84.0019C199.524 84.497 199.819 85.3567 200.667 85.3567C201.131 85.3567 201.502 84.9953 201.502 84.5437C201.502 83.7341 200.909 83.4865 200.203 84.0019ZM335.548 84.7486C334.256 85.4624 334.218 87.4475 335.471 88.8429C337.588 91.2004 342.965 89.2294 342.137 86.3997C341.937 85.7144 341.52 84.925 341.211 84.6454C340.453 83.9588 336.86 84.0243 335.548 84.7486ZM421.759 85.0242C420.116 85.6042 419.841 86.6895 420.934 88.2856C422.791 90.9992 428.266 89.7875 427.472 86.8386C426.91 84.7486 424.61 84.0182 421.759 85.0242ZM140.95 85.2136C141.551 85.6526 139.026 86.9825 137.592 86.9825C136.841 86.9825 136.403 87.1609 136.596 87.389C137.153 88.047 139.49 87.8576 142.173 86.9378C145.273 85.8749 145.486 84.9502 142.631 84.9502C141.508 84.9502 140.751 85.0689 140.95 85.2136ZM133.81 85.7631C133.621 85.9867 133.872 86.1696 134.367 86.1696C134.863 86.1696 135.114 85.9867 134.925 85.7631C134.735 85.5396 134.484 85.3567 134.367 85.3567C134.25 85.3567 134 85.5396 133.81 85.7631ZM285.073 85.9664C285.073 86.3017 285.324 86.5761 285.63 86.5761C285.937 86.5761 286.187 86.3017 286.187 85.9664C286.187 85.631 285.937 85.3567 285.63 85.3567C285.324 85.3567 285.073 85.631 285.073 85.9664ZM145.232 86.7793C145.232 87.1179 145.727 87.389 146.346 87.389C146.965 87.389 147.46 87.1179 147.46 86.7793C147.46 86.4407 146.965 86.1696 146.346 86.1696C145.727 86.1696 145.232 86.4407 145.232 86.7793ZM163.06 86.9825C163.778 87.9609 164.491 88.0251 164.95 87.1524C165.45 86.2033 165.413 86.1696 163.876 86.1696C162.637 86.1696 162.536 86.2688 163.06 86.9825ZM233.816 87.389C233.816 87.6125 234.067 87.7954 234.374 87.7954C234.68 87.7954 234.931 87.6125 234.931 87.389C234.931 87.1654 234.68 86.9825 234.374 86.9825C234.067 86.9825 233.816 87.1654 233.816 87.389ZM129.862 88.4018C129.362 88.9591 129.094 89.685 129.267 90.0147C129.441 90.3447 129.343 90.7228 129.05 90.8548C128.401 91.1475 128.339 92.2665 128.972 92.2665C129.222 92.2665 129.998 91.5243 130.698 90.6167C131.872 89.0921 132.025 89.023 132.716 89.7022C133.412 90.3862 133.528 90.3907 134.399 89.7651C135.512 88.9656 134.943 88.0503 133.505 88.3246C132.945 88.4315 132.356 88.2653 132.192 87.9536C131.746 87.1041 130.877 87.2711 129.862 88.4018ZM183.674 87.7954C183.674 88.019 184.175 88.2019 184.788 88.2019C185.401 88.2019 185.903 88.019 185.903 87.7954C185.903 87.5719 185.401 87.389 184.788 87.389C184.175 87.389 183.674 87.5719 183.674 87.7954ZM279.62 87.843C278.085 88.2571 278.031 89.4664 279.504 90.4391C280.461 91.0707 280.837 91.104 282.135 90.6724C283.189 90.3224 283.711 90.3029 283.851 90.6082C284.137 91.2325 286.012 91.1532 286.355 90.5021C286.512 90.2025 286.421 89.6993 286.153 89.3843C285.762 88.9262 285.449 88.9091 284.586 89.2989C283.652 89.7208 283.465 89.6595 283.182 88.8392C282.809 87.7536 281.406 87.3609 279.62 87.843ZM208.467 88.2019C208.244 88.4645 208.313 88.862 208.619 89.0855C208.991 89.3566 209.311 89.3331 209.581 89.0148C209.803 88.7522 209.735 88.3547 209.428 88.1312C209.057 87.8601 208.736 87.8836 208.467 88.2019ZM149.38 89.0502C148.894 89.6241 149.968 90.4077 150.754 90.0529C151.638 89.6546 151.495 88.6083 150.557 88.6083C150.115 88.6083 149.586 88.8071 149.38 89.0502ZM119.112 90.7549C118.198 91.4223 118.353 92.673 119.35 92.673C120.032 92.673 120.135 92.9684 119.845 94.0956C119.55 95.2434 119.653 95.5182 120.377 95.5182C121.05 95.5182 121.275 95.119 121.275 93.9261C121.275 93.0506 121.503 92.2734 121.781 92.1986C122.059 92.1242 122.373 91.721 122.477 91.3028C122.618 90.7386 122.289 90.511 121.202 90.4211C120.396 90.3545 119.456 90.5045 119.112 90.7549ZM169.467 90.6407C169.061 91.1203 169.588 91.86 170.336 91.86C170.624 91.86 170.86 91.4942 170.86 91.0471C170.86 90.1899 170.049 89.9533 169.467 90.6407ZM135.562 91.2442C135.362 91.6235 135.564 91.9865 136.048 92.1222C137.203 92.4453 138.685 91.9621 138.409 91.3516C138.062 90.5817 135.952 90.502 135.562 91.2442ZM277.659 91.7381C275.949 92.0616 275.423 93.7976 276.593 95.2625C277.844 96.8302 279.381 97.0404 281.345 95.9133C283.036 94.9431 283.258 93.6911 281.977 92.3571C281.149 91.4938 279.9 91.3145 277.659 91.7381ZM192.031 92.4697C192.031 92.8051 192.282 93.0794 192.588 93.0794C192.895 93.0794 193.145 92.8051 193.145 92.4697C193.145 92.1344 192.895 91.86 192.588 91.86C192.282 91.86 192.031 92.1344 192.031 92.4697ZM274.042 92.7766C273.523 93.2339 273.495 93.4924 273.94 93.6936C274.765 94.0655 275.187 93.7127 274.954 92.8449C274.785 92.2096 274.694 92.2031 274.042 92.7766ZM154.703 93.4859C154.703 94.098 154.994 94.3175 155.678 94.2216C156.214 94.146 156.653 93.8151 156.653 93.4859C156.653 93.1566 156.214 92.8258 155.678 92.7502C154.994 92.6542 154.703 92.8737 154.703 93.4859ZM369.555 93.5155C367.635 94.6166 367.593 96.4144 369.454 97.772C371.031 98.9227 371.979 99.004 374.172 98.1764C376.039 97.472 376.572 96.314 375.786 94.6691C374.788 92.5823 372.061 92.0771 369.555 93.5155ZM108.492 93.4631C107.842 93.7635 107.813 94.033 108.341 94.8792C108.7 95.4543 109.25 95.9246 109.563 95.9246C109.876 95.9246 110.132 96.1583 110.132 96.4437C110.132 96.7294 110.546 97.3944 111.052 97.9216L111.972 98.8796L112.671 97.9057C113.376 96.9245 113.145 94.5548 112.378 94.9003C112.152 95.0028 111.684 94.6345 111.34 94.083C110.681 93.029 109.833 92.8441 108.492 93.4631ZM122.757 93.3806C122.595 93.5716 122.689 93.9935 122.967 94.3183C123.5 94.9422 125.164 94.5041 125.357 93.6891C125.477 93.1818 123.158 92.9062 122.757 93.3806ZM263.092 93.9732C260.927 95.4726 263.498 97.9517 266.387 97.1501C268.294 96.6209 268.625 95.8531 267.579 94.3776C266.6 92.9957 264.745 92.8286 263.092 93.9732ZM269.257 93.7184C268.822 94.5439 269.835 95.9246 270.875 95.9246C271.765 95.9246 272.574 94.187 272 93.5091C271.448 92.8571 269.636 92.9957 269.257 93.7184ZM297.985 94.4232C295.783 95.5454 295.58 97.3793 297.511 98.7024C298.715 99.5283 298.957 99.5515 300.993 99.0393C302.544 98.6491 303.234 98.2227 303.366 97.572C303.686 95.988 302.942 94.7414 301.31 94.1256C299.861 93.5789 299.594 93.6029 297.985 94.4232ZM140.217 95.6974C140.217 96.4669 141.015 96.8006 142.117 96.4921C143.53 96.0966 143.168 95.1117 141.61 95.1117C140.769 95.1117 140.217 95.3438 140.217 95.6974ZM176.71 95.9246C176.52 96.1482 176.537 96.5335 176.747 96.7811C177.121 97.2229 178.074 96.5457 178.094 95.823C178.107 95.3775 177.112 95.4507 176.71 95.9246ZM97.3178 97.5009C97.3178 98.8926 98.5763 99.7628 100.678 99.8246C102.113 99.8669 102.178 99.7958 101.736 98.6707C101.081 97.0046 100.19 96.3311 98.6426 96.3311C97.5545 96.3311 97.3178 96.54 97.3178 97.5009ZM127.058 97.3277C126.887 97.6525 126.91 98.1102 127.109 98.3451C127.606 98.9312 129.632 98.1187 129.632 97.333C129.632 96.5611 127.463 96.5567 127.058 97.3277ZM253.913 97.935C252.967 98.4561 252.729 98.8731 253.01 99.519C253.398 100.412 253.845 100.553 255.823 100.408C257.527 100.282 257.89 99.808 257.167 98.6508C256.298 97.2591 255.472 97.0774 253.913 97.935ZM161.946 98.7699C161.946 99.2938 162.228 99.582 162.642 99.4812C163.025 99.3881 163.339 99.0678 163.339 98.7699C163.339 98.4719 163.025 98.1516 162.642 98.0585C162.228 97.9578 161.946 98.2459 161.946 98.7699ZM261.116 98.7459C261.116 99.18 261.316 99.625 261.561 99.7352C262.355 100.093 263.516 99.2763 263.165 98.6077C262.682 97.6891 261.116 97.7948 261.116 98.7459ZM114.212 99.827C113.737 100.73 115.221 101.328 116.187 100.623C116.606 100.317 116.78 99.8669 116.572 99.6218C116.011 98.9601 114.604 99.0824 114.212 99.827ZM87.3896 100.657C86.5082 101.806 87.2592 102.834 88.9802 102.834C89.8387 102.834 90.9374 102.945 91.4221 103.081C92.8011 103.467 92.4651 102.48 90.7731 101.172C89.037 99.8303 88.13 99.6921 87.3896 100.657ZM102.184 100.639C101.467 101.162 101.744 102.716 102.653 103.267C103.381 103.707 103.618 103.699 104.037 103.215C104.738 102.408 104.698 102.235 103.577 101.226C103.037 100.739 102.41 100.475 102.184 100.639ZM146.903 101.388C146.903 101.71 147.128 102.075 147.402 102.198C147.975 102.457 148.667 101.411 148.164 101.045C147.567 100.609 146.903 100.789 146.903 101.388ZM184.788 101.615C184.788 101.839 185.054 102.022 185.378 102.022C185.703 102.022 185.813 101.839 185.624 101.615C185.435 101.392 185.169 101.209 185.034 101.209C184.899 101.209 184.788 101.392 184.788 101.615ZM247.247 101.974C246.16 102.585 245.988 102.939 246.316 103.896C247.137 106.296 249.168 107.062 251.521 105.86C252.987 105.111 253.154 103.426 251.892 102.112C250.842 101.019 249.046 100.966 247.247 101.974ZM326.301 101.496C321.36 102.813 322.322 108.007 327.439 107.64C331.232 107.367 332.233 104.52 329.337 102.241C327.988 101.179 327.729 101.115 326.301 101.496ZM254.152 102.022C253.963 102.245 254.073 102.428 254.398 102.428C254.722 102.428 254.988 102.245 254.988 102.022C254.988 101.798 254.877 101.615 254.742 101.615C254.607 101.615 254.341 101.798 254.152 102.022ZM132.696 102.834C132.23 103.385 132.859 104.054 133.843 104.054C134.285 104.054 134.646 103.688 134.646 103.241C134.646 102.4 133.302 102.119 132.696 102.834ZM237.577 103.807C235.628 104.886 236.89 107.545 239.155 107.13C240.319 106.917 240.502 107.026 240.502 107.931C240.502 108.508 240.724 108.879 240.995 108.757C241.266 108.635 241.488 107.61 241.488 106.48C241.488 103.632 239.879 102.532 237.577 103.807ZM77.9294 104.135C76.1493 105.434 77.9444 106.791 80.7591 106.276C81.7151 106.1 82.2249 106.217 82.4606 106.666C82.8885 107.479 83.9465 107.501 83.9465 106.696C83.9465 106.36 83.5704 106.086 83.1108 106.086C82.6511 106.086 82.275 105.84 82.275 105.539C82.275 104.836 80.48 103.647 79.4175 103.647C78.9668 103.647 78.2971 103.867 77.9294 104.135ZM262.832 104.699C261.442 105.552 261.186 105.954 261.473 106.833C262.016 108.495 262.744 108.931 264.973 108.931C267.494 108.931 268.359 108.347 268.359 106.644C268.359 105.711 267.935 105.089 266.891 104.49C265.033 103.424 264.897 103.431 262.832 104.699ZM92.8607 104.46C92.8607 104.684 93.2518 104.867 93.7292 104.867C94.2067 104.867 94.4429 104.684 94.2535 104.46C94.0641 104.237 93.6735 104.054 93.3849 104.054C93.0963 104.054 92.8607 104.237 92.8607 104.46ZM89.9357 104.899C88.549 105.489 88.7295 106.086 90.2939 106.086C91.3965 106.086 92.3035 105.429 92.3035 104.63C92.3035 104.322 90.9274 104.478 89.9357 104.899ZM169.79 105.104C169.816 105.577 169.948 105.674 170.126 105.35C170.287 105.056 170.267 104.705 170.082 104.57C169.897 104.436 169.766 104.675 169.79 105.104ZM118.729 105.319C118.258 105.875 119.508 106.494 120.528 106.208C120.939 106.093 121.275 105.744 121.275 105.433C121.275 104.76 119.278 104.67 118.729 105.319ZM105.675 107.712C105.675 108.618 106.767 108.785 107.792 108.037C108.83 107.28 108.589 106.899 107.068 106.899C106.046 106.899 105.675 107.116 105.675 107.712ZM230.585 107.387C229.05 108.507 230.871 110.052 232.827 109.289C234.047 108.813 234.076 108.366 232.941 107.538C231.89 106.771 231.466 106.744 230.585 107.387ZM69.5534 107.759C67.8062 108.24 68.3199 109.135 70.3428 109.135C71.237 109.135 72.1262 109.293 72.3196 109.487C72.5151 109.682 73.0906 109.667 73.6166 109.453C74.4696 109.105 74.4345 109.007 73.265 108.461C71.0326 107.42 70.8849 107.392 69.5534 107.759ZM78.7467 107.577C77.9194 108.18 78.4531 108.931 79.7083 108.931C80.9875 108.931 82.0021 108.055 81.3079 107.549C80.8599 107.221 79.208 107.24 78.7467 107.577ZM154.146 107.688C154.146 107.899 154.396 108.183 154.703 108.322C155.009 108.46 155.26 108.288 155.26 107.939C155.26 107.591 155.009 107.306 154.703 107.306C154.396 107.306 154.146 107.477 154.146 107.688ZM85.0607 108.118C85.0607 108.342 85.3265 108.525 85.6508 108.525C85.975 108.525 86.0859 108.342 85.8964 108.118C85.707 107.895 85.4418 107.712 85.3064 107.712C85.171 107.712 85.0607 107.895 85.0607 108.118ZM415.874 109.234C414.13 110.023 413.735 110.57 414.125 111.656C414.8 113.541 418.532 113.756 420.109 112C420.851 111.174 420.827 110.954 419.868 109.804C418.659 108.352 418.023 108.262 415.874 109.234ZM92.5821 109.338C92.0679 109.945 92.7832 110.557 94.0078 110.557C94.7176 110.557 95.0892 110.278 95.0892 109.744C95.0892 108.882 93.2245 108.58 92.5821 109.338ZM139.103 110.151C139.103 110.374 139.464 110.557 139.906 110.557C140.348 110.557 140.864 110.374 141.053 110.151C141.242 109.927 140.881 109.744 140.25 109.744C139.62 109.744 139.103 109.927 139.103 110.151ZM419.02 112.555C418.559 112.891 416.852 111.951 416.665 111.259C416.364 110.145 418.463 110.219 418.907 111.338C419.127 111.892 419.177 112.439 419.02 112.555ZM68.6101 110.982C68.4124 111.215 68.5494 111.668 68.9143 111.989C69.7707 112.742 71.797 112.047 71.3306 111.161C70.9668 110.469 69.1461 110.349 68.6101 110.982ZM75.0323 111.37C75.0323 111.594 75.2679 111.777 75.5565 111.777C75.8451 111.777 76.2357 111.594 76.4251 111.37C76.6145 111.147 76.3783 110.964 75.9008 110.964C75.4234 110.964 75.0323 111.147 75.0323 111.37ZM60.4085 111.631C59.6787 112.548 59.4151 115.785 60.0475 116.07C60.9066 116.458 62.3485 115.05 61.9223 114.239C61.7462 113.904 61.7785 113.759 61.9941 113.917C62.5045 114.289 63.8488 112.992 63.8717 112.107C63.8834 111.668 63.4884 111.443 62.7752 111.482C62.1624 111.516 61.6571 111.733 61.6526 111.965C61.6476 112.196 61.4286 112.138 61.1651 111.835C60.9016 111.531 60.5612 111.44 60.4085 111.631ZM81.2895 111.845C80.5574 112.379 81.0159 113.402 81.9881 113.402C82.377 113.402 82.9932 113.141 83.357 112.821C83.8841 112.358 83.8022 112.155 82.9536 111.824C82.2177 111.537 81.7034 111.543 81.2895 111.845ZM124.916 111.754C124.718 111.986 124.777 112.464 125.047 112.815C125.469 113.366 125.628 113.374 126.198 112.872C126.715 112.418 126.686 112.186 126.067 111.811C125.53 111.486 125.158 111.467 124.916 111.754ZM221.103 112.379C220.239 113.043 219.869 113.749 219.988 114.506C220.148 115.518 220.411 115.651 222.488 115.761C224.498 115.868 224.861 115.759 225.203 114.948C225.42 114.434 226.068 113.685 226.643 113.285C227.218 112.885 227.688 112.376 227.688 112.155C227.688 111.458 226.043 111.255 225.083 111.833C224.365 112.265 224.113 112.275 223.929 111.878C223.57 111.098 222.527 111.283 221.103 112.379ZM283.728 112.145C282.328 113.273 282.766 115.364 284.612 116.365C286.088 117.165 286.118 117.165 287.955 116.385C289.992 115.52 290.67 113.737 289.544 112.202C288.722 111.082 285.09 111.046 283.728 112.145ZM64.5625 112.864C64.0098 113.026 63.9937 113.207 64.4918 113.645C65.4138 114.456 66.1181 114.351 66.1181 113.402C66.1181 112.578 65.854 112.486 64.5625 112.864ZM212.872 114.017C212.442 115.267 213.445 116.248 215.152 116.248C217.187 116.248 217.971 115.232 216.877 114.014C215.629 112.625 213.351 112.627 212.872 114.017ZM111.246 114.012C111.246 114.347 111.622 114.622 112.082 114.622C112.542 114.622 112.918 114.347 112.918 114.012C112.918 113.677 112.542 113.402 112.082 113.402C111.622 113.402 111.246 113.677 111.246 114.012ZM233.178 114.267C230.864 114.886 230.6 117.501 232.71 118.895C233.638 119.508 233.849 119.508 235.466 118.898C236.429 118.535 237.356 117.972 237.526 117.648C237.958 116.829 237.328 115.21 236.283 114.447C235.297 113.727 235.215 113.723 233.178 114.267ZM67.8964 114.652C68.0062 114.892 68.3344 115.089 68.6252 115.089C68.916 115.089 69.2442 114.892 69.3539 114.652C69.4637 114.412 69.1361 114.215 68.6252 114.215C68.1143 114.215 67.7867 114.412 67.8964 114.652ZM70.7729 114.832C70.5986 115.164 70.5986 115.706 70.7729 116.038C71.1958 116.841 72.8037 116.363 72.8037 115.435C72.8037 114.506 71.1958 114.028 70.7729 114.832ZM97.0888 115.737C96.2726 116.333 96.9116 116.695 98.5713 116.578C99.5675 116.508 100.382 116.288 100.382 116.09C100.382 115.676 97.5841 115.376 97.0888 115.737ZM52.2543 116.503C52.2186 116.978 51.8136 117.595 51.3539 117.873C50.8943 118.152 50.5182 118.632 50.5182 118.939C50.5182 119.638 51.8587 119.668 52.8699 118.991C53.2877 118.712 54.1201 118.281 54.7201 118.033C56.274 117.392 56.4634 116.248 55.016 116.248C54.3808 116.248 53.861 116.431 53.861 116.654C53.861 117.343 52.8437 117.102 52.5735 116.349C52.3713 115.784 52.3055 115.816 52.2543 116.503ZM209.063 116.48C208.013 117.246 207.976 117.556 208.857 118.199C209.735 118.839 211.533 118.826 211.523 118.178C211.509 117.216 210.843 115.841 210.392 115.841C210.143 115.841 209.545 116.129 209.063 116.48ZM361.3 116.466C359.622 117.13 358.963 118.196 359.523 119.34C360.642 121.629 363.648 122.232 365.761 120.591C367.34 119.364 367.293 118.245 365.606 116.917C364.056 115.696 363.412 115.629 361.3 116.466ZM57.5755 117.332C56.9342 117.799 57.1693 118.28 58.0396 118.28C58.4992 118.28 58.8753 118.006 58.8753 117.67C58.8753 117.035 58.2162 116.864 57.5755 117.332ZM85.4413 117.325C84.8479 117.758 84.9944 119.093 85.6351 119.093C86.4592 119.093 86.9778 117.89 86.3511 117.433C86.0602 117.221 85.6507 117.172 85.4413 117.325ZM60.6409 118.345C60.7422 118.868 61.2013 119.296 61.661 119.296C62.8694 119.296 62.7028 117.711 61.4766 117.538C60.6854 117.427 60.4977 117.608 60.6409 118.345ZM131.606 119.065C131.429 119.273 131.54 119.558 131.851 119.698C132.163 119.839 132.417 119.668 132.417 119.32C132.417 118.606 132.083 118.501 131.606 119.065ZM205.217 119.77C204.606 120.216 204.792 120.617 205.731 120.88C207.027 121.243 207.81 120.757 207.033 120.073C206.317 119.444 205.786 119.355 205.217 119.77ZM47.4868 120.274C47.2824 120.515 47.342 121.008 47.6194 121.37C48.0752 121.964 48.1604 121.958 48.5036 121.305C48.9387 120.477 48.0651 119.591 47.4868 120.274ZM72.8037 120.515C72.8037 120.974 73.1948 121.141 74.0573 121.052C74.747 120.98 75.3108 120.739 75.3108 120.515C75.3108 120.292 74.747 120.051 74.0573 119.979C73.1948 119.89 72.8037 120.057 72.8037 120.515ZM45.2215 120.896C45.0705 121.245 44.8287 121.808 44.6839 122.145C44.539 122.482 44.2259 122.711 43.9874 122.653C43.5339 122.543 43.2754 122.875 43.2754 123.567C43.2754 123.812 43.7217 123.774 44.3797 123.474C45.6873 122.878 46.8071 120.852 46.0238 120.499C45.7335 120.368 45.3725 120.547 45.2215 120.896ZM117.194 121.288C117.014 121.631 117.089 122.012 117.361 122.135C118.089 122.463 118.707 121.528 118.069 121.063C117.712 120.802 117.409 120.88 117.194 121.288ZM50.3104 121.747C49.9003 122.526 52.2543 123.384 53.6861 122.977C54.6187 122.713 54.5948 122.63 53.3813 121.908C51.7957 120.964 50.7511 120.909 50.3104 121.747ZM248.667 121.869C247.427 122.868 247.504 124.201 248.859 125.19C250.283 126.228 251.674 126.22 253.52 125.16C255.29 124.144 255.348 123.601 253.833 122.196C252.459 120.922 250.032 120.768 248.667 121.869ZM191.892 122.218C190.827 122.421 190.603 123.8 191.474 124.783C191.771 125.119 192.018 125.233 192.023 125.039C192.027 124.843 192.378 124.894 192.803 125.151C193.419 125.524 193.647 125.405 193.939 124.557C194.32 123.449 193.904 121.904 193.247 121.985C193.038 122.011 192.428 122.116 191.892 122.218ZM195.374 123.331C195.374 124.509 195.615 124.812 196.71 125.013C197.445 125.147 198.636 125.196 199.356 125.122C200.447 125.009 200.667 124.748 200.667 123.564C200.667 122.155 200.641 122.14 198.02 122.017L195.374 121.893V123.331ZM62.4298 122.935C62.2593 123.26 62.2816 123.717 62.48 123.951C63.129 124.717 63.8895 124.398 63.8895 123.361C63.8895 122.259 62.9324 121.98 62.4298 122.935ZM102.975 122.929C103.081 123.302 103.418 123.597 103.725 123.585C104.552 123.553 104.4 122.644 103.532 122.433C103.064 122.319 102.855 122.505 102.975 122.929ZM40.4897 124.58C40.4897 124.915 40.7405 125.19 41.0469 125.19C41.3533 125.19 41.604 124.915 41.604 124.58C41.604 124.245 41.3533 123.97 41.0469 123.97C40.7405 123.97 40.4897 124.245 40.4897 124.58ZM89.3167 124.252C88.6894 124.71 88.9351 125.19 89.7964 125.19C90.256 125.19 90.6321 125.018 90.6321 124.807C90.6321 124.295 89.7619 123.928 89.3167 124.252ZM205.156 124.874C203.88 126.202 204.095 127.459 205.76 128.414C206.952 129.098 207.401 129.165 208.127 128.768C210.684 127.37 211.022 126.223 209.281 124.86C207.827 123.722 206.257 123.727 205.156 124.874ZM313.841 124.813C312.026 125.854 311.913 127.499 313.551 129.018C314.542 129.938 315.007 130.068 316.476 129.839C319.015 129.443 319.616 128.937 319.616 127.188C319.616 126.106 319.242 125.373 318.396 124.799C316.851 123.749 315.689 123.752 313.841 124.813ZM187.574 124.937C187.574 125.245 187.969 125.736 188.452 126.028C189.177 126.467 189.411 126.464 189.794 126.013C190.048 125.713 190.127 125.221 189.97 124.922C189.593 124.204 187.574 124.217 187.574 124.937ZM37.4255 125.19C37.2361 125.413 37.4572 125.596 37.9169 125.596C38.3765 125.596 38.9075 125.413 39.0969 125.19C39.2863 124.966 39.0651 124.783 38.6055 124.783C38.1459 124.783 37.6149 124.966 37.4255 125.19ZM42.7183 126.032C42.7183 127.074 44.5624 126.956 44.8421 125.897C44.9708 125.409 44.6705 125.19 43.8732 125.19C43.076 125.19 42.7183 125.451 42.7183 126.032ZM52.3111 126.472C52.4481 126.773 53.0075 127.082 53.5535 127.159C54.1886 127.249 54.4566 127.103 54.2967 126.753C54.1597 126.452 53.6003 126.143 53.0543 126.065C52.4192 125.976 52.1512 126.122 52.3111 126.472ZM76.7666 126.557C76.2686 126.995 76.258 127.224 76.7254 127.435C77.589 127.824 78.433 127.135 77.8848 126.488C77.5299 126.069 77.3065 126.083 76.7666 126.557ZM36.041 126.714C36.046 126.881 36.2928 127.293 36.5898 127.629C37.0266 128.122 37.1313 128.063 37.1386 127.324C37.143 126.821 36.8962 126.409 36.5898 126.409C36.2833 126.409 36.0365 126.547 36.041 126.714ZM185.717 127.493C185.076 127.961 185.311 128.441 186.181 128.441C186.641 128.441 187.017 128.167 187.017 127.832C187.017 127.197 186.358 127.025 185.717 127.493ZM64.5453 129.119C64.816 130.139 66.1181 130.279 66.1181 129.288C66.1181 128.789 65.7582 128.441 65.2417 128.441C64.7224 128.441 64.4383 128.718 64.5453 129.119ZM42.9345 129.734C42.7467 129.956 42.8548 130.329 43.1751 130.563C43.8175 131.032 45.504 130.716 45.504 130.127C45.504 129.588 43.3389 129.257 42.9345 129.734ZM34.9184 130.067C34.9184 130.291 35.2944 130.474 35.7541 130.474C36.2137 130.474 36.5898 130.291 36.5898 130.067C36.5898 129.844 36.2137 129.661 35.7541 129.661C35.2944 129.661 34.9184 129.844 34.9184 130.067ZM29.1615 130.745C28.957 130.894 28.7899 131.205 28.7899 131.436C28.7899 131.69 29.0495 131.666 29.4489 131.375C29.8116 131.11 29.9788 130.799 29.8206 130.684C29.6623 130.568 29.3654 130.596 29.1615 130.745ZM92.8607 131.263C92.8607 131.473 93.1114 131.758 93.4178 131.896C93.7242 132.035 93.9749 131.862 93.9749 131.514C93.9749 131.166 93.7242 130.88 93.4178 130.88C93.1114 130.88 92.8607 131.052 92.8607 131.263ZM169.421 132.262C167.17 133.688 167.04 134.564 169.204 133.719C169.916 133.441 171.279 133.347 172.456 133.495C177.033 134.07 177.267 134.032 177.267 132.709C177.267 131.611 177.091 131.49 175.505 131.49C174.535 131.49 173.553 131.353 173.322 131.185C172.542 130.618 171.61 130.875 169.421 132.262ZM217.771 131.368C216.936 131.977 216.905 133.916 217.711 135.015C218.195 135.675 218.668 135.793 220.026 135.596C222.358 135.255 223.231 134.639 223.231 133.332C223.231 131.368 219.574 130.052 217.771 131.368ZM53.6521 131.611C53.2114 132.131 54.2332 133.044 54.9129 132.737C55.8077 132.334 55.6751 131.287 54.7296 131.287C54.2878 131.287 53.8031 131.433 53.6521 131.611ZM272.538 132.992C271.012 133.623 270.606 134.142 270.596 135.472C270.585 136.903 272.945 138.609 274.52 138.308C276.178 137.992 277.773 136.307 277.421 135.245C277.068 134.18 275.115 132.501 274.251 132.518C273.921 132.525 273.15 132.738 272.538 132.992ZM79.4894 133.319C79.4894 133.543 79.8805 133.725 80.3579 133.725C80.8354 133.725 81.0716 133.543 80.8822 133.319C80.6928 133.095 80.3022 132.913 80.0136 132.913C79.725 132.913 79.4894 133.095 79.4894 133.319ZM34.7479 133.985C34.3027 134.31 34.8058 134.945 35.5084 134.945C35.797 134.945 36.0326 134.67 36.0326 134.335C36.0326 133.707 35.3752 133.528 34.7479 133.985ZM179.886 134.213C178.071 135.537 180.486 138.6 182.671 137.747C183.843 137.289 184.784 135.828 184.392 135.075C184.255 134.811 183.373 134.399 182.432 134.16C180.37 133.636 180.686 133.629 179.886 134.213ZM27.6756 134.538C27.6756 134.762 27.9263 134.945 28.2327 134.945C28.5391 134.945 28.7899 134.762 28.7899 134.538C28.7899 134.315 28.5391 134.132 28.2327 134.132C27.9263 134.132 27.6756 134.315 27.6756 134.538ZM43.8326 134.775C43.8326 135.129 44.1301 135.347 44.4944 135.258C45.5274 135.007 45.6984 134.132 44.7145 134.132C44.2298 134.132 43.8326 134.422 43.8326 134.775ZM66.9538 134.538C66.7315 134.801 66.8 135.198 67.1064 135.422C67.478 135.693 67.7984 135.67 68.068 135.351C68.2903 135.089 68.2218 134.691 67.9154 134.468C67.5438 134.197 67.2234 134.22 66.9538 134.538ZM55.5324 137.611C55.5324 137.959 55.7832 138.131 56.0896 137.993C56.396 137.855 56.6467 137.57 56.6467 137.36C56.6467 137.149 56.396 136.977 56.0896 136.977C55.7832 136.977 55.5324 137.262 55.5324 137.611ZM26.5613 138.197C26.5613 138.42 26.797 138.603 27.0856 138.603C27.3742 138.603 27.7647 138.42 27.9541 138.197C28.1436 137.973 27.9073 137.79 27.4299 137.79C26.9524 137.79 26.5613 137.973 26.5613 138.197ZM34.6938 138.54C34.5011 138.767 34.6147 139.076 34.9462 139.225C35.8031 139.611 36.3558 139.083 35.6404 138.561C35.2404 138.269 34.9289 138.262 34.6938 138.54ZM150.037 138.521C149.647 138.981 150.196 139.454 152.906 140.993C154.852 142.098 155.437 142.254 156.109 141.847C157.612 140.937 157.046 139.935 154.527 139.046C152.002 138.154 150.497 137.978 150.037 138.521ZM82.5999 138.955C82.3597 139.238 82.314 139.58 82.4979 139.714C82.9965 140.078 83.5403 139.543 83.2707 138.953C83.0823 138.54 82.9509 138.54 82.5999 138.955ZM44.3897 140.229C44.3897 140.452 44.6404 140.635 44.9468 140.635C45.2533 140.635 45.504 140.452 45.504 140.229C45.504 140.005 45.2533 139.822 44.9468 139.822C44.6404 139.822 44.3897 140.005 44.3897 140.229ZM68.9038 140.659C68.9038 140.896 69.1545 140.977 69.4609 140.839C69.7673 140.7 70.018 140.507 70.018 140.408C70.018 140.309 69.7673 140.229 69.4609 140.229C69.1545 140.229 68.9038 140.423 68.9038 140.659ZM189.564 141.274C188.238 142.242 188.48 143.769 190.081 144.534C191.371 145.151 191.577 145.151 192.867 144.534C194.832 143.594 194.812 141.581 192.831 141.032C190.92 140.502 190.589 140.526 189.564 141.274ZM26.4571 142.132C26.8588 142.25 27.3396 142.235 27.5246 142.1C27.7096 141.965 27.3809 141.869 26.7936 141.887C26.1446 141.906 26.0125 142.003 26.4571 142.132ZM55.5324 142.668C55.5324 142.891 56.0489 143.074 56.6796 143.074C57.3103 143.074 57.6719 142.891 57.4824 142.668C57.293 142.444 56.7771 142.261 56.3353 142.261C55.8935 142.261 55.5324 142.444 55.5324 142.668ZM235.186 143.246C234.385 144.138 234.383 144.347 235.161 145.445C236.233 146.957 237.032 147.176 238.93 146.478C240.881 145.76 241.391 144.52 240.257 143.257C239.039 141.901 236.399 141.896 235.186 143.246ZM34.3612 143.074C34.3612 143.298 34.7373 143.48 35.1969 143.48C35.6566 143.48 36.0326 143.298 36.0326 143.074C36.0326 142.85 35.6566 142.668 35.1969 142.668C34.7373 142.668 34.3612 142.85 34.3612 143.074ZM157.84 143.828C156.773 144.688 157.124 145.78 158.576 146.116C160.771 146.624 162.419 145.291 161.367 143.858C160.639 142.866 159.051 142.853 157.84 143.828ZM132.975 144.65C132.975 145.822 134.147 146.96 134.837 146.458C135.438 146.019 135.253 144.492 134.535 143.968C133.461 143.185 132.975 143.398 132.975 144.65ZM351.344 144.314C350.071 145.243 350.269 146.333 351.929 147.545C352.896 148.25 352.996 148.248 354.679 147.502C357.047 146.451 357.338 145.668 355.803 144.476C354.239 143.262 352.856 143.211 351.344 144.314ZM44.3897 144.903C44.3897 145.238 44.6404 145.513 44.9468 145.513C45.2533 145.513 45.504 145.238 45.504 144.903C45.504 144.568 45.2533 144.293 44.9468 144.293C44.6404 144.293 44.3897 144.568 44.3897 144.903ZM55.9041 146.597C55.2628 147.064 55.4979 147.545 56.3682 147.545C56.8278 147.545 57.2039 147.271 57.2039 146.935C57.2039 146.301 56.5448 146.129 55.9041 146.597ZM33.247 147.139C34.3272 147.648 34.9184 147.648 34.9184 147.139C34.9184 146.915 34.3545 146.735 33.6648 146.738C32.6514 146.744 32.5711 146.82 33.247 147.139ZM134.46 147.41C133.779 147.907 134.078 149.193 134.932 149.432C136.025 149.738 137.432 148.877 137.432 147.902C137.432 147.373 137.032 147.139 136.132 147.139C135.416 147.139 134.664 147.261 134.46 147.41ZM115.982 149.577C115.577 151.724 115.768 152.286 116.754 151.842C117.335 151.58 117.294 148.164 116.704 147.733C116.523 147.601 116.198 148.431 115.982 149.577ZM84.225 148.358C84.0356 148.582 84.1465 148.764 84.4707 148.764C84.795 148.764 85.0607 148.582 85.0607 148.358C85.0607 148.134 84.9504 147.952 84.815 147.952C84.6797 147.952 84.4145 148.134 84.225 148.358ZM43.164 149.252C43.6838 149.631 43.9813 149.631 44.5011 149.252C45.0209 148.873 44.8727 148.764 43.8326 148.764C42.7924 148.764 42.6442 148.873 43.164 149.252ZM68.9038 149.781C68.9038 150.116 69.1545 150.39 69.4609 150.39C69.7673 150.39 70.018 150.116 70.018 149.781C70.018 149.445 69.7673 149.171 69.4609 149.171C69.1545 149.171 68.9038 149.445 68.9038 149.781ZM165.149 150.423C163.046 151.317 164.575 153.991 166.883 153.457C168.767 153.02 169.435 152.125 168.725 150.988C168.066 149.932 166.782 149.729 165.149 150.423ZM302.45 150.813C301.001 151.797 300.9 152.896 302.13 154.266C303.174 155.428 304.001 155.505 306.272 154.648C308.461 153.822 308.543 152.029 306.448 150.826C304.614 149.774 303.981 149.772 302.45 150.813ZM31.5755 150.797C31.5755 151.02 31.8263 151.203 32.1327 151.203C32.4391 151.203 32.6898 151.02 32.6898 150.797C32.6898 150.573 32.4391 150.39 32.1327 150.39C31.8263 150.39 31.5755 150.573 31.5755 150.797ZM54.5396 150.859C54.8288 151.493 56.0751 151.603 56.1191 151C56.1353 150.776 55.7302 150.531 55.2193 150.453C54.6382 150.366 54.3836 150.518 54.5396 150.859ZM83.3893 151.61C83.3893 151.833 83.7804 152.016 84.2579 152.016C84.7354 152.016 84.9716 151.833 84.7822 151.61C84.5927 151.386 84.2022 151.203 83.9136 151.203C83.625 151.203 83.3893 151.386 83.3893 151.61ZM98.4476 151.594C97.7451 151.918 97.7652 152.011 98.5869 152.241C99.7296 152.561 101.218 152.211 101.218 151.622C101.218 151.102 99.5497 151.085 98.4476 151.594ZM203.855 151.836C202.259 152.651 202.293 153.549 203.976 155.065C205.283 156.242 205.383 156.262 206.898 155.662C208.784 154.913 209.315 152.897 207.9 151.864C206.761 151.033 205.444 151.024 203.855 151.836ZM136.875 152.002C135.666 152.577 136.857 153.81 138.782 153.977C140.152 154.096 140.282 153.996 140.119 152.961C139.925 151.724 138.404 151.275 136.875 152.002ZM41.0469 152.423C41.0469 152.646 41.5633 152.829 42.194 152.829C42.8247 152.829 43.1863 152.646 42.9969 152.423C42.8074 152.199 42.2915 152.016 41.8497 152.016C41.4079 152.016 41.0469 152.199 41.0469 152.423ZM67.8964 153.266C68.0062 153.506 68.3344 153.703 68.6252 153.703C68.916 153.703 69.2442 153.506 69.3539 153.266C69.4637 153.026 69.1361 152.829 68.6252 152.829C68.1143 152.829 67.7867 153.026 67.8964 153.266ZM28.7899 154.252C28.7899 154.587 29.0406 154.861 29.347 154.861C29.6534 154.861 29.9041 154.587 29.9041 154.252C29.9041 153.916 29.6534 153.642 29.347 153.642C29.0406 153.642 28.7899 153.916 28.7899 154.252ZM116.859 154.022C115.223 154.327 114.763 155.074 115.999 155.419C117.553 155.855 120.003 154.47 118.628 153.933C118.398 153.844 117.602 153.883 116.859 154.022ZM53.0253 154.455C52.803 154.717 52.8716 155.115 53.178 155.339C53.5496 155.61 53.87 155.586 54.1396 155.268C54.3619 155.005 54.2934 154.608 53.987 154.384C53.6153 154.113 53.295 154.137 53.0253 154.455ZM82.0511 154.754C81.4533 155.19 81.7001 155.674 82.5207 155.674C82.9626 155.674 83.4623 155.51 83.6317 155.311C83.986 154.892 82.5531 154.387 82.0511 154.754ZM97.5128 155.077C97.1178 155.828 98.1317 156.471 99.7246 156.481C100.459 156.486 100.689 156.235 100.56 155.573C100.339 154.439 98.0448 154.066 97.5128 155.077ZM39.1142 155.387C38.8757 155.788 38.8373 156.23 39.0278 156.369C39.5939 156.782 40.0502 156.202 39.7894 155.401C39.5588 154.691 39.5287 154.691 39.1142 155.387ZM17.09 156.081C17.09 156.304 17.3407 156.487 17.6471 156.487C17.9535 156.487 18.2042 156.304 18.2042 156.081C18.2042 155.857 17.9535 155.674 17.6471 155.674C17.3407 155.674 17.09 155.857 17.09 156.081ZM65.8373 156.49C65.6462 156.715 65.893 157.012 66.3855 157.15C67.4518 157.448 68.0463 157.12 67.5337 156.514C67.0713 155.968 66.2885 155.957 65.8373 156.49ZM25.2615 156.758C24.6202 157.226 24.8553 157.707 25.7256 157.707C26.1852 157.707 26.5613 157.432 26.5613 157.097C26.5613 156.462 25.9022 156.291 25.2615 156.758ZM5.94721 158.113C5.94721 158.337 6.21297 158.52 6.53722 158.52C6.86148 158.52 6.97235 158.337 6.78292 158.113C6.59349 157.89 6.3283 157.707 6.19291 157.707C6.05753 157.707 5.94721 157.89 5.94721 158.113ZM50.7104 158.334C50.5288 158.679 50.5204 159.063 50.6909 159.187C51.179 159.543 52.1896 158.94 52.1896 158.292C52.1896 157.512 51.1266 157.542 50.7104 158.334ZM80.9869 158.376C80.198 158.951 80.6443 159.739 81.7586 159.739C82.5375 159.739 82.855 159.518 82.7336 159.061C82.5347 158.313 81.5836 157.94 80.9869 158.376ZM258.679 158.73C257.263 159.763 257.509 161.701 259.125 162.238C262.23 163.27 265.146 161.511 263.784 159.426C262.905 158.081 260.094 157.697 258.679 158.73ZM12.6329 158.926C12.6329 159.15 12.8836 159.332 13.19 159.332C13.4964 159.332 13.7471 159.15 13.7471 158.926C13.7471 158.702 13.4964 158.52 13.19 158.52C12.8836 158.52 12.6329 158.702 12.6329 158.926ZM97.3178 159.691C97.3178 160.136 97.8264 160.554 98.529 160.688C100.066 160.981 100.661 160.71 100.661 159.715C100.661 159.109 100.272 158.926 98.9892 158.926C97.7239 158.926 97.3178 159.112 97.3178 159.691ZM118.034 160.044C118.161 160.848 118.524 161.162 119.325 161.162C120.126 161.162 120.489 160.848 120.615 160.044C120.768 159.075 120.596 158.926 119.325 158.926C118.053 158.926 117.881 159.075 118.034 160.044ZM142.831 159.211C142.115 159.346 141.874 159.714 141.996 160.485C142.137 161.378 142.485 161.59 143.978 161.695C145.559 161.807 145.789 161.701 145.789 160.862C145.789 159.964 144.834 158.867 144.145 158.973C143.977 158.999 143.385 159.106 142.831 159.211ZM35.4911 159.723C34.7852 160.049 34.8008 160.138 35.6036 160.363C36.626 160.649 37.704 160.317 37.704 159.715C37.704 159.228 36.5547 159.232 35.4911 159.723ZM0.932977 160.145C0.430996 160.382 0.361912 160.542 0.760823 160.546C1.12575 160.549 1.57926 160.369 1.76868 160.145C2.19601 159.641 2.00324 159.641 0.932977 160.145ZM64.4467 161.162C64.4467 161.803 64.7614 162.178 65.2996 162.178C66.4641 162.178 67.0206 160.961 66.0601 160.517C64.8066 159.938 64.4467 160.082 64.4467 161.162ZM21.4356 161.04C21.9554 161.419 22.253 161.419 22.7728 161.04C23.2926 160.66 23.1444 160.552 22.1042 160.552C21.064 160.552 20.9158 160.66 21.4356 161.04ZM174.895 161.022C174.015 161.664 174.003 163.089 174.871 163.722C175.239 163.99 176.237 164.21 177.089 164.21C180.028 164.21 179.878 160.898 176.928 160.636C176.191 160.571 175.276 160.744 174.895 161.022ZM48.3782 162.71C47.6211 163.375 48.0746 163.804 49.5377 163.804C50.2296 163.804 50.5372 163.567 50.4196 163.126C50.18 162.224 49.166 162.017 48.3782 162.71ZM79.861 163.262C79.2593 163.701 79.4314 164.107 80.3251 164.357C81.4711 164.678 82.8322 164.243 82.8322 163.557C82.8322 162.982 80.5546 162.756 79.861 163.262ZM32.8291 164.718C32.9567 164.998 33.3957 165.226 33.8041 165.226C34.2125 165.226 34.6515 164.998 34.7791 164.718C34.9172 164.416 34.5222 164.21 33.8041 164.21C33.0859 164.21 32.6909 164.416 32.8291 164.718ZM100.103 165.714C100.103 166.251 99.9547 166.296 99.4349 165.917C98.4526 165.2 97.8749 165.321 97.8749 166.242C97.8749 166.689 98.1886 167.058 98.5713 167.061C98.9546 167.064 99.8316 167.177 100.521 167.311C101.625 167.527 101.775 167.405 101.775 166.29C101.775 165.435 101.503 165.023 100.939 165.023C100.48 165.023 100.103 165.334 100.103 165.714ZM17.3685 165.836C17.558 166.059 18.1992 166.242 18.7942 166.242C19.3893 166.242 19.8757 166.059 19.8757 165.836C19.8757 165.612 19.2338 165.429 18.4499 165.429C17.6415 165.429 17.173 165.605 17.3685 165.836ZM63.6656 166.135C63.4823 166.268 63.3324 166.726 63.3324 167.153C63.3324 168.108 65.1854 167.974 65.4428 167C65.6177 166.337 64.2801 165.686 63.6656 166.135ZM222.669 166.379C220.698 167.108 220.118 168.036 220.874 169.248C222.154 171.298 226.574 170.789 226.574 168.591C226.574 166.654 224.737 165.614 222.669 166.379ZM121.617 167.27C120.508 168.079 121.062 169.087 122.616 169.087C124.555 169.087 125.34 168.268 124.245 167.386C123.13 166.487 122.715 166.469 121.617 167.27ZM46.8857 169.1C46.6695 169.356 46.7548 169.756 47.0751 169.99C47.8239 170.536 49.5694 170.06 49.2647 169.392C48.9549 168.713 47.3782 168.519 46.8857 169.1ZM80.9413 170.544C80.573 171.244 81.451 172.339 82.3803 172.339C83.1141 172.339 82.6951 170.2 81.9257 170.016C81.5803 169.934 81.1374 170.172 80.9413 170.544ZM149.525 170.721C149.251 171.482 150.355 172.746 151.293 172.746C152.514 172.746 153.7 171.61 153.341 170.784C152.819 169.583 149.949 169.535 149.525 170.721ZM31.385 170.581C30.6223 171.138 31.0619 171.933 32.1327 171.933C32.7455 171.933 33.247 171.772 33.247 171.576C33.247 171.043 31.8068 170.274 31.385 170.581ZM15.4186 172.339C15.4186 172.563 15.7946 172.746 16.2543 172.746C16.7139 172.746 17.09 172.563 17.09 172.339C17.09 172.116 16.7139 171.933 16.2543 171.933C15.7946 171.933 15.4186 172.116 15.4186 172.339ZM0.0972709 173.559C-0.0921558 173.782 0.00367393 173.965 0.3101 173.965C0.616525 173.965 1.02212 173.782 1.21155 173.559C1.40097 173.335 1.30514 173.152 0.998717 173.152C0.692292 173.152 0.286698 173.335 0.0972709 173.559ZM340.926 173.841C340.237 173.941 339.673 174.279 339.673 174.594C339.673 175.006 340.298 175.14 341.912 175.073C343.551 175.006 344.11 174.819 343.995 174.376C343.825 173.721 342.894 173.559 340.926 173.841ZM102.471 174.234C101.559 174.503 101.583 175.375 102.517 175.941C103.066 176.273 103.532 176.244 104.306 175.831C105.196 175.357 105.242 175.174 104.611 174.619C103.834 173.936 103.617 173.897 102.471 174.234ZM63.7229 174.628C62.8477 175.267 63.4042 175.997 64.7659 175.997C65.8278 175.997 66.1515 175.814 66.0133 175.29C65.8178 174.551 64.3937 174.139 63.7229 174.628ZM187.873 175.949C187.4 177.039 188.677 178.436 190.147 178.436C191.69 178.436 192.721 177.507 192.492 176.325C192.345 175.569 191.914 175.364 190.268 175.264C188.632 175.164 188.156 175.301 187.873 175.949ZM46.8054 177.447C46.3664 178.282 47.2478 178.906 48.2362 178.46C49.078 178.08 48.6902 176.81 47.7325 176.81C47.4066 176.81 46.9899 177.097 46.8054 177.447ZM127.201 178.142C126.603 178.461 126.367 178.925 126.589 179.346C126.993 180.115 128.77 180.654 129.627 180.268C130.512 179.868 130.282 178.143 129.307 177.87C128.187 177.556 128.335 177.537 127.201 178.142ZM288.277 179.151C287.434 179.532 286.746 179.939 286.747 180.055C286.749 180.17 287.345 180.808 288.072 181.471C289.278 182.57 289.525 182.633 290.871 182.186C292.82 181.538 293.197 180.687 292.086 179.449C291.02 178.262 290.356 178.211 288.277 179.151ZM29.9041 180.018C29.9041 180.492 31.5315 180.943 32.1828 180.649C33.165 180.206 32.6737 179.655 31.297 179.655C30.5309 179.655 29.9041 179.819 29.9041 180.018ZM82.8322 180.628C82.8322 181.851 84.2991 182.319 85.0262 181.328C85.3922 180.829 85.3588 180.442 84.9231 180.124C83.8584 179.347 82.8322 179.594 82.8322 180.628ZM14.3043 181.688C14.3043 181.911 14.6803 182.094 15.14 182.094C15.5996 182.094 15.9757 181.911 15.9757 181.688C15.9757 181.464 15.5996 181.281 15.14 181.281C14.6803 181.281 14.3043 181.464 14.3043 181.688ZM160.351 183.564C159.568 183.964 159.161 184.534 159.268 185.081C159.406 185.786 159.817 185.956 161.389 185.956C162.931 185.956 163.373 185.781 163.502 185.12C163.593 184.661 163.202 183.979 162.635 183.604C161.692 182.981 161.497 182.978 160.351 183.564ZM65.0979 185.411C65.1993 185.934 65.6584 186.362 66.1181 186.362C67.3265 186.362 67.1599 184.776 65.9337 184.604C65.1425 184.493 64.9548 184.674 65.0979 185.411ZM106.314 185.701C105.718 185.981 105.697 186.242 106.212 186.945C107.079 188.126 108.739 187.877 108.739 186.565C108.739 185.503 107.6 185.097 106.314 185.701ZM243.94 185.691C243.521 185.891 243.278 186.554 243.382 187.219C243.545 188.258 243.786 188.394 245.456 188.394C247.718 188.394 248.919 187.373 247.964 186.26C247.281 185.465 245.072 185.152 243.94 185.691ZM47.562 188.451C46.9809 188.875 47.7169 189.411 48.8797 189.411C49.4747 189.411 49.9611 189.136 49.9611 188.801C49.9611 188.198 48.2507 187.948 47.562 188.451ZM31.3744 191.318C30.7471 191.776 30.9928 192.256 31.8541 192.256C32.3137 192.256 32.6898 192.084 32.6898 191.873C32.6898 191.361 31.8196 190.994 31.3744 191.318ZM133.839 191.815C133.334 192.411 134.54 194.288 135.428 194.288C136.909 194.288 138.051 193.101 137.411 192.228C136.819 191.421 134.409 191.143 133.839 191.815ZM85.6179 192.409C85.6179 192.717 86.0045 193.203 86.477 193.489C87.5361 194.131 88.7217 193.447 88.2164 192.486C87.8035 191.701 85.6179 191.637 85.6179 192.409ZM205.415 192.653C204.183 193.552 204.425 194.502 206.046 195.135C208.473 196.082 210.524 194.479 209.024 192.808C207.973 191.638 206.871 191.591 205.415 192.653ZM14.8614 193.296C14.8614 193.644 15.116 193.814 15.4275 193.674C15.7389 193.534 15.8498 193.249 15.6732 193.041C15.1957 192.477 14.8614 192.582 14.8614 193.296ZM67.2323 197.922C67.2323 198.937 68.3265 199.436 68.9572 198.71C69.7701 197.774 69.5216 197.133 68.3466 197.133C67.6151 197.133 67.2323 197.404 67.2323 197.922ZM111.246 199.76C111.246 200.958 112.766 201.616 113.53 200.749C114.324 199.849 113.851 198.974 112.494 198.832C111.476 198.727 111.246 198.897 111.246 199.76ZM170.889 200.156C169.19 201.65 172.529 203.336 174.474 201.966C175.342 201.354 175.45 201.034 174.974 200.481C174.18 199.555 171.789 199.365 170.889 200.156ZM49.6597 202.038C49.1471 202.643 49.7416 202.972 50.8079 202.674C51.3004 202.536 51.5472 202.239 51.3561 202.014C50.9049 201.481 50.1221 201.492 49.6597 202.038ZM32.6898 205.262C32.6898 205.486 32.9405 205.669 33.247 205.669C33.5534 205.669 33.8041 205.486 33.8041 205.262C33.8041 205.039 33.5534 204.856 33.247 204.856C32.9405 204.856 32.6898 205.039 32.6898 205.262ZM89.3557 206.329C89.1384 206.488 88.9607 206.782 88.9607 206.983C88.9607 207.479 91.7497 207.197 91.9029 206.685C92.0467 206.206 89.9296 205.91 89.3557 206.329ZM15.4186 207.701C15.4186 207.925 15.6693 208.108 15.9757 208.108C16.2821 208.108 16.5328 207.925 16.5328 207.701C16.5328 207.478 16.2821 207.295 15.9757 207.295C15.6693 207.295 15.4186 207.478 15.4186 207.701ZM142.09 207.904C141.602 208.832 142.285 209.734 143.474 209.734C144.826 209.734 146.012 208.711 145.59 207.91C145.171 207.114 142.508 207.11 142.09 207.904ZM270.03 208.519C270.03 209.041 271.703 209.343 273.139 209.08C275.247 208.693 274.721 208.156 272.259 208.181C271.033 208.193 270.03 208.345 270.03 208.519ZM69.7372 212.175C69.5461 212.4 69.7929 212.697 70.2854 212.835C71.3518 213.134 71.9463 212.805 71.4337 212.2C70.9713 211.653 70.1885 211.642 69.7372 212.175ZM225.646 212.886C224.206 213.061 223.457 214.203 224.465 214.685C225.664 215.257 228.496 214.885 228.692 214.13C228.902 213.319 227.339 212.68 225.646 212.886ZM116.355 215.087C116.478 215.718 116.972 216.078 117.837 216.168C118.917 216.28 119.105 216.143 118.951 215.355C118.829 214.724 118.335 214.363 117.469 214.274C116.389 214.162 116.202 214.299 116.355 215.087ZM51.0753 217.05C51.0753 217.273 51.4514 217.456 51.9111 217.456C52.3707 217.456 52.7468 217.273 52.7468 217.05C52.7468 216.826 52.3707 216.643 51.9111 216.643C51.4514 216.643 51.0753 216.826 51.0753 217.05ZM183.824 218.976C183.362 219.856 185.548 221.251 186.9 220.938C188.24 220.628 188.951 219.517 188.172 218.95C187.285 218.302 184.169 218.321 183.824 218.976ZM92.5709 221.534C92.3548 221.789 92.44 222.189 92.7604 222.423C93.5092 222.969 95.2547 222.493 94.9499 221.825C94.6402 221.146 93.0635 220.953 92.5709 221.534ZM149.888 224.981C149.432 225.846 150.691 226.805 152.282 226.805C153.864 226.805 154.558 225.827 153.583 224.971C152.689 224.185 150.303 224.191 149.888 224.981ZM72.07 227.069C71.4766 227.502 71.6231 228.837 72.2639 228.837C73.0879 228.837 73.6065 227.634 72.9798 227.177C72.6889 226.965 72.2794 226.916 72.07 227.069ZM120.903 231.511C120.717 231.863 120.924 232.414 121.363 232.734C122.04 233.228 122.319 233.232 123.201 232.761C124.498 232.069 123.983 230.869 122.389 230.869C121.757 230.869 121.088 231.158 120.903 231.511ZM52.1896 233.308C52.1896 233.532 52.4403 233.715 52.7468 233.715C53.0532 233.715 53.3039 233.532 53.3039 233.308C53.3039 233.085 53.0532 232.902 52.7468 232.902C52.4403 232.902 52.1896 233.085 52.1896 233.308ZM249.695 237.373C249.505 237.596 249.742 237.779 250.219 237.779C250.697 237.779 251.088 237.596 251.088 237.373C251.088 237.149 250.852 236.966 250.563 236.966C250.275 236.966 249.884 237.149 249.695 237.373ZM247.188 237.779C247.188 238.003 247.423 238.186 247.712 238.186C248.001 238.186 248.391 238.003 248.581 237.779C248.77 237.556 248.534 237.373 248.056 237.373C247.579 237.373 247.188 237.556 247.188 237.779ZM94.5248 238.395C93.7064 239.115 94.2747 239.812 95.6792 239.812C96.3689 239.812 96.7606 239.533 96.7606 239.042C96.7606 238.059 95.3667 237.655 94.5248 238.395ZM199.328 240.78C198.833 241.216 198.891 241.399 199.584 241.593C200.869 241.953 202.211 241.892 203.174 241.431C203.917 241.075 203.917 240.987 203.174 240.631C201.969 240.054 200.07 240.128 199.328 240.78ZM71.8009 244.364C71.4332 244.632 71.1323 244.998 71.1323 245.177C71.1323 245.661 72.6806 245.57 73.1124 245.06C73.6862 244.383 72.5797 243.796 71.8009 244.364ZM157.752 245.113C157.213 245.75 158.568 246.721 159.996 246.721C161.423 246.721 162.779 245.75 162.239 245.113C162.042 244.88 161.032 244.689 159.996 244.689C158.959 244.689 157.95 244.88 157.752 245.113ZM50.7968 249.567C50.6074 249.79 50.7182 249.973 51.0425 249.973C51.3667 249.973 51.6325 249.79 51.6325 249.567C51.6325 249.343 51.5222 249.16 51.3868 249.16C51.2514 249.16 50.9862 249.343 50.7968 249.567ZM123.503 250.339C123.503 251.279 125.407 252.183 126.65 251.835C127.134 251.7 127.407 251.219 127.303 250.686C127.166 249.983 126.703 249.74 125.314 249.643C123.809 249.537 123.503 249.654 123.503 250.339ZM93.4022 255.474C92.7732 256.027 92.781 256.192 93.4535 256.507C94.6797 257.082 95.9249 256.759 95.9249 255.867C95.9249 254.85 94.385 254.61 93.4022 255.474ZM67.7895 261.324C67.7895 261.906 68.1472 262.167 68.9444 262.167C69.7417 262.167 70.042 261.948 69.9133 261.46C69.6336 260.401 67.7895 260.283 67.7895 261.324ZM44.9468 266.028C44.9468 266.401 45.2165 266.64 45.5458 266.56C45.875 266.48 46.1447 266.241 46.1447 266.028C46.1447 265.816 45.875 265.577 45.5458 265.497C45.2165 265.417 44.9468 265.656 44.9468 266.028ZM166.217 267.316C166.013 267.464 165.846 267.837 165.846 268.143C165.846 268.567 166.102 268.599 166.923 268.278C167.516 268.047 168.659 267.857 169.463 267.857C170.296 267.857 170.777 267.683 170.581 267.451C170.197 266.998 166.797 266.892 166.217 267.316ZM127.235 269.741C127.04 269.883 126.31 270.021 125.61 270.046C124.88 270.073 124.339 270.353 124.339 270.703C124.339 271.139 124.948 271.312 126.481 271.312C128.837 271.312 129.247 271.098 128.738 270.129C128.381 269.451 127.829 269.308 127.235 269.741ZM90.2143 273.453C88.5484 273.654 88.6181 274.671 90.3368 275.242C92.5319 275.972 94.6039 274.397 92.4428 273.642C91.9063 273.455 90.904 273.37 90.2143 273.453ZM59.6341 278.222C59.1271 279.186 60.1578 279.731 61.8866 279.415C63.8544 279.054 63.597 277.862 61.5139 277.687C60.4943 277.601 59.8664 277.78 59.6341 278.222ZM34.9184 282.896C34.9184 283.343 35.1384 283.709 35.4075 283.709C36.1379 283.709 37.1926 282.659 36.7708 282.351C36.0081 281.794 34.9184 282.115 34.9184 282.896ZM12.6329 286.985C12.6329 287.222 12.8836 287.302 13.19 287.164C13.4964 287.026 13.7471 286.833 13.7471 286.734C13.7471 286.635 13.4964 286.555 13.19 286.555C12.8836 286.555 12.6329 286.748 12.6329 286.985ZM50.5015 298.319C50.8207 298.754 51.3305 299.222 51.6353 299.359C52.4203 299.713 52.3256 298.604 51.5211 298.017C50.4809 297.258 49.8586 297.442 50.5015 298.319ZM47.1754 298.952C47.1754 299.287 47.5821 299.561 48.0791 299.561C48.8195 299.561 48.8579 299.451 48.2897 298.952C47.908 298.616 47.5013 298.342 47.386 298.342C47.2701 298.342 47.1754 298.616 47.1754 298.952ZM19.0399 301.594C18.8394 301.83 19.3948 302 20.367 302C21.2863 302 22.1933 301.817 22.3828 301.594C22.5833 301.357 22.0279 301.187 21.0557 301.187C20.1364 301.187 19.2294 301.37 19.0399 301.594Z" fill="url(#paint0_radial_2_655)" fill-opacity="0.2"/>
<defs>
<radialGradient id="paint0_radial_2_655" cx="0" cy="0" r="1" gradientTransform="matrix(-218.984 61.9041 -93.1543 -174.605 218.984 114.689)" gradientUnits="userSpaceOnUse">
<stop stop-color="#474747"/>
<stop offset="1" stop-color="#D5D5D5" stop-opacity="0"/>
</radialGradient>
</defs>
</svg>
