<svg width="53" height="15" viewBox="0 0 53 15" fill="none" xmlns="http://www.w3.org/2000/svg">
<path d="M0 0.0023128H4.88463C5.32869 0.0023128 6.66086 -0.145706 7.25294 1.92656C7.697 3.25873 8.28907 5.331 9.17719 8.43941H9.47323C10.3613 5.18298 11.1014 2.9627 11.3975 1.92656C11.9896 -0.145706 13.4697 0.0023128 14.0618 0.0023128H18.6504V14.2122H13.9138V5.77506H13.6178L11.1014 14.2122H7.54898L5.03265 5.77506H4.58859V14.2122H0M20.5747 0.0023128H25.3113V8.43941H25.7553L28.8637 1.4825C29.4558 0.150332 30.788 0.0023128 30.788 0.0023128H35.2286V14.2122H30.492V5.77506H30.1959L27.0875 12.732C26.4954 14.0641 25.0152 14.2122 25.0152 14.2122H20.5747M41.5934 9.9196V14.2122H37.1528V6.81119H51.6587C51.0666 8.58743 48.9944 9.9196 46.626 9.9196" fill="#8A8A9A"/>
<path d="M51.9544 5.92321C52.5465 3.25886 50.7702 0.00244141 46.9218 0.00244141H36.8564C37.1525 3.11084 39.8168 5.92321 42.6292 5.92321" fill="#8A8A9A"/>
</svg>
