<svg width="44" height="15" viewBox="0 0 44 15" fill="none" xmlns="http://www.w3.org/2000/svg">
<path d="M18.9257 13.9712H15.3877L17.6006 0.249023H21.1385L18.9257 13.9712Z" fill="#8A8A9A"/>
<path d="M31.7518 0.58421C31.054 0.30656 29.9471 0 28.5785 0C25.0846 0 22.6242 1.86846 22.6091 4.5398C22.58 6.5107 24.3706 7.60539 25.7099 8.26256C27.0787 8.93408 27.544 9.37238 27.544 9.97095C27.5301 10.8902 26.4379 11.314 25.4193 11.314C24.0067 11.314 23.2499 11.0955 22.0997 10.5841L21.6338 10.3648L21.1387 13.4452C21.9685 13.8243 23.4973 14.1607 25.0846 14.1755C28.7969 14.1755 31.2138 12.3359 31.2424 9.48918C31.2565 7.92709 30.311 6.73015 28.2726 5.75207C27.0351 5.1242 26.2773 4.70084 26.2773 4.05842C26.2918 3.47441 26.9183 2.87623 28.3152 2.87623C29.4654 2.84693 30.3105 3.12419 30.9507 3.40165L31.2707 3.54736L31.7518 0.58421Z" fill="#8A8A9A"/>
<path d="M36.4544 9.10995C36.7458 8.32163 37.8669 5.27059 37.8669 5.27059C37.8522 5.29988 38.1577 4.46771 38.3324 3.95684L38.5797 5.13923C38.5797 5.13923 39.2497 8.42388 39.3952 9.10995C38.8422 9.10995 37.1532 9.10995 36.4544 9.10995ZM40.8217 0.249023H38.085C37.2411 0.249023 36.5999 0.496987 36.2358 1.38756L30.9805 13.9711H34.6928C34.6928 13.9711 35.304 12.2774 35.4354 11.9126C35.8426 11.9126 39.454 11.9126 39.9779 11.9126C40.0795 12.3944 40.4001 13.9711 40.4001 13.9711H43.676L40.8217 0.249023Z" fill="#8A8A9A"/>
<path d="M12.4334 0.249023L8.96845 9.60627L8.58982 7.70851C7.94923 5.51874 5.94021 3.13961 3.69824 1.95664L6.87197 13.9567H10.6134L16.1745 0.249023H12.4334Z" fill="#8A8A9A"/>
<path d="M5.7506 0.249023H0.0582351L0 0.526285C4.4404 1.66502 7.38119 4.40989 8.58943 7.70909L7.35198 1.4025C7.14825 0.526091 6.52217 0.277933 5.7506 0.249023Z" fill="#8A8A9A"/>
</svg>
