<svg width="42" height="26" viewBox="0 0 42 26" fill="none" xmlns="http://www.w3.org/2000/svg">
<path d="M26.0765 2.71289H14.9619V22.6527H26.0765V2.71289Z" fill="#9595AD"/>
<path d="M15.7018 12.683C15.7018 8.63182 17.609 5.03625 20.5356 2.71309C18.3817 1.02203 15.6648 0 12.7012 0C5.68058 0 0 5.67245 0 12.683C0 19.6935 5.68058 25.366 12.7012 25.366C15.6648 25.366 18.3817 24.3439 20.5356 22.6529C17.6049 20.3626 15.7018 16.7341 15.7018 12.683Z" fill="#8A8A9A"/>
<path d="M41.0707 12.683C41.0707 19.6935 35.3902 25.366 28.3696 25.366C25.406 25.366 22.689 24.3439 20.5352 22.6529C23.4988 20.3256 25.369 16.7341 25.369 12.683C25.369 8.63182 23.4618 5.03625 20.5352 2.71309C22.6849 1.02203 25.4019 0 28.3655 0C35.3902 0 41.0707 5.70939 41.0707 12.683Z" fill="#80808F"/>
</svg>
