<svg width="49" height="25" viewBox="0 0 49 25" fill="none" xmlns="http://www.w3.org/2000/svg">
<path d="M43.0554 7.13616V13.2483H40.8728V8.96075H38.7714V13.2483H36.5889V7.13574H43.0554V7.13616Z" fill="#8A8A9A"/>
<path fill-rule="evenodd" clip-rule="evenodd" d="M32.1072 13.4668C34.0609 13.4668 35.5118 12.2689 35.5118 10.4528C35.5118 8.69509 34.4414 7.55383 32.6524 7.55383C31.8268 7.55383 31.1455 7.84446 30.6324 8.34592C30.7549 7.30946 31.6314 6.55279 32.5964 6.55279C32.8191 6.55279 34.4957 6.54925 34.4957 6.54925L35.4439 4.73486C35.4439 4.73486 33.3389 4.78278 32.3603 4.78278C30.1245 4.82174 28.6143 6.85404 28.6143 9.32238C28.6143 12.198 30.0872 13.4668 32.1072 13.4668ZM32.1191 9.16092C32.8445 9.16092 33.3474 9.63759 33.3474 10.4526C33.3474 11.1861 32.9005 11.7905 32.1191 11.7922C31.3716 11.7922 30.8686 11.2322 30.8686 10.4651C30.8686 9.64988 31.3716 9.16092 32.1191 9.16092Z" fill="#8A8A9A"/>
<path d="M26.8373 11.202C26.8373 11.202 26.3219 11.4991 25.5521 11.5553C24.6671 11.5816 23.8785 11.0226 23.8785 10.0295C23.8785 9.06071 24.5744 8.5055 25.5298 8.5055C26.1156 8.5055 26.8906 8.91154 26.8906 8.91154C26.8906 8.91154 27.4577 7.87091 27.7515 7.35049C27.2135 6.94278 26.4971 6.71924 25.6637 6.71924C23.5606 6.71924 21.9316 8.09049 21.9316 10.0172C21.9316 11.9684 23.4627 13.3078 25.6637 13.2674C26.279 13.2445 27.1277 13.0284 27.645 12.6961L26.8373 11.202Z" fill="#8A8A9A"/>
<path d="M0 5.44189L3.02751 10.8534V14.1542L0.00354168 19.5551L0 5.44189Z" fill="#8A8A9A"/>
<path d="M11.625 8.88382L14.4619 7.14507L20.2677 7.13965L11.625 12.4343V8.88382Z" fill="#727284"/>
<path d="M11.6084 5.40981L11.6244 12.5744L8.58984 10.7098V0L11.6084 5.40981Z" fill="#8A8A9A"/>
<path d="M20.2672 7.13982L14.4611 7.14524L11.6084 5.40981L8.58984 0L20.2672 7.13982Z" fill="#8A8A9A"/>
<path d="M11.6244 19.585V16.109L8.58984 14.2798L8.59151 25.0002L11.6244 19.585Z" fill="#8A8A9A"/>
<path d="M14.4542 17.8622L3.0273 10.8534L0 5.44189L20.2549 17.8551L14.4542 17.8622Z" fill="#8A8A9A"/>
<path d="M8.5918 25.0002L11.6243 19.585L14.4541 17.8621L20.2548 17.855L8.5918 25.0002Z" fill="#727284"/>
<path d="M0.00390625 19.5547L8.61499 14.2797L5.71997 12.5034L3.02788 14.1538L0.00390625 19.5547Z" fill="#727284"/>
<path d="M23.8793 17.3617C23.8126 17.4467 23.7249 17.5108 23.6197 17.5542C23.5117 17.5981 23.3962 17.6205 23.2797 17.62C23.1638 17.6216 23.0485 17.6022 22.9395 17.5629C22.8415 17.5273 22.752 17.4719 22.6765 17.4C22.602 17.328 22.5435 17.2411 22.5049 17.145C22.463 17.0397 22.4421 16.9273 22.4434 16.814C22.4434 16.7015 22.4628 16.5973 22.503 16.4985C22.5415 16.3996 22.5976 16.3148 22.6678 16.2435C22.738 16.1708 22.8222 16.1154 22.9167 16.0721C23.0132 16.0304 23.1184 16.0079 23.234 16.0079C23.3586 16.0079 23.4743 16.0235 23.5795 16.0546C23.6847 16.0858 23.774 16.1379 23.8476 16.2108L23.7197 16.4275C23.6578 16.3714 23.5849 16.3288 23.5057 16.3025C23.4304 16.2782 23.3517 16.266 23.2726 16.2662C23.2026 16.2662 23.1359 16.28 23.0711 16.306C23.0073 16.3317 22.9489 16.3694 22.8992 16.4171C22.8485 16.4661 22.8085 16.5251 22.7817 16.5904C22.752 16.6579 22.738 16.7325 22.738 16.8156C22.738 16.9006 22.7536 16.9769 22.7834 17.0427C22.8134 17.1104 22.8536 17.1677 22.9045 17.216C22.9553 17.2648 23.0149 17.301 23.0832 17.3254C23.1518 17.3515 23.2236 17.3635 23.3007 17.3635C23.3953 17.3635 23.4813 17.3444 23.5549 17.3079C23.6278 17.2727 23.6932 17.2239 23.7478 17.1642L23.8793 17.3617ZM24.2403 17.5835V16.0408H24.5174V17.1902L25.4184 16.0408H25.6955V17.5837H25.4184V16.4344L24.5174 17.5837L24.2403 17.5835ZM27.5309 17.3617C27.4628 17.4474 27.3733 17.5137 27.2716 17.5542C27.1635 17.5981 27.048 17.6205 26.9313 17.62C26.8155 17.6216 26.7003 17.6022 26.5913 17.5629C26.4933 17.5273 26.4038 17.4719 26.3282 17.4C26.2537 17.328 26.1952 17.2411 26.1566 17.145C26.1147 17.0397 26.0938 16.9273 26.0951 16.814C26.0951 16.7015 26.1145 16.5973 26.1547 16.4985C26.1934 16.3996 26.2495 16.3148 26.3195 16.2435C26.3897 16.1708 26.4738 16.1154 26.5684 16.0721C26.6683 16.0281 26.7766 16.0062 26.8857 16.0079C27.0103 16.0079 27.1259 16.0235 27.2311 16.0546C27.3364 16.0858 27.4257 16.1379 27.4995 16.2108L27.3714 16.4275C27.3096 16.3714 27.2368 16.3288 27.1576 16.3025C27.0823 16.2782 27.0036 16.266 26.9245 16.2662C26.7852 16.2667 26.6515 16.3207 26.5509 16.4171C26.5006 16.4664 26.4606 16.5254 26.4334 16.5904C26.4036 16.6579 26.3897 16.7325 26.3897 16.8156C26.3897 16.9006 26.4055 16.9769 26.4353 17.0427C26.4651 17.1104 26.5053 17.1677 26.5561 17.216C26.607 17.2648 26.6668 17.301 26.7351 17.3254C26.8034 17.3496 26.8753 17.3635 26.9524 17.3635C27.0472 17.3635 27.1314 17.3444 27.2066 17.3079C27.2794 17.2727 27.3449 17.2239 27.3995 17.1642L27.5309 17.3617ZM27.673 16.0408H29.0947V16.3148H28.5232V17.5835H28.2461V16.3148H27.6747V16.0408H27.673Z" fill="#8A8A9A"/>
<path fill-rule="evenodd" clip-rule="evenodd" d="M30.3883 17.5682C30.4935 17.5353 30.5829 17.4849 30.66 17.4157L30.5758 17.2007C30.525 17.2459 30.4567 17.2841 30.3744 17.3153C30.2919 17.3466 30.199 17.362 30.0973 17.362C29.9448 17.362 29.8185 17.3222 29.7185 17.2407C29.6187 17.1591 29.5644 17.0449 29.5521 16.8991H30.7513C30.7635 16.8453 30.7688 16.7847 30.7688 16.7137C30.7688 16.6078 30.7494 16.5126 30.7108 16.4259C30.675 16.3418 30.6225 16.2657 30.5567 16.2022C30.4899 16.1393 30.4112 16.0904 30.3252 16.0584C30.2352 16.0235 30.1394 16.0059 30.0429 16.0064C29.9131 16.0064 29.7992 16.0289 29.6994 16.0705C29.605 16.1102 29.5197 16.1686 29.4485 16.2422C29.3795 16.3154 29.3264 16.4022 29.2927 16.497C29.2557 16.598 29.2372 16.7048 29.2383 16.8124C29.2383 16.9339 29.2594 17.0447 29.2979 17.1437C29.3354 17.2395 29.3928 17.3264 29.4662 17.3984C29.5381 17.4693 29.6256 17.5232 29.7292 17.5614C29.84 17.6007 29.957 17.62 30.0746 17.6184C30.1811 17.6178 30.2869 17.6007 30.3883 17.5682ZM29.6871 16.3807C29.7729 16.3028 29.8869 16.2647 30.0306 16.2647C30.1656 16.2647 30.2744 16.3012 30.3533 16.3741C30.4323 16.4468 30.4742 16.5474 30.4812 16.6755H29.5346C29.548 16.5621 29.6022 16.4572 29.6871 16.3807Z" fill="#8A8A9A"/>
<path d="M31.1455 16.041H31.398L31.9976 16.8056L32.5655 16.041H32.8109V17.5839H32.5341V16.4589L31.9941 17.1748H31.9834L31.4226 16.4587V17.5837H31.1455V16.041Z" fill="#8A8A9A"/>
<path fill-rule="evenodd" clip-rule="evenodd" d="M33.5655 16.0464C33.4814 16.0683 33.401 16.1027 33.3271 16.1484L33.4007 16.3672C33.4638 16.3359 33.5269 16.3099 33.59 16.2874C33.6532 16.2647 33.7338 16.2543 33.8303 16.2543C33.9073 16.2543 33.9688 16.2666 34.0161 16.2907C34.0634 16.3132 34.0984 16.348 34.123 16.3897C34.1476 16.4314 34.1634 16.4832 34.1721 16.5439C34.1809 16.6045 34.1844 16.6703 34.1844 16.7416C34.1277 16.7021 34.0631 16.6754 33.9951 16.6634C33.9292 16.6504 33.8624 16.6434 33.7953 16.6426C33.7128 16.6426 33.6357 16.6549 33.5619 16.6755C33.4884 16.6964 33.4253 16.7276 33.3744 16.7693C33.3225 16.8109 33.2806 16.8635 33.2517 16.9234C33.2208 16.989 33.2052 17.0608 33.2061 17.1332C33.2061 17.2841 33.25 17.402 33.3375 17.4853C33.4253 17.5684 33.5409 17.6099 33.6846 17.6099C33.8144 17.6099 33.918 17.5874 33.9967 17.5424C34.0757 17.4972 34.1388 17.4453 34.1844 17.3864V17.5857H34.4438V16.6393C34.4438 16.438 34.4001 16.2822 34.3107 16.1728C34.223 16.0636 34.0669 16.0082 33.8461 16.0082C33.7478 16.0082 33.6548 16.022 33.5655 16.0464ZM34.0286 17.2964C33.9655 17.3414 33.883 17.362 33.7813 17.362C33.6919 17.362 33.6217 17.3395 33.5728 17.2962C33.5236 17.2512 33.499 17.1922 33.499 17.1193C33.499 17.0762 33.5078 17.0397 33.5271 17.0068C33.5465 16.9739 33.5728 16.9478 33.6025 16.927C33.6351 16.9052 33.6713 16.8893 33.7094 16.8801C33.7498 16.8697 33.79 16.8645 33.8321 16.8645C33.969 16.8645 34.0863 16.8974 34.1828 16.9668V17.1626C34.1373 17.2135 34.0855 17.2586 34.0286 17.2964ZM36.8896 15.4984C36.9457 15.4726 36.9982 15.4293 37.0474 15.3651L36.8965 15.1484C36.858 15.2005 36.8142 15.2368 36.7651 15.2559C36.713 15.2763 36.6589 15.2914 36.6038 15.3009L36.5513 15.3103C36.5057 15.3182 36.4567 15.327 36.404 15.3357C36.3195 15.3514 36.2371 15.377 36.1586 15.412C36.034 15.4657 35.9342 15.5384 35.8588 15.6303C35.7834 15.7222 35.7238 15.8261 35.6834 15.9407C35.6425 16.0568 35.6148 16.1772 35.6011 16.2995C35.5869 16.4245 35.5801 16.5439 35.5801 16.6582C35.5801 16.8057 35.5992 16.9391 35.6378 17.0587C35.6765 17.1784 35.7307 17.2789 35.8026 17.3603C35.8744 17.4437 35.9605 17.5062 36.0621 17.5512C36.1638 17.5962 36.2778 17.6187 36.4057 17.6187C36.5232 17.6187 36.6319 17.5962 36.7301 17.5545C36.8247 17.5145 36.9105 17.4562 36.9826 17.383C37.0526 17.3118 37.1088 17.2268 37.1474 17.1316C37.1876 17.0362 37.2069 16.9339 37.2069 16.8264C37.2069 16.7103 37.1894 16.6047 37.1561 16.5109C37.1254 16.4216 37.0765 16.3396 37.0124 16.2701C36.9481 16.2018 36.8697 16.1485 36.7826 16.1139C36.6866 16.0761 36.5842 16.0572 36.4811 16.0584C36.4144 16.0584 36.3496 16.0672 36.2865 16.0845C36.2251 16.1018 36.1662 16.1269 36.1111 16.1591C36.0577 16.1897 36.0087 16.2275 35.9657 16.2716C35.9236 16.3151 35.8886 16.3637 35.864 16.4191H35.8569C35.8623 16.348 35.8711 16.2753 35.8867 16.2007C35.9026 16.1262 35.9253 16.0549 35.9553 15.9874C35.9851 15.9199 36.0236 15.8591 36.0709 15.8036C36.1216 15.7477 36.1838 15.7034 36.2532 15.6736C36.3295 15.6373 36.4103 15.6111 36.4934 15.5957L36.5484 15.5857C36.6032 15.5757 36.6555 15.5661 36.7055 15.5557C36.7721 15.542 36.8334 15.5243 36.8896 15.4984ZM35.9148 16.9807C35.8877 16.8932 35.8747 16.8019 35.8763 16.7103C35.8881 16.6577 35.9095 16.6078 35.9394 16.563C35.9692 16.5162 36.0078 16.4747 36.0534 16.438C36.1564 16.3574 36.2836 16.314 36.4144 16.3151C36.5776 16.3151 36.7003 16.3653 36.7861 16.4643C36.8721 16.5647 36.9142 16.6895 36.9142 16.8403C36.9142 16.9149 36.9001 16.9826 36.8757 17.0449C36.852 17.1063 36.8162 17.1624 36.7704 17.2098C36.7247 17.2571 36.6698 17.2948 36.6092 17.3205C36.5461 17.3482 36.4776 17.3622 36.4005 17.3622C36.3234 17.3622 36.2532 17.3466 36.1884 17.3153C36.124 17.2847 36.0671 17.2403 36.0217 17.1853C35.9742 17.124 35.938 17.0547 35.9148 16.9807ZM39.3317 16.0411H39.0547V17.5841H39.3317V16.0411ZM37.6065 16.0411H37.8836V16.5041H38.1397C38.2605 16.5041 38.3586 16.5197 38.4376 16.5491C38.5165 16.5787 38.5797 16.6184 38.6269 16.667C38.6742 16.7155 38.7076 16.7728 38.7269 16.8368C38.7461 16.9009 38.7567 16.9668 38.7567 17.0362C38.7567 17.1055 38.7461 17.1716 38.7234 17.2374C38.7024 17.3032 38.6655 17.3603 38.6163 17.4124C38.5674 17.4645 38.5007 17.5062 38.4165 17.5374C38.3324 17.5684 38.2307 17.5857 38.108 17.5857H37.6049V16.0411H37.6065ZM37.8836 16.7622V17.3274H38.0853C38.2238 17.3274 38.3219 17.3032 38.378 17.2545C38.4342 17.2059 38.4622 17.1368 38.4622 17.0449C38.4622 16.9512 38.4324 16.8803 38.3763 16.8316C38.3184 16.783 38.2219 16.7587 38.0888 16.7587H37.8836V16.7622Z" fill="#8A8A9A"/>
<path d="M41.1634 17.3617C41.0968 17.4467 41.0091 17.5108 40.9038 17.5542C40.7959 17.5981 40.6804 17.6205 40.5638 17.62C40.4479 17.6216 40.3327 17.6022 40.2236 17.5629C40.1257 17.5274 40.0361 17.4719 39.9607 17.4C39.8862 17.328 39.8277 17.2411 39.7888 17.145C39.7471 17.0397 39.7263 16.9272 39.7276 16.814C39.7276 16.7015 39.7468 16.5973 39.7872 16.4985C39.8257 16.3996 39.8818 16.3148 39.952 16.2435C40.0222 16.1708 40.1061 16.1154 40.2009 16.0721C40.3008 16.0281 40.4091 16.0062 40.5182 16.0079C40.6426 16.0079 40.7584 16.0235 40.8636 16.0546C40.9688 16.0858 41.0582 16.1379 41.1318 16.2108L41.0038 16.4275C40.942 16.3714 40.8691 16.3289 40.7899 16.3025C40.7146 16.2782 40.6359 16.266 40.5568 16.2662C40.4868 16.2662 40.4201 16.28 40.3551 16.306C40.2913 16.3318 40.233 16.3694 40.1834 16.4171C40.133 16.4664 40.0931 16.5253 40.0659 16.5904C40.0361 16.6579 40.0222 16.7325 40.0222 16.8156C40.0222 16.9006 40.0378 16.9769 40.0676 17.0427C40.0974 17.1104 40.1378 17.1677 40.1886 17.216C40.2395 17.2648 40.2991 17.301 40.3674 17.3254C40.4359 17.3496 40.5078 17.3635 40.5849 17.3635C40.6795 17.3635 40.7636 17.3444 40.8391 17.3079C40.9119 17.2727 40.9774 17.2239 41.032 17.1642L41.1634 17.3617ZM41.3053 16.0408H42.7272V16.3148H42.1555V17.5835H41.8786V16.3148H41.3072V16.0408H41.3053Z" fill="#8A8A9A"/>
<path fill-rule="evenodd" clip-rule="evenodd" d="M43.3054 16.0413H43.0283V18.2704H43.3054V17.5129C43.3614 17.5494 43.4281 17.5754 43.5052 17.5927C43.5823 17.61 43.6629 17.6186 43.7454 17.6186C43.8681 17.6186 43.9785 17.596 44.0785 17.5546C44.1744 17.5136 44.2614 17.4541 44.3344 17.3796C44.4062 17.3048 44.4606 17.2181 44.4992 17.1158C44.5377 17.0138 44.5571 16.9044 44.5571 16.7883C44.5571 16.6738 44.5396 16.5681 44.5062 16.4727C44.4749 16.3821 44.426 16.2985 44.3625 16.2267C44.3001 16.1566 44.2228 16.1015 44.1362 16.0654C44.0416 16.0248 43.9394 16.0047 43.8365 16.0065C43.7279 16.0065 43.6262 16.0273 43.5298 16.069C43.4333 16.1106 43.3579 16.1606 43.3054 16.2231V16.0413ZM43.4983 16.3273C43.5773 16.2856 43.6631 16.2648 43.756 16.2648C43.8367 16.2648 43.9085 16.2769 43.9735 16.3029C44.0367 16.329 44.0892 16.3654 44.1331 16.414C44.1769 16.4625 44.2102 16.5181 44.2312 16.5838C44.254 16.6496 44.2646 16.7208 44.2646 16.7988C44.2646 16.8821 44.2504 16.9565 44.226 17.0258C44.2031 17.0916 44.1666 17.1519 44.119 17.2027C44.0711 17.253 44.0132 17.2925 43.949 17.3188C43.8774 17.3487 43.8003 17.3635 43.7227 17.3621C43.6475 17.3621 43.5773 17.3535 43.5106 17.3363C43.4376 17.3164 43.3684 17.2847 43.3056 17.2425V16.4779C43.3546 16.4192 43.4196 16.369 43.4983 16.3273ZM46.6819 16.041H46.4048V17.584H46.6819V16.041ZM44.955 16.041H45.2321V16.504H45.4879C45.609 16.504 45.7071 16.5196 45.786 16.549C45.865 16.5785 45.9281 16.6183 45.9754 16.6669C46.0227 16.7154 46.056 16.7727 46.0752 16.8367C46.0946 16.9008 46.105 16.9667 46.105 17.036C46.105 17.1054 46.0946 17.1715 46.0719 17.2373C46.0508 17.3031 46.014 17.3602 45.9648 17.4123C45.9158 17.4644 45.8492 17.5061 45.765 17.5373C45.6808 17.5683 45.5792 17.5856 45.4565 17.5856H44.9533V16.041H44.955ZM45.234 16.7621V17.3273H45.4356C45.574 17.3273 45.6723 17.3031 45.7283 17.2544C45.7844 17.2058 45.8125 17.1367 45.8125 17.0448C45.8125 16.951 45.7827 16.8802 45.7267 16.8315C45.6688 16.7829 45.5723 16.7585 45.4392 16.7585H45.234V16.7621Z" fill="#8A8A9A"/>
<path d="M48.0112 16.7848L48.6037 17.5839H48.2637L47.8059 16.9598L47.3414 17.5839H47.0189L47.6078 16.7985L47.0539 16.041H47.3941L47.8166 16.6235L48.2459 16.041H48.5687L48.0112 16.7848ZM23.6742 19.4908H22.824V20.7771H22.5469V19.2344H23.951V20.7771H23.6742V19.4908ZM25.5236 19.5081H24.9767L24.959 19.7681C24.9398 19.9883 24.9136 20.1652 24.8767 20.3002C24.8398 20.4356 24.7942 20.5396 24.7417 20.6123C24.6892 20.6852 24.6277 20.7354 24.5575 20.7598C24.4851 20.786 24.4085 20.799 24.3315 20.7979L24.3104 20.5308C24.3402 20.5325 24.3752 20.5256 24.4138 20.5083C24.4525 20.491 24.4911 20.4529 24.5277 20.3958C24.5646 20.3367 24.5979 20.2535 24.6277 20.146C24.6575 20.0369 24.6769 19.8948 24.6873 19.716L24.7154 19.2358H25.8006V20.7787H25.5236V19.5081Z" fill="#8A8A9A"/>
<path fill-rule="evenodd" clip-rule="evenodd" d="M26.5469 19.2378C26.4573 19.262 26.3767 19.2966 26.3084 19.3399L26.3821 19.5585C26.4452 19.5272 26.5084 19.5012 26.5713 19.4787C26.6344 19.4562 26.7152 19.4457 26.8115 19.4457C26.8888 19.4457 26.95 19.4578 26.9973 19.482C27.0448 19.5047 27.0798 19.5393 27.1044 19.581C27.1288 19.6226 27.1446 19.6747 27.1534 19.7351C27.1621 19.796 27.1657 19.8618 27.1657 19.9328C27.109 19.8934 27.0443 19.8668 26.9763 19.8549C26.9105 19.8418 26.8436 19.8349 26.7765 19.8341C26.6942 19.8341 26.6169 19.8462 26.5434 19.867C26.4696 19.8878 26.4065 19.9191 26.3557 19.9608C26.3038 20.0023 26.2618 20.055 26.233 20.1149C26.2021 20.1805 26.1866 20.2522 26.1875 20.3247C26.1875 20.4753 26.2313 20.5935 26.319 20.6766C26.4065 20.7597 26.5223 20.8014 26.6661 20.8014C26.7959 20.8014 26.8992 20.7789 26.9782 20.7337C27.0569 20.6887 27.12 20.6366 27.1657 20.5776V20.777H27.4253V19.8305C27.4253 19.6295 27.3813 19.4735 27.2919 19.3643C27.2042 19.2549 27.0482 19.1997 26.8273 19.1997C26.7326 19.1998 26.6383 19.2127 26.5469 19.2378ZM27.0115 20.4874C26.9486 20.5326 26.8661 20.5535 26.7644 20.5535C26.6732 20.5535 26.6048 20.531 26.5559 20.4874C26.5067 20.4424 26.4821 20.3835 26.4821 20.3108C26.4821 20.2674 26.4909 20.231 26.5102 20.198C26.5294 20.1651 26.5559 20.1391 26.5857 20.1183C26.6155 20.0974 26.6521 20.0818 26.6925 20.0714C26.7326 20.061 26.7739 20.0558 26.8152 20.056C26.9519 20.056 27.0694 20.0889 27.1659 20.158V20.3539C27.1203 20.4048 27.0685 20.4497 27.0115 20.4874Z" fill="#8A8A9A"/>
<path d="M27.6973 19.2344H29.1191V19.5081H28.5475V20.7771H28.2706V19.5083H27.6991V19.2344H27.6973Z" fill="#8A8A9A"/>
<path fill-rule="evenodd" clip-rule="evenodd" d="M30.4129 20.7616C30.5182 20.7287 30.6075 20.6783 30.6846 20.6091L30.6004 20.3941C30.5496 20.4394 30.4813 20.4775 30.3988 20.5087C30.3165 20.54 30.2236 20.5554 30.1219 20.5554C29.9694 20.5554 29.8432 20.5156 29.7432 20.4341C29.6432 20.3527 29.589 20.2383 29.5767 20.0925H30.7759C30.7879 20.0389 30.7934 19.9781 30.7934 19.9071C30.7934 19.8014 30.774 19.706 30.7354 19.6193C30.6995 19.5352 30.647 19.4592 30.5811 19.3958C30.5144 19.3328 30.4358 19.2838 30.3498 19.2518C30.2598 19.2169 30.1641 19.1993 30.0675 19.1998C29.9377 19.1998 29.8238 19.2223 29.724 19.2639C29.6296 19.3035 29.5442 19.3619 29.4732 19.4356C29.4041 19.5088 29.3509 19.5956 29.3171 19.6904C29.2802 19.7914 29.2617 19.8983 29.2627 20.0058C29.2627 20.1273 29.2838 20.2381 29.3223 20.3371C29.3611 20.4358 29.4188 20.5208 29.4907 20.5919C29.5625 20.6629 29.6502 20.7166 29.7538 20.7548C29.8645 20.7942 29.9814 20.8136 30.099 20.8121C30.2025 20.8121 30.3077 20.7946 30.4129 20.7616ZM29.71 19.5725C29.7959 19.4946 29.9098 19.4564 30.0536 19.4564C30.1904 19.4564 30.2973 19.4946 30.3763 19.5656C30.455 19.6385 30.4971 19.7389 30.5042 19.8673H29.5575C29.5709 19.7537 29.6251 19.649 29.71 19.5725ZM30.9284 19.2346H31.279L31.8136 19.9783L31.2421 20.7773H30.9021L31.5015 19.9781L30.9284 19.2346ZM31.8819 19.2346H32.159V20.7773H31.8819V19.2346ZM33.1494 20.7773L32.5394 19.9781L33.1092 19.2343H32.7655L32.2273 19.9781L32.8059 20.7773H33.1494ZM34.4153 20.7616C34.5205 20.7287 34.6098 20.6783 34.6869 20.6091L34.6028 20.3941C34.5519 20.4394 34.4836 20.4775 34.4013 20.5087C34.3188 20.54 34.2259 20.5554 34.1242 20.5554C33.9717 20.5554 33.8455 20.5156 33.7455 20.4341C33.6457 20.3527 33.5913 20.2383 33.579 20.0925H34.7782C34.7905 20.0389 34.7957 19.9781 34.7957 19.9071C34.7957 19.8014 34.7765 19.706 34.7378 19.6193C34.7019 19.5353 34.6494 19.4592 34.5836 19.3958C34.5169 19.3328 34.4382 19.2838 34.3521 19.2518C34.2621 19.2169 34.1664 19.1993 34.0698 19.1998C33.9403 19.1998 33.8263 19.2223 33.7263 19.2639C33.632 19.3036 33.5467 19.362 33.4757 19.4356C33.4065 19.5087 33.3533 19.5955 33.3196 19.6904C33.2826 19.7914 33.2642 19.8982 33.2653 20.0058C33.2653 20.1273 33.2863 20.2381 33.3248 20.3371C33.3634 20.4358 33.4213 20.5208 33.4932 20.5919C33.565 20.6629 33.6525 20.7166 33.7561 20.7548C33.8669 20.7942 33.9839 20.8135 34.1015 20.8121C34.208 20.8113 34.3138 20.7943 34.4153 20.7616ZM33.7123 19.5725C33.7984 19.4946 33.9123 19.4564 34.0561 19.4564C34.1911 19.4564 34.2996 19.4946 34.3786 19.5656C34.4575 19.6385 34.4996 19.7389 34.5065 19.8673H33.5598C33.5732 19.7537 33.6274 19.649 33.7123 19.5725ZM35.9196 18.7162C35.7565 18.7162 35.6671 18.626 35.6532 18.4458H35.3919C35.3919 18.515 35.4042 18.5775 35.4269 18.6364C35.4498 18.6954 35.4832 18.7456 35.5269 18.7873C35.5707 18.8289 35.6269 18.8618 35.6917 18.8877C35.7565 18.9137 35.8319 18.9258 35.9178 18.9258C35.9967 18.9258 36.0669 18.9137 36.1301 18.8877C36.1932 18.8635 36.2457 18.8289 36.2913 18.7873C36.3351 18.7456 36.3703 18.6954 36.3946 18.6364C36.4192 18.5775 36.4315 18.515 36.4315 18.4458H36.1721C36.1598 18.626 36.0738 18.7162 35.9196 18.7162ZM35.1709 19.2343V20.7773H35.448L36.349 19.6279V20.7773H36.6261V19.2343H36.349L35.448 20.3837V19.2343H35.1709Z" fill="#8A8A9A"/>
</svg>
