<svg width="16" height="16" viewBox="0 0 16 16" fill="none" xmlns="http://www.w3.org/2000/svg">
<g clip-path="url(#clip0_937_3356)">
<rect width="16" height="16" rx="3" fill="#5A5A6A" fill-opacity="0.5"/>
<path d="M6.005 9.5C5.777 9.5 5.567 9.443 5.375 9.329C5.189 9.215 5.039 9.065 4.925 8.879C4.811 8.687 4.754 8.477 4.754 8.249V4.271C4.754 4.043 4.811 3.836 4.925 3.65C5.039 3.458 5.189 3.305 5.375 3.191C5.567 3.077 5.777 3.02 6.005 3.02H11.216V4.217H6.257C6.161 4.217 6.083 4.244 6.023 4.298C5.969 4.352 5.942 4.43 5.942 4.532V7.988C5.942 8.084 5.969 8.162 6.023 8.222C6.083 8.276 6.161 8.303 6.257 8.303H11.216V9.5H6.005Z" fill="white"/>
<g filter="url(#filter0_d_937_3356)">
<rect x="4.25" y="11.25" width="7.5" height="0.75" fill="white"/>
</g>
</g>
<rect x="0.428571" y="0.428571" width="15.1429" height="15.1429" rx="2.42857" stroke="#4C4C59" stroke-width="0.857143"/>
<defs>
<filter id="filter0_d_937_3356" x="-4.47209" y="2.52791" width="24.9442" height="18.1942" filterUnits="userSpaceOnUse" color-interpolation-filters="sRGB">
<feFlood flood-opacity="0" result="BackgroundImageFix"/>
<feColorMatrix in="SourceAlpha" type="matrix" values="0 0 0 0 0 0 0 0 0 0 0 0 0 0 0 0 0 0 127 0" result="hardAlpha"/>
<feOffset/>
<feGaussianBlur stdDeviation="4.36105"/>
<feComposite in2="hardAlpha" operator="out"/>
<feColorMatrix type="matrix" values="0 0 0 0 0.788235 0 0 0 0 0.00784314 0 0 0 0 0.176471 0 0 0 0.4 0"/>
<feBlend mode="normal" in2="BackgroundImageFix" result="effect1_dropShadow_937_3356"/>
<feBlend mode="normal" in="SourceGraphic" in2="effect1_dropShadow_937_3356" result="shape"/>
</filter>
<clipPath id="clip0_937_3356">
<rect width="16" height="16" rx="2.85714" fill="white"/>
</clipPath>
</defs>
</svg>
