<svg width="24" height="13" viewBox="0 0 24 13" fill="none" xmlns="http://www.w3.org/2000/svg">
<path fill-rule="evenodd" clip-rule="evenodd" d="M1.67513 0.0433556C0.876971 0.176347 0.205363 0.844927 0.0490031 1.66225C-0.0163344 2.00371 -0.0163344 10.9929 0.0490031 11.3343C0.203254 12.1405 0.818242 12.763 1.62849 12.9332C2.00997 13.0133 3.26746 13.0244 3.53781 12.95C3.94268 12.8386 4.22681 12.5431 4.31816 12.1385C4.39221 11.8105 4.32481 11.6548 4.00539 11.4157C3.72665 11.2071 3.61018 11.0059 3.61018 10.733C3.61018 10.4616 3.66052 10.3642 3.98266 10.0119C4.14155 9.83808 4.29149 9.644 4.31586 9.58055C4.34019 9.51705 4.36011 9.07878 4.36011 8.6065C4.36011 7.62094 4.35579 7.60574 3.95599 7.18717C3.67617 6.8942 3.61018 6.76274 3.61018 6.49829C3.61018 6.23384 3.67617 6.10238 3.95599 5.80941C4.35579 5.39083 4.36011 5.37564 4.36011 4.39008C4.36011 3.9178 4.34019 3.47953 4.31586 3.41603C4.29149 3.35258 4.14155 3.1585 3.98266 2.98473C3.66052 2.63239 3.61018 2.53498 3.61018 2.26356C3.61018 1.99294 3.72909 1.7839 3.9918 1.59275C4.22488 1.4232 4.36011 1.2328 4.36011 1.07417C4.36011 0.844741 4.2097 0.507223 4.02648 0.325689C3.74545 0.0471645 3.51648 -0.00611568 2.62908 0.000526921C2.22778 0.00349983 1.79849 0.0227775 1.67513 0.0433556ZM6.30523 0.0384781C5.81497 0.156791 5.485 0.561989 5.485 1.04574C5.485 1.25556 5.49723 1.27488 5.83254 1.59303C6.10744 1.85386 6.18707 1.96014 6.21355 2.10145C6.26483 2.37495 6.16504 2.6244 5.88701 2.91779C5.46358 3.36456 5.485 3.28829 5.485 4.35092C5.485 5.43315 5.47731 5.40519 5.90444 5.87231C6.35149 6.36121 6.3394 6.6513 5.84965 7.18689C5.69502 7.35597 5.54977 7.54327 5.52676 7.60319C5.47014 7.75081 5.47347 9.48151 5.53065 9.63067C5.55577 9.69612 5.7006 9.88211 5.85251 10.0439C6.16711 10.3791 6.25785 10.5904 6.21027 10.8773C6.18285 11.0427 6.12281 11.126 5.83132 11.4035C5.49747 11.7215 5.485 11.7412 5.485 11.9508C5.485 12.3344 5.70477 12.6848 6.06507 12.8758L6.25836 12.9783L14.1092 12.9912C19.0393 12.9992 22.0705 12.9872 22.2571 12.9588C23.1099 12.8289 23.7898 12.1768 23.951 11.3343C24.0163 10.9929 24.0163 2.00371 23.951 1.66225C23.7919 0.830759 23.1184 0.175975 22.2828 0.0403826C21.9593 -0.0121079 6.52257 -0.013966 6.30523 0.0384781Z" fill="white"/>
</svg>
