<svg width="24" height="23" viewBox="0 0 24 23" fill="none" xmlns="http://www.w3.org/2000/svg">
<path fill-rule="evenodd" clip-rule="evenodd" d="M2.88935 0.0277277C2.84023 0.0549115 2.82266 0.0892102 2.41779 0.948594C2.00037 1.83459 1.99692 1.84129 1.95327 1.84921C1.92909 1.85359 1.53753 1.91316 1.08314 1.98159C0.119302 2.12672 0.127564 2.12524 0.079263 2.16133C0.00370528 2.21777 -0.0233533 2.34805 0.0223436 2.43535C0.0350731 2.45967 0.342896 2.78316 0.706408 3.15421C1.06992 3.52527 1.36911 3.83683 1.37129 3.84657C1.37346 3.85629 1.30611 4.28477 1.22163 4.79874C1.06108 5.77541 1.05434 5.83916 1.10385 5.91082C1.14295 5.96741 1.23277 6.00872 1.29425 5.99842C1.32363 5.99348 1.69511 5.79694 2.17269 5.53366L3.00021 5.07744L3.82785 5.53413C4.38866 5.84358 4.67307 5.99323 4.71001 5.99834C4.82404 6.01405 4.92977 5.91185 4.92977 5.78586C4.92977 5.75354 4.86112 5.30767 4.77722 4.79504C4.69332 4.2824 4.62641 3.85549 4.62851 3.84636C4.63063 3.83724 4.92977 3.52608 5.29328 3.15491C5.65679 2.78374 5.96498 2.45996 5.97816 2.4354C6.02974 2.33917 5.98556 2.19028 5.89169 2.14399C5.86702 2.13183 5.47099 2.06536 4.96942 1.98922C4.48595 1.91582 4.07035 1.85204 4.04587 1.84748C4.00155 1.83922 3.99953 1.83531 3.58128 0.947484C3.16768 0.0695575 3.16036 0.0553276 3.10748 0.0270204C3.0397 -0.0092617 2.95568 -0.00898434 2.88935 0.0277277Z" fill="white"/>
<path fill-rule="evenodd" clip-rule="evenodd" d="M11.8893 0.0277277C11.8402 0.0549115 11.8227 0.0892102 11.4178 0.948594C11.0004 1.83459 10.9969 1.84129 10.9533 1.84921C10.9291 1.85359 10.5375 1.91316 10.0831 1.98159C9.1193 2.12672 9.12756 2.12524 9.07926 2.16133C9.00371 2.21777 8.97665 2.34805 9.02234 2.43535C9.03507 2.45967 9.3429 2.78316 9.70641 3.15421C10.0699 3.52527 10.3691 3.83683 10.3713 3.84657C10.3735 3.85629 10.3061 4.28477 10.2216 4.79874C10.0611 5.77541 10.0543 5.83916 10.1039 5.91082C10.143 5.96741 10.2328 6.00872 10.2943 5.99842C10.3236 5.99348 10.6951 5.79694 11.1727 5.53366L12.0002 5.07744L12.8278 5.53413C13.3887 5.84358 13.6731 5.99323 13.71 5.99834C13.824 6.01405 13.9298 5.91185 13.9298 5.78586C13.9298 5.75354 13.8611 5.30767 13.7772 4.79504C13.6933 4.2824 13.6264 3.85549 13.6285 3.84636C13.6306 3.83724 13.9298 3.52608 14.2933 3.15491C14.6568 2.78374 14.965 2.45996 14.9782 2.4354C15.0297 2.33917 14.9856 2.19028 14.8917 2.14399C14.867 2.13183 14.471 2.06536 13.9694 1.98922C13.4859 1.91582 13.0704 1.85204 13.0459 1.84748C13.0016 1.83922 12.9995 1.83531 12.5813 0.947484C12.1677 0.0695575 12.1604 0.0553276 12.1075 0.0270204C12.0397 -0.0092617 11.9557 -0.00898434 11.8893 0.0277277Z" fill="white"/>
<path fill-rule="evenodd" clip-rule="evenodd" d="M20.8893 0.0277277C20.8402 0.0549115 20.8227 0.0892102 20.4178 0.948594C20.0004 1.83459 19.9969 1.84129 19.9533 1.84921C19.9291 1.85359 19.5375 1.91316 19.0831 1.98159C18.1193 2.12672 18.1276 2.12524 18.0793 2.16133C18.0037 2.21777 17.9766 2.34805 18.0223 2.43535C18.0351 2.45967 18.3429 2.78316 18.7064 3.15421C19.0699 3.52527 19.3691 3.83683 19.3713 3.84657C19.3735 3.85629 19.3061 4.28477 19.2216 4.79874C19.0611 5.77541 19.0543 5.83916 19.1039 5.91082C19.143 5.96741 19.2328 6.00872 19.2943 5.99842C19.3236 5.99348 19.6951 5.79694 20.1727 5.53366L21.0002 5.07744L21.8278 5.53413C22.3887 5.84358 22.6731 5.99323 22.71 5.99834C22.824 6.01405 22.9298 5.91185 22.9298 5.78586C22.9298 5.75354 22.8611 5.30767 22.7772 4.79504C22.6933 4.2824 22.6264 3.85549 22.6285 3.84636C22.6306 3.83724 22.9298 3.52608 23.2933 3.15491C23.6568 2.78374 23.965 2.45996 23.9782 2.4354C24.0297 2.33917 23.9856 2.19028 23.8917 2.14399C23.867 2.13183 23.471 2.06536 22.9694 1.98922C22.4859 1.91582 22.0704 1.85204 22.0459 1.84748C22.0016 1.83922 21.9995 1.83531 21.5813 0.947484C21.1677 0.0695575 21.1604 0.0553276 21.1075 0.0270204C21.0397 -0.0092617 20.9557 -0.00898434 20.8893 0.0277277Z" fill="white"/>
<path fill-rule="evenodd" clip-rule="evenodd" d="M1.67513 10.0434C0.876971 10.1763 0.205363 10.8449 0.0490031 11.6622C-0.0163344 12.0037 -0.0163344 20.9929 0.0490031 21.3343C0.203254 22.1405 0.818242 22.763 1.62849 22.9332C2.00997 23.0133 3.26746 23.0244 3.53781 22.95C3.94268 22.8386 4.22681 22.5431 4.31816 22.1385C4.39221 21.8105 4.32481 21.6548 4.00539 21.4157C3.72665 21.2071 3.61018 21.0059 3.61018 20.733C3.61018 20.4616 3.66052 20.3642 3.98266 20.0119C4.14155 19.8381 4.29149 19.644 4.31586 19.5805C4.34019 19.517 4.36011 19.0788 4.36011 18.6065C4.36011 17.6209 4.35579 17.6057 3.95599 17.1872C3.67617 16.8942 3.61018 16.7627 3.61018 16.4983C3.61018 16.2338 3.67617 16.1024 3.95599 15.8094C4.35579 15.3908 4.36011 15.3756 4.36011 14.3901C4.36011 13.9178 4.34019 13.4795 4.31586 13.416C4.29149 13.3526 4.14155 13.1585 3.98266 12.9847C3.66052 12.6324 3.61018 12.535 3.61018 12.2636C3.61018 11.9929 3.72909 11.7839 3.9918 11.5928C4.22488 11.4232 4.36011 11.2328 4.36011 11.0742C4.36011 10.8447 4.2097 10.5072 4.02648 10.3257C3.74545 10.0472 3.51648 9.99388 2.62908 10.0005C2.22778 10.0035 1.79849 10.0228 1.67513 10.0434ZM6.30523 10.0385C5.81497 10.1568 5.485 10.562 5.485 11.0457C5.485 11.2556 5.49723 11.2749 5.83254 11.593C6.10744 11.8539 6.18707 11.9601 6.21355 12.1014C6.26483 12.375 6.16504 12.6244 5.88701 12.9178C5.46358 13.3646 5.485 13.2883 5.485 14.3509C5.485 15.4332 5.47731 15.4052 5.90444 15.8723C6.35149 16.3612 6.3394 16.6513 5.84965 17.1869C5.69502 17.356 5.54977 17.5433 5.52676 17.6032C5.47014 17.7508 5.47347 19.4815 5.53065 19.6307C5.55577 19.6961 5.7006 19.8821 5.85251 20.0439C6.16711 20.3791 6.25785 20.5904 6.21027 20.8773C6.18285 21.0427 6.12281 21.126 5.83132 21.4035C5.49747 21.7215 5.485 21.7412 5.485 21.9508C5.485 22.3344 5.70477 22.6848 6.06507 22.8758L6.25836 22.9783L14.1092 22.9912C19.0393 22.9992 22.0705 22.9872 22.2571 22.9588C23.1099 22.8289 23.7898 22.1768 23.951 21.3343C24.0163 20.9929 24.0163 12.0037 23.951 11.6622C23.7919 10.8308 23.1184 10.176 22.2828 10.0404C21.9593 9.98789 6.52257 9.98603 6.30523 10.0385Z" fill="white"/>
</svg>
