<svg width="24" height="24" viewBox="0 0 24 24" fill="none" xmlns="http://www.w3.org/2000/svg">
<path fill-rule="evenodd" clip-rule="evenodd" d="M1.67513 11.0434C0.876971 11.1763 0.205363 11.8449 0.0490031 12.6622C-0.0163344 13.0037 -0.0163344 21.9929 0.0490031 22.3343C0.203254 23.1405 0.818242 23.763 1.62849 23.9332C2.00997 24.0133 3.26746 24.0244 3.53781 23.95C3.94268 23.8386 4.22681 23.5431 4.31816 23.1385C4.39221 22.8105 4.32481 22.6548 4.00539 22.4157C3.72665 22.2071 3.61018 22.0059 3.61018 21.733C3.61018 21.4616 3.66052 21.3642 3.98266 21.0119C4.14155 20.8381 4.29149 20.644 4.31586 20.5805C4.34019 20.517 4.36011 20.0788 4.36011 19.6065C4.36011 18.6209 4.35579 18.6057 3.95599 18.1872C3.67617 17.8942 3.61018 17.7627 3.61018 17.4983C3.61018 17.2338 3.67617 17.1024 3.95599 16.8094C4.35579 16.3908 4.36011 16.3756 4.36011 15.3901C4.36011 14.9178 4.34019 14.4795 4.31586 14.416C4.29149 14.3526 4.14155 14.1585 3.98266 13.9847C3.66052 13.6324 3.61018 13.535 3.61018 13.2636C3.61018 12.9929 3.72909 12.7839 3.9918 12.5928C4.22488 12.4232 4.36011 12.2328 4.36011 12.0742C4.36011 11.8447 4.2097 11.5072 4.02648 11.3257C3.74545 11.0472 3.51648 10.9939 2.62908 11.0005C2.22778 11.0035 1.79849 11.0228 1.67513 11.0434ZM6.30523 11.0385C5.81497 11.1568 5.485 11.562 5.485 12.0457C5.485 12.2556 5.49723 12.2749 5.83254 12.593C6.10744 12.8539 6.18707 12.9601 6.21355 13.1014C6.26483 13.375 6.16504 13.6244 5.88701 13.9178C5.46358 14.3646 5.485 14.2883 5.485 15.3509C5.485 16.4332 5.47731 16.4052 5.90444 16.8723C6.35149 17.3612 6.3394 17.6513 5.84965 18.1869C5.69502 18.356 5.54977 18.5433 5.52676 18.6032C5.47014 18.7508 5.47347 20.4815 5.53065 20.6307C5.55577 20.6961 5.7006 20.8821 5.85251 21.0439C6.16711 21.3791 6.25785 21.5904 6.21027 21.8773C6.18285 22.0427 6.12281 22.126 5.83132 22.4035C5.49747 22.7215 5.485 22.7412 5.485 22.9508C5.485 23.3344 5.70477 23.6848 6.06507 23.8758L6.25836 23.9783L14.1092 23.9912C19.0393 23.9992 22.0705 23.9872 22.2571 23.9588C23.1099 23.8289 23.7898 23.1768 23.951 22.3343C24.0163 21.9929 24.0163 13.0037 23.951 12.6622C23.7919 11.8308 23.1184 11.176 22.2828 11.0404C21.9593 10.9879 6.52257 10.986 6.30523 11.0385Z" fill="white"/>
<path fill-rule="evenodd" clip-rule="evenodd" d="M11.7506 0.0311687C11.4538 0.145896 11.2348 0.448667 11.1803 0.819378C11.1423 1.07853 11.2054 1.36847 11.3457 1.57846L11.4069 1.6702L10.781 2.96971C10.4368 3.68443 10.1427 4.28425 10.1275 4.30262C10.1122 4.32098 10.0776 4.3375 10.0504 4.33933C10.0196 4.34139 9.73229 4.14889 9.28708 3.82784L8.57316 3.31302L8.60209 3.21581C8.73413 2.77188 8.5669 2.25179 8.222 2.03375C7.97283 1.87623 7.69984 1.8712 7.44419 2.01944C6.9602 2.30006 6.84848 3.08508 7.22465 3.56207C7.33022 3.69592 7.51661 3.82107 7.65032 3.84787C7.7013 3.85808 7.73751 3.88054 7.74388 3.90588C7.74958 3.92862 7.92 4.9392 8.1226 6.15162C8.36964 7.6301 8.50688 8.39822 8.53931 8.4842C8.60493 8.6581 8.73206 8.8151 8.88895 8.91603L9.01951 9H11.9853H14.951L15.0889 8.9195C15.2503 8.82526 15.382 8.66721 15.4517 8.4842C15.4847 8.39741 15.6194 7.64826 15.869 6.164C16.0716 4.9584 16.2422 3.94819 16.2481 3.91911C16.2557 3.88097 16.28 3.86209 16.3353 3.85137C16.4627 3.82662 16.6566 3.70045 16.7624 3.57341C17.2238 3.01939 16.9779 2.08517 16.3293 1.92829C15.9318 1.83211 15.4977 2.13657 15.3867 2.58939C15.3436 2.76522 15.3446 3.03443 15.389 3.1928C15.4084 3.26212 15.4209 3.32199 15.4169 3.32585C15.4129 3.32969 15.0838 3.56408 14.6856 3.84671C13.9856 4.34349 13.9597 4.35944 13.9045 4.32727C13.8602 4.30146 13.7052 3.99871 13.2155 2.98212L12.5836 1.67023L12.6449 1.57846C12.9725 1.08777 12.8179 0.340874 12.3339 0.0765942C12.1895 -0.0022936 11.8963 -0.0251302 11.7506 0.0311687Z" fill="white"/>
</svg>
