<svg width="247" height="128" viewBox="0 0 247 128" fill="none" xmlns="http://www.w3.org/2000/svg">
<path fill-rule="evenodd" clip-rule="evenodd" d="M242.138 -60.116C242.021 -59.926 242.08 -59.7705 242.268 -59.7705C242.456 -59.7705 242.705 -59.926 242.822 -60.116C242.938 -60.306 242.879 -60.4614 242.691 -60.4614C242.503 -60.4614 242.254 -60.306 242.138 -60.116ZM227.948 -52.829C227.948 -52.657 228.256 -52.516 228.632 -52.516C229.008 -52.516 229.316 -52.5758 229.316 -52.6483C229.316 -52.7212 229.008 -52.8622 228.632 -52.9616C228.256 -53.0608 227.948 -53.0014 227.948 -52.829ZM247.78 -51.614C247.779 -51.3905 248.137 -51.299 248.634 -51.395C249.744 -51.6096 249.744 -52.1122 248.634 -52.0476C248.164 -52.0203 247.78 -51.8251 247.78 -51.614ZM235.406 -51.2437C235.653 -51.1439 235.948 -51.1563 236.061 -51.271C236.175 -51.3857 235.973 -51.4672 235.613 -51.4524C235.215 -51.4358 235.133 -51.3539 235.406 -51.2437ZM262.824 -50.4433C262.824 -50.2533 263.122 -50.0978 263.487 -50.0978C263.853 -50.0978 264.246 -50.2533 264.362 -50.4433C264.482 -50.6392 264.195 -50.7888 263.699 -50.7888C263.218 -50.7888 262.824 -50.6333 262.824 -50.4433ZM223.845 -49.0615C223.845 -48.8715 224.008 -48.716 224.207 -48.716C224.406 -48.716 224.474 -48.8715 224.358 -49.0615C224.242 -49.2515 224.079 -49.4069 223.996 -49.4069C223.913 -49.4069 223.845 -49.2515 223.845 -49.0615ZM225.056 -48.7399C224.948 -48.563 225.016 -48.3208 225.207 -48.2013C225.398 -48.0821 225.555 -48.2269 225.555 -48.5229C225.555 -49.1299 225.35 -49.219 225.056 -48.7399ZM229.316 -48.6956C229.316 -48.4946 229.47 -48.4259 229.658 -48.5433C229.846 -48.6608 230 -48.8252 230 -48.9092C230 -48.9931 229.846 -49.0615 229.658 -49.0615C229.47 -49.0615 229.316 -48.8967 229.316 -48.6956ZM220.084 -46.9888C220.084 -46.7988 220.238 -46.6433 220.426 -46.6433C220.614 -46.6433 220.768 -46.7988 220.768 -46.9888C220.768 -47.1788 220.614 -47.3342 220.426 -47.3342C220.238 -47.3342 220.084 -47.1788 220.084 -46.9888ZM215.297 -45.2615C215.297 -45.0715 215.614 -44.9161 216.001 -44.9161C216.388 -44.9161 216.61 -45.0715 216.494 -45.2615C216.378 -45.4515 216.061 -45.607 215.79 -45.607C215.519 -45.607 215.297 -45.4515 215.297 -45.2615ZM231.721 -44.0673C231.342 -43.6058 231.431 -43.5342 232.38 -43.5342C233.105 -43.5342 233.428 -43.6804 233.333 -43.9661C233.12 -44.6145 232.217 -44.6711 231.721 -44.0673ZM220.853 -43.9557C220.052 -43.8265 219.764 -43.185 220.511 -43.194C221.027 -43.2005 222.01 -43.7937 221.784 -43.9609C221.695 -44.0265 221.276 -44.0241 220.853 -43.9557ZM245.386 -43.0161C245.386 -42.6938 245.709 -42.4979 246.241 -42.4979C246.773 -42.4979 247.095 -42.6938 247.095 -43.0161C247.095 -43.3384 246.773 -43.5342 246.241 -43.5342C245.709 -43.5342 245.386 -43.3384 245.386 -43.0161ZM261.23 -41.6135C260.973 -40.9375 261.282 -40.6293 261.954 -40.8898C262.631 -41.152 262.632 -41.675 261.956 -41.9369C261.653 -42.0543 261.345 -41.9172 261.23 -41.6135ZM211.194 -41.4615C211.194 -41.2715 211.511 -41.1161 211.898 -41.1161C212.285 -41.1161 212.507 -41.2715 212.391 -41.4615C212.275 -41.6515 211.958 -41.807 211.687 -41.807C211.416 -41.807 211.194 -41.6515 211.194 -41.4615ZM213.246 -41.1161C213.246 -40.9261 213.476 -40.7706 213.758 -40.7706C214.041 -40.7706 214.271 -40.9261 214.271 -41.1161C214.271 -41.3061 214.041 -41.4615 213.758 -41.4615C213.476 -41.4615 213.246 -41.3061 213.246 -41.1161ZM208.459 -39.907C208.459 -39.5902 208.624 -39.3871 208.826 -39.4551C209.028 -39.5232 209.194 -39.7263 209.194 -39.907C209.194 -40.0877 209.028 -40.2908 208.826 -40.3588C208.624 -40.4269 208.459 -40.2238 208.459 -39.907ZM278.723 -39.7343C278.839 -39.5443 279.002 -39.3888 279.085 -39.3888C279.168 -39.3888 279.236 -39.5443 279.236 -39.7343C279.236 -39.9243 279.073 -40.0797 278.874 -40.0797C278.675 -40.0797 278.607 -39.9243 278.723 -39.7343ZM203.516 -37.6854C203.407 -37.5085 203.475 -37.2664 203.666 -37.1468C204.074 -36.8922 204.698 -37.2156 204.698 -37.6819C204.698 -38.1024 203.772 -38.1051 203.516 -37.6854ZM217.605 -36.7326C216.786 -36.5164 216.848 -35.9343 217.691 -35.9343C218.067 -35.9343 218.488 -35.8956 218.626 -35.8479C218.764 -35.8003 218.93 -36.0338 218.993 -36.3661C219.107 -36.9644 218.795 -37.0466 217.605 -36.7326ZM207.433 -35.5888C207.433 -35.2088 207.524 -34.8979 207.635 -34.8979C207.747 -34.8979 208.229 -35.2088 208.707 -35.5888L209.577 -36.2797H208.505C207.661 -36.2797 207.433 -36.1329 207.433 -35.5888ZM229.23 -36.0417C228.356 -35.8106 228.499 -35.2772 229.544 -34.8758C230.583 -34.4768 231.25 -35.0714 230.622 -35.8362C230.244 -36.297 230.214 -36.3012 229.23 -36.0417ZM202.475 -34.207C202.359 -34.017 202.427 -33.8616 202.626 -33.8616C202.825 -33.8616 202.988 -34.017 202.988 -34.207C202.988 -34.397 202.92 -34.5525 202.837 -34.5525C202.754 -34.5525 202.591 -34.397 202.475 -34.207ZM243.163 -34.207C242.851 -33.6961 243.284 -33.1707 244.018 -33.1707C244.855 -33.1707 245.265 -33.8536 244.66 -34.2402C244.031 -34.6433 243.422 -34.6295 243.163 -34.207ZM199.227 -33.8616C198.789 -33.5755 198.801 -33.5258 199.312 -33.5213C199.641 -33.5185 200.022 -33.5044 200.159 -33.4902C200.295 -33.476 200.462 -33.6315 200.529 -33.8357C200.681 -34.2962 199.916 -34.3114 199.227 -33.8616ZM258.53 -33.1375C258.402 -32.9292 258.508 -32.5464 258.766 -32.2863C259.359 -31.6873 260.27 -32.1955 259.978 -32.9631C259.738 -33.5959 258.874 -33.6999 258.53 -33.1375ZM197.346 -32.8252C197.463 -32.6352 197.702 -32.4798 197.879 -32.4798C198.057 -32.4798 198.201 -32.6352 198.201 -32.8252C198.201 -33.0152 197.961 -33.1707 197.668 -33.1707C197.375 -33.1707 197.23 -33.0152 197.346 -32.8252ZM275.817 -32.4798C275.817 -32.2898 276.047 -32.1343 276.329 -32.1343C276.612 -32.1343 276.842 -32.2898 276.842 -32.4798C276.842 -32.6698 276.612 -32.8252 276.329 -32.8252C276.047 -32.8252 275.817 -32.6698 275.817 -32.4798ZM192.132 -30.3207C192.21 -30.083 192.557 -29.8889 192.901 -29.8889C193.246 -29.8889 193.592 -30.083 193.671 -30.3207C193.761 -30.5943 193.479 -30.7525 192.901 -30.7525C192.324 -30.7525 192.042 -30.5943 192.132 -30.3207ZM204.441 -29.1182C204.027 -28.9724 203.817 -27.6434 204.207 -27.6434C204.626 -27.6434 205.723 -28.3754 205.723 -28.6549C205.723 -29.0425 204.984 -29.3095 204.441 -29.1182ZM194.949 -28.3271C194.833 -28.1385 194.979 -27.8908 195.273 -27.7768C195.9 -27.5336 197.037 -27.8991 196.703 -28.2362C196.314 -28.6294 195.17 -28.6884 194.949 -28.3271ZM214.584 -28.1264C214.281 -27.7567 214.267 -27.5094 214.536 -27.2375C215.009 -26.7605 215.981 -27.1177 215.981 -27.7685C215.981 -28.4881 215.073 -28.7209 214.584 -28.1264ZM192.218 -27.6434C192.101 -27.4534 192.246 -27.298 192.539 -27.298C192.832 -27.298 193.072 -27.4534 193.072 -27.6434C193.072 -27.8334 192.928 -27.9889 192.751 -27.9889C192.574 -27.9889 192.334 -27.8334 192.218 -27.6434ZM226.666 -27.0693C226.052 -26.8192 226.139 -26.0284 226.808 -25.769C227.528 -25.4902 228.103 -26.045 227.833 -26.7566C227.622 -27.3132 227.406 -27.3709 226.666 -27.0693ZM272.134 -26.8876C272.345 -26.2471 273.081 -26.1411 273.081 -26.7511C273.081 -27.052 272.838 -27.298 272.54 -27.298C272.242 -27.298 272.059 -27.1135 272.134 -26.8876ZM187.003 -26.7311C186.1 -26.3473 186.634 -25.8792 187.858 -25.9818C188.564 -26.0405 189.107 -26.2443 189.065 -26.4343C188.982 -26.8209 187.661 -27.0109 187.003 -26.7311ZM239.635 -25.4844C239.751 -24.6584 241.092 -24.2038 241.675 -24.7927C242.265 -25.3887 241.59 -26.2616 240.539 -26.2616C239.684 -26.2616 239.543 -26.1404 239.635 -25.4844ZM255.304 -25.5794C254.914 -25.3303 254.888 -25.1589 255.196 -24.8484C255.679 -24.3606 256.782 -24.7102 256.591 -25.2902C256.404 -25.8554 255.911 -25.9663 255.304 -25.5794ZM181.789 -23.8435C181.789 -23.6535 182.02 -23.498 182.302 -23.498C182.584 -23.498 182.815 -23.6535 182.815 -23.8435C182.815 -24.0334 182.584 -24.1889 182.302 -24.1889C182.02 -24.1889 181.789 -24.0334 181.789 -23.8435ZM266.756 -23.498C266.416 -22.9425 266.901 -22.4616 267.802 -22.4616C268.408 -22.4616 268.636 -22.6503 268.636 -23.1525C268.636 -23.6548 268.408 -23.8435 267.802 -23.8435C267.343 -23.8435 266.872 -23.688 266.756 -23.498ZM183.499 -20.9475C183.499 -20.3906 184.775 -19.9599 185.057 -20.4214C185.355 -20.9085 184.895 -21.4253 184.162 -21.4253C183.797 -21.4253 183.499 -21.21 183.499 -20.9475ZM191.363 -20.9303C191.363 -20.3672 192.541 -19.8846 193.086 -20.2245C193.603 -20.5475 192.813 -21.4253 192.005 -21.4253C191.652 -21.4253 191.363 -21.2025 191.363 -20.9303ZM260.536 -20.8601C260.284 -20.1951 260.812 -19.2206 261.499 -19.0834C261.765 -19.0306 262.268 -19.1982 262.617 -19.4562C263.145 -19.8462 263.185 -20.0521 262.855 -20.6753C262.38 -21.5717 260.853 -21.6937 260.536 -20.8601ZM273.765 -21.0798C273.765 -20.8898 273.928 -20.7344 274.127 -20.7344C274.326 -20.7344 274.394 -20.8898 274.278 -21.0798C274.162 -21.2698 273.999 -21.4253 273.916 -21.4253C273.833 -21.4253 273.765 -21.2698 273.765 -21.0798ZM200.974 -20.2622C200.679 -19.9022 200.713 -19.6835 201.118 -19.3439C201.771 -18.796 202.5 -19.3736 202.189 -20.193C201.936 -20.8598 201.486 -20.8854 200.974 -20.2622ZM251.113 -20.4756C250.366 -20.3039 250.326 -19.1539 251.058 -18.8703C251.783 -18.5895 252.224 -18.9031 252.224 -19.698C252.224 -20.4618 251.935 -20.6642 251.113 -20.4756ZM176.577 -20.1896C176.231 -19.8396 176.694 -19.0071 177.235 -19.0071C177.519 -19.0071 177.689 -19.2565 177.626 -19.583C177.507 -20.2013 176.923 -20.5392 176.577 -20.1896ZM211.397 -19.1391C211.273 -18.813 211.32 -18.396 211.502 -18.2126C211.996 -17.7134 212.971 -18.226 212.839 -18.9156C212.686 -19.7243 211.678 -19.8801 211.397 -19.1391ZM253.848 -18.9795C253.026 -18.4959 253.088 -16.8442 253.957 -16.0493C254.603 -15.459 254.744 -15.4479 255.579 -15.9215C256.704 -16.5596 256.897 -17.3949 256.177 -18.5058C255.595 -19.4026 254.832 -19.5581 253.848 -18.9795ZM223.247 -18.7546C222.716 -18.5677 222.694 -17.8899 223.203 -17.3759C223.723 -16.8501 224.529 -17.2115 224.529 -17.9708C224.529 -18.6354 223.936 -18.9978 223.247 -18.7546ZM235.817 -18.5753C235.826 -17.846 236.399 -17.1783 236.8 -17.4288C237.467 -17.8457 237.244 -19.0071 236.496 -19.0071C236.12 -19.0071 235.815 -18.8126 235.817 -18.5753ZM171.076 -17.7403C170.642 -17.3027 170.85 -16.9344 171.532 -16.9344C171.911 -16.9344 172.215 -17.1648 172.215 -17.4526C172.215 -17.9784 171.492 -18.1611 171.076 -17.7403ZM244.578 -16.0708C244.265 -15.2458 244.729 -14.4427 245.414 -14.6237C245.936 -14.7615 246.023 -14.5812 245.978 -13.4477C245.891 -11.2458 248.03 -10.2495 249.476 -11.8179C250.328 -12.7427 250.346 -13.2463 249.574 -14.5781C249.057 -15.4707 248.826 -15.5861 247.865 -15.4303C246.932 -15.2793 246.754 -15.3581 246.754 -15.9198C246.754 -16.4276 246.515 -16.5889 245.764 -16.5889C245.201 -16.5889 244.69 -16.3661 244.578 -16.0708ZM132.895 -15.898C132.895 -15.708 133.049 -15.5526 133.237 -15.5526C133.425 -15.5526 133.579 -15.708 133.579 -15.898C133.579 -16.088 133.425 -16.2435 133.237 -16.2435C133.049 -16.2435 132.895 -16.088 132.895 -15.898ZM268.85 -15.6224C268.561 -15.1501 269.109 -14.6931 270.089 -14.5895C271.172 -14.4751 271.238 -14.6015 270.493 -15.3553C269.914 -15.9395 269.123 -16.0684 268.85 -15.6224ZM267.915 -14.948C267.785 -14.0568 268.101 -12.9258 268.585 -12.5537C269.265 -12.031 270.346 -11.9633 270.346 -12.4435C270.346 -12.6335 270.055 -12.789 269.7 -12.789C269.233 -12.789 268.992 -13.123 268.83 -13.9981C268.634 -15.0506 268.023 -15.6859 267.915 -14.948ZM172.451 -14.6385C171.981 -14.1639 172.224 -13.4308 172.814 -13.5455C173.143 -13.6097 173.412 -13.8803 173.412 -14.1466C173.412 -14.6921 172.809 -15.0006 172.451 -14.6385ZM126.084 -13.9694C126.1 -13.5669 126.181 -13.4851 126.29 -13.7604C126.389 -14.0098 126.377 -14.3079 126.263 -14.4226C126.15 -14.5373 126.069 -14.3335 126.084 -13.9694ZM166.267 -13.967C166.153 -13.6647 166.141 -13.283 166.242 -13.1182C166.549 -12.6156 167.429 -13.1669 167.429 -13.8623C167.429 -14.6555 166.559 -14.7339 166.267 -13.967ZM179.368 -14.1535C179.012 -13.9314 178.988 -13.7535 179.274 -13.465C179.722 -13.0121 181.305 -13.151 181.216 -13.6353C181.123 -14.1449 179.902 -14.4872 179.368 -14.1535ZM237.21 -13.6892C236.976 -13.4049 236.836 -12.8142 236.897 -12.3762C236.982 -11.7723 237.257 -11.5581 238.035 -11.4897C239.585 -11.354 240.133 -11.8518 239.725 -13.0277C239.338 -14.147 237.897 -14.5259 237.21 -13.6892ZM230.911 -13.2495C230.786 -13.123 230.683 -12.6594 230.683 -12.2197C230.683 -11.6552 230.432 -11.3567 229.829 -11.2037C229.165 -11.0355 228.974 -10.7646 228.974 -9.996C228.974 -7.91948 232.119 -7.24861 232.609 -9.2208C232.776 -9.89132 232.669 -10.2561 232.205 -10.5985C231.716 -10.9602 231.666 -11.1567 231.984 -11.4776C232.562 -12.0618 232.491 -13.0225 231.852 -13.2702C231.183 -13.5299 231.189 -13.53 230.911 -13.2495ZM188.289 -12.6204C187.946 -12.2027 187.975 -12.0642 188.441 -11.8835C189.115 -11.6224 189.833 -12.2155 189.501 -12.7589C189.185 -13.2747 188.789 -13.2294 188.289 -12.6204ZM118.378 -11.7764C118.27 -11.5996 118.338 -11.3574 118.529 -11.2379C118.72 -11.1187 118.876 -11.2635 118.876 -11.5595C118.876 -12.1665 118.671 -12.2556 118.378 -11.7764ZM161.274 -11.6086C161.274 -11.308 161.518 -11.0617 161.815 -11.0617C162.113 -11.0617 162.296 -11.2462 162.222 -11.4718C162.01 -12.1126 161.274 -12.2186 161.274 -11.6086ZM197.517 -10.9467C197.517 -10.2295 197.922 -9.99321 198.426 -10.416C199.089 -10.9719 198.99 -11.4072 198.201 -11.4072C197.825 -11.4072 197.517 -11.1999 197.517 -10.9467ZM218.816 -11.024C218.274 -10.4765 218.656 -9.6799 219.461 -9.6799C219.955 -9.6799 220.103 -9.87749 220.022 -10.4302C219.894 -11.3132 219.361 -11.575 218.816 -11.024ZM207.775 -10.1981C207.775 -9.23219 208.603 -9.00763 208.936 -9.8837C209.196 -10.567 208.915 -11.0617 208.268 -11.0617C207.97 -11.0617 207.775 -10.7197 207.775 -10.1981ZM157.171 -10.0661C157.171 -9.87613 157.325 -9.62462 157.513 -9.50717C157.701 -9.38972 157.855 -9.44912 157.855 -9.63912C157.855 -9.82912 157.701 -10.0806 157.513 -10.1981C157.325 -10.3155 157.171 -10.2561 157.171 -10.0661ZM111.696 -9.4868C111.696 -9.19075 111.852 -9.04599 112.043 -9.16518C112.234 -9.2847 112.303 -9.52685 112.194 -9.70372C111.901 -10.1829 111.696 -10.0938 111.696 -9.4868ZM122.979 -8.96862C122.979 -8.76757 123.133 -8.69881 123.321 -8.81626C123.509 -8.93372 123.663 -9.09814 123.663 -9.18209C123.663 -9.26603 123.509 -9.33444 123.321 -9.33444C123.133 -9.33444 122.979 -9.16968 122.979 -8.96862ZM224.248 -8.89086C223.711 -8.23727 224.516 -7.14221 225.406 -7.31528C226.36 -7.50079 226.316 -9.12578 225.354 -9.26465C224.961 -9.32131 224.464 -9.15306 224.248 -8.89086ZM239.11 -7.79648C238.021 -6.7767 237.968 -5.93347 238.914 -4.71747C239.848 -3.51806 241.522 -3.48421 242.757 -4.64009C243.543 -5.3766 243.608 -5.60667 243.32 -6.62645C242.718 -8.7603 240.73 -9.31301 239.11 -7.79648ZM161.768 -7.92256C161.436 -7.37917 162.155 -6.78605 162.828 -7.04721C163.294 -7.22788 163.323 -7.36639 162.98 -7.78404C162.48 -8.39307 162.084 -8.43833 161.768 -7.92256ZM156.145 -7.43446C156.145 -7.07864 156.369 -6.90935 156.744 -6.98189C157.464 -7.12215 157.419 -7.73534 156.676 -7.89149C156.367 -7.95678 156.145 -7.76643 156.145 -7.43446ZM153.923 -7.26173C153.807 -7.07173 153.875 -6.91627 154.074 -6.91627C154.273 -6.91627 154.436 -7.07173 154.436 -7.26173C154.436 -7.45173 154.368 -7.60718 154.285 -7.60718C154.202 -7.60718 154.039 -7.45173 153.923 -7.26173ZM221.965 -7.19438C220.419 -6.30864 220.313 -4.62213 221.737 -3.55849C222.64 -2.88382 222.78 -2.87035 223.777 -3.35847C224.366 -3.64658 224.939 -4.17063 225.05 -4.52265C225.274 -5.23704 224.702 -6.52246 223.875 -7.16432C223.201 -7.68698 222.834 -7.69253 221.965 -7.19438ZM152.042 -6.57082C152.042 -5.92586 152.134 -5.83399 152.453 -6.1563C152.772 -6.4786 152.772 -6.66304 152.453 -6.98535C152.134 -7.30765 152.042 -7.21578 152.042 -6.57082ZM168.516 -6.48446C168.576 -6.05714 168.779 -5.70719 168.967 -5.70719C169.155 -5.70719 169.358 -6.05714 169.419 -6.48446C169.493 -7.01922 169.353 -7.26173 168.967 -7.26173C168.582 -7.26173 168.441 -7.01922 168.516 -6.48446ZM105.37 -6.57082C105.487 -6.38082 105.726 -6.22537 105.904 -6.22537C106.081 -6.22537 106.225 -6.38082 106.225 -6.57082C106.225 -6.76082 105.985 -6.91627 105.692 -6.91627C105.399 -6.91627 105.254 -6.76082 105.37 -6.57082ZM216.523 -5.92795C216.209 -5.41495 216.881 -3.92986 217.543 -3.67319C218.323 -3.37057 219.459 -4.43107 219.33 -5.34272C219.253 -5.88715 218.938 -6.07719 217.979 -6.15802C217.291 -6.21572 216.636 -6.11242 216.523 -5.92795ZM147.939 -5.36174C147.939 -5.07674 148.093 -4.84356 148.281 -4.84356C148.469 -4.84356 148.623 -5.07674 148.623 -5.36174C148.623 -5.64674 148.469 -5.87992 148.281 -5.87992C148.093 -5.87992 147.939 -5.64674 147.939 -5.36174ZM175.699 -5.27917C175.871 -4.37892 177.002 -4.2784 177.002 -5.16379C177.002 -5.65814 176.783 -5.87992 176.293 -5.87992C175.804 -5.87992 175.62 -5.69371 175.699 -5.27917ZM213.215 -5.32442C212.827 -4.85287 212.855 -4.69776 213.394 -4.29911C214.197 -3.70597 214.613 -3.95746 214.613 -5.03665C214.613 -6.0053 213.896 -6.15316 213.215 -5.32442ZM108.619 -4.84356C108.619 -4.65356 108.782 -4.49811 108.981 -4.49811C109.18 -4.49811 109.248 -4.65356 109.132 -4.84356C109.015 -5.03356 108.853 -5.18901 108.769 -5.18901C108.686 -5.18901 108.619 -5.03356 108.619 -4.84356ZM263.223 -4.58447C262.121 -3.6362 262.116 -2.26129 263.21 -1.07466C263.783 -0.45319 264.167 -0.329544 265.005 -0.496052C266.944 -0.880195 267.504 -2.62748 266.218 -4.27874C265.396 -5.33514 264.233 -5.45398 263.223 -4.58447ZM99.3869 -4.02206C99.3869 -3.67764 99.6724 -3.46175 100.128 -3.46175C100.535 -3.46175 100.804 -3.50561 100.726 -3.5595C100.648 -3.61339 100.314 -3.86559 99.9852 -4.11985C99.4731 -4.51608 99.3869 -4.50189 99.3869 -4.02206ZM119.218 -4.15266C119.218 -3.96265 119.372 -3.8072 119.56 -3.8072C119.748 -3.8072 119.902 -3.96265 119.902 -4.15266C119.902 -4.34265 119.748 -4.49811 119.56 -4.49811C119.372 -4.49811 119.218 -4.34265 119.218 -4.15266ZM184.76 -3.92949C184.314 -3.47902 184.527 -3.1163 185.237 -3.1163C185.635 -3.1163 185.889 -3.29732 185.814 -3.52635C185.647 -4.03141 185.076 -4.24973 184.76 -3.92949ZM202.988 -2.82853C202.988 -2.01326 203.276 -1.73519 203.876 -1.96802C204.633 -2.26131 204.468 -3.46175 203.672 -3.46175C203.237 -3.46175 202.988 -3.23133 202.988 -2.82853ZM208.278 -2.63092C207.981 -2.17424 207.362 -1.7048 206.902 -1.58803C206.303 -1.43603 206.065 -1.1386 206.065 -0.539234C206.065 0.568287 206.607 0.857117 207.534 0.243939C208.064 -0.10704 208.448 -0.153366 208.828 0.0887949C209.203 0.327851 209.672 0.284699 210.366 -0.0528066C211.19 -0.453533 211.346 -0.718872 211.255 -1.56834C211.053 -3.45244 209.232 -4.10255 208.278 -2.63092ZM146.624 -2.61954C146.69 -2.30276 146.896 -2.05162 147.084 -2.06164C147.592 -2.08893 147.499 -2.86169 146.966 -3.04098C146.679 -3.13771 146.551 -2.97985 146.624 -2.61954ZM142.192 -2.3995C142.26 -2.19534 142.461 -2.02811 142.64 -2.02811C142.818 -2.02811 143.019 -2.19534 143.087 -2.3995C143.154 -2.60366 142.953 -2.77084 142.64 -2.77084C142.326 -2.77084 142.125 -2.60366 142.192 -2.3995ZM193.489 -2.37217C193.666 -1.83396 194.431 -1.74001 194.458 -2.25267C194.468 -2.44266 194.22 -2.65165 193.906 -2.71762C193.549 -2.7919 193.393 -2.6627 193.489 -2.37217ZM151.761 -1.88891C151.915 -1.13859 152.522 -1.09264 152.661 -1.82085C152.733 -2.19912 152.565 -2.42539 152.213 -2.42539C151.885 -2.42539 151.696 -2.20189 151.761 -1.88891ZM102.464 -1.73449C102.464 -1.54449 102.627 -1.38903 102.826 -1.38903C103.025 -1.38903 103.093 -1.54449 102.977 -1.73449C102.861 -1.92448 102.698 -2.07994 102.615 -2.07994C102.532 -2.07994 102.464 -1.92448 102.464 -1.73449ZM112.038 -1.73449C112.038 -1.54449 112.192 -1.38903 112.38 -1.38903C112.568 -1.38903 112.722 -1.54449 112.722 -1.73449C112.722 -1.92448 112.568 -2.07994 112.38 -2.07994C112.192 -2.07994 112.038 -1.92448 112.038 -1.73449ZM138.926 -1.84021C138.541 -1.45122 138.692 -1.04358 139.22 -1.04358C139.502 -1.04358 139.733 -1.18972 139.733 -1.36867C139.733 -1.80428 139.199 -2.11622 138.926 -1.84021ZM94.2581 -0.505035C94.2581 -0.20898 94.4144 -0.0642278 94.6055 -0.183407C94.7966 -0.302933 94.8647 -0.545082 94.7563 -0.721954C94.4633 -1.2011 94.2581 -1.112 94.2581 -0.505035ZM157.855 -0.352676C157.855 0.0273211 158.009 0.33823 158.197 0.33823C158.385 0.33823 158.539 0.0273211 158.539 -0.352676C158.539 -0.732673 158.385 -1.04358 158.197 -1.04358C158.009 -1.04358 157.855 -0.732673 157.855 -0.352676ZM213.463 0.212479C212.381 1.30584 212.376 1.37909 213.252 3.11568C214.014 4.62323 214.694 4.81634 216.297 3.97931C217.41 3.39722 217.817 2.27035 217.287 1.23227C216.196 -0.904705 214.909 -1.24775 213.463 0.212479ZM133.13 0.56139C132.66 1.03604 132.904 1.76912 133.493 1.65442C133.822 1.59017 134.092 1.31964 134.092 1.0533C134.092 0.507828 133.488 0.199356 133.13 0.56139ZM96.3096 1.02913C96.3096 1.21913 96.4635 1.37459 96.6515 1.37459C96.8396 1.37459 96.9935 1.21913 96.9935 1.02913C96.9935 0.839134 96.8396 0.683682 96.6515 0.683682C96.4635 0.683682 96.3096 0.839134 96.3096 1.02913ZM129.815 1.20565C129.471 1.624 129.492 1.72004 129.927 1.72004C130.565 1.72004 130.982 1.15659 130.546 0.88403C130.376 0.777977 130.047 0.92273 129.815 1.20565ZM198.909 1.7356C197.647 2.33841 196.833 2.93118 196.916 3.18716C197.089 3.72572 199.838 5.12656 200.775 5.1542C202.472 5.20395 203.448 3.57859 202.638 2.05065C201.931 0.71513 201.177 0.65157 198.909 1.7356ZM137.202 1.28337C136.835 1.65405 136.987 2.06549 137.491 2.06549C137.762 2.06549 138.068 1.92627 138.172 1.75631C138.39 1.40049 137.51 0.971775 137.202 1.28337ZM164.864 1.37459C164.728 1.59775 164.77 1.93559 164.958 2.12558C165.186 2.356 165.383 2.33598 165.548 2.06549C165.684 1.84233 165.642 1.50449 165.454 1.3145C165.226 1.08408 165.03 1.1041 164.864 1.37459ZM88.9584 2.7564C89.0746 2.9464 89.3236 3.10185 89.5116 3.10185C89.6997 3.10185 89.7585 2.9464 89.6422 2.7564C89.526 2.5664 89.2771 2.41095 89.089 2.41095C88.9009 2.41095 88.8421 2.5664 88.9584 2.7564ZM142.127 3.10185C142.127 3.48185 142.281 3.79276 142.469 3.79276C142.657 3.79276 142.81 3.48185 142.81 3.10185C142.81 2.72185 142.657 2.41095 142.469 2.41095C142.281 2.41095 142.127 2.72185 142.127 3.10185ZM232.393 3.10185C230.934 4.57555 232.11 7.59273 234.143 7.59273C235.346 7.59273 236.838 6.24476 236.838 5.15728C236.838 4.75033 236.52 3.96619 236.131 3.41416C235.259 2.17709 233.457 2.02646 232.393 3.10185ZM172.215 3.62003C172.215 4.09503 172.369 4.48366 172.557 4.48366C172.745 4.48366 172.899 4.09503 172.899 3.62003C172.899 3.14503 172.745 2.7564 172.557 2.7564C172.369 2.7564 172.215 3.14503 172.215 3.62003ZM90.8389 3.77239C90.8389 3.95133 90.9928 4.19348 91.1809 4.31093C91.3689 4.42839 91.5228 4.2819 91.5228 3.98585C91.5228 3.6898 91.3689 3.4473 91.1809 3.4473C90.9928 3.4473 90.8389 3.59344 90.8389 3.77239ZM120.928 3.96548C120.928 4.25048 121.065 4.48366 121.233 4.48366C121.401 4.48366 121.627 4.25048 121.735 3.96548C121.855 3.64974 121.736 3.4473 121.43 3.4473C121.154 3.4473 120.928 3.68048 120.928 3.96548ZM124.005 3.96548C124.005 4.28226 124.17 4.48538 124.373 4.41732C124.575 4.34927 124.74 4.14615 124.74 3.96548C124.74 3.78481 124.575 3.58169 124.373 3.51363C124.17 3.44558 124.005 3.6487 124.005 3.96548ZM115.799 4.13821C115.799 4.32821 115.953 4.48366 116.141 4.48366C116.329 4.48366 116.483 4.32821 116.483 4.13821C116.483 3.94821 116.329 3.79276 116.141 3.79276C115.953 3.79276 115.799 3.94821 115.799 4.13821ZM118.044 4.10194C117.939 4.27225 118.084 4.50025 118.365 4.60941C118.676 4.72963 118.876 4.60836 118.876 4.30022C118.876 3.74128 118.342 3.61416 118.044 4.10194ZM188.75 5.61469C188.906 7.7064 189.374 8.62909 190.276 8.62909C190.696 8.62909 190.724 8.72131 190.405 9.04362C189.793 9.66233 189.908 10.8579 190.712 12.2349C191.326 13.2868 191.558 13.4309 192.336 13.2447C193.841 12.884 194.441 12.1178 194.434 10.5619C194.426 8.73445 193.164 7.33364 192.063 7.92954C191.301 8.34132 191.12 7.97586 191.764 7.32572C192.379 6.7039 191.596 5.30861 190.471 5.02326C189.95 4.8913 189.317 4.52165 189.063 4.20176C188.665 3.70085 188.622 3.89744 188.75 5.61469ZM179.931 4.79285C179.703 5.1649 180.422 5.47824 181.02 5.26751C181.255 5.18494 181.447 4.97454 181.447 4.80043C181.447 4.39246 180.179 4.38625 179.931 4.79285ZM127.61 5.15074C127.501 5.32761 127.569 5.56976 127.761 5.68929C128.169 5.94388 128.792 5.62056 128.792 5.1542C128.792 4.73378 127.866 4.73101 127.61 5.15074ZM147.597 5.37597C147.597 5.67685 147.78 5.86167 148.004 5.78636C148.637 5.57287 148.742 4.82911 148.139 4.82911C147.841 4.82911 147.597 5.07542 147.597 5.37597ZM92.8905 5.52002C92.8905 5.71002 93.0535 5.86547 93.2525 5.86547C93.4515 5.86547 93.5196 5.71002 93.4033 5.52002C93.2871 5.33002 93.1243 5.17456 93.0412 5.17456C92.9582 5.17456 92.8905 5.33002 92.8905 5.52002ZM83.6587 6.21093C83.6587 6.40092 83.8125 6.55638 84.0006 6.55638C84.1886 6.55638 84.3425 6.40092 84.3425 6.21093C84.3425 6.02092 84.1886 5.86547 84.0006 5.86547C83.8125 5.86547 83.6587 6.02092 83.6587 6.21093ZM105.883 6.38365C105.883 6.66865 106.037 6.90183 106.225 6.90183C106.413 6.90183 106.567 6.66865 106.567 6.38365C106.567 6.09865 106.413 5.86547 106.225 5.86547C106.037 5.86547 105.883 6.09865 105.883 6.38365ZM107.935 6.40402C107.935 6.70007 108.091 6.84482 108.282 6.72564C108.473 6.60612 108.541 6.36397 108.433 6.1871C108.14 5.70796 107.935 5.79705 107.935 6.40402ZM109.644 6.38365C109.644 6.66865 109.875 6.90183 110.157 6.90183C110.439 6.90183 110.67 6.66865 110.67 6.38365C110.67 6.09865 110.439 5.86547 110.157 5.86547C109.875 5.86547 109.644 6.09865 109.644 6.38365ZM111.92 6.39816C112.144 6.98784 112.774 6.91529 112.985 6.27587C113.061 6.04786 112.809 5.86547 112.419 5.86547C111.927 5.86547 111.778 6.02472 111.92 6.39816ZM114.636 6.46516C114.224 6.88074 114.449 7.24728 115.115 7.24728C115.491 7.24728 115.799 7.10842 115.799 6.93881C115.799 6.55053 114.91 6.18811 114.636 6.46516ZM132.382 7.24728C132.266 7.43728 132.276 7.76479 132.405 7.97517C132.634 8.35067 133.219 7.77513 133.232 7.16092C133.239 6.7823 132.629 6.84449 132.382 7.24728ZM154.094 7.95855C154.094 8.34961 154.248 8.57382 154.436 8.45636C154.624 8.33891 154.778 8.01904 154.778 7.74509C154.778 7.47115 154.624 7.24728 154.436 7.24728C154.248 7.24728 154.094 7.5675 154.094 7.95855ZM101.78 8.304C101.78 8.69506 101.934 8.91927 102.122 8.80181C102.31 8.68436 102.464 8.36449 102.464 8.09054C102.464 7.8166 102.31 7.59273 102.122 7.59273C101.934 7.59273 101.78 7.91295 101.78 8.304ZM103.148 8.09054C103.148 8.36449 103.309 8.6885 103.505 8.81114C103.946 9.08681 104.92 8.3199 104.663 7.89914C104.356 7.39858 103.148 7.5513 103.148 8.09054ZM118.192 8.28364C118.192 8.72892 118.365 8.97385 118.62 8.88818C118.855 8.80907 119.047 8.53685 119.047 8.28364C119.047 8.03042 118.855 7.75821 118.62 7.6791C118.365 7.59343 118.192 7.83835 118.192 8.28364ZM100.071 8.26327C100.071 8.44222 100.225 8.68436 100.413 8.80181C100.601 8.91927 100.755 8.77278 100.755 8.47673C100.755 8.18068 100.601 7.93818 100.413 7.93818C100.225 7.93818 100.071 8.08432 100.071 8.26327ZM87.4198 8.82219C87.4198 9.11824 87.576 9.263 87.7671 9.14381C87.9583 9.02429 88.0263 8.78214 87.9179 8.60527C87.6249 8.12613 87.4198 8.21523 87.4198 8.82219ZM97.3354 8.62909C97.3354 8.81909 97.4892 8.97454 97.6773 8.97454C97.8654 8.97454 98.0192 8.81909 98.0192 8.62909C98.0192 8.43909 97.8654 8.28364 97.6773 8.28364C97.4892 8.28364 97.3354 8.43909 97.3354 8.62909ZM105.883 8.80181C105.883 9.08682 106.114 9.32 106.396 9.32C106.678 9.32 106.909 9.08682 106.909 8.80181C106.909 8.51682 106.678 8.28364 106.396 8.28364C106.114 8.28364 105.883 8.51682 105.883 8.80181ZM180.042 9.54868C179.442 9.7107 178.712 11.0694 178.712 12.0231C178.712 13.064 179.719 14.1563 180.679 14.1563C181.8 14.1563 183.499 12.5735 183.499 11.5288C183.499 11.0265 183.098 10.508 182.347 10.0392C181.183 9.3124 181.035 9.28061 180.042 9.54868ZM89.1294 9.9449C89.1294 10.2976 90.4256 11.3927 90.8427 11.3927C91.0287 11.3927 91.1809 11.2373 91.1809 11.0473C91.1809 10.8573 90.9501 10.7018 90.668 10.7018C90.3859 10.7018 90.1551 10.563 90.1551 10.3933C90.1551 10.2237 89.9243 9.99533 89.6422 9.88583C89.3601 9.77666 89.1294 9.80327 89.1294 9.9449ZM94.771 9.90071C92.8925 10.327 91.8647 10.803 91.8647 11.2469C91.8647 11.8256 92.2671 11.8843 92.7677 11.3785C92.9636 11.1806 93.8793 10.9858 94.8021 10.9461C95.7253 10.906 96.4419 10.7567 96.3951 10.6148C96.3483 10.4728 96.3096 10.2009 96.3096 10.0109C96.3096 9.65577 95.9609 9.63092 94.771 9.90071ZM137.525 10.3325C137.272 10.746 137.916 11.1554 138.371 10.8711C138.754 10.6324 138.502 10.0109 138.024 10.0109C137.858 10.0109 137.634 10.1557 137.525 10.3325ZM160.59 10.7018C160.59 10.8918 160.821 11.0473 161.103 11.0473C161.385 11.0473 161.616 10.8918 161.616 10.7018C161.616 10.5118 161.385 10.3564 161.103 10.3564C160.821 10.3564 160.59 10.5118 160.59 10.7018ZM97.3354 11.3927C97.3354 11.8532 97.5634 12.0836 98.0192 12.0836C98.8306 12.0836 98.9369 11.2121 98.1621 10.9115C97.3778 10.6075 97.3354 10.632 97.3354 11.3927ZM109.079 11.2348C108.967 11.5281 108.965 11.858 109.074 11.9686C109.419 12.3171 110.328 11.7824 110.328 11.2307C110.328 10.5412 109.341 10.5446 109.079 11.2348ZM122.865 10.9322C122.449 11.353 122.63 12.0836 123.15 12.0836C123.435 12.0836 123.663 11.7765 123.663 11.3927C123.663 10.7046 123.299 10.4942 122.865 10.9322ZM205.928 11.5668C205.134 12.1734 205.111 13.8606 205.88 15.0466C207.18 17.0502 210.479 15.3751 209.971 12.9701C209.848 12.3876 209.593 11.7167 209.403 11.4791C208.938 10.8956 206.732 10.9512 205.928 11.5668ZM258.836 11.801C257.827 12.294 257.659 13.2164 258.329 14.573C259.469 16.8792 262.829 15.8494 262.342 13.3431C261.997 11.5668 260.585 10.946 258.836 11.801ZM86.5017 11.962C86.8706 12.3351 85.3211 13.4654 84.441 13.4654C83.9797 13.4654 83.711 13.6171 83.8296 13.8109C84.1715 14.3702 85.6059 14.2092 87.2526 13.4274C89.1547 12.5241 89.2853 11.7382 87.5336 11.7382C86.8443 11.7382 86.3796 11.839 86.5017 11.962ZM82.12 12.4291C82.0038 12.6191 82.1576 12.7745 82.4619 12.7745C82.7663 12.7745 82.9201 12.6191 82.8039 12.4291C82.6876 12.2391 82.5337 12.0836 82.4619 12.0836C82.3901 12.0836 82.2363 12.2391 82.12 12.4291ZM174.951 12.6018C174.951 12.8868 175.105 13.12 175.293 13.12C175.481 13.12 175.635 12.8868 175.635 12.6018C175.635 12.3168 175.481 12.0836 175.293 12.0836C175.105 12.0836 174.951 12.3168 174.951 12.6018ZM89.1294 13.2927C89.1294 13.5805 89.4333 13.8109 89.8132 13.8109C90.1931 13.8109 90.497 13.5805 90.497 13.2927C90.497 13.0049 90.1931 12.7745 89.8132 12.7745C89.4333 12.7745 89.1294 13.0049 89.1294 13.2927ZM100.071 13.4654C100.511 14.2969 100.949 14.3515 101.231 13.6098C101.537 12.8032 101.515 12.7745 100.572 12.7745C99.8109 12.7745 99.7493 12.8588 100.071 13.4654ZM143.494 13.8109C143.494 14.0009 143.648 14.1563 143.836 14.1563C144.024 14.1563 144.178 14.0009 144.178 13.8109C144.178 13.6209 144.024 13.4654 143.836 13.4654C143.648 13.4654 143.494 13.6209 143.494 13.8109ZM79.6969 14.6717C79.3898 15.1453 79.2257 15.7623 79.332 16.0425C79.4387 16.323 79.3785 16.6443 79.1987 16.7565C78.8003 17.0053 78.7624 17.9563 79.1508 17.9563C79.3043 17.9563 79.7806 17.3255 80.2097 16.5541C80.9305 15.2583 81.0242 15.1996 81.4485 15.7769C81.8756 16.3583 81.947 16.362 82.4814 15.8304C83.1642 15.1509 82.8152 14.3729 81.9327 14.6061C81.589 14.697 81.2276 14.5557 81.1271 14.2907C80.8529 13.5687 80.3202 13.7107 79.6969 14.6717ZM112.722 14.1563C112.722 14.3463 113.029 14.5018 113.406 14.5018C113.782 14.5018 114.089 14.3463 114.089 14.1563C114.089 13.9663 113.782 13.8109 113.406 13.8109C113.029 13.8109 112.722 13.9663 112.722 14.1563ZM171.604 14.1967C170.662 14.5487 170.629 15.5765 171.533 16.4032C172.12 16.94 172.351 16.9683 173.148 16.6014C173.794 16.304 174.115 16.2874 174.201 16.5469C174.376 17.0775 175.527 17.0101 175.737 16.4567C175.834 16.2021 175.778 15.7745 175.613 15.5067C175.373 15.1174 175.181 15.1029 174.652 15.4342C174.079 15.7927 173.964 15.7406 173.79 15.0435C173.561 14.1207 172.7 13.787 171.604 14.1967ZM127.937 14.5018C127.801 14.7249 127.843 15.0628 128.031 15.2528C128.259 15.4832 128.455 15.4632 128.621 15.1927C128.757 14.9695 128.715 14.6317 128.527 14.4417C128.299 14.2113 128.103 14.2313 127.937 14.5018ZM91.6753 15.2228C91.3768 15.7105 92.036 16.3765 92.5188 16.075C93.0611 15.7364 92.9735 14.8472 92.3977 14.8472C92.1266 14.8472 91.8018 15.0162 91.6753 15.2228ZM73.0999 16.6716C72.5385 17.2388 72.6335 18.3018 73.2456 18.3018C73.6644 18.3018 73.7273 18.5529 73.5495 19.5108C73.3683 20.4864 73.4316 20.7199 73.876 20.7199C74.2887 20.7199 74.4269 20.3807 74.4269 19.3668C74.4269 18.6227 74.5667 17.9622 74.7373 17.8986C74.9083 17.8354 75.1008 17.4927 75.1647 17.1373C75.2516 16.6578 75.0495 16.4643 74.3821 16.3879C73.8873 16.3313 73.3105 16.4588 73.0999 16.6716ZM104.003 16.5745C103.754 16.9821 104.077 17.6109 104.536 17.6109C104.713 17.6109 104.858 17.3 104.858 16.92C104.858 16.1914 104.36 15.9903 104.003 16.5745ZM83.195 17.0875C83.0726 17.4098 83.196 17.7183 83.4935 17.8337C84.202 18.1083 85.1115 17.6976 84.9426 17.1787C84.7292 16.5244 83.4347 16.4567 83.195 17.0875ZM170.401 17.5072C169.351 17.7822 169.029 19.2576 169.746 20.5026C170.514 21.835 171.457 22.0137 172.663 21.0557C173.7 20.2311 173.837 19.1671 173.051 18.0334C172.542 17.2996 171.776 17.1472 170.401 17.5072ZM117.85 18.129C117.85 18.414 118.004 18.6472 118.192 18.6472C118.38 18.6472 118.534 18.414 118.534 18.129C118.534 17.844 118.38 17.6109 118.192 17.6109C118.004 17.6109 117.85 17.844 117.85 18.129ZM168.181 18.3899C167.862 18.7785 167.845 18.9982 168.119 19.1692C168.625 19.4853 168.883 19.1854 168.741 18.4479C168.637 17.9079 168.581 17.9024 168.181 18.3899ZM94.942 18.9927C94.942 19.5129 95.1204 19.6995 95.5403 19.618C95.8692 19.5537 96.1387 19.2725 96.1387 18.9927C96.1387 18.7129 95.8692 18.4316 95.5403 18.3674C95.1204 18.2859 94.942 18.4724 94.942 18.9927ZM226.798 19.0179C225.62 19.9537 225.594 21.4817 226.736 22.6355C227.704 23.6135 228.285 23.6825 229.631 22.9792C230.777 22.3805 231.104 21.3963 230.622 19.9983C230.009 18.2247 228.335 17.7953 226.798 19.0179ZM66.5822 18.9733C66.1829 19.2286 66.1651 19.4576 66.4892 20.1769C66.7098 20.6657 67.0473 21.0654 67.2394 21.0654C67.4312 21.0654 67.5885 21.264 67.5885 21.5065C67.5885 21.7494 67.8426 22.3145 68.153 22.7626L68.7179 23.5768L69.147 22.7491C69.5795 21.9152 69.4376 19.9012 68.9671 20.1948C68.828 20.2819 68.5411 19.9689 68.3298 19.5001C67.9256 18.6044 67.4049 18.4472 66.5822 18.9733ZM75.3364 18.9032C75.2372 19.0655 75.295 19.4241 75.4656 19.7001C75.7928 20.2304 76.8138 19.858 76.9321 19.1654C77.006 18.7343 75.5829 18.5 75.3364 18.9032ZM161.461 19.4069C160.132 20.6812 161.71 22.7882 163.483 22.1069C164.654 21.6572 164.856 21.0046 164.215 19.7506C163.613 18.576 162.475 18.4341 161.461 19.4069ZM165.244 19.1903C164.977 19.8919 165.599 21.0654 166.237 21.0654C166.783 21.0654 167.28 19.5886 166.928 19.0124C166.589 18.4583 165.477 18.5761 165.244 19.1903ZM182.875 19.7893C181.524 20.7431 181.399 22.3018 182.584 23.4262C183.323 24.1282 183.471 24.1478 184.721 23.7126C185.673 23.3809 186.096 23.0186 186.177 22.4655C186.374 21.1193 185.917 20.0598 184.915 19.5364C184.026 19.0718 183.862 19.0922 182.875 19.7893ZM86.0521 20.8723C86.0521 21.5262 86.5417 21.8098 87.218 21.5476C88.0851 21.2115 87.8629 20.3745 86.9069 20.3745C86.3906 20.3745 86.0521 20.5717 86.0521 20.8723ZM108.448 21.0654C108.331 21.2554 108.342 21.5829 108.47 21.7933C108.7 22.1688 109.285 21.5932 109.297 20.979C109.305 20.6004 108.694 20.6626 108.448 21.0654ZM59.7244 22.4051C59.7244 23.5879 60.4968 24.3275 61.7869 24.38C62.6673 24.4159 62.7073 24.3555 62.4358 23.3993C62.0337 21.9832 61.4873 21.4108 60.5375 21.4108C59.8697 21.4108 59.7244 21.5884 59.7244 22.4051ZM77.976 22.2579C77.8714 22.5339 77.8854 22.9229 78.0074 23.1225C78.3124 23.6207 79.5556 22.9301 79.5556 22.2624C79.5556 21.6063 78.2249 21.6026 77.976 22.2579ZM155.828 22.774C155.247 23.2169 155.101 23.5713 155.273 24.1202C155.512 24.8788 155.786 24.9991 157 24.8754C158.046 24.7687 158.268 24.3658 157.825 23.3823C157.291 22.1995 156.784 22.0451 155.828 22.774ZM99.3869 23.4836C99.3869 23.9288 99.5599 24.1738 99.8143 24.0881C100.05 24.009 100.242 23.7368 100.242 23.4836C100.242 23.2303 100.05 22.9581 99.8143 22.879C99.5599 22.7933 99.3869 23.0383 99.3869 23.4836ZM160.248 23.4632C160.248 23.8321 160.371 24.2104 160.521 24.304C161.008 24.6083 161.721 23.914 161.506 23.3457C161.209 22.565 160.248 22.6548 160.248 23.4632ZM70.0924 24.3821C69.8007 25.1497 70.7116 25.6579 71.3045 25.0588C71.5619 24.7987 71.6683 24.4159 71.5407 24.2076C71.1968 23.6452 70.3327 23.7492 70.0924 24.3821ZM53.6314 25.0871C53.0905 26.0641 53.5514 26.9381 54.6076 26.9381C55.1345 26.9381 55.8088 27.0324 56.1062 27.1478C56.9525 27.476 56.7463 26.6369 55.7079 25.5252C54.6425 24.3849 54.0858 24.2674 53.6314 25.0871ZM62.711 25.0719C62.2707 25.5169 62.4406 26.8375 62.9986 27.3053C63.4455 27.6798 63.5908 27.6725 63.8483 27.2614C64.2781 26.5754 64.2534 26.4285 63.5658 25.5708C63.2342 25.1569 62.8495 24.9324 62.711 25.0719ZM90.1551 25.7086C90.1551 25.9826 90.2929 26.2924 90.4611 26.3975C90.8133 26.6172 91.2376 25.7287 90.9292 25.4174C90.5623 25.0467 90.1551 25.1998 90.1551 25.7086ZM113.406 25.9017C113.406 26.0917 113.569 26.2472 113.768 26.2472C113.967 26.2472 114.035 26.0917 113.918 25.9017C113.802 25.7117 113.639 25.5563 113.556 25.5563C113.473 25.5563 113.406 25.7117 113.406 25.9017ZM151.737 26.2071C151.07 26.7256 150.964 27.0272 151.165 27.8404C151.669 29.8803 152.916 30.5315 154.359 29.5093C155.259 28.8726 155.362 27.4411 154.587 26.3242C153.943 25.3949 152.841 25.3497 151.737 26.2071ZM200.253 25.8002C197.22 26.9201 197.81 31.3347 200.951 31.022C203.279 30.7899 203.893 28.371 202.116 26.4337C201.288 25.5307 201.129 25.4768 200.253 25.8002ZM155.974 26.2472C155.858 26.4372 155.926 26.5926 156.125 26.5926C156.324 26.5926 156.487 26.4372 156.487 26.2472C156.487 26.0572 156.42 25.9017 156.336 25.9017C156.253 25.9017 156.091 26.0572 155.974 26.2472ZM81.4362 26.9381C81.15 27.4058 81.536 27.9744 82.1402 27.9744C82.4113 27.9744 82.6329 27.6635 82.6329 27.2835C82.6329 26.5684 81.8079 26.3301 81.4362 26.9381ZM145.802 27.7644C144.606 28.6819 145.381 30.9415 146.771 30.5892C147.485 30.4078 147.597 30.5007 147.597 31.2701C147.597 31.7599 147.733 32.0757 147.9 31.9717C148.066 31.868 148.202 30.9968 148.202 30.0361C148.202 27.6159 147.215 26.681 145.802 27.7644ZM47.8256 28.0435C46.7332 29.1472 47.8349 30.3007 49.5623 29.8627C50.149 29.7138 50.4618 29.8133 50.6065 30.1943C50.8691 30.8859 51.5184 30.9042 51.5184 30.2199C51.5184 29.9349 51.2876 29.7017 51.0055 29.7017C50.7234 29.7017 50.4926 29.4927 50.4926 29.2371C50.4926 28.6394 49.391 27.629 48.7389 27.629C48.4623 27.629 48.0513 27.8155 47.8256 28.0435ZM161.301 28.5227C160.448 29.2481 160.291 29.5891 160.467 30.3363C160.801 31.7489 161.247 32.1199 162.615 32.1199C164.163 32.1199 164.693 31.6235 164.693 30.176C164.693 29.3829 164.433 28.8543 163.792 28.3451C162.652 27.439 162.569 27.4449 161.301 28.5227ZM56.9891 28.3199C56.9891 28.5099 57.2291 28.6653 57.5221 28.6653C57.8151 28.6653 57.9601 28.5099 57.8438 28.3199C57.7276 28.1299 57.4879 27.9744 57.3108 27.9744C57.1337 27.9744 56.9891 28.1299 56.9891 28.3199ZM55.194 28.693C54.3429 29.1939 54.4537 29.7017 55.4138 29.7017C56.0905 29.7017 56.6471 29.1431 56.6471 28.4643C56.6471 28.2021 55.8026 28.3347 55.194 28.693ZM104.201 28.8667C104.217 29.2692 104.298 29.3511 104.407 29.0757C104.506 28.8263 104.494 28.5282 104.38 28.4135C104.267 28.2988 104.186 28.5026 104.201 28.8667ZM72.8647 29.0495C72.5754 29.5224 73.3426 30.0482 73.9684 29.8054C74.2207 29.7079 74.4269 29.4112 74.4269 29.1465C74.4269 28.5748 73.2014 28.4985 72.8647 29.0495ZM64.8532 31.0835C64.8532 31.8532 65.5233 31.9955 66.1525 31.3599C66.7898 30.716 66.6414 30.3926 65.708 30.3926C65.0812 30.3926 64.8532 30.5767 64.8532 31.0835ZM141.511 30.8071C140.569 31.7592 141.687 33.0726 142.887 32.4239C143.636 32.0193 143.653 31.639 142.957 30.9353C142.312 30.2838 142.052 30.261 141.511 30.8071ZM42.6853 31.1236C41.613 31.5326 41.9282 32.2926 43.1697 32.2926C43.7185 32.2926 44.2642 32.4273 44.3829 32.5917C44.5029 32.7582 44.8561 32.7455 45.1789 32.5631C45.7023 32.267 45.6808 32.1841 44.9631 31.7205C43.593 30.8355 43.5024 30.812 42.6853 31.1236ZM48.3272 30.9685C47.8195 31.4811 48.1471 32.1199 48.9174 32.1199C49.7024 32.1199 50.3251 31.3747 49.899 30.9446C49.6241 30.6666 48.6104 30.6821 48.3272 30.9685ZM94.6 31.0631C94.6 31.2421 94.7539 31.4842 94.942 31.6017C95.13 31.7191 95.2839 31.5727 95.2839 31.2766C95.2839 30.9805 95.13 30.7381 94.942 30.7381C94.7539 30.7381 94.6 30.8842 94.6 31.0631ZM52.2022 31.429C52.2022 31.619 52.3653 31.7744 52.5643 31.7744C52.7633 31.7744 52.8313 31.619 52.7151 31.429C52.5988 31.239 52.4361 31.0835 52.353 31.0835C52.2699 31.0835 52.2022 31.239 52.2022 31.429ZM255.224 32.3769C254.154 33.0474 253.911 33.5124 254.15 34.4354C254.565 36.038 256.855 36.2204 257.823 34.7281C258.279 34.0257 258.264 33.8388 257.675 32.8612C256.933 31.6276 256.543 31.5506 255.224 32.3769ZM56.8181 32.4653C56.5025 32.9814 56.9415 33.5017 57.6931 33.5017C58.1287 33.5017 58.3567 33.2644 58.3567 32.8108C58.3567 32.0781 57.2123 31.821 56.8181 32.4653ZM85.3683 33.1562C85.3683 33.3462 85.5898 33.5017 85.861 33.5017C86.1321 33.5017 86.4487 33.3462 86.565 33.1562C86.6812 32.9662 86.4593 32.8108 86.0723 32.8108C85.6852 32.8108 85.3683 32.9662 85.3683 33.1562ZM257.154 35.1992C256.872 35.4849 255.824 34.6866 255.709 34.0983C255.525 33.1511 256.813 33.2139 257.085 34.1656C257.22 34.6365 257.251 35.1014 257.154 35.1992ZM42.1064 33.8623C41.985 34.0606 42.0691 34.4458 42.2931 34.7187C42.8186 35.3581 44.0622 34.7678 43.776 34.0147C43.5527 33.4267 42.4353 33.3248 42.1064 33.8623ZM46.0477 34.1926C46.0477 34.3826 46.1923 34.538 46.3694 34.538C46.5465 34.538 46.7862 34.3826 46.9025 34.1926C47.0187 34.0026 46.8737 33.8471 46.5807 33.8471C46.2877 33.8471 46.0477 34.0026 46.0477 34.1926ZM37.073 34.4147C36.6251 35.194 36.4634 37.9452 36.8514 38.1874C37.3787 38.5166 38.2636 37.3199 38.002 36.6311C37.894 36.3465 37.9138 36.2232 38.0461 36.3569C38.3593 36.6729 39.1844 35.5713 39.1984 34.8185C39.2056 34.4455 38.9631 34.2544 38.5255 34.2876C38.1494 34.3163 37.8393 34.5007 37.8365 34.698C37.8334 34.8949 37.6991 34.8451 37.5373 34.5874C37.3756 34.3297 37.1667 34.252 37.073 34.4147ZM49.8878 34.5964C49.4385 35.0503 49.7199 35.9198 50.3165 35.9198C50.5552 35.9198 50.9333 35.6974 51.1566 35.4258C51.4801 35.032 51.4298 34.86 50.9091 34.5784C50.4574 34.3342 50.1418 34.3397 49.8878 34.5964ZM76.6613 34.5187C76.5403 34.7163 76.5765 35.1222 76.742 35.4207C77.0012 35.8888 77.0986 35.8953 77.4484 35.4694C77.7657 35.0832 77.7479 34.8859 77.3677 34.567C77.0384 34.291 76.81 34.2751 76.6613 34.5187ZM135.692 35.0496C135.162 35.6141 134.935 36.2142 135.008 36.8574C135.106 37.7183 135.267 37.8309 136.542 37.9245C137.775 38.0154 137.998 37.9231 138.208 37.2336C138.341 36.7963 138.739 36.16 139.092 35.82C139.445 35.4801 139.733 35.0476 139.733 34.8593C139.733 34.2672 138.724 34.0945 138.135 34.5857C137.694 34.9532 137.539 34.9619 137.427 34.6244C137.206 33.9615 136.566 34.1183 135.692 35.0496ZM174.125 34.851C173.266 35.81 173.535 37.587 174.668 38.4375C175.573 39.1177 175.592 39.1177 176.719 38.4551C177.97 37.72 178.385 36.2038 177.695 34.8994C177.19 33.9473 174.961 33.9173 174.125 34.851ZM39.6223 35.4625C39.2832 35.6 39.2733 35.754 39.5789 36.1261C40.1448 36.8153 40.577 36.7258 40.577 35.9198C40.577 35.2189 40.4149 35.1412 39.6223 35.4625ZM130.641 36.4425C130.377 37.5044 130.992 38.338 132.04 38.338C133.289 38.338 133.77 37.4751 133.098 36.4398C132.333 35.2593 130.934 35.2607 130.641 36.4425ZM68.2724 36.438C68.2724 36.723 68.5031 36.9562 68.7852 36.9562C69.0673 36.9562 69.2981 36.723 69.2981 36.438C69.2981 36.153 69.0673 35.9198 68.7852 35.9198C68.5031 35.9198 68.2724 36.153 68.2724 36.438ZM143.102 36.655C141.682 37.1808 141.52 39.4034 142.815 40.5879C143.385 41.1089 143.514 41.1089 144.507 40.5904C145.098 40.2819 145.667 39.8038 145.771 39.5281C146.036 38.832 145.649 37.4557 145.008 36.8076C144.403 36.1958 144.353 36.1921 143.102 36.655ZM41.6684 36.9821C41.7357 37.1863 41.9371 37.3535 42.1156 37.3535C42.2941 37.3535 42.4955 37.1863 42.5628 36.9821C42.6302 36.7779 42.4292 36.6108 42.1156 36.6108C41.8021 36.6108 41.601 36.7779 41.6684 36.9821ZM43.4337 37.1348C43.3267 37.4167 43.3267 37.8775 43.4337 38.1594C43.6932 38.8424 44.68 38.4365 44.68 37.6471C44.68 36.8578 43.6932 36.4518 43.4337 37.1348ZM59.5839 37.9041C59.083 38.4102 59.4751 38.7184 60.4937 38.6189C61.1051 38.5594 61.6049 38.3725 61.6049 38.2036C61.6049 37.8519 59.8878 37.5974 59.5839 37.9041ZM32.0687 38.555C32.0468 38.9592 31.7982 39.4832 31.5162 39.7198C31.2341 39.9565 31.0033 40.3641 31.0033 40.6256C31.0033 41.2194 31.8259 41.2447 32.4465 40.6698C32.703 40.4325 33.2138 40.066 33.582 39.8556C34.5356 39.3108 34.6519 38.338 33.7636 38.338C33.3738 38.338 33.0548 38.4935 33.0548 38.6835C33.0548 39.2694 32.4304 39.0645 32.2646 38.4244C32.1405 37.9442 32.1002 37.9712 32.0687 38.555ZM128.303 38.5353C127.658 39.1868 127.636 39.45 128.176 39.9962C128.715 40.5406 129.819 40.5292 129.813 39.9789C129.804 39.1612 129.395 37.9926 129.118 37.9926C128.966 37.9926 128.599 38.2368 128.303 38.5353ZM221.732 38.5232C220.702 39.088 220.298 39.9938 220.641 40.9666C221.328 42.9115 223.173 43.4238 224.469 42.0295C225.438 40.987 225.41 40.0352 224.374 38.9066C223.423 37.8696 223.028 37.8122 221.732 38.5232ZM35.3344 39.2593C34.9408 39.6566 35.0851 40.0653 35.6192 40.0653C35.9013 40.0653 36.1321 39.8321 36.1321 39.5471C36.1321 39.0075 35.7276 38.8617 35.3344 39.2593ZM52.4357 39.2535C52.0716 39.6214 52.1615 40.7562 52.5547 40.7562C53.0604 40.7562 53.3787 39.734 52.9941 39.3454C52.8156 39.165 52.5643 39.1236 52.4357 39.2535ZM37.2156 40.1209C37.2778 40.5651 37.5596 40.9289 37.8416 40.9289C38.5833 40.9289 38.481 39.5813 37.7285 39.4348C37.2429 39.3402 37.1277 39.4942 37.2156 40.1209ZM80.7671 40.7324C80.6587 40.9092 80.7267 41.1514 80.9178 41.2709C81.109 41.3901 81.2652 41.2453 81.2652 40.9493C81.2652 40.3423 81.0601 40.2532 80.7671 40.7324ZM125.943 41.332C125.568 41.7107 125.682 42.0513 126.258 42.2748C127.054 42.5833 127.534 42.1701 127.057 41.5891C126.618 41.0543 126.292 40.979 125.943 41.332ZM29.1429 41.7597C29.0174 41.9649 29.054 42.384 29.2243 42.6914C29.504 43.1961 29.5563 43.1909 29.7669 42.6361C30.0339 41.9328 29.4978 41.1794 29.1429 41.7597ZM44.68 41.9653C44.68 42.3549 44.92 42.4969 45.4493 42.4212C45.8726 42.3604 46.2186 42.1553 46.2186 41.9653C46.2186 41.7753 45.8726 41.5701 45.4493 41.5093C44.92 41.4336 44.68 41.5756 44.68 41.9653ZM27.7527 42.289C27.66 42.5857 27.5116 43.0635 27.4227 43.3502C27.3338 43.6369 27.1417 43.8314 26.9953 43.782C26.717 43.6884 26.5583 43.9703 26.5583 44.5589C26.5583 44.7666 26.8322 44.7348 27.236 44.4798C28.0385 43.9734 28.7258 42.2513 28.245 41.9511C28.0669 41.8399 27.8453 41.9919 27.7527 42.289ZM71.9227 42.622C71.8119 42.9135 71.858 43.2376 72.0249 43.3416C72.4718 43.6207 72.851 42.8258 72.4595 42.4302C72.2406 42.2091 72.0543 42.2755 71.9227 42.622ZM30.8757 43.012C30.6241 43.6742 32.0687 44.4031 32.9474 44.0577C33.5198 43.8328 33.5051 43.7623 32.7604 43.1488C31.7873 42.3467 31.1462 42.3 30.8757 43.012ZM152.608 43.1153C151.847 43.9647 151.895 45.0978 152.726 45.938C153.6 46.8206 154.453 46.8133 155.586 45.9128C156.673 45.0495 156.708 44.5873 155.778 43.3937C154.936 42.3107 153.446 42.1798 152.608 43.1153ZM117.765 43.4124C117.112 43.5851 116.974 44.7565 117.509 45.5925C117.691 45.8775 117.842 45.975 117.845 45.8095C117.848 45.6437 118.063 45.6865 118.324 45.9048C118.702 46.2223 118.842 46.1207 119.022 45.3998C119.255 44.4587 119 43.1453 118.597 43.2144C118.468 43.2365 118.094 43.3256 117.765 43.4124ZM119.902 44.3579C119.902 45.359 120.05 45.617 120.722 45.7873C121.173 45.9017 121.904 45.9435 122.346 45.8803C123.015 45.7846 123.15 45.5625 123.15 44.5562C123.15 43.3588 123.134 43.346 121.526 43.2417L119.902 43.1364V44.3579ZM38.3135 44.0214C38.2089 44.2974 38.2225 44.6861 38.3443 44.885C38.7426 45.5362 39.2093 45.2654 39.2093 44.3834C39.2093 43.4469 38.6219 43.2096 38.3135 44.0214ZM63.1962 44.0166C63.2615 44.3333 63.4684 44.5845 63.6565 44.5745C64.1639 44.5472 64.0709 43.7744 63.5381 43.5951C63.2506 43.4984 63.1227 43.6563 63.1962 44.0166ZM24.8488 45.4198C24.8488 45.7048 25.0026 45.938 25.1907 45.938C25.3787 45.938 25.5326 45.7048 25.5326 45.4198C25.5326 45.1348 25.3787 44.9016 25.1907 44.9016C25.0026 44.9016 24.8488 45.1348 24.8488 45.4198ZM54.8141 45.1413C54.4291 45.5303 54.5799 45.938 55.1085 45.938C55.3906 45.938 55.6214 45.7918 55.6214 45.6129C55.6214 45.1773 55.0873 44.8653 54.8141 45.1413ZM125.905 45.6696C125.122 46.7982 125.254 47.8663 126.276 48.6784C127.008 49.2598 127.283 49.3168 127.729 48.9793C129.298 47.7913 129.505 46.8164 128.437 45.6578C127.545 44.6902 126.581 44.6947 125.905 45.6696ZM192.606 45.6177C191.492 46.5024 191.423 47.9005 192.428 49.1918C193.036 49.9732 193.321 50.0841 194.223 49.8896C195.781 49.5531 196.15 49.1224 196.15 47.6366C196.15 46.717 195.92 46.0941 195.401 45.606C194.453 44.7133 193.74 44.7161 192.606 45.6177ZM115.115 45.7231C115.115 45.9846 115.358 46.4023 115.654 46.6506C116.099 47.0237 116.243 47.0213 116.477 46.6379C116.634 46.3826 116.682 45.9649 116.585 45.7103C116.354 45.1002 115.115 45.111 115.115 45.7231ZM22.9682 45.938C22.852 46.128 22.9877 46.2834 23.2698 46.2834C23.5519 46.2834 23.8777 46.128 23.994 45.938C24.1102 45.748 23.9745 45.5925 23.6924 45.5925C23.4103 45.5925 23.0845 45.748 22.9682 45.938ZM26.2164 46.6541C26.2164 47.5395 27.3482 47.439 27.5198 46.5387C27.5988 46.1242 27.4145 45.938 26.9252 45.938C26.4359 45.938 26.2164 46.1598 26.2164 46.6541ZM32.1036 47.0275C32.1877 47.2835 32.531 47.546 32.866 47.612C33.2558 47.688 33.4203 47.5637 33.3222 47.2666C33.2381 47.0106 32.8948 46.7481 32.5597 46.6821C32.1699 46.6061 32.0054 46.7305 32.1036 47.0275ZM47.1121 47.1001C46.8064 47.4721 46.7999 47.667 47.0868 47.8463C47.6167 48.1772 48.1347 47.5913 47.7983 47.0413C47.5805 46.6852 47.4434 46.6969 47.1121 47.1001ZM22.1185 47.2334C22.1216 47.3757 22.2731 47.7257 22.4553 48.0107C22.7234 48.4297 22.7877 48.38 22.7921 47.7516C22.7949 47.3243 22.6434 46.9743 22.4553 46.9743C22.2673 46.9743 22.1158 47.0911 22.1185 47.2334ZM113.976 47.8956C113.582 48.2929 113.726 48.7016 114.26 48.7016C114.542 48.7016 114.773 48.4684 114.773 48.1834C114.773 47.6438 114.369 47.498 113.976 47.8956ZM39.6118 49.2775C39.7779 50.1442 40.577 50.263 40.577 49.4212C40.577 48.997 40.3561 48.7016 40.0391 48.7016C39.7205 48.7016 39.5461 48.9365 39.6118 49.2775ZM26.3491 49.8005C26.2339 49.9891 26.3002 50.3062 26.4968 50.5048C26.891 50.9032 27.926 50.6347 27.926 50.1345C27.926 49.6764 26.5973 49.3949 26.3491 49.8005ZM21.4296 50.0834C21.4296 50.2734 21.6604 50.4289 21.9425 50.4289C22.2245 50.4289 22.4553 50.2734 22.4553 50.0834C22.4553 49.8934 22.2245 49.7379 21.9425 49.7379C21.6604 49.7379 21.4296 49.8934 21.4296 50.0834ZM17.8965 50.6593C17.7711 50.7857 17.6685 51.05 17.6685 51.2465C17.6685 51.4628 17.8278 51.4424 18.073 51.1947C18.2956 50.9698 18.3981 50.7056 18.301 50.6074C18.2039 50.5093 18.0217 50.5325 17.8965 50.6593ZM56.9891 51.0994C56.9891 51.2783 57.1429 51.5205 57.331 51.6379C57.519 51.7554 57.6729 51.6089 57.6729 51.3129C57.6729 51.0168 57.519 50.7743 57.331 50.7743C57.1429 50.7743 56.9891 50.9204 56.9891 51.0994ZM103.974 51.9489C102.593 53.1604 102.513 53.9055 103.841 53.1873C104.278 52.951 105.115 52.8712 105.837 52.9969C108.646 53.4854 108.79 53.4529 108.79 52.3288C108.79 51.3958 108.682 51.2925 107.708 51.2925C107.113 51.2925 106.51 51.1757 106.369 51.0334C105.89 50.5515 105.318 50.7702 103.974 51.9489ZM133.647 51.1888C133.135 51.7063 133.115 53.3541 133.61 54.2882C133.907 54.8493 134.198 54.9501 135.031 54.7819C136.462 54.4924 136.998 53.969 136.998 52.8584C136.998 51.1885 134.754 50.0706 133.647 51.1888ZM32.9266 51.3954C32.6561 51.8373 33.2832 52.6131 33.7003 52.3527C34.2494 52.01 34.1681 51.1198 33.5878 51.1198C33.3167 51.1198 33.0192 51.2438 32.9266 51.3954ZM167.258 52.5689C166.321 53.1051 166.072 53.5462 166.066 54.6772C166.06 55.8932 167.508 57.3428 168.475 57.0871C169.492 56.8184 170.471 55.3868 170.255 54.4838C170.038 53.5787 168.84 52.1516 168.309 52.1665C168.107 52.1724 167.634 52.3533 167.258 52.5689ZM48.783 52.847C48.783 53.037 49.023 53.1925 49.3161 53.1925C49.6091 53.1925 49.7541 53.037 49.6378 52.847C49.5216 52.657 49.2819 52.5016 49.1048 52.5016C48.9276 52.5016 48.783 52.657 48.783 52.847ZM21.3249 53.4132C21.0518 53.6892 21.3605 54.2288 21.7917 54.2288C21.9688 54.2288 22.1134 53.9957 22.1134 53.7107C22.1134 53.1766 21.7099 53.0243 21.3249 53.4132ZM110.397 53.607C109.283 54.7321 110.765 57.3351 112.106 56.61C112.825 56.221 113.403 54.9791 113.162 54.3394C113.078 54.1152 112.537 53.7652 111.96 53.5621C110.694 53.1165 110.888 53.1106 110.397 53.607ZM16.9846 53.8834C16.9846 54.0734 17.1385 54.2288 17.3266 54.2288C17.5146 54.2288 17.6685 54.0734 17.6685 53.8834C17.6685 53.6934 17.5146 53.5379 17.3266 53.5379C17.1385 53.5379 16.9846 53.6934 16.9846 53.8834ZM26.9003 54.0848C26.9003 54.3857 27.0828 54.5705 27.3065 54.4952C27.9404 54.2817 28.0453 53.5379 27.4415 53.5379C27.144 53.5379 26.9003 53.7842 26.9003 54.0848ZM41.0899 53.8834C40.9534 54.1065 40.9955 54.4444 41.1835 54.6344C41.4116 54.8648 41.6082 54.8448 41.7737 54.5743C41.9101 54.3511 41.8681 54.0133 41.68 53.8233C41.452 53.5929 41.2553 53.6129 41.0899 53.8834ZM34.0805 56.4946C34.0805 56.7907 34.2344 56.9372 34.4225 56.8197C34.6105 56.7023 34.7644 56.4601 34.7644 56.2812C34.7644 56.1022 34.6105 55.9561 34.4225 55.9561C34.2344 55.9561 34.0805 56.1986 34.0805 56.4946ZM16.3008 56.9925C16.3008 57.1824 16.4454 57.3379 16.6225 57.3379C16.7997 57.3379 17.0393 57.1824 17.1556 56.9925C17.2719 56.8025 17.1269 56.647 16.8339 56.647C16.5408 56.647 16.3008 56.8025 16.3008 56.9925ZM21.2918 57.284C21.1735 57.4775 21.2432 57.7397 21.4467 57.8668C21.9725 58.195 22.3117 57.7455 21.8727 57.302C21.6272 57.0539 21.4361 57.0481 21.2918 57.284ZM92.0784 57.2681C91.8394 57.6592 92.1758 58.061 93.8389 59.3688C95.0332 60.3081 95.3923 60.4408 95.805 60.0946C96.7271 59.3215 96.3797 58.4703 94.8339 57.7141C93.2843 56.9562 92.3605 56.8066 92.0784 57.2681ZM50.6919 57.6371C50.5446 57.8778 50.5165 58.168 50.6294 58.282C50.9354 58.5912 51.2691 58.1366 51.1036 57.6357C50.988 57.2847 50.9074 57.2847 50.6919 57.6371ZM27.2422 58.7197C27.2422 58.9097 27.396 59.0652 27.5841 59.0652C27.7722 59.0652 27.926 58.9097 27.926 58.7197C27.926 58.5297 27.7722 58.3743 27.5841 58.3743C27.396 58.3743 27.2422 58.5297 27.2422 58.7197ZM42.2866 59.0855C42.2866 59.2866 42.4404 59.3553 42.6285 59.2379C42.8165 59.1204 42.9704 58.956 42.9704 58.8721C42.9704 58.7881 42.8165 58.7197 42.6285 58.7197C42.4404 58.7197 42.2866 58.8845 42.2866 59.0855ZM116.336 59.6079C115.522 60.4304 115.671 61.7283 116.654 62.3788C117.446 62.9028 117.571 62.9028 118.363 62.3788C119.57 61.5801 119.557 59.869 118.341 59.402C117.169 58.9519 116.965 58.9726 116.336 59.6079ZM16.2369 60.3375C16.4834 60.4373 16.7785 60.4249 16.892 60.3102C17.0055 60.1955 16.8038 60.114 16.4434 60.1288C16.0451 60.1454 15.964 60.2273 16.2369 60.3375ZM34.0805 60.7924C34.0805 60.9824 34.3975 61.1379 34.7846 61.1379C35.1716 61.1379 35.3935 60.9824 35.2773 60.7924C35.161 60.6024 34.8444 60.447 34.5732 60.447C34.3021 60.447 34.0805 60.6024 34.0805 60.7924ZM144.335 61.2843C143.843 62.0419 143.842 62.2198 144.32 63.1529C144.978 64.4383 145.468 64.6245 146.633 64.0307C147.83 63.4203 148.143 62.367 147.447 61.2937C146.699 60.1413 145.079 60.1364 144.335 61.2843ZM21.0877 61.1379C21.0877 61.3279 21.3185 61.4833 21.6005 61.4833C21.8826 61.4833 22.1134 61.3279 22.1134 61.1379C22.1134 60.9479 21.8826 60.7924 21.6005 60.7924C21.3185 60.7924 21.0877 60.9479 21.0877 61.1379ZM96.8673 61.7787C96.2125 62.5097 96.4279 63.4379 97.319 63.7236C98.6658 64.1554 99.6772 63.0223 99.0316 61.8039C98.5851 60.9607 97.6103 60.9496 96.8673 61.7787ZM81.6071 62.4776C81.6071 63.4732 82.3269 64.4407 82.7499 64.0138C83.1188 63.6407 83.0053 62.3432 82.5645 61.8979C81.9056 61.2322 81.6071 61.4129 81.6071 62.4776ZM215.622 62.1919C214.841 62.9809 214.962 63.9081 215.981 64.9375C216.574 65.5369 216.636 65.5355 217.668 64.9013C219.122 64.0079 219.3 63.3429 218.358 62.3293C217.399 61.2975 216.549 61.2547 215.622 62.1919ZM27.2422 62.6924C27.2422 62.9774 27.396 63.2106 27.5841 63.2106C27.7722 63.2106 27.926 62.9774 27.926 62.6924C27.926 62.4074 27.7722 62.1742 27.5841 62.1742C27.396 62.1742 27.2422 62.4074 27.2422 62.6924ZM34.3086 64.1319C33.9151 64.5292 34.0593 64.9379 34.5934 64.9379C34.8755 64.9379 35.1063 64.7047 35.1063 64.4197C35.1063 63.8801 34.7018 63.7343 34.3086 64.1319ZM20.4038 64.5924C21.0668 65.0253 21.4296 65.0253 21.4296 64.5924C21.4296 64.4024 21.0836 64.2494 20.6603 64.2521C20.0383 64.2566 19.9891 64.3216 20.4038 64.5924ZM82.519 64.8228C82.1005 65.2453 82.2845 66.3387 82.8083 66.5418C83.4792 66.8019 84.3425 66.0699 84.3425 65.2412C84.3425 64.7918 84.0973 64.5924 83.5448 64.5924C83.1058 64.5924 82.6442 64.696 82.519 64.8228ZM71.1787 66.6651C70.9304 68.4895 71.0477 68.9672 71.6522 68.5897C72.0092 68.3668 71.9839 65.4637 71.6218 65.0975C71.5107 64.9856 71.3113 65.6909 71.1787 66.6651ZM51.6893 65.6288C51.5731 65.8188 51.6411 65.9742 51.8401 65.9742C52.0391 65.9742 52.2022 65.8188 52.2022 65.6288C52.2022 65.4388 52.1345 65.2833 52.0514 65.2833C51.9683 65.2833 51.8056 65.4388 51.6893 65.6288ZM26.49 66.3887C26.809 66.7111 26.9916 66.7111 27.3106 66.3887C27.6296 66.0664 27.5386 65.9742 26.9003 65.9742C26.2619 65.9742 26.171 66.0664 26.49 66.3887ZM42.2866 66.8379C42.2866 67.1228 42.4404 67.356 42.6285 67.356C42.8165 67.356 42.9704 67.1228 42.9704 66.8379C42.9704 66.5529 42.8165 66.3197 42.6285 66.3197C42.4404 66.3197 42.2866 66.5529 42.2866 66.8379ZM101.353 67.3837C100.062 68.1433 101 70.4164 102.417 69.9621C103.573 69.5911 103.983 68.8304 103.547 67.8638C103.143 66.9667 102.355 66.7943 101.353 67.3837ZM185.615 67.7149C184.726 68.5516 184.664 69.4858 185.419 70.6499C186.059 71.6379 186.567 71.7029 187.961 70.9743C189.304 70.2727 189.354 68.7485 188.068 67.7267C186.943 66.8323 186.554 66.8302 185.615 67.7149ZM19.3781 67.7015C19.3781 67.8915 19.5319 68.0469 19.72 68.0469C19.908 68.0469 20.0619 67.8915 20.0619 67.7015C20.0619 67.5115 19.908 67.356 19.72 67.356C19.5319 67.356 19.3781 67.5115 19.3781 67.7015ZM33.4712 67.7547C33.6487 68.2929 34.4136 68.3869 34.4406 67.8742C34.4505 67.6842 34.2019 67.4752 33.8884 67.4092C33.5318 67.335 33.3755 67.4642 33.4712 67.7547ZM51.1764 68.3924C51.1764 68.5824 51.4165 68.7378 51.7095 68.7378C52.0025 68.7378 52.1475 68.5824 52.0312 68.3924C51.915 68.2024 51.6753 68.0469 51.4982 68.0469C51.3211 68.0469 51.1764 68.2024 51.1764 68.3924ZM60.4178 68.3793C59.9867 68.6546 59.999 68.7333 60.5033 68.9289C61.2046 69.2007 62.1178 68.9037 62.1178 68.4031C62.1178 67.9613 61.0941 67.9468 60.4178 68.3793ZM125.107 68.5848C124.127 69.2778 124.148 70.0402 125.181 71.3287C125.983 72.3292 126.045 72.3468 126.975 71.8362C128.132 71.2002 128.458 69.4861 127.589 68.6083C126.89 67.9025 126.082 67.8949 125.107 68.5848ZM84.0006 68.7261C83.2586 69.2145 83.9896 70.2623 85.1713 70.4043C86.0117 70.5052 86.0918 70.4209 85.9919 69.5407C85.8726 68.4894 84.9395 68.1081 84.0006 68.7261ZM25.1907 69.0833C25.1907 69.2733 25.5076 69.4287 25.8947 69.4287C26.2817 69.4287 26.5036 69.2733 26.3874 69.0833C26.2711 68.8933 25.9545 68.7378 25.6834 68.7378C25.4122 68.7378 25.1907 68.8933 25.1907 69.0833ZM41.6684 69.8001C41.7357 70.0042 41.9371 70.1715 42.1156 70.1715C42.2941 70.1715 42.4955 70.0042 42.5628 69.8001C42.6302 69.5959 42.4292 69.4287 42.1156 69.4287C41.8021 69.4287 41.601 69.5959 41.6684 69.8001ZM17.6685 70.6378C17.6685 70.9228 17.8223 71.156 18.0104 71.156C18.1984 71.156 18.3523 70.9228 18.3523 70.6378C18.3523 70.3528 18.1984 70.1197 18.0104 70.1197C17.8223 70.1197 17.6685 70.3528 17.6685 70.6378ZM71.7168 70.4427C70.713 70.7021 70.4309 71.3367 71.1889 71.6303C72.1429 72.0003 73.6463 70.8234 72.8028 70.3674C72.6615 70.291 72.173 70.3249 71.7168 70.4427ZM32.5419 70.8106C32.4055 71.0337 32.4475 71.3716 32.6356 71.5615C32.8637 71.792 33.0603 71.7719 33.2257 71.5015C33.3622 71.2783 33.3201 70.9405 33.1321 70.7505C32.904 70.52 32.7074 70.5401 32.5419 70.8106ZM50.3552 71.0648C49.9883 71.4355 50.1397 71.8469 50.6434 71.8469C50.9145 71.8469 51.2212 71.7077 51.3252 71.5377C51.5426 71.1819 50.6632 70.7532 50.3552 71.0648ZM59.8441 71.3395C59.6017 71.9775 60.2239 72.5243 61.2015 72.5326C61.6521 72.5364 61.7933 72.3236 61.7144 71.7606C61.5786 70.7967 60.1706 70.4796 59.8441 71.3395ZM24.0046 71.6027C23.8582 71.9433 23.8346 72.3191 23.9516 72.4376C24.299 72.7883 24.579 72.2957 24.419 71.6148C24.2774 71.0113 24.2589 71.0109 24.0046 71.6027ZM10.4882 72.1924C10.4882 72.3824 10.6421 72.5378 10.8301 72.5378C11.0182 72.5378 11.172 72.3824 11.172 72.1924C11.172 72.0024 11.0182 71.8469 10.8301 71.8469C10.6421 71.8469 10.4882 72.0024 10.4882 72.1924ZM40.4047 72.5402C40.2874 72.7316 40.4388 72.9841 40.7411 73.1012C41.3955 73.3548 41.7604 73.0754 41.4458 72.561C41.162 72.0967 40.6816 72.0873 40.4047 72.5402ZM15.5031 72.7682C15.1096 73.1655 15.2539 73.5742 15.7879 73.5742C16.07 73.5742 16.3008 73.341 16.3008 73.056C16.3008 72.5164 15.8963 72.3706 15.5031 72.7682ZM3.64984 73.9196C3.64984 74.1096 3.81293 74.2651 4.01193 74.2651C4.21092 74.2651 4.27896 74.1096 4.16271 73.9196C4.04646 73.7296 3.88371 73.5742 3.80062 73.5742C3.71754 73.5742 3.64984 73.7296 3.64984 73.9196ZM31.1212 74.1072C31.0098 74.4005 31.0046 74.7269 31.1093 74.8326C31.4088 75.1353 32.029 74.6223 32.029 74.072C32.029 73.4091 31.3767 73.4346 31.1212 74.1072ZM49.7021 74.1428C49.2179 74.6316 49.4918 75.3014 50.1757 75.3014C50.6537 75.3014 50.8485 75.1139 50.774 74.7256C50.6519 74.0896 50.0683 73.7725 49.7021 74.1428ZM158.752 74.4437C157.884 75.3218 158.035 76.9689 159.026 77.4253C160.932 78.3027 162.722 76.8073 161.885 75.0358C161.346 73.8923 159.621 73.5662 158.752 74.4437ZM7.75285 74.6105C7.75285 74.8005 7.90672 74.956 8.09477 74.956C8.28282 74.956 8.43669 74.8005 8.43669 74.6105C8.43669 74.4205 8.28282 74.2651 8.09477 74.2651C7.90672 74.2651 7.75285 74.4205 7.75285 74.6105ZM59.7244 75.261C59.7244 75.6386 60.0366 75.9941 60.4677 76.1081C61.4111 76.3575 61.7759 76.1267 61.7759 75.2811C61.7759 74.7663 61.5376 74.6105 60.7502 74.6105C59.9737 74.6105 59.7244 74.7684 59.7244 75.261ZM72.4383 75.5605C72.5159 76.2438 72.7385 76.5105 73.2302 76.5105C73.7218 76.5105 73.9444 76.2438 74.022 75.5605C74.1161 74.737 74.0104 74.6105 73.2302 74.6105C72.4499 74.6105 72.3442 74.737 72.4383 75.5605ZM87.6564 74.8527C87.2167 74.9678 87.0686 75.2804 87.1435 75.9353C87.2303 76.6943 87.4437 76.875 88.36 76.9641C89.3304 77.0588 89.4713 76.9689 89.4713 76.2559C89.4713 75.4925 88.8856 74.5604 88.4626 74.6506C88.3593 74.6727 87.9962 74.7636 87.6564 74.8527ZM21.7811 75.2883C21.3479 75.565 21.3574 75.6407 21.8501 75.8317C22.4776 76.0749 23.1392 75.7923 23.1392 75.2811C23.1392 74.8676 22.4338 74.871 21.7811 75.2883ZM0.572573 75.6469C0.264505 75.848 0.222107 75.9837 0.466921 75.9872C0.690877 75.9899 0.969198 75.8369 1.08545 75.6469C1.3477 75.2178 1.2294 75.2178 0.572573 75.6469ZM39.5512 76.5105C39.5512 77.0557 39.7444 77.3742 40.0747 77.3742C40.7893 77.3742 41.1309 76.3399 40.5414 75.9626C39.7721 75.4707 39.5512 75.5927 39.5512 76.5105ZM13.1552 76.4069C13.4742 76.7292 13.6567 76.7292 13.9758 76.4069C14.2948 76.0846 14.2038 75.9923 13.5655 75.9923C12.9271 75.9923 12.8361 76.0846 13.1552 76.4069ZM107.334 76.392C106.794 76.9378 106.786 78.1483 107.319 78.6869C107.545 78.9149 108.157 79.1014 108.681 79.1014C110.484 79.1014 110.392 76.2867 108.582 76.0639C108.129 76.0082 107.568 76.1557 107.334 76.392ZM29.69 77.8263C29.2253 78.3919 29.5036 78.756 30.4015 78.756C30.8262 78.756 31.0149 78.5553 30.9428 78.1801C30.7957 77.4135 30.1734 77.2377 29.69 77.8263ZM49.0111 78.2955C48.6418 78.6686 48.7475 79.0137 49.2959 79.2265C49.9992 79.4991 50.8345 79.1297 50.8345 78.5463C50.8345 78.0578 49.4368 77.8654 49.0111 78.2955ZM20.1474 79.5332C20.2257 79.7709 20.4951 79.965 20.7457 79.965C20.9964 79.965 21.2658 79.7709 21.3441 79.5332C21.4289 79.2762 21.1865 79.1014 20.7457 79.1014C20.305 79.1014 20.0626 79.2762 20.1474 79.5332ZM61.434 80.3796C61.434 80.8363 61.3427 80.8746 61.0237 80.5523C60.4209 79.9433 60.0663 80.0455 60.0663 80.8287C60.0663 81.2087 60.2588 81.5217 60.4937 81.5244C60.729 81.5269 61.2671 81.6229 61.6904 81.7372C62.3678 81.9207 62.4597 81.817 62.4597 80.8691C62.4597 80.1422 62.2929 79.7923 61.9469 79.7923C61.6648 79.7923 61.434 80.0566 61.434 80.3796ZM10.6592 80.4832C10.7754 80.6732 11.169 80.8287 11.5341 80.8287C11.8993 80.8287 12.1978 80.6732 12.1978 80.4832C12.1978 80.2932 11.8039 80.1378 11.3228 80.1378C10.8267 80.1378 10.5391 80.2874 10.6592 80.4832ZM39.0719 80.7375C38.9594 80.8508 38.8674 81.2401 38.8674 81.6025C38.8674 82.4143 40.0046 82.3003 40.1626 81.4726C40.2699 80.9095 39.449 80.3561 39.0719 80.7375ZM136.653 80.9448C135.444 81.5645 135.087 82.3532 135.552 83.3833C136.337 85.1258 139.049 84.6929 139.049 82.8251C139.049 81.179 137.922 80.2946 136.653 80.9448ZM74.6368 81.7024C73.9561 82.3901 74.2963 83.2468 75.2499 83.2468C76.4401 83.2468 76.9215 82.5508 76.2496 81.8008C75.5658 81.037 75.3107 81.0215 74.6368 81.7024ZM28.774 83.2579C28.6413 83.4748 28.6936 83.8151 28.8902 84.0137C29.3498 84.478 30.421 84.0732 30.234 83.5056C30.0439 82.9284 29.0762 82.7639 28.774 83.2579ZM49.6741 84.4849C49.4481 85.0798 49.9869 86.0105 50.5572 86.0105C51.0075 86.0105 50.7504 84.1927 50.2782 84.0362C50.0662 83.9661 49.7944 84.1682 49.6741 84.4849ZM91.7642 84.6349C91.5963 85.2822 92.2736 86.3559 92.8494 86.3559C93.5989 86.3559 94.3265 85.3904 94.106 84.6888C93.7856 83.6683 92.0247 83.6275 91.7642 84.6349ZM19.2611 84.5164C18.793 84.9893 19.0628 85.665 19.72 85.665C20.0961 85.665 20.4038 85.5285 20.4038 85.3617C20.4038 84.9088 19.52 84.2549 19.2611 84.5164ZM9.46244 86.0105C9.46244 86.2005 9.69324 86.3559 9.97532 86.3559C10.2574 86.3559 10.4882 86.2005 10.4882 86.0105C10.4882 85.8205 10.2574 85.665 9.97532 85.665C9.69324 85.665 9.46244 85.8205 9.46244 86.0105ZM0.0596957 87.0468C-0.0565565 87.2368 0.00225471 87.3923 0.19031 87.3923C0.378365 87.3923 0.62728 87.2368 0.743532 87.0468C0.859784 86.8568 0.800973 86.7014 0.612918 86.7014C0.424863 86.7014 0.175948 86.8568 0.0596957 87.0468ZM209.228 87.2873C208.805 87.3716 208.459 87.659 208.459 87.9267C208.459 88.277 208.843 88.391 209.833 88.3343C210.839 88.277 211.182 88.1181 211.111 87.7415C211.007 87.1847 210.436 87.0469 209.228 87.2873ZM62.8871 87.621C62.3274 87.8493 62.3418 88.5903 62.9152 89.0715C63.252 89.3538 63.5382 89.3296 64.0134 88.9782C64.5595 88.5751 64.5875 88.4197 64.2001 87.9478C63.7235 87.3674 63.5901 87.3342 62.8871 87.621ZM39.1071 87.956C38.5699 88.4988 38.9115 89.1195 39.7472 89.1195C40.3988 89.1195 40.5975 88.9637 40.5127 88.5188C40.3927 87.8901 39.5188 87.5401 39.1071 87.956ZM115.299 89.0788C115.008 90.0049 115.792 91.1923 116.694 91.1923C117.641 91.1923 118.274 90.4029 118.133 89.3977C118.043 88.7558 117.778 88.581 116.768 88.496C115.764 88.4114 115.472 88.5274 115.299 89.0788ZM28.7247 90.3518C28.4553 91.0613 28.9962 91.5916 29.6028 91.2126C30.1194 90.89 29.8814 89.8104 29.2937 89.8104C29.0937 89.8104 28.8379 90.054 28.7247 90.3518ZM78.0639 90.9421C77.6966 91.2133 77.552 91.6075 77.6881 91.9654C77.9363 92.6193 79.0267 93.077 79.5526 92.7489C80.0959 92.4093 79.955 90.9429 79.3566 90.7111C78.6687 90.4444 78.7597 90.4281 78.0639 90.9421ZM176.917 91.7996C176.399 92.1236 175.977 92.4694 175.978 92.5679C175.979 92.6663 176.345 93.208 176.791 93.7714C177.531 94.7055 177.683 94.7594 178.509 94.379C179.705 93.8284 179.937 93.1054 179.254 92.0531C178.6 91.0444 178.193 91.0006 176.917 91.7996ZM18.3523 92.5371C18.3523 92.9399 19.3511 93.3227 19.7508 93.0729C20.3536 92.6967 20.052 92.2286 19.2071 92.2286C18.737 92.2286 18.3523 92.3675 18.3523 92.5371ZM50.8345 93.0553C50.8345 94.0947 51.7348 94.4927 52.181 93.6505C52.4056 93.2263 52.3851 92.8971 52.1177 92.6269C51.4643 91.9667 50.8345 92.1768 50.8345 93.0553ZM8.77861 93.9559C8.77861 94.1459 9.0094 94.3013 9.29148 94.3013C9.57357 94.3013 9.80436 94.1459 9.80436 93.9559C9.80436 93.7659 9.57357 93.6104 9.29148 93.6104C9.0094 93.6104 8.77861 93.7659 8.77861 93.9559ZM98.408 95.5508C97.9279 95.8904 97.678 96.3751 97.7433 96.8394C97.8281 97.4391 98.0804 97.5831 99.045 97.5831C99.9917 97.5831 100.263 97.4349 100.342 96.8732C100.398 96.4825 100.158 95.9028 99.8102 95.5847C99.2313 95.0554 99.1116 95.0527 98.408 95.5508ZM39.9509 97.1206C40.0132 97.5648 40.2949 97.9286 40.577 97.9286C41.3186 97.9286 41.2164 96.581 40.4638 96.4345C39.9783 96.3399 39.8631 96.4939 39.9509 97.1206ZM65.2453 97.3669C64.8795 97.6049 64.8665 97.8263 65.1828 98.4236C65.7148 99.4278 66.7337 99.2161 66.7337 98.1013C66.7337 97.1983 66.0345 96.8532 65.2453 97.3669ZM149.707 97.3582C149.45 97.5279 149.301 98.092 149.365 98.6571C149.465 99.5398 149.613 99.6558 150.637 99.6558C152.026 99.6558 152.763 98.7877 152.177 97.8422C151.758 97.1662 150.402 96.9005 149.707 97.3582ZM29.1891 99.7039C28.8324 100.064 29.2841 100.519 29.9977 100.519C30.3629 100.519 30.6614 100.286 30.6614 100.001C30.6614 99.489 29.6117 99.2769 29.1891 99.7039ZM19.2546 102.141C18.8696 102.53 19.0204 102.938 19.549 102.938C19.8311 102.938 20.0619 102.792 20.0619 102.613C20.0619 102.177 19.5278 101.865 19.2546 102.141ZM82.1378 102.563C81.828 103.07 82.5679 104.665 83.113 104.665C84.0214 104.665 84.7227 103.656 84.3299 102.914C83.9667 102.228 82.4873 101.992 82.1378 102.563ZM52.5441 103.068C52.5441 103.33 52.7814 103.743 53.0714 103.986C53.7213 104.531 54.4489 103.95 54.1388 103.134C53.8855 102.466 52.5441 102.412 52.5441 103.068ZM126.064 103.275C125.308 104.039 125.457 104.847 126.451 105.384C127.941 106.19 129.2 104.827 128.279 103.407C127.634 102.413 126.958 102.373 126.064 103.275ZM9.12052 103.822C9.12052 104.118 9.27678 104.262 9.46791 104.143C9.65904 104.024 9.72709 103.782 9.6187 103.605C9.32568 103.126 9.12052 103.215 9.12052 103.822ZM41.2608 107.754C41.2608 108.616 41.9323 109.04 42.3194 108.423C42.8183 107.628 42.6658 107.083 41.9447 107.083C41.4957 107.083 41.2608 107.314 41.2608 107.754ZM68.2724 109.315C68.2724 110.333 69.2051 110.893 69.6742 110.156C70.1611 109.391 69.8708 108.647 69.0382 108.527C68.4132 108.437 68.2724 108.582 68.2724 109.315ZM104.876 109.652C103.833 110.922 105.882 112.355 107.075 111.191C107.608 110.671 107.674 110.399 107.383 109.928C106.895 109.141 105.428 108.98 104.876 109.652ZM30.4764 111.252C30.1618 111.766 30.5266 112.045 31.1811 111.792C31.4833 111.675 31.6348 111.422 31.5175 111.231C31.2406 110.778 30.7602 110.787 30.4764 111.252ZM20.0619 113.992C20.0619 114.182 20.2158 114.338 20.4038 114.338C20.5919 114.338 20.7457 114.182 20.7457 113.992C20.7457 113.802 20.5919 113.647 20.4038 113.647C20.2158 113.647 20.0619 113.802 20.0619 113.992ZM54.838 114.899C54.7047 115.033 54.5956 115.283 54.5956 115.454C54.5956 115.876 56.3073 115.636 56.4013 115.201C56.4895 114.794 55.1902 114.543 54.838 114.899ZM9.46244 116.065C9.46244 116.255 9.61631 116.41 9.80436 116.41C9.99242 116.41 10.1463 116.255 10.1463 116.065C10.1463 115.875 9.99242 115.719 9.80436 115.719C9.61631 115.719 9.46244 115.875 9.46244 116.065ZM87.2016 116.238C86.9021 117.026 87.3209 117.792 88.0509 117.792C88.8804 117.792 89.608 116.923 89.3492 116.242C89.0924 115.566 87.4577 115.563 87.2016 116.238ZM165.719 116.76C165.719 117.203 166.745 117.46 167.627 117.236C168.921 116.908 168.598 116.452 167.087 116.473C166.334 116.483 165.719 116.612 165.719 116.76ZM42.7981 119.867C42.6808 120.059 42.8323 120.311 43.1345 120.428C43.789 120.682 44.1538 120.402 43.8392 119.888C43.5554 119.424 43.075 119.414 42.7981 119.867ZM138.48 120.471C137.596 120.62 137.137 121.591 137.756 122C138.491 122.486 140.229 122.171 140.349 121.529C140.479 120.839 139.519 120.296 138.48 120.471ZM71.4077 122.342C71.483 122.878 71.7862 123.185 72.3172 123.261C72.9802 123.356 73.0951 123.24 73.0011 122.57C72.9258 122.033 72.6226 121.727 72.0916 121.651C71.4286 121.556 71.3137 121.672 71.4077 122.342ZM31.3452 124.01C31.3452 124.2 31.576 124.356 31.8581 124.356C32.1402 124.356 32.371 124.2 32.371 124.01C32.371 123.82 32.1402 123.665 31.8581 123.665C31.576 123.665 31.3452 123.82 31.3452 124.01ZM112.814 125.647C112.53 126.396 113.872 127.581 114.701 127.315C115.524 127.051 115.96 126.107 115.482 125.625C114.938 125.075 113.025 125.09 112.814 125.647ZM56.8113 127.821C56.6786 128.038 56.7309 128.378 56.9275 128.577C57.387 129.041 58.4583 128.637 58.2712 128.069C58.0811 127.492 57.1135 127.327 56.8113 127.821ZM91.9868 130.751C91.7074 131.486 92.4798 132.301 93.456 132.301C94.427 132.301 94.8527 131.47 94.2544 130.742C93.7059 130.074 92.2415 130.08 91.9868 130.751ZM44.2297 132.526C43.8656 132.894 43.9555 134.028 44.3487 134.028C44.8544 134.028 45.1727 133.006 44.788 132.618C44.6096 132.437 44.3583 132.396 44.2297 132.526ZM74.1985 136.301C74.0846 136.6 74.2118 137.068 74.4812 137.34C74.8967 137.76 75.0676 137.764 75.6092 137.363C76.4052 136.775 76.0893 135.756 75.1107 135.756C74.7226 135.756 74.3123 136.001 74.1985 136.301ZM32.029 137.828C32.029 138.018 32.1829 138.174 32.371 138.174C32.559 138.174 32.7129 138.018 32.7129 137.828C32.7129 137.638 32.559 137.483 32.371 137.483C32.1829 137.483 32.029 137.638 32.029 137.828ZM153.239 141.283C153.123 141.473 153.268 141.628 153.561 141.628C153.854 141.628 154.094 141.473 154.094 141.283C154.094 141.093 153.949 140.937 153.772 140.937C153.595 140.937 153.355 141.093 153.239 141.283ZM151.7 141.628C151.7 141.818 151.845 141.974 152.022 141.974C152.199 141.974 152.439 141.818 152.555 141.628C152.671 141.438 152.526 141.283 152.233 141.283C151.94 141.283 151.7 141.438 151.7 141.628ZM58.0104 142.152C57.5081 142.763 57.8568 143.356 58.7188 143.356C59.1421 143.356 59.3825 143.119 59.3825 142.702C59.3825 141.866 58.527 141.523 58.0104 142.152ZM122.329 144.179C122.025 144.549 122.06 144.705 122.486 144.87C123.274 145.175 124.098 145.124 124.689 144.732C125.145 144.43 125.145 144.354 124.689 144.052C123.95 143.561 122.784 143.624 122.329 144.179ZM44.0645 147.225C43.8389 147.453 43.6542 147.764 43.6542 147.916C43.6542 148.327 44.6044 148.25 44.8694 147.816C45.2216 147.241 44.5426 146.742 44.0645 147.225ZM96.8133 147.862C96.4823 148.403 97.3142 149.228 98.1902 149.228C99.0662 149.228 99.8981 148.403 99.5671 147.862C99.4457 147.663 98.8261 147.501 98.1902 147.501C97.5542 147.501 96.9347 147.663 96.8133 147.862ZM31.1742 151.646C31.058 151.836 31.126 151.992 31.325 151.992C31.524 151.992 31.6871 151.836 31.6871 151.646C31.6871 151.456 31.6194 151.301 31.5363 151.301C31.4532 151.301 31.2905 151.456 31.1742 151.646ZM75.7945 152.303C75.7945 153.102 76.9629 153.871 77.7257 153.574C78.0225 153.459 78.19 153.051 78.1264 152.598C78.0427 152.001 77.7582 151.794 76.9058 151.711C75.9823 151.621 75.7945 151.721 75.7945 152.303ZM57.3214 156.667C56.9354 157.137 56.9402 157.277 57.3529 157.545C58.1054 158.034 58.8696 157.76 58.8696 157.001C58.8696 156.137 57.9245 155.933 57.3214 156.667ZM41.6027 161.639C41.6027 162.134 41.8223 162.355 42.3115 162.355C42.8008 162.355 42.9851 162.169 42.9061 161.755C42.7345 160.854 41.6027 160.754 41.6027 161.639ZM27.5841 165.637C27.5841 165.954 27.7496 166.157 27.9517 166.089C28.1537 166.021 28.3192 165.818 28.3192 165.637C28.3192 165.457 28.1537 165.253 27.9517 165.185C27.7496 165.117 27.5841 165.321 27.5841 165.637ZM102.008 166.731C101.883 166.858 101.78 167.174 101.78 167.434C101.78 167.795 101.938 167.822 102.442 167.549C102.805 167.353 103.507 167.192 104 167.192C104.512 167.192 104.807 167.043 104.687 166.846C104.451 166.461 102.364 166.371 102.008 166.731ZM78.0847 168.793C77.9654 168.914 77.5168 169.03 77.0877 169.052C76.6394 169.075 76.3074 169.313 76.3074 169.61C76.3074 169.981 76.6815 170.128 77.6221 170.128C79.0681 170.128 79.3197 169.946 79.0072 169.123C78.788 168.546 78.4492 168.425 78.0847 168.793ZM55.3649 171.947C54.3426 172.119 54.3853 172.983 55.4402 173.468C56.7873 174.088 58.0589 172.75 56.7326 172.108C56.4033 171.949 55.7882 171.877 55.3649 171.947ZM36.5977 176.001C36.2866 176.82 36.9191 177.284 37.9801 177.014C39.1878 176.708 39.0298 175.695 37.7514 175.546C37.1257 175.473 36.7403 175.625 36.5977 176.001ZM21.4296 179.974C21.4296 180.354 21.5646 180.664 21.7298 180.664C22.178 180.664 22.8253 179.771 22.5665 179.51C22.0984 179.037 21.4296 179.31 21.4296 179.974ZM7.75285 183.448C7.75285 183.65 7.90672 183.718 8.09477 183.601C8.28282 183.483 8.43669 183.319 8.43669 183.235C8.43669 183.151 8.28282 183.083 8.09477 183.083C7.90672 183.083 7.75285 183.247 7.75285 183.448ZM30.993 193.081C31.1889 193.451 31.5018 193.849 31.6888 193.965C32.1706 194.266 32.1125 193.323 31.6187 192.824C30.9804 192.179 30.5984 192.336 30.993 193.081ZM28.9518 193.619C28.9518 193.904 29.2014 194.137 29.5064 194.137C29.9608 194.137 29.9844 194.044 29.6356 193.619C29.4014 193.334 29.1518 193.101 29.081 193.101C29.0099 193.101 28.9518 193.334 28.9518 193.619ZM11.6849 195.864C11.5618 196.065 11.9027 196.21 12.4994 196.21C13.0635 196.21 13.6202 196.054 13.7364 195.864C13.8595 195.663 13.5186 195.519 12.922 195.519C12.3578 195.519 11.8012 195.674 11.6849 195.864Z" fill="url(#paint0_radial_2_1786)" fill-opacity="0.2"/>
<defs>
<radialGradient id="paint0_radial_2_1786" cx="0" cy="0" r="1" gradientTransform="matrix(-134.392 52.6126 -57.1692 -148.398 134.392 37.0134)" gradientUnits="userSpaceOnUse">
<stop stop-color="#474747"/>
<stop offset="1" stop-color="#D5D5D5" stop-opacity="0"/>
</radialGradient>
</defs>
</svg>
