<svg width="24" height="24" viewBox="0 0 24 24" fill="none" xmlns="http://www.w3.org/2000/svg">
<g clip-path="url(#clip0_2_1992)">
<path d="M23.6692 4.66407C23.389 4.32854 22.9768 4.14076 22.5085 4.14076H2.54884C2.23417 4.14076 1.94021 4.23118 1.68723 4.3809L0.72498 3.41996C0.55909 3.25407 0.290309 3.25477 0.124418 3.42071C-0.0414727 3.58665 -0.0414727 3.85566 0.124418 4.02155L1.11151 4.98437C0.961652 5.23777 0.898652 5.53233 0.898652 5.84766V7.96618C0.898652 8.90434 1.61148 9.66188 2.54818 9.66188H3.03034C3.33559 10.7236 3.5807 12.4165 2.6042 14.1257C1.26165 16.4748 0.801293 18.1149 1.15529 19.2836C1.33946 19.892 1.74423 20.3544 2.35829 20.6614C2.41717 20.6908 2.48228 20.7041 2.54823 20.7041H7.64462C7.85218 20.7041 8.02951 20.5568 8.0635 20.3519C8.29492 18.9637 8.62239 17.1976 8.96579 15.6065C9.38242 15.5733 15.8122 14.9706 16.521 9.66183H21.6597C22.5728 9.66183 23.416 8.96162 23.5794 8.06373L23.9734 5.89627C24.0557 5.44383 23.9448 4.99463 23.6692 4.66407ZM12.2149 13.8868C10.95 14.4662 9.6947 14.6712 9.16032 14.7359C9.50664 13.2304 9.85379 12.0031 10.1215 11.6011C10.3264 11.2938 10.6341 10.8997 11.0294 10.4373C11.0717 10.7861 11.1876 11.1861 11.463 11.5216C11.8404 11.982 12.4132 12.2156 13.1657 12.2156C13.4003 12.2156 13.5904 12.0257 13.5904 11.7909C13.5904 11.5562 13.4003 11.3663 13.1657 11.3663C12.6817 11.3663 12.3307 11.2386 12.1223 10.9864C11.7444 10.5293 11.8796 9.76885 11.8836 9.74687C11.8892 9.71907 11.8916 9.66193 11.8916 9.66193H15.6629C15.3743 11.5731 14.2161 12.9711 12.2149 13.8868ZM23.1377 5.7473L22.7437 7.91199C22.6546 8.40137 22.1583 8.81251 21.6598 8.81251H16.1422C16.1393 8.81251 16.1368 8.81251 16.1343 8.81251H11.5242C11.4054 8.81251 11.2921 8.86505 11.2117 8.95257C10.3768 9.8596 9.77228 10.5902 9.41476 11.1264C8.61864 12.3205 7.5677 18.2621 7.28565 19.8547H2.65337C2.29979 19.6424 2.0754 19.3901 1.9682 19.0363C1.69426 18.1318 2.1565 16.6226 3.34164 14.5485C4.58256 12.3768 4.12426 10.2019 3.74064 9.09952C3.68134 8.92908 3.52042 8.81251 3.33957 8.81251H2.54823C2.07976 8.81251 1.74807 8.43615 1.74807 7.96623V5.84766C1.74807 5.37774 2.08018 4.99018 2.54884 4.99018H22.5085C22.7205 4.99018 22.9011 5.0693 23.017 5.20824C23.1325 5.34676 23.1754 5.53993 23.1377 5.7473Z" fill="white"/>
<path d="M21.7087 5.8396H8.54297V6.68902H21.7087V5.8396Z" fill="white"/>
</g>
<defs>
<clipPath id="clip0_2_1992">
<rect width="24" height="24" fill="white"/>
</clipPath>
</defs>
</svg>
