<svg width="141" height="38" viewBox="0 0 141 38" fill="none" xmlns="http://www.w3.org/2000/svg">
<path d="M115 26V0H134.933C135.848 0 136.679 0.228704 137.425 0.686111C138.195 1.14352 138.809 1.75741 139.267 2.52778C139.724 3.27407 139.953 4.10463 139.953 5.01944V10.1111C139.953 10.4241 139.929 10.725 139.881 11.0139C139.832 11.3028 139.748 11.5796 139.628 11.8444C140.037 12.3981 140.362 12.9759 140.603 13.5778C140.868 14.1796 141 14.7815 141 15.3833V20.9806C141 21.8954 140.771 22.738 140.314 23.5083C139.856 24.2546 139.243 24.8565 138.472 25.3139C137.702 25.7713 136.859 26 135.944 26H115ZM120.2 21.1972H135.728C135.848 21.1972 135.956 21.1611 136.053 21.0889C136.149 20.9926 136.197 20.8843 136.197 20.7639V15.6C136.197 15.4796 136.149 15.3833 136.053 15.3111C135.956 15.2148 135.848 15.1667 135.728 15.1667H120.2C120.08 15.1667 119.971 15.2148 119.875 15.3111C119.803 15.3833 119.767 15.4796 119.767 15.6V20.7639C119.767 20.8843 119.803 20.9926 119.875 21.0889C119.971 21.1611 120.08 21.1972 120.2 21.1972ZM120.2 10.3639H134.717C134.837 10.3639 134.933 10.3278 135.006 10.2556C135.078 10.1593 135.114 10.0509 135.114 9.93056V5.23611C135.114 5.11574 135.078 5.01944 135.006 4.94722C134.933 4.85093 134.837 4.80278 134.717 4.80278H120.2C120.08 4.80278 119.971 4.85093 119.875 4.94722C119.803 5.01944 119.767 5.11574 119.767 5.23611V9.93056C119.767 10.0509 119.803 10.1593 119.875 10.2556C119.971 10.3278 120.08 10.3639 120.2 10.3639Z" fill="white"/>
<path d="M81.0194 26C80.1046 26 79.262 25.7713 78.4917 25.3139C77.7454 24.8565 77.1435 24.2546 76.6861 23.5083C76.2287 22.738 76 21.8954 76 20.9806V0H80.7667V20.7639C80.7667 20.8843 80.8028 20.9926 80.875 21.0889C80.9713 21.1611 81.0796 21.1972 81.2 21.1972H96.7278C96.8481 21.1972 96.9565 21.1611 97.0528 21.0889C97.1491 20.9926 97.1972 20.8843 97.1972 20.7639V0H102V20.9806C102 21.8954 101.771 22.738 101.314 23.5083C100.856 24.2546 100.243 24.8565 99.4722 25.3139C98.7259 25.7713 97.8954 26 96.9806 26H81.0194Z" fill="white"/>
<path d="M39 26V0H43.7667V21.2039H65V26H39Z" fill="white"/>
<path d="M5.03343 26C4.11606 26 3.27112 25.7713 2.49861 25.3139C1.75023 24.8565 1.1467 24.2546 0.688022 23.5083C0.229341 22.738 0 21.8954 0 20.9806V5.01944C0 4.10463 0.229341 3.27407 0.688022 2.52778C1.1467 1.75741 1.75023 1.14352 2.49861 0.686111C3.27112 0.228704 4.11606 0 5.03343 0H26V4.80278H6.04735C5.6611 4.80278 5.34726 4.91111 5.10585 5.12778C4.88858 5.34445 4.77994 5.65741 4.77994 6.06667V19.9333C4.77994 20.3185 4.88858 20.6315 5.10585 20.8722C5.34726 21.0889 5.6611 21.1972 6.04735 21.1972H26V26H5.03343Z" fill="white"/>
<path d="M0 36H141V38H0V36Z" fill="#C9022D"/>
</svg>
