<svg width="24" height="24" viewBox="0 0 24 24" fill="none" xmlns="http://www.w3.org/2000/svg">
<g clip-path="url(#clip0_2_2250)">
<rect width="24" height="24" rx="4.5" fill="url(#paint0_linear_2_2250)"/>
<path d="M9.0075 15.25C8.6655 15.25 8.3505 15.1645 8.0625 14.9935C7.7835 14.8225 7.5585 14.5975 7.3875 14.3185C7.2165 14.0305 7.131 13.7155 7.131 13.3735V7.4065C7.131 7.0645 7.2165 6.754 7.3875 6.475C7.5585 6.187 7.7835 5.9575 8.0625 5.7865C8.3505 5.6155 8.6655 5.53 9.0075 5.53H16.824V7.3255H9.3855C9.2415 7.3255 9.1245 7.366 9.0345 7.447C8.9535 7.528 8.913 7.645 8.913 7.798V12.982C8.913 13.126 8.9535 13.243 9.0345 13.333C9.1245 13.414 9.2415 13.4545 9.3855 13.4545H16.824V15.25H9.0075Z" fill="white"/>
<g filter="url(#filter0_d_2_2250)">
<rect x="6.375" y="17.875" width="11.25" height="1.125" fill="white"/>
</g>
</g>
<rect x="0.642857" y="0.642857" width="22.7143" height="22.7143" rx="3.64286" stroke="#630116" stroke-width="1.28571"/>
<defs>
<filter id="filter0_d_2_2250" x="-6.70814" y="4.79186" width="37.4163" height="27.2913" filterUnits="userSpaceOnUse" color-interpolation-filters="sRGB">
<feFlood flood-opacity="0" result="BackgroundImageFix"/>
<feColorMatrix in="SourceAlpha" type="matrix" values="0 0 0 0 0 0 0 0 0 0 0 0 0 0 0 0 0 0 127 0" result="hardAlpha"/>
<feOffset/>
<feGaussianBlur stdDeviation="6.54157"/>
<feComposite in2="hardAlpha" operator="out"/>
<feColorMatrix type="matrix" values="0 0 0 0 0.788235 0 0 0 0 0.00784314 0 0 0 0 0.176471 0 0 0 0.4 0"/>
<feBlend mode="normal" in2="BackgroundImageFix" result="effect1_dropShadow_2_2250"/>
<feBlend mode="normal" in="SourceGraphic" in2="effect1_dropShadow_2_2250" result="shape"/>
</filter>
<linearGradient id="paint0_linear_2_2250" x1="12" y1="0" x2="12" y2="24" gradientUnits="userSpaceOnUse">
<stop stop-color="#C9022D"/>
<stop offset="1" stop-color="#630116"/>
</linearGradient>
<clipPath id="clip0_2_2250">
<rect width="24" height="24" rx="4.28571" fill="white"/>
</clipPath>
</defs>
</svg>
