<svg width="24" height="19" viewBox="0 0 24 19" fill="none" xmlns="http://www.w3.org/2000/svg">
<path d="M20.317 1.575C18.7873 0.845999 17.147 0.308906 15.4319 0.00129041C15.4007 -0.00464648 15.3695 0.0101901 15.3534 0.039864C15.1424 0.429575 14.9087 0.937984 14.7451 1.33759C12.9004 1.05075 11.0652 1.05075 9.25832 1.33759C9.09465 0.929101 8.85248 0.429575 8.64057 0.039864C8.62449 0.0111802 8.59328 -0.00365641 8.56205 0.00129041C6.84791 0.307923 5.20756 0.845016 3.67693 1.575C3.66368 1.58093 3.65233 1.59083 3.64479 1.60368C0.533392 6.43162 -0.31895 11.1409 0.0991801 15.7918C0.101072 15.8145 0.11337 15.8363 0.130398 15.8501C2.18321 17.4159 4.17171 18.3665 6.12328 18.9965C6.15451 19.0064 6.18761 18.9946 6.20748 18.9679C6.66913 18.3131 7.08064 17.6227 7.43348 16.8966C7.4543 16.8541 7.43442 16.8036 7.39186 16.7868C6.73913 16.5297 6.1176 16.2161 5.51973 15.86C5.47244 15.8313 5.46865 15.7611 5.51216 15.7275C5.63797 15.6295 5.76382 15.5277 5.88396 15.4248C5.90569 15.406 5.93598 15.402 5.96153 15.4139C9.88928 17.2765 14.1415 17.2765 18.023 15.4139C18.0485 15.4011 18.0788 15.405 18.1015 15.4238C18.2216 15.5267 18.3475 15.6295 18.4742 15.7275C18.5177 15.7611 18.5149 15.8313 18.4676 15.86C17.8697 16.223 17.2482 16.5297 16.5945 16.7858C16.552 16.8027 16.533 16.8541 16.5538 16.8966C16.9143 17.6216 17.3258 18.3121 17.7789 18.9669C17.7978 18.9946 17.8319 19.0064 17.8631 18.9965C19.8241 18.3665 21.8126 17.4159 23.8654 15.8501C23.8834 15.8363 23.8948 15.8155 23.8967 15.7928C24.3971 10.4158 23.0585 5.74517 20.3482 1.60466C20.3416 1.59083 20.3303 1.58093 20.317 1.575ZM8.02002 12.9599C6.8375 12.9599 5.86313 11.8323 5.86313 10.4475C5.86313 9.0627 6.8186 7.93511 8.02002 7.93511C9.23087 7.93511 10.1958 9.0726 10.1769 10.4475C10.1769 11.8323 9.22141 12.9599 8.02002 12.9599ZM15.9947 12.9599C14.8123 12.9599 13.8379 11.8323 13.8379 10.4475C13.8379 9.0627 14.7933 7.93511 15.9947 7.93511C17.2056 7.93511 18.1705 9.0726 18.1516 10.4475C18.1516 11.8323 17.2056 12.9599 15.9947 12.9599Z" fill="#8A8A9A"/>
</svg>
